<svg width="528" height="239" viewBox="0 0 528 239" fill="none" xmlns="http://www.w3.org/2000/svg">
<g clip-path="url(#clip0_15_186)">
<rect width="528" height="239" fill="url(#paint0_linear_15_186)"/>
<g opacity="0.35">
<path fill-rule="evenodd" clip-rule="evenodd" d="M-8.14582 -5.61764L1.82102 -15.5845C2.4596 -16.2231 3.53697 -16.2561 4.19651 -15.5966L19.5309 -0.262252C20.1904 0.397267 20.1573 1.47466 19.5187 2.11324L9.5519 12.0801C8.91332 12.7187 7.83592 12.7517 7.1764 12.0922L-8.15795 -3.24215C-8.81749 -3.90169 -8.7844 -4.97906 -8.14582 -5.61764Z" fill="#4B75A4"/>
<path d="M-6.70516 0.913683L-5.82951 2.34416L-8.65948 5.17413L0.94958 14.7832L-0.298862 16.0316L-9.90792 6.42257L-12.8211 9.33574L-13.7522 7.9607L-6.70516 0.913683Z" fill="white"/>
<path d="M8.34164 7.39114L-2.42049 -3.37099L-3.82938 -1.9621L6.93275 8.80003L8.34164 7.39114Z" fill="#FEFEFE"/>
<path d="M6.19835 -11.9899L7.1028 -10.5882L4.25734 -7.74275L13.8664 1.86631L12.4852 3.24752L2.87613 -6.36154L-0.0245201 -3.46089L-0.928968 -4.86257L6.19835 -11.9899Z" fill="#FEFEFE"/>
</g>
<g opacity="0.35">
<path fill-rule="evenodd" clip-rule="evenodd" d="M-5.14582 142.382L4.82102 132.416C5.4596 131.777 6.53697 131.744 7.19651 132.403L22.5309 147.738C23.1904 148.397 23.1573 149.475 22.5187 150.113L12.5519 160.08C11.9133 160.719 10.8359 160.752 10.1764 160.092L-5.15795 144.758C-5.81749 144.098 -5.7844 143.021 -5.14582 142.382Z" fill="#4B75A4"/>
<path d="M-3.70516 148.914L-2.82951 150.344L-5.65948 153.174L3.94958 162.783L2.70114 164.032L-6.90792 154.423L-9.82109 157.336L-10.7522 155.961L-3.70516 148.914Z" fill="white"/>
<path d="M11.3416 155.391L0.579514 144.629L-0.829376 146.038L9.93275 156.8L11.3416 155.391Z" fill="#FEFEFE"/>
<path d="M9.19835 136.01L10.1028 137.412L7.25734 140.257L16.8664 149.866L15.4852 151.248L5.87613 141.638L2.97548 144.539L2.07103 143.137L9.19835 136.01Z" fill="#FEFEFE"/>
<path d="M19.7877 137.171L22.5066 134.452C21.1032 133.659 19.3695 132.703 16.3975 131.062C17.9285 133.814 18.9129 135.575 19.7877 137.171ZM24.1301 135.355L20.7177 138.767L20.6627 138.712C21.4008 140.061 22.1937 141.464 23.2873 143.445L21.7614 144.971L14.273 130.935L16.3539 128.855L30.3899 136.343L28.7806 137.952C26.6618 136.776 25.3685 136.038 24.1301 135.355Z" fill="white"/>
<path fill-rule="evenodd" clip-rule="evenodd" d="M25.2438 119.805L23.997 121.052L30.7106 136.022L31.9851 134.748L25.2438 119.805Z" fill="#4B75A4"/>
<path fill-rule="evenodd" clip-rule="evenodd" d="M35.0887 128.527L36.9254 119.801L27.762 121.201L26.2037 119.642L37.4076 118.171L38.6925 119.456L36.647 130.086L35.0887 128.527Z" fill="#4B75A4"/>
</g>
<g opacity="0.35">
<path fill-rule="evenodd" clip-rule="evenodd" d="M-8.14582 67.3824L1.82102 57.4155C2.4596 56.7769 3.53697 56.7439 4.19651 57.4034L19.5309 72.7377C20.1904 73.3973 20.1573 74.4747 19.5187 75.1132L9.5519 85.0801C8.91332 85.7187 7.83592 85.7517 7.1764 85.0922L-8.15795 69.7579C-8.81749 69.0983 -8.7844 68.0209 -8.14582 67.3824Z" fill="#4B75A4"/>
<path d="M-6.70516 73.9137L-5.82951 75.3442L-8.65948 78.1741L0.94958 87.7832L-0.298862 89.0316L-9.90792 79.4226L-12.8211 82.3357L-13.7522 80.9607L-6.70516 73.9137Z" fill="white"/>
<path d="M8.34164 80.3911L-2.42049 69.629L-3.82938 71.0379L6.93275 81.8L8.34164 80.3911Z" fill="#FEFEFE"/>
<path d="M6.19835 61.0101L7.1028 62.4118L4.25734 65.2572L13.8664 74.8663L12.4852 76.2475L2.87613 66.6385L-0.0245201 69.5391L-0.928968 68.1374L6.19835 61.0101Z" fill="#FEFEFE"/>
<path d="M16.7877 62.1713L19.5066 59.4524C18.1032 58.6594 16.3695 57.7025 13.3975 56.0622C14.9285 58.8141 15.9129 60.5753 16.7877 62.1713ZM21.1301 60.3547L17.7177 63.7672L17.6627 63.7122C18.4008 65.0608 19.1937 66.4641 20.2873 68.4454L18.7614 69.9714L11.273 55.9355L13.3539 53.8546L27.3899 61.3429L25.7806 62.9521C23.6618 61.7765 22.3685 61.038 21.1301 60.3547Z" fill="white"/>
<path fill-rule="evenodd" clip-rule="evenodd" d="M22.2438 44.8052L20.997 46.0519L27.7106 61.022L28.9851 59.7475L22.2438 44.8052Z" fill="#4B75A4"/>
<path fill-rule="evenodd" clip-rule="evenodd" d="M32.0887 53.5274L33.9254 44.8014L24.762 46.2007L23.2037 44.6425L34.4076 43.171L35.6925 44.4559L33.647 55.0857L32.0887 53.5274Z" fill="#4B75A4"/>
</g>
<g opacity="0.35">
<path fill-rule="evenodd" clip-rule="evenodd" d="M-5.14582 215.382L4.82102 205.416C5.4596 204.777 6.53697 204.744 7.19651 205.403L22.5309 220.738C23.1904 221.397 23.1573 222.475 22.5187 223.113L12.5519 233.08C11.9133 233.719 10.8359 233.752 10.1764 233.092L-5.15795 217.758C-5.81749 217.098 -5.7844 216.021 -5.14582 215.382Z" fill="#4B75A4"/>
<path d="M-3.70516 221.914L-2.82951 223.344L-5.65948 226.174L3.94958 235.783L2.70114 237.032L-6.90792 227.423L-9.82109 230.336L-10.7522 228.961L-3.70516 221.914Z" fill="white"/>
<path d="M11.3416 228.391L0.579514 217.629L-0.829376 219.038L9.93275 229.8L11.3416 228.391Z" fill="#FEFEFE"/>
<path d="M9.19835 209.01L10.1028 210.412L7.25734 213.257L16.8664 222.866L15.4852 224.248L5.87613 214.638L2.97548 217.539L2.07103 216.137L9.19835 209.01Z" fill="#FEFEFE"/>
<path d="M19.7877 210.171L22.5066 207.452C21.1032 206.659 19.3695 205.703 16.3975 204.062C17.9285 206.814 18.9129 208.575 19.7877 210.171ZM24.1301 208.355L20.7177 211.767L20.6627 211.712C21.4008 213.061 22.1937 214.464 23.2873 216.445L21.7614 217.971L14.273 203.935L16.3539 201.855L30.3899 209.343L28.7806 210.952C26.6618 209.776 25.3685 209.038 24.1301 208.355Z" fill="white"/>
<path fill-rule="evenodd" clip-rule="evenodd" d="M25.2438 192.805L23.997 194.052L30.7106 209.022L31.9851 207.748L25.2438 192.805Z" fill="#4B75A4"/>
<path fill-rule="evenodd" clip-rule="evenodd" d="M35.0887 201.527L36.9254 192.801L27.762 194.201L26.2037 192.642L37.4076 191.171L38.6925 192.456L36.647 203.086L35.0887 201.527Z" fill="#4B75A4"/>
</g>
<g opacity="0.35">
<path fill-rule="evenodd" clip-rule="evenodd" d="M275.854 -5.61764L285.821 -15.5845C286.46 -16.2231 287.537 -16.2561 288.197 -15.5966L303.531 -0.262252C304.19 0.397267 304.157 1.47466 303.519 2.11324L293.552 12.0801C292.913 12.7187 291.836 12.7517 291.176 12.0922L275.842 -3.24215C275.183 -3.90169 275.216 -4.97906 275.854 -5.61764Z" fill="#4B75A4"/>
<path d="M258.262 19.9464L269.024 30.7085L267.748 31.9848L256.986 21.2227L258.262 19.9464Z" fill="white"/>
<path d="M268.749 9.45901L279.512 20.2211L277.209 22.524L263.684 17.4893C267.009 20.3144 270.056 23.5275 273.13 26.6024L271.715 28.0173L260.953 17.2552L263.201 15.0079L276.78 20.0423C273.483 17.2998 270.355 13.894 267.334 10.874L268.749 9.45901Z" fill="white"/>
<path d="M277.295 0.913683L278.17 2.34416L275.341 5.17413L284.95 14.7832L283.701 16.0316L274.092 6.42257L271.179 9.33574L270.248 7.9607L277.295 0.913683Z" fill="white"/>
<path d="M292.342 7.39114L281.58 -3.37099L280.171 -1.9621L290.933 8.80003L292.342 7.39114Z" fill="#FEFEFE"/>
<path d="M290.198 -11.9899L291.103 -10.5882L288.257 -7.74275L297.866 1.86631L296.485 3.24752L286.876 -6.36154L283.975 -3.46089L283.071 -4.86257L290.198 -11.9899Z" fill="#FEFEFE"/>
</g>
<g opacity="0.35">
<path fill-rule="evenodd" clip-rule="evenodd" d="M278.854 142.382L288.821 132.416C289.46 131.777 290.537 131.744 291.197 132.403L306.531 147.738C307.19 148.397 307.157 149.475 306.519 150.113L296.552 160.08C295.913 160.719 294.836 160.752 294.176 160.092L278.842 144.758C278.183 144.098 278.216 143.021 278.854 142.382Z" fill="#4B75A4"/>
<path d="M261.262 167.946L272.024 178.709L270.748 179.985L259.986 169.223L261.262 167.946Z" fill="white"/>
<path d="M271.749 157.459L282.512 168.221L280.209 170.524L266.684 165.489C270.009 168.314 273.056 171.528 276.13 174.602L274.715 176.017L263.953 165.255L266.201 163.008L279.78 168.042C276.483 165.3 273.355 161.894 270.334 158.874L271.749 157.459Z" fill="white"/>
<path d="M280.295 148.914L281.17 150.344L278.341 153.174L287.95 162.783L286.701 164.032L277.092 154.423L274.179 157.336L273.248 155.961L280.295 148.914Z" fill="white"/>
<path d="M295.342 155.391L284.58 144.629L283.171 146.038L293.933 156.8L295.342 155.391Z" fill="#FEFEFE"/>
<path d="M293.198 136.01L294.103 137.412L291.257 140.257L300.866 149.866L299.485 151.248L289.876 141.638L286.975 144.539L286.071 143.137L293.198 136.01Z" fill="#FEFEFE"/>
<path d="M303.788 137.171L306.507 134.452C305.103 133.659 303.37 132.703 300.398 131.062C301.929 133.814 302.913 135.575 303.788 137.171ZM308.13 135.355L304.718 138.767L304.663 138.712C305.401 140.061 306.194 141.464 307.287 143.445L305.761 144.971L298.273 130.935L300.354 128.855L314.39 136.343L312.781 137.952C310.662 136.776 309.368 136.038 308.13 135.355Z" fill="white"/>
<path fill-rule="evenodd" clip-rule="evenodd" d="M309.244 119.805L307.997 121.052L314.711 136.022L315.985 134.748L309.244 119.805Z" fill="#4B75A4"/>
<path fill-rule="evenodd" clip-rule="evenodd" d="M319.089 128.527L320.925 119.801L311.762 121.201L310.204 119.642L321.408 118.171L322.693 119.456L320.647 130.086L319.089 128.527Z" fill="#4B75A4"/>
</g>
<g opacity="0.35">
<path fill-rule="evenodd" clip-rule="evenodd" d="M275.854 67.3824L285.821 57.4155C286.46 56.7769 287.537 56.7439 288.197 57.4034L303.531 72.7377C304.19 73.3973 304.157 74.4747 303.519 75.1132L293.552 85.0801C292.913 85.7187 291.836 85.7517 291.176 85.0922L275.842 69.7579C275.183 69.0983 275.216 68.0209 275.854 67.3824Z" fill="#4B75A4"/>
<path d="M258.262 92.9464L269.024 103.709L267.748 104.985L256.986 94.2227L258.262 92.9464Z" fill="white"/>
<path d="M268.749 82.459L279.512 93.2211L277.209 95.524L263.684 90.4893C267.009 93.3144 270.056 96.5275 273.13 99.6024L271.715 101.017L260.953 90.2552L263.201 88.0079L276.78 93.0423C273.483 90.2998 270.355 86.894 267.334 83.874L268.749 82.459Z" fill="white"/>
<path d="M277.295 73.9137L278.17 75.3442L275.341 78.1741L284.95 87.7832L283.701 89.0316L274.092 79.4226L271.179 82.3357L270.248 80.9607L277.295 73.9137Z" fill="white"/>
<path d="M292.342 80.3911L281.58 69.629L280.171 71.0379L290.933 81.8L292.342 80.3911Z" fill="#FEFEFE"/>
<path d="M290.198 61.0101L291.103 62.4118L288.257 65.2572L297.866 74.8663L296.485 76.2475L286.876 66.6385L283.975 69.5391L283.071 68.1374L290.198 61.0101Z" fill="#FEFEFE"/>
<path d="M300.788 62.1713L303.507 59.4524C302.103 58.6594 300.37 57.7025 297.398 56.0622C298.929 58.8141 299.913 60.5753 300.788 62.1713ZM305.13 60.3547L301.718 63.7672L301.663 63.7122C302.401 65.0608 303.194 66.4641 304.287 68.4454L302.761 69.9714L295.273 55.9355L297.354 53.8546L311.39 61.3429L309.781 62.9521C307.662 61.7765 306.368 61.038 305.13 60.3547Z" fill="white"/>
<path fill-rule="evenodd" clip-rule="evenodd" d="M306.244 44.8052L304.997 46.0519L311.711 61.022L312.985 59.7475L306.244 44.8052Z" fill="#4B75A4"/>
<path fill-rule="evenodd" clip-rule="evenodd" d="M316.089 53.5274L317.925 44.8014L308.762 46.2007L307.204 44.6425L318.408 43.171L319.693 44.4559L317.647 55.0857L316.089 53.5274Z" fill="#4B75A4"/>
</g>
<g opacity="0.35">
<path fill-rule="evenodd" clip-rule="evenodd" d="M278.854 215.382L288.821 205.416C289.46 204.777 290.537 204.744 291.197 205.403L306.531 220.738C307.19 221.397 307.157 222.475 306.519 223.113L296.552 233.08C295.913 233.719 294.836 233.752 294.176 233.092L278.842 217.758C278.183 217.098 278.216 216.021 278.854 215.382Z" fill="#4B75A4"/>
<path d="M271.749 230.459L282.512 241.221L280.209 243.524L266.684 238.489C270.009 241.314 273.056 244.528 276.13 247.602L274.715 249.017L263.953 238.255L266.201 236.008L279.78 241.042C276.483 238.3 273.355 234.894 270.334 231.874L271.749 230.459Z" fill="white"/>
<path d="M280.295 221.914L281.17 223.344L278.341 226.174L287.95 235.783L286.701 237.032L277.092 227.423L274.179 230.336L273.248 228.961L280.295 221.914Z" fill="white"/>
<path d="M295.342 228.391L284.58 217.629L283.171 219.038L293.933 229.8L295.342 228.391Z" fill="#FEFEFE"/>
<path d="M293.198 209.01L294.103 210.412L291.257 213.257L300.866 222.866L299.485 224.248L289.876 214.638L286.975 217.539L286.071 216.137L293.198 209.01Z" fill="#FEFEFE"/>
<path d="M303.788 210.171L306.507 207.452C305.103 206.659 303.37 205.703 300.398 204.062C301.929 206.814 302.913 208.575 303.788 210.171ZM308.13 208.355L304.718 211.767L304.663 211.712C305.401 213.061 306.194 214.464 307.287 216.445L305.761 217.971L298.273 203.935L300.354 201.855L314.39 209.343L312.781 210.952C310.662 209.776 309.368 209.038 308.13 208.355Z" fill="white"/>
<path fill-rule="evenodd" clip-rule="evenodd" d="M309.244 192.805L307.997 194.052L314.711 209.022L315.985 207.748L309.244 192.805Z" fill="#4B75A4"/>
<path fill-rule="evenodd" clip-rule="evenodd" d="M319.089 201.527L320.925 192.801L311.762 194.201L310.204 192.642L321.408 191.171L322.693 192.456L320.647 203.086L319.089 201.527Z" fill="#4B75A4"/>
</g>
<g opacity="0.35">
<path fill-rule="evenodd" clip-rule="evenodd" d="M133.854 -6.61764L143.821 -16.5845C144.46 -17.2231 145.537 -17.2561 146.197 -16.5966L161.531 -1.26225C162.19 -0.602733 162.157 0.474658 161.519 1.11324L151.552 11.0801C150.913 11.7187 149.836 11.7517 149.176 11.0922L133.842 -4.24215C133.183 -4.90169 133.216 -5.97906 133.854 -6.61764Z" fill="#4B75A4"/>
<path d="M116.262 18.9464L127.024 29.7085L125.748 30.9848L114.986 20.2227L116.262 18.9464Z" fill="white"/>
<path d="M126.749 8.45901L137.512 19.2211L135.209 21.524L121.684 16.4893C125.009 19.3144 128.056 22.5275 131.13 25.6024L129.715 27.0173L118.953 16.2552L121.201 14.0079L134.78 19.0423C131.483 16.2998 128.355 12.894 125.334 9.874L126.749 8.45901Z" fill="white"/>
<path d="M135.295 -0.0863166L136.17 1.34416L133.341 4.17413L142.95 13.7832L141.701 15.0316L132.092 5.42257L129.179 8.33574L128.248 6.9607L135.295 -0.0863166Z" fill="white"/>
<path d="M150.342 6.39114L139.58 -4.37099L138.171 -2.9621L148.933 7.80003L150.342 6.39114Z" fill="#FEFEFE"/>
<path d="M148.198 -12.9899L149.103 -11.5882L146.257 -8.74275L155.866 0.86631L154.485 2.24752L144.876 -7.36154L141.975 -4.46089L141.071 -5.86257L148.198 -12.9899Z" fill="#FEFEFE"/>
</g>
<g opacity="0.35">
<path fill-rule="evenodd" clip-rule="evenodd" d="M136.854 141.382L146.821 131.416C147.46 130.777 148.537 130.744 149.197 131.403L164.531 146.738C165.19 147.397 165.157 148.475 164.519 149.113L154.552 159.08C153.913 159.719 152.836 159.752 152.176 159.092L136.842 143.758C136.183 143.098 136.216 142.021 136.854 141.382Z" fill="#4B75A4"/>
<path d="M119.262 166.946L130.024 177.709L128.748 178.985L117.986 168.223L119.262 166.946Z" fill="white"/>
<path d="M129.749 156.459L140.512 167.221L138.209 169.524L124.684 164.489C128.009 167.314 131.056 170.528 134.13 173.602L132.715 175.017L121.953 164.255L124.201 162.008L137.78 167.042C134.483 164.3 131.355 160.894 128.334 157.874L129.749 156.459Z" fill="white"/>
<path d="M138.295 147.914L139.17 149.344L136.341 152.174L145.95 161.783L144.701 163.032L135.092 153.423L132.179 156.336L131.248 154.961L138.295 147.914Z" fill="white"/>
<path d="M153.342 154.391L142.58 143.629L141.171 145.038L151.933 155.8L153.342 154.391Z" fill="#FEFEFE"/>
<path d="M151.198 135.01L152.103 136.412L149.257 139.257L158.866 148.866L157.485 150.248L147.876 140.638L144.975 143.539L144.071 142.137L151.198 135.01Z" fill="#FEFEFE"/>
<path d="M161.788 136.171L164.507 133.452C163.103 132.659 161.37 131.703 158.398 130.062C159.929 132.814 160.913 134.575 161.788 136.171ZM166.13 134.355L162.718 137.767L162.663 137.712C163.401 139.061 164.194 140.464 165.287 142.445L163.761 143.971L156.273 129.935L158.354 127.855L172.39 135.343L170.781 136.952C168.662 135.776 167.368 135.038 166.13 134.355Z" fill="white"/>
<path fill-rule="evenodd" clip-rule="evenodd" d="M167.244 118.805L165.997 120.052L172.711 135.022L173.985 133.748L167.244 118.805Z" fill="#4B75A4"/>
<path fill-rule="evenodd" clip-rule="evenodd" d="M177.089 127.527L178.925 118.801L169.762 120.201L168.204 118.642L179.408 117.171L180.693 118.456L178.647 129.086L177.089 127.527Z" fill="#4B75A4"/>
</g>
<g opacity="0.35">
<path fill-rule="evenodd" clip-rule="evenodd" d="M133.854 66.3824L143.821 56.4155C144.46 55.7769 145.537 55.7439 146.197 56.4034L161.531 71.7377C162.19 72.3973 162.157 73.4747 161.519 74.1132L151.552 84.0801C150.913 84.7187 149.836 84.7517 149.176 84.0922L133.842 68.7579C133.183 68.0983 133.216 67.0209 133.854 66.3824Z" fill="#4B75A4"/>
<path d="M116.262 91.9464L127.024 102.709L125.748 103.985L114.986 93.2227L116.262 91.9464Z" fill="white"/>
<path d="M126.749 81.459L137.512 92.2211L135.209 94.524L121.684 89.4893C125.009 92.3144 128.056 95.5275 131.13 98.6024L129.715 100.017L118.953 89.2552L121.201 87.0079L134.78 92.0423C131.483 89.2998 128.355 85.894 125.334 82.874L126.749 81.459Z" fill="white"/>
<path d="M135.295 72.9137L136.17 74.3442L133.341 77.1741L142.95 86.7832L141.701 88.0316L132.092 78.4226L129.179 81.3357L128.248 79.9607L135.295 72.9137Z" fill="white"/>
<path d="M150.342 79.3911L139.58 68.629L138.171 70.0379L148.933 80.8L150.342 79.3911Z" fill="#FEFEFE"/>
<path d="M148.198 60.0101L149.103 61.4118L146.257 64.2572L155.866 73.8663L154.485 75.2475L144.876 65.6385L141.975 68.5391L141.071 67.1374L148.198 60.0101Z" fill="#FEFEFE"/>
<path d="M158.788 61.1713L161.507 58.4524C160.103 57.6594 158.37 56.7025 155.398 55.0622C156.929 57.8141 157.913 59.5753 158.788 61.1713ZM163.13 59.3547L159.718 62.7672L159.663 62.7122C160.401 64.0608 161.194 65.4641 162.287 67.4454L160.761 68.9714L153.273 54.9355L155.354 52.8546L169.39 60.3429L167.781 61.9521C165.662 60.7765 164.368 60.038 163.13 59.3547Z" fill="white"/>
<path fill-rule="evenodd" clip-rule="evenodd" d="M164.244 43.8052L162.997 45.0519L169.711 60.022L170.985 58.7475L164.244 43.8052Z" fill="#4B75A4"/>
<path fill-rule="evenodd" clip-rule="evenodd" d="M174.089 52.5274L175.925 43.8014L166.762 45.2007L165.204 43.6425L176.408 42.171L177.693 43.4559L175.647 54.0857L174.089 52.5274Z" fill="#4B75A4"/>
</g>
<g opacity="0.35">
<path fill-rule="evenodd" clip-rule="evenodd" d="M136.854 214.382L146.821 204.416C147.46 203.777 148.537 203.744 149.197 204.403L164.531 219.738C165.19 220.397 165.157 221.475 164.519 222.113L154.552 232.08C153.913 232.719 152.836 232.752 152.176 232.092L136.842 216.758C136.183 216.098 136.216 215.021 136.854 214.382Z" fill="#4B75A4"/>
<path d="M129.749 229.459L140.512 240.221L138.209 242.524L124.684 237.489C128.009 240.314 131.056 243.528 134.13 246.602L132.715 248.017L121.953 237.255L124.201 235.008L137.78 240.042C134.483 237.3 131.355 233.894 128.334 230.874L129.749 229.459Z" fill="white"/>
<path d="M138.295 220.914L139.17 222.344L136.341 225.174L145.95 234.783L144.701 236.032L135.092 226.423L132.179 229.336L131.248 227.961L138.295 220.914Z" fill="white"/>
<path d="M153.342 227.391L142.58 216.629L141.171 218.038L151.933 228.8L153.342 227.391Z" fill="#FEFEFE"/>
<path d="M151.198 208.01L152.103 209.412L149.257 212.257L158.866 221.866L157.485 223.248L147.876 213.638L144.975 216.539L144.071 215.137L151.198 208.01Z" fill="#FEFEFE"/>
<path d="M161.788 209.171L164.507 206.452C163.103 205.659 161.37 204.703 158.398 203.062C159.929 205.814 160.913 207.575 161.788 209.171ZM166.13 207.355L162.718 210.767L162.663 210.712C163.401 212.061 164.194 213.464 165.287 215.445L163.761 216.971L156.273 202.935L158.354 200.855L172.39 208.343L170.781 209.952C168.662 208.776 167.368 208.038 166.13 207.355Z" fill="white"/>
<path fill-rule="evenodd" clip-rule="evenodd" d="M167.244 191.805L165.997 193.052L172.711 208.022L173.985 206.748L167.244 191.805Z" fill="#4B75A4"/>
<path fill-rule="evenodd" clip-rule="evenodd" d="M177.089 200.527L178.925 191.801L169.762 193.201L168.204 191.642L179.408 190.171L180.693 191.456L178.647 202.086L177.089 200.527Z" fill="#4B75A4"/>
</g>
<g opacity="0.35">
<path fill-rule="evenodd" clip-rule="evenodd" d="M417.854 -6.61764L427.821 -16.5845C428.46 -17.2231 429.537 -17.2561 430.197 -16.5966L445.531 -1.26225C446.19 -0.602733 446.157 0.474658 445.519 1.11324L435.552 11.0801C434.913 11.7187 433.836 11.7517 433.176 11.0922L417.842 -4.24215C417.183 -4.90169 417.216 -5.97906 417.854 -6.61764Z" fill="#4B75A4"/>
<path d="M400.262 18.9464L411.024 29.7085L409.748 30.9848L398.986 20.2227L400.262 18.9464Z" fill="white"/>
<path d="M410.749 8.45901L421.512 19.2211L419.209 21.524L405.684 16.4893C409.009 19.3144 412.056 22.5275 415.13 25.6024L413.715 27.0173L402.953 16.2552L405.201 14.0079L418.78 19.0423C415.483 16.2998 412.355 12.894 409.334 9.874L410.749 8.45901Z" fill="white"/>
<path d="M419.295 -0.0863166L420.17 1.34416L417.341 4.17413L426.95 13.7832L425.701 15.0316L416.092 5.42257L413.179 8.33574L412.248 6.9607L419.295 -0.0863166Z" fill="white"/>
<path d="M434.342 6.39114L423.58 -4.37099L422.171 -2.9621L432.933 7.80003L434.342 6.39114Z" fill="#FEFEFE"/>
<path d="M432.198 -12.9899L433.103 -11.5882L430.257 -8.74275L439.866 0.86631L438.485 2.24752L428.876 -7.36154L425.975 -4.46089L425.071 -5.86257L432.198 -12.9899Z" fill="#FEFEFE"/>
</g>
<g opacity="0.35">
<path fill-rule="evenodd" clip-rule="evenodd" d="M420.854 141.382L430.821 131.416C431.46 130.777 432.537 130.744 433.197 131.403L448.531 146.738C449.19 147.397 449.157 148.475 448.519 149.113L438.552 159.08C437.913 159.719 436.836 159.752 436.176 159.092L420.842 143.758C420.183 143.098 420.216 142.021 420.854 141.382Z" fill="#4B75A4"/>
<path d="M403.262 166.946L414.024 177.709L412.748 178.985L401.986 168.223L403.262 166.946Z" fill="white"/>
<path d="M413.749 156.459L424.512 167.221L422.209 169.524L408.684 164.489C412.009 167.314 415.056 170.528 418.13 173.602L416.715 175.017L405.953 164.255L408.201 162.008L421.78 167.042C418.483 164.3 415.355 160.894 412.334 157.874L413.749 156.459Z" fill="white"/>
<path d="M422.295 147.914L423.17 149.344L420.341 152.174L429.95 161.783L428.701 163.032L419.092 153.423L416.179 156.336L415.248 154.961L422.295 147.914Z" fill="white"/>
<path d="M437.342 154.391L426.58 143.629L425.171 145.038L435.933 155.8L437.342 154.391Z" fill="#FEFEFE"/>
<path d="M435.198 135.01L436.103 136.412L433.257 139.257L442.866 148.866L441.485 150.248L431.876 140.638L428.975 143.539L428.071 142.137L435.198 135.01Z" fill="#FEFEFE"/>
<path d="M445.788 136.171L448.507 133.452C447.103 132.659 445.37 131.703 442.398 130.062C443.929 132.814 444.913 134.575 445.788 136.171ZM450.13 134.355L446.718 137.767L446.663 137.712C447.401 139.061 448.194 140.464 449.287 142.445L447.761 143.971L440.273 129.935L442.354 127.855L456.39 135.343L454.781 136.952C452.662 135.776 451.368 135.038 450.13 134.355Z" fill="white"/>
<path fill-rule="evenodd" clip-rule="evenodd" d="M451.244 118.805L449.997 120.052L456.711 135.022L457.985 133.748L451.244 118.805Z" fill="#4B75A4"/>
<path fill-rule="evenodd" clip-rule="evenodd" d="M461.089 127.527L462.925 118.801L453.762 120.201L452.204 118.642L463.408 117.171L464.693 118.456L462.647 129.086L461.089 127.527Z" fill="#4B75A4"/>
</g>
<g opacity="0.35">
<path fill-rule="evenodd" clip-rule="evenodd" d="M417.854 66.3824L427.821 56.4155C428.46 55.7769 429.537 55.7439 430.197 56.4034L445.531 71.7377C446.19 72.3973 446.157 73.4747 445.519 74.1132L435.552 84.0801C434.913 84.7187 433.836 84.7517 433.176 84.0922L417.842 68.7579C417.183 68.0983 417.216 67.0209 417.854 66.3824Z" fill="#4B75A4"/>
<path d="M400.262 91.9464L411.024 102.709L409.748 103.985L398.986 93.2227L400.262 91.9464Z" fill="white"/>
<path d="M410.749 81.459L421.512 92.2211L419.209 94.524L405.684 89.4893C409.009 92.3144 412.056 95.5275 415.13 98.6024L413.715 100.017L402.953 89.2552L405.201 87.0079L418.78 92.0423C415.483 89.2998 412.355 85.894 409.334 82.874L410.749 81.459Z" fill="white"/>
<path d="M419.295 72.9137L420.17 74.3442L417.341 77.1741L426.95 86.7832L425.701 88.0316L416.092 78.4226L413.179 81.3357L412.248 79.9607L419.295 72.9137Z" fill="white"/>
<path d="M434.342 79.3911L423.58 68.629L422.171 70.0379L432.933 80.8L434.342 79.3911Z" fill="#FEFEFE"/>
<path d="M432.198 60.0101L433.103 61.4118L430.257 64.2572L439.866 73.8663L438.485 75.2475L428.876 65.6385L425.975 68.5391L425.071 67.1374L432.198 60.0101Z" fill="#FEFEFE"/>
<path d="M442.788 61.1713L445.507 58.4524C444.103 57.6594 442.37 56.7025 439.398 55.0622C440.929 57.8141 441.913 59.5753 442.788 61.1713ZM447.13 59.3547L443.718 62.7672L443.663 62.7122C444.401 64.0608 445.194 65.4641 446.287 67.4454L444.761 68.9714L437.273 54.9355L439.354 52.8546L453.39 60.3429L451.781 61.9521C449.662 60.7765 448.368 60.038 447.13 59.3547Z" fill="white"/>
<path fill-rule="evenodd" clip-rule="evenodd" d="M448.244 43.8052L446.997 45.0519L453.711 60.022L454.985 58.7475L448.244 43.8052Z" fill="#4B75A4"/>
<path fill-rule="evenodd" clip-rule="evenodd" d="M458.089 52.5274L459.925 43.8014L450.762 45.2007L449.204 43.6425L460.408 42.171L461.693 43.4559L459.647 54.0857L458.089 52.5274Z" fill="#4B75A4"/>
</g>
<g opacity="0.35">
<path fill-rule="evenodd" clip-rule="evenodd" d="M420.854 214.382L430.821 204.416C431.46 203.777 432.537 203.744 433.197 204.403L448.531 219.738C449.19 220.397 449.157 221.475 448.519 222.113L438.552 232.08C437.913 232.719 436.836 232.752 436.176 232.092L420.842 216.758C420.183 216.098 420.216 215.021 420.854 214.382Z" fill="#4B75A4"/>
<path d="M413.749 229.459L424.512 240.221L422.209 242.524L408.684 237.489C412.009 240.314 415.056 243.528 418.13 246.602L416.715 248.017L405.953 237.255L408.201 235.008L421.78 240.042C418.483 237.3 415.355 233.894 412.334 230.874L413.749 229.459Z" fill="white"/>
<path d="M422.295 220.914L423.17 222.344L420.341 225.174L429.95 234.783L428.701 236.032L419.092 226.423L416.179 229.336L415.248 227.961L422.295 220.914Z" fill="white"/>
<path d="M437.342 227.391L426.58 216.629L425.171 218.038L435.933 228.8L437.342 227.391Z" fill="#FEFEFE"/>
<path d="M435.198 208.01L436.103 209.412L433.257 212.257L442.866 221.866L441.485 223.248L431.876 213.638L428.975 216.539L428.071 215.137L435.198 208.01Z" fill="#FEFEFE"/>
<path d="M445.788 209.171L448.507 206.452C447.103 205.659 445.37 204.703 442.398 203.062C443.929 205.814 444.913 207.575 445.788 209.171ZM450.13 207.355L446.718 210.767L446.663 210.712C447.401 212.061 448.194 213.464 449.287 215.445L447.761 216.971L440.273 202.935L442.354 200.855L456.39 208.343L454.781 209.952C452.662 208.776 451.368 208.038 450.13 207.355Z" fill="white"/>
<path fill-rule="evenodd" clip-rule="evenodd" d="M451.244 191.805L449.997 193.052L456.711 208.022L457.985 206.748L451.244 191.805Z" fill="#4B75A4"/>
<path fill-rule="evenodd" clip-rule="evenodd" d="M461.089 200.527L462.925 191.801L453.762 193.201L452.204 191.642L463.408 190.171L464.693 191.456L462.647 202.086L461.089 200.527Z" fill="#4B75A4"/>
</g>
<g opacity="0.35">
<path fill-rule="evenodd" clip-rule="evenodd" d="M62.8542 -5.61764L72.821 -15.5845C73.4596 -16.2231 74.537 -16.2561 75.1965 -15.5966L90.5309 -0.262252C91.1904 0.397267 91.1573 1.47466 90.5187 2.11324L80.5519 12.0801C79.9133 12.7187 78.8359 12.7517 78.1764 12.0922L62.8421 -3.24215C62.1825 -3.90169 62.2156 -4.97906 62.8542 -5.61764Z" fill="#4B75A4"/>
<path d="M45.2621 19.9464L56.0242 30.7085L54.748 31.9848L43.9858 21.2227L45.2621 19.9464Z" fill="white"/>
<path d="M55.7495 9.45901L66.5116 20.2211L64.2088 22.524L50.6843 17.4893C54.0089 20.3144 57.0555 23.5275 60.1304 26.6024L58.7154 28.0173L47.9533 17.2552L50.2006 15.0079L63.7802 20.0423C60.4829 17.2998 57.3545 13.894 54.3345 10.874L55.7495 9.45901Z" fill="white"/>
<path d="M64.2948 0.913683L65.1705 2.34416L62.3405 5.17413L71.9496 14.7832L70.7011 16.0316L61.0921 6.42257L58.1789 9.33574L57.2478 7.9607L64.2948 0.913683Z" fill="white"/>
<path d="M79.3417 7.39114L68.5795 -3.37099L67.1706 -1.9621L77.9328 8.80003L79.3417 7.39114Z" fill="#FEFEFE"/>
<path d="M77.1984 -11.9899L78.1028 -10.5882L75.2574 -7.74275L84.8664 1.86631L83.4852 3.24752L73.8761 -6.36154L70.9755 -3.46089L70.071 -4.86257L77.1984 -11.9899Z" fill="#FEFEFE"/>
</g>
<g opacity="0.35">
<path fill-rule="evenodd" clip-rule="evenodd" d="M65.8542 142.382L75.821 132.416C76.4596 131.777 77.537 131.744 78.1965 132.403L93.5309 147.738C94.1904 148.397 94.1573 149.475 93.5187 150.113L83.5519 160.08C82.9133 160.719 81.8359 160.752 81.1764 160.092L65.8421 144.758C65.1825 144.098 65.2156 143.021 65.8542 142.382Z" fill="#4B75A4"/>
<path d="M48.2621 167.946L59.0242 178.709L57.748 179.985L46.9858 169.223L48.2621 167.946Z" fill="white"/>
<path d="M58.7495 157.459L69.5116 168.221L67.2088 170.524L53.6843 165.489C57.0089 168.314 60.0555 171.528 63.1304 174.602L61.7154 176.017L50.9533 165.255L53.2006 163.008L66.7802 168.042C63.4829 165.3 60.3545 161.894 57.3345 158.874L58.7495 157.459Z" fill="white"/>
<path d="M67.2948 148.914L68.1705 150.344L65.3405 153.174L74.9496 162.783L73.7011 164.032L64.0921 154.423L61.1789 157.336L60.2478 155.961L67.2948 148.914Z" fill="white"/>
<path d="M82.3417 155.391L71.5795 144.629L70.1706 146.038L80.9328 156.8L82.3417 155.391Z" fill="#FEFEFE"/>
<path d="M80.1984 136.01L81.1028 137.412L78.2574 140.257L87.8664 149.866L86.4852 151.248L76.8761 141.638L73.9755 144.539L73.071 143.137L80.1984 136.01Z" fill="#FEFEFE"/>
<path d="M90.7877 137.171L93.5066 134.452C92.1032 133.659 90.3695 132.703 87.3975 131.062C88.9285 133.814 89.9129 135.575 90.7877 137.171ZM95.1301 135.355L91.7177 138.767L91.6627 138.712C92.4008 140.061 93.1937 141.464 94.2873 143.445L92.7614 144.971L85.273 130.935L87.3539 128.855L101.39 136.343L99.7806 137.952C97.6618 136.776 96.3685 136.038 95.1301 135.355Z" fill="white"/>
<path fill-rule="evenodd" clip-rule="evenodd" d="M96.2438 119.805L94.997 121.052L101.711 136.022L102.985 134.748L96.2438 119.805Z" fill="#4B75A4"/>
<path fill-rule="evenodd" clip-rule="evenodd" d="M106.089 128.527L107.925 119.801L98.762 121.201L97.2037 119.642L108.408 118.171L109.693 119.456L107.647 130.086L106.089 128.527Z" fill="#4B75A4"/>
</g>
<g opacity="0.35">
<path fill-rule="evenodd" clip-rule="evenodd" d="M62.8542 67.3824L72.821 57.4155C73.4596 56.7769 74.537 56.7439 75.1965 57.4034L90.5309 72.7377C91.1904 73.3973 91.1573 74.4747 90.5187 75.1132L80.5519 85.0801C79.9133 85.7187 78.8359 85.7517 78.1764 85.0922L62.8421 69.7579C62.1825 69.0983 62.2156 68.0209 62.8542 67.3824Z" fill="#4B75A4"/>
<path d="M45.2621 92.9464L56.0242 103.709L54.748 104.985L43.9858 94.2227L45.2621 92.9464Z" fill="white"/>
<path d="M55.7495 82.459L66.5116 93.2211L64.2088 95.524L50.6843 90.4893C54.0089 93.3144 57.0555 96.5275 60.1304 99.6024L58.7154 101.017L47.9533 90.2552L50.2006 88.0079L63.7802 93.0423C60.4829 90.2998 57.3545 86.894 54.3345 83.874L55.7495 82.459Z" fill="white"/>
<path d="M64.2948 73.9137L65.1705 75.3442L62.3405 78.1741L71.9496 87.7832L70.7011 89.0316L61.0921 79.4226L58.1789 82.3357L57.2478 80.9607L64.2948 73.9137Z" fill="white"/>
<path d="M79.3417 80.3911L68.5795 69.629L67.1706 71.0379L77.9328 81.8L79.3417 80.3911Z" fill="#FEFEFE"/>
<path d="M77.1984 61.0101L78.1028 62.4118L75.2574 65.2572L84.8664 74.8663L83.4852 76.2475L73.8761 66.6385L70.9755 69.5391L70.071 68.1374L77.1984 61.0101Z" fill="#FEFEFE"/>
<path d="M87.7877 62.1713L90.5066 59.4524C89.1032 58.6594 87.3695 57.7025 84.3975 56.0622C85.9285 58.8141 86.9129 60.5753 87.7877 62.1713ZM92.1301 60.3547L88.7177 63.7672L88.6627 63.7122C89.4008 65.0608 90.1937 66.4641 91.2873 68.4454L89.7614 69.9714L82.273 55.9355L84.3539 53.8546L98.3899 61.3429L96.7806 62.9521C94.6618 61.7765 93.3685 61.038 92.1301 60.3547Z" fill="white"/>
<path fill-rule="evenodd" clip-rule="evenodd" d="M93.2438 44.8052L91.997 46.0519L98.7106 61.022L99.9852 59.7475L93.2438 44.8052Z" fill="#4B75A4"/>
<path fill-rule="evenodd" clip-rule="evenodd" d="M103.089 53.5274L104.925 44.8014L95.762 46.2007L94.2037 44.6425L105.408 43.171L106.693 44.4559L104.647 55.0857L103.089 53.5274Z" fill="#4B75A4"/>
</g>
<g opacity="0.35">
<path fill-rule="evenodd" clip-rule="evenodd" d="M65.8542 215.382L75.821 205.416C76.4596 204.777 77.537 204.744 78.1965 205.403L93.5309 220.738C94.1904 221.397 94.1573 222.475 93.5187 223.113L83.5519 233.08C82.9133 233.719 81.8359 233.752 81.1764 233.092L65.8421 217.758C65.1825 217.098 65.2156 216.021 65.8542 215.382Z" fill="#4B75A4"/>
<path d="M58.7495 230.459L69.5116 241.221L67.2088 243.524L53.6843 238.489C57.0089 241.314 60.0555 244.528 63.1304 247.602L61.7154 249.017L50.9533 238.255L53.2006 236.008L66.7802 241.042C63.4829 238.3 60.3545 234.894 57.3345 231.874L58.7495 230.459Z" fill="white"/>
<path d="M67.2948 221.914L68.1705 223.344L65.3405 226.174L74.9496 235.783L73.7011 237.032L64.0921 227.423L61.1789 230.336L60.2478 228.961L67.2948 221.914Z" fill="white"/>
<path d="M82.3417 228.391L71.5795 217.629L70.1706 219.038L80.9328 229.8L82.3417 228.391Z" fill="#FEFEFE"/>
<path d="M80.1984 209.01L81.1028 210.412L78.2574 213.257L87.8664 222.866L86.4852 224.248L76.8761 214.638L73.9755 217.539L73.071 216.137L80.1984 209.01Z" fill="#FEFEFE"/>
<path d="M90.7877 210.171L93.5066 207.452C92.1032 206.659 90.3695 205.703 87.3975 204.062C88.9285 206.814 89.9129 208.575 90.7877 210.171ZM95.1301 208.355L91.7177 211.767L91.6627 211.712C92.4008 213.061 93.1937 214.464 94.2873 216.445L92.7614 217.971L85.273 203.935L87.3539 201.855L101.39 209.343L99.7806 210.952C97.6618 209.776 96.3685 209.038 95.1301 208.355Z" fill="white"/>
<path fill-rule="evenodd" clip-rule="evenodd" d="M96.2438 192.805L94.997 194.052L101.711 209.022L102.985 207.748L96.2438 192.805Z" fill="#4B75A4"/>
<path fill-rule="evenodd" clip-rule="evenodd" d="M106.089 201.527L107.925 192.801L98.762 194.201L97.2037 192.642L108.408 191.171L109.693 192.456L107.647 203.086L106.089 201.527Z" fill="#4B75A4"/>
</g>
<g opacity="0.35">
<path fill-rule="evenodd" clip-rule="evenodd" d="M346.854 -5.61764L356.821 -15.5845C357.46 -16.2231 358.537 -16.2561 359.197 -15.5966L374.531 -0.262252C375.19 0.397267 375.157 1.47466 374.519 2.11324L364.552 12.0801C363.913 12.7187 362.836 12.7517 362.176 12.0922L346.842 -3.24215C346.183 -3.90169 346.216 -4.97906 346.854 -5.61764Z" fill="#4B75A4"/>
<path d="M329.262 19.9464L340.024 30.7085L338.748 31.9848L327.986 21.2227L329.262 19.9464Z" fill="white"/>
<path d="M339.749 9.45901L350.512 20.2211L348.209 22.524L334.684 17.4893C338.009 20.3144 341.056 23.5275 344.13 26.6024L342.715 28.0173L331.953 17.2552L334.201 15.0079L347.78 20.0423C344.483 17.2998 341.355 13.894 338.334 10.874L339.749 9.45901Z" fill="white"/>
<path d="M348.295 0.913683L349.17 2.34416L346.341 5.17413L355.95 14.7832L354.701 16.0316L345.092 6.42257L342.179 9.33574L341.248 7.9607L348.295 0.913683Z" fill="white"/>
<path d="M363.342 7.39114L352.58 -3.37099L351.171 -1.9621L361.933 8.80003L363.342 7.39114Z" fill="#FEFEFE"/>
<path d="M361.198 -11.9899L362.103 -10.5882L359.257 -7.74275L368.866 1.86631L367.485 3.24752L357.876 -6.36154L354.975 -3.46089L354.071 -4.86257L361.198 -11.9899Z" fill="#FEFEFE"/>
</g>
<g opacity="0.35">
<path fill-rule="evenodd" clip-rule="evenodd" d="M349.854 142.382L359.821 132.416C360.46 131.777 361.537 131.744 362.197 132.403L377.531 147.738C378.19 148.397 378.157 149.475 377.519 150.113L367.552 160.08C366.913 160.719 365.836 160.752 365.176 160.092L349.842 144.758C349.183 144.098 349.216 143.021 349.854 142.382Z" fill="#4B75A4"/>
<path d="M332.262 167.946L343.024 178.709L341.748 179.985L330.986 169.223L332.262 167.946Z" fill="white"/>
<path d="M342.749 157.459L353.512 168.221L351.209 170.524L337.684 165.489C341.009 168.314 344.056 171.528 347.13 174.602L345.715 176.017L334.953 165.255L337.201 163.008L350.78 168.042C347.483 165.3 344.355 161.894 341.334 158.874L342.749 157.459Z" fill="white"/>
<path d="M351.295 148.914L352.17 150.344L349.341 153.174L358.95 162.783L357.701 164.032L348.092 154.423L345.179 157.336L344.248 155.961L351.295 148.914Z" fill="white"/>
<path d="M366.342 155.391L355.58 144.629L354.171 146.038L364.933 156.8L366.342 155.391Z" fill="#FEFEFE"/>
<path d="M364.198 136.01L365.103 137.412L362.257 140.257L371.866 149.866L370.485 151.248L360.876 141.638L357.975 144.539L357.071 143.137L364.198 136.01Z" fill="#FEFEFE"/>
<path d="M374.788 137.171L377.507 134.452C376.103 133.659 374.37 132.703 371.398 131.062C372.929 133.814 373.913 135.575 374.788 137.171ZM379.13 135.355L375.718 138.767L375.663 138.712C376.401 140.061 377.194 141.464 378.287 143.445L376.761 144.971L369.273 130.935L371.354 128.855L385.39 136.343L383.781 137.952C381.662 136.776 380.368 136.038 379.13 135.355Z" fill="white"/>
<path fill-rule="evenodd" clip-rule="evenodd" d="M380.244 119.805L378.997 121.052L385.711 136.022L386.985 134.748L380.244 119.805Z" fill="#4B75A4"/>
<path fill-rule="evenodd" clip-rule="evenodd" d="M390.089 128.527L391.925 119.801L382.762 121.201L381.204 119.642L392.408 118.171L393.693 119.456L391.647 130.086L390.089 128.527Z" fill="#4B75A4"/>
</g>
<g opacity="0.35">
<path fill-rule="evenodd" clip-rule="evenodd" d="M346.854 67.3824L356.821 57.4155C357.46 56.7769 358.537 56.7439 359.197 57.4034L374.531 72.7377C375.19 73.3973 375.157 74.4747 374.519 75.1132L364.552 85.0801C363.913 85.7187 362.836 85.7517 362.176 85.0922L346.842 69.7579C346.183 69.0983 346.216 68.0209 346.854 67.3824Z" fill="#4B75A4"/>
<path d="M329.262 92.9464L340.024 103.709L338.748 104.985L327.986 94.2227L329.262 92.9464Z" fill="white"/>
<path d="M339.749 82.459L350.512 93.2211L348.209 95.524L334.684 90.4893C338.009 93.3144 341.056 96.5275 344.13 99.6024L342.715 101.017L331.953 90.2552L334.201 88.0079L347.78 93.0423C344.483 90.2998 341.355 86.894 338.334 83.874L339.749 82.459Z" fill="white"/>
<path d="M348.295 73.9137L349.17 75.3442L346.341 78.1741L355.95 87.7832L354.701 89.0316L345.092 79.4226L342.179 82.3357L341.248 80.9607L348.295 73.9137Z" fill="white"/>
<path d="M363.342 80.3911L352.58 69.629L351.171 71.0379L361.933 81.8L363.342 80.3911Z" fill="#FEFEFE"/>
<path d="M361.198 61.0101L362.103 62.4118L359.257 65.2572L368.866 74.8663L367.485 76.2475L357.876 66.6385L354.975 69.5391L354.071 68.1374L361.198 61.0101Z" fill="#FEFEFE"/>
<path d="M371.788 62.1713L374.507 59.4524C373.103 58.6594 371.37 57.7025 368.398 56.0622C369.929 58.8141 370.913 60.5753 371.788 62.1713ZM376.13 60.3547L372.718 63.7672L372.663 63.7122C373.401 65.0608 374.194 66.4641 375.287 68.4454L373.761 69.9714L366.273 55.9355L368.354 53.8546L382.39 61.3429L380.781 62.9521C378.662 61.7765 377.368 61.038 376.13 60.3547Z" fill="white"/>
<path fill-rule="evenodd" clip-rule="evenodd" d="M377.244 44.8052L375.997 46.0519L382.711 61.022L383.985 59.7475L377.244 44.8052Z" fill="#4B75A4"/>
<path fill-rule="evenodd" clip-rule="evenodd" d="M387.089 53.5274L388.925 44.8014L379.762 46.2007L378.204 44.6425L389.408 43.171L390.693 44.4559L388.647 55.0857L387.089 53.5274Z" fill="#4B75A4"/>
</g>
<g opacity="0.35">
<path fill-rule="evenodd" clip-rule="evenodd" d="M349.854 215.382L359.821 205.416C360.46 204.777 361.537 204.744 362.197 205.403L377.531 220.738C378.19 221.397 378.157 222.475 377.519 223.113L367.552 233.08C366.913 233.719 365.836 233.752 365.176 233.092L349.842 217.758C349.183 217.098 349.216 216.021 349.854 215.382Z" fill="#4B75A4"/>
<path d="M342.749 230.459L353.512 241.221L351.209 243.524L337.684 238.489C341.009 241.314 344.056 244.528 347.13 247.602L345.715 249.017L334.953 238.255L337.201 236.008L350.78 241.042C347.483 238.3 344.355 234.894 341.334 231.874L342.749 230.459Z" fill="white"/>
<path d="M351.295 221.914L352.17 223.344L349.341 226.174L358.95 235.783L357.701 237.032L348.092 227.423L345.179 230.336L344.248 228.961L351.295 221.914Z" fill="white"/>
<path d="M366.342 228.391L355.58 217.629L354.171 219.038L364.933 229.8L366.342 228.391Z" fill="#FEFEFE"/>
<path d="M364.198 209.01L365.103 210.412L362.257 213.257L371.866 222.866L370.485 224.248L360.876 214.638L357.975 217.539L357.071 216.137L364.198 209.01Z" fill="#FEFEFE"/>
<path d="M374.788 210.171L377.507 207.452C376.103 206.659 374.37 205.703 371.398 204.062C372.929 206.814 373.913 208.575 374.788 210.171ZM379.13 208.355L375.718 211.767L375.663 211.712C376.401 213.061 377.194 214.464 378.287 216.445L376.761 217.971L369.273 203.935L371.354 201.855L385.39 209.343L383.781 210.952C381.662 209.776 380.368 209.038 379.13 208.355Z" fill="white"/>
<path fill-rule="evenodd" clip-rule="evenodd" d="M380.244 192.805L378.997 194.052L385.711 209.022L386.985 207.748L380.244 192.805Z" fill="#4B75A4"/>
<path fill-rule="evenodd" clip-rule="evenodd" d="M390.089 201.527L391.925 192.801L382.762 194.201L381.204 192.642L392.408 191.171L393.693 192.456L391.647 203.086L390.089 201.527Z" fill="#4B75A4"/>
</g>
<g opacity="0.35">
<path fill-rule="evenodd" clip-rule="evenodd" d="M204.854 -6.61764L214.821 -16.5845C215.46 -17.2231 216.537 -17.2561 217.197 -16.5966L232.531 -1.26225C233.19 -0.602733 233.157 0.474658 232.519 1.11324L222.552 11.0801C221.913 11.7187 220.836 11.7517 220.176 11.0922L204.842 -4.24215C204.183 -4.90169 204.216 -5.97906 204.854 -6.61764Z" fill="#4B75A4"/>
<path d="M187.262 18.9464L198.024 29.7085L196.748 30.9848L185.986 20.2227L187.262 18.9464Z" fill="white"/>
<path d="M197.749 8.45901L208.512 19.2211L206.209 21.524L192.684 16.4893C196.009 19.3144 199.056 22.5275 202.13 25.6024L200.715 27.0173L189.953 16.2552L192.201 14.0079L205.78 19.0423C202.483 16.2998 199.355 12.894 196.334 9.874L197.749 8.45901Z" fill="white"/>
<path d="M206.295 -0.0863166L207.17 1.34416L204.341 4.17413L213.95 13.7832L212.701 15.0316L203.092 5.42257L200.179 8.33574L199.248 6.9607L206.295 -0.0863166Z" fill="white"/>
<path d="M221.342 6.39114L210.58 -4.37099L209.171 -2.9621L219.933 7.80003L221.342 6.39114Z" fill="#FEFEFE"/>
<path d="M219.198 -12.9899L220.103 -11.5882L217.257 -8.74275L226.866 0.86631L225.485 2.24752L215.876 -7.36154L212.975 -4.46089L212.071 -5.86257L219.198 -12.9899Z" fill="#FEFEFE"/>
</g>
<g opacity="0.35">
<path fill-rule="evenodd" clip-rule="evenodd" d="M207.854 141.382L217.821 131.416C218.46 130.777 219.537 130.744 220.197 131.403L235.531 146.738C236.19 147.397 236.157 148.475 235.519 149.113L225.552 159.08C224.913 159.719 223.836 159.752 223.176 159.092L207.842 143.758C207.183 143.098 207.216 142.021 207.854 141.382Z" fill="#4B75A4"/>
<path d="M190.262 166.946L201.024 177.709L199.748 178.985L188.986 168.223L190.262 166.946Z" fill="white"/>
<path d="M200.749 156.459L211.512 167.221L209.209 169.524L195.684 164.489C199.009 167.314 202.056 170.528 205.13 173.602L203.715 175.017L192.953 164.255L195.201 162.008L208.78 167.042C205.483 164.3 202.355 160.894 199.334 157.874L200.749 156.459Z" fill="white"/>
<path d="M209.295 147.914L210.17 149.344L207.341 152.174L216.95 161.783L215.701 163.032L206.092 153.423L203.179 156.336L202.248 154.961L209.295 147.914Z" fill="white"/>
<path d="M224.342 154.391L213.58 143.629L212.171 145.038L222.933 155.8L224.342 154.391Z" fill="#FEFEFE"/>
<path d="M222.198 135.01L223.103 136.412L220.257 139.257L229.866 148.866L228.485 150.248L218.876 140.638L215.975 143.539L215.071 142.137L222.198 135.01Z" fill="#FEFEFE"/>
<path d="M232.788 136.171L235.507 133.452C234.103 132.659 232.37 131.703 229.398 130.062C230.929 132.814 231.913 134.575 232.788 136.171ZM237.13 134.355L233.718 137.767L233.663 137.712C234.401 139.061 235.194 140.464 236.287 142.445L234.761 143.971L227.273 129.935L229.354 127.855L243.39 135.343L241.781 136.952C239.662 135.776 238.368 135.038 237.13 134.355Z" fill="white"/>
<path fill-rule="evenodd" clip-rule="evenodd" d="M238.244 118.805L236.997 120.052L243.711 135.022L244.985 133.748L238.244 118.805Z" fill="#4B75A4"/>
<path fill-rule="evenodd" clip-rule="evenodd" d="M248.089 127.527L249.925 118.801L240.762 120.201L239.204 118.642L250.408 117.171L251.693 118.456L249.647 129.086L248.089 127.527Z" fill="#4B75A4"/>
</g>
<g opacity="0.35">
<path fill-rule="evenodd" clip-rule="evenodd" d="M204.854 66.3824L214.821 56.4155C215.46 55.7769 216.537 55.7439 217.197 56.4034L232.531 71.7377C233.19 72.3973 233.157 73.4747 232.519 74.1132L222.552 84.0801C221.913 84.7187 220.836 84.7517 220.176 84.0922L204.842 68.7579C204.183 68.0983 204.216 67.0209 204.854 66.3824Z" fill="#4B75A4"/>
<path d="M187.262 91.9464L198.024 102.709L196.748 103.985L185.986 93.2227L187.262 91.9464Z" fill="white"/>
<path d="M197.749 81.459L208.512 92.2211L206.209 94.524L192.684 89.4893C196.009 92.3144 199.056 95.5275 202.13 98.6024L200.715 100.017L189.953 89.2552L192.201 87.0079L205.78 92.0423C202.483 89.2998 199.355 85.894 196.334 82.874L197.749 81.459Z" fill="white"/>
<path d="M206.295 72.9137L207.17 74.3442L204.341 77.1741L213.95 86.7832L212.701 88.0316L203.092 78.4226L200.179 81.3357L199.248 79.9607L206.295 72.9137Z" fill="white"/>
<path d="M221.342 79.3911L210.58 68.629L209.171 70.0379L219.933 80.8L221.342 79.3911Z" fill="#FEFEFE"/>
<path d="M219.198 60.0101L220.103 61.4118L217.257 64.2572L226.866 73.8663L225.485 75.2475L215.876 65.6385L212.975 68.5391L212.071 67.1374L219.198 60.0101Z" fill="#FEFEFE"/>
<path d="M229.788 61.1713L232.507 58.4524C231.103 57.6594 229.37 56.7025 226.398 55.0622C227.929 57.8141 228.913 59.5753 229.788 61.1713ZM234.13 59.3547L230.718 62.7672L230.663 62.7122C231.401 64.0608 232.194 65.4641 233.287 67.4454L231.761 68.9714L224.273 54.9355L226.354 52.8546L240.39 60.3429L238.781 61.9521C236.662 60.7765 235.368 60.038 234.13 59.3547Z" fill="white"/>
<path fill-rule="evenodd" clip-rule="evenodd" d="M235.244 43.8052L233.997 45.0519L240.711 60.022L241.985 58.7475L235.244 43.8052Z" fill="#4B75A4"/>
<path fill-rule="evenodd" clip-rule="evenodd" d="M245.089 52.5274L246.925 43.8014L237.762 45.2007L236.204 43.6425L247.408 42.171L248.693 43.4559L246.647 54.0857L245.089 52.5274Z" fill="#4B75A4"/>
</g>
<g opacity="0.35">
<path fill-rule="evenodd" clip-rule="evenodd" d="M207.854 214.382L217.821 204.416C218.46 203.777 219.537 203.744 220.197 204.403L235.531 219.738C236.19 220.397 236.157 221.475 235.519 222.113L225.552 232.08C224.913 232.719 223.836 232.752 223.176 232.092L207.842 216.758C207.183 216.098 207.216 215.021 207.854 214.382Z" fill="#4B75A4"/>
<path d="M200.749 229.459L211.512 240.221L209.209 242.524L195.684 237.489C199.009 240.314 202.056 243.528 205.13 246.602L203.715 248.017L192.953 237.255L195.201 235.008L208.78 240.042C205.483 237.3 202.355 233.894 199.334 230.874L200.749 229.459Z" fill="white"/>
<path d="M209.295 220.914L210.17 222.344L207.341 225.174L216.95 234.783L215.701 236.032L206.092 226.423L203.179 229.336L202.248 227.961L209.295 220.914Z" fill="white"/>
<path d="M224.342 227.391L213.58 216.629L212.171 218.038L222.933 228.8L224.342 227.391Z" fill="#FEFEFE"/>
<path d="M222.198 208.01L223.103 209.412L220.257 212.257L229.866 221.866L228.485 223.248L218.876 213.638L215.975 216.539L215.071 215.137L222.198 208.01Z" fill="#FEFEFE"/>
<path d="M232.788 209.171L235.507 206.452C234.103 205.659 232.37 204.703 229.398 203.062C230.929 205.814 231.913 207.575 232.788 209.171ZM237.13 207.355L233.718 210.767L233.663 210.712C234.401 212.061 235.194 213.464 236.287 215.445L234.761 216.971L227.273 202.935L229.354 200.855L243.39 208.343L241.781 209.952C239.662 208.776 238.368 208.038 237.13 207.355Z" fill="white"/>
<path fill-rule="evenodd" clip-rule="evenodd" d="M238.244 191.805L236.997 193.052L243.711 208.022L244.985 206.748L238.244 191.805Z" fill="#4B75A4"/>
<path fill-rule="evenodd" clip-rule="evenodd" d="M248.089 200.527L249.925 191.801L240.762 193.201L239.204 191.642L250.408 190.171L251.693 191.456L249.647 202.086L248.089 200.527Z" fill="#4B75A4"/>
</g>
<g opacity="0.35">
<path fill-rule="evenodd" clip-rule="evenodd" d="M488.854 -6.61764L498.821 -16.5845C499.46 -17.2231 500.537 -17.2561 501.197 -16.5966L516.531 -1.26225C517.19 -0.602733 517.157 0.474658 516.519 1.11324L506.552 11.0801C505.913 11.7187 504.836 11.7517 504.176 11.0922L488.842 -4.24215C488.183 -4.90169 488.216 -5.97906 488.854 -6.61764Z" fill="#4B75A4"/>
<path d="M471.262 18.9464L482.024 29.7085L480.748 30.9848L469.986 20.2227L471.262 18.9464Z" fill="white"/>
<path d="M481.749 8.45901L492.512 19.2211L490.209 21.524L476.684 16.4893C480.009 19.3144 483.056 22.5275 486.13 25.6024L484.715 27.0173L473.953 16.2552L476.201 14.0079L489.78 19.0423C486.483 16.2998 483.355 12.894 480.334 9.874L481.749 8.45901Z" fill="white"/>
<path d="M490.295 -0.0863166L491.17 1.34416L488.341 4.17413L497.95 13.7832L496.701 15.0316L487.092 5.42257L484.179 8.33574L483.248 6.9607L490.295 -0.0863166Z" fill="white"/>
<path d="M505.342 6.39114L494.58 -4.37099L493.171 -2.9621L503.933 7.80003L505.342 6.39114Z" fill="#FEFEFE"/>
<path d="M503.198 -12.9899L504.103 -11.5882L501.257 -8.74275L510.866 0.86631L509.485 2.24752L499.876 -7.36154L496.975 -4.46089L496.071 -5.86257L503.198 -12.9899Z" fill="#FEFEFE"/>
</g>
<g opacity="0.35">
<path fill-rule="evenodd" clip-rule="evenodd" d="M491.854 141.382L501.821 131.416C502.46 130.777 503.537 130.744 504.197 131.403L519.531 146.738C520.19 147.397 520.157 148.475 519.519 149.113L509.552 159.08C508.913 159.719 507.836 159.752 507.176 159.092L491.842 143.758C491.183 143.098 491.216 142.021 491.854 141.382Z" fill="#4B75A4"/>
<path d="M474.262 166.946L485.024 177.709L483.748 178.985L472.986 168.223L474.262 166.946Z" fill="white"/>
<path d="M484.749 156.459L495.512 167.221L493.209 169.524L479.684 164.489C483.009 167.314 486.056 170.528 489.13 173.602L487.715 175.017L476.953 164.255L479.201 162.008L492.78 167.042C489.483 164.3 486.355 160.894 483.334 157.874L484.749 156.459Z" fill="white"/>
<path d="M493.295 147.914L494.17 149.344L491.341 152.174L500.95 161.783L499.701 163.032L490.092 153.423L487.179 156.336L486.248 154.961L493.295 147.914Z" fill="white"/>
<path d="M508.342 154.391L497.58 143.629L496.171 145.038L506.933 155.8L508.342 154.391Z" fill="#FEFEFE"/>
<path d="M506.198 135.01L507.103 136.412L504.257 139.257L513.866 148.866L512.485 150.248L502.876 140.638L499.975 143.539L499.071 142.137L506.198 135.01Z" fill="#FEFEFE"/>
<path d="M516.788 136.171L519.507 133.452C518.103 132.659 516.37 131.703 513.398 130.062C514.929 132.814 515.913 134.575 516.788 136.171ZM521.13 134.355L517.718 137.767L517.663 137.712C518.401 139.061 519.194 140.464 520.287 142.445L518.761 143.971L511.273 129.935L513.354 127.855L527.39 135.343L525.781 136.952C523.662 135.776 522.368 135.038 521.13 134.355Z" fill="white"/>
<path fill-rule="evenodd" clip-rule="evenodd" d="M522.244 118.805L520.997 120.052L527.711 135.022L528.985 133.748L522.244 118.805Z" fill="#4B75A4"/>
<path fill-rule="evenodd" clip-rule="evenodd" d="M532.089 127.527L533.925 118.801L524.762 120.201L523.204 118.642L534.408 117.171L535.693 118.456L533.647 129.086L532.089 127.527Z" fill="#4B75A4"/>
</g>
<g opacity="0.35">
<path fill-rule="evenodd" clip-rule="evenodd" d="M488.854 66.3824L498.821 56.4155C499.46 55.7769 500.537 55.7439 501.197 56.4034L516.531 71.7377C517.19 72.3973 517.157 73.4747 516.519 74.1132L506.552 84.0801C505.913 84.7187 504.836 84.7517 504.176 84.0922L488.842 68.7579C488.183 68.0983 488.216 67.0209 488.854 66.3824Z" fill="#4B75A4"/>
<path d="M471.262 91.9464L482.024 102.709L480.748 103.985L469.986 93.2227L471.262 91.9464Z" fill="white"/>
<path d="M481.749 81.459L492.512 92.2211L490.209 94.524L476.684 89.4893C480.009 92.3144 483.056 95.5275 486.13 98.6024L484.715 100.017L473.953 89.2552L476.201 87.0079L489.78 92.0423C486.483 89.2998 483.355 85.894 480.334 82.874L481.749 81.459Z" fill="white"/>
<path d="M490.295 72.9137L491.17 74.3442L488.341 77.1741L497.95 86.7832L496.701 88.0316L487.092 78.4226L484.179 81.3357L483.248 79.9607L490.295 72.9137Z" fill="white"/>
<path d="M505.342 79.3911L494.58 68.629L493.171 70.0379L503.933 80.8L505.342 79.3911Z" fill="#FEFEFE"/>
<path d="M503.198 60.0101L504.103 61.4118L501.257 64.2572L510.866 73.8663L509.485 75.2475L499.876 65.6385L496.975 68.5391L496.071 67.1374L503.198 60.0101Z" fill="#FEFEFE"/>
<path d="M513.788 61.1713L516.507 58.4524C515.103 57.6594 513.37 56.7025 510.398 55.0622C511.929 57.8141 512.913 59.5753 513.788 61.1713ZM518.13 59.3547L514.718 62.7672L514.663 62.7122C515.401 64.0608 516.194 65.4641 517.287 67.4454L515.761 68.9714L508.273 54.9355L510.354 52.8546L524.39 60.3429L522.781 61.9521C520.662 60.7765 519.368 60.038 518.13 59.3547Z" fill="white"/>
<path fill-rule="evenodd" clip-rule="evenodd" d="M519.244 43.8052L517.997 45.0519L524.711 60.022L525.985 58.7475L519.244 43.8052Z" fill="#4B75A4"/>
<path fill-rule="evenodd" clip-rule="evenodd" d="M529.089 52.5274L530.925 43.8014L521.762 45.2007L520.204 43.6425L531.408 42.171L532.693 43.4559L530.647 54.0857L529.089 52.5274Z" fill="#4B75A4"/>
</g>
<g opacity="0.35">
<path fill-rule="evenodd" clip-rule="evenodd" d="M491.854 214.382L501.821 204.416C502.46 203.777 503.537 203.744 504.197 204.403L519.531 219.738C520.19 220.397 520.157 221.475 519.519 222.113L509.552 232.08C508.913 232.719 507.836 232.752 507.176 232.092L491.842 216.758C491.183 216.098 491.216 215.021 491.854 214.382Z" fill="#4B75A4"/>
<path d="M484.749 229.459L495.512 240.221L493.209 242.524L479.684 237.489C483.009 240.314 486.056 243.528 489.13 246.602L487.715 248.017L476.953 237.255L479.201 235.008L492.78 240.042C489.483 237.3 486.355 233.894 483.334 230.874L484.749 229.459Z" fill="white"/>
<path d="M493.295 220.914L494.17 222.344L491.341 225.174L500.95 234.783L499.701 236.032L490.092 226.423L487.179 229.336L486.248 227.961L493.295 220.914Z" fill="white"/>
<path d="M508.342 227.391L497.58 216.629L496.171 218.038L506.933 228.8L508.342 227.391Z" fill="#FEFEFE"/>
<path d="M506.198 208.01L507.103 209.412L504.257 212.257L513.866 221.866L512.485 223.248L502.876 213.638L499.975 216.539L499.071 215.137L506.198 208.01Z" fill="#FEFEFE"/>
<path d="M516.788 209.171L519.507 206.452C518.103 205.659 516.37 204.703 513.398 203.062C514.929 205.814 515.913 207.575 516.788 209.171ZM521.13 207.355L517.718 210.767L517.663 210.712C518.401 212.061 519.194 213.464 520.287 215.445L518.761 216.971L511.273 202.935L513.354 200.855L527.39 208.343L525.781 209.952C523.662 208.776 522.368 208.038 521.13 207.355Z" fill="white"/>
<path fill-rule="evenodd" clip-rule="evenodd" d="M522.244 191.805L520.997 193.052L527.711 208.022L528.985 206.748L522.244 191.805Z" fill="#4B75A4"/>
<path fill-rule="evenodd" clip-rule="evenodd" d="M532.089 200.527L533.925 191.801L524.762 193.201L523.204 191.642L534.408 190.171L535.693 191.456L533.647 202.086L532.089 200.527Z" fill="#4B75A4"/>
</g>
<path fill-rule="evenodd" clip-rule="evenodd" d="M251.083 86H275.54C277.107 86 278.47 87.2981 278.47 88.9379V127.062C278.47 128.702 277.107 130 275.54 130H251.083C249.515 130 248.153 128.702 248.153 127.062V88.9379C248.153 87.2981 249.515 86 251.083 86Z" fill="#4B75A4"/>
<path d="M198.132 95.9099V122.667H195V95.9099H198.132Z" fill="white"/>
<path d="M223.867 95.9099V122.667H218.216L207.799 99.5957C208.412 107.24 208.208 115.022 208.208 122.667H204.736V95.9099H210.25L220.735 119.049C220.054 111.541 220.395 103.418 220.395 95.9099H223.867Z" fill="white"/>
<path d="M244.836 95.9099L244.155 98.7766H237.211V122.667H234.147V98.7766H226.999L227.543 95.9099H244.836Z" fill="white"/>
<path d="M255.35 122.667V95.9099H251.893V122.667H255.35Z" fill="#FEFEFE"/>
<path d="M276.501 95.9099L275.891 98.7766H268.908V122.667H265.519V98.7766H258.401L259.011 95.9099H276.501Z" fill="#FEFEFE"/>
<path d="M288.068 110.517H294.74C293.991 107.786 293.038 104.442 291.404 98.7084C289.906 104.032 288.953 107.445 288.068 110.517ZM295.625 113.657H287.251V113.52C286.502 116.114 285.753 118.844 284.664 122.667H280.919L288.953 95.9099H294.059L302.093 122.667H298.144C296.987 118.571 296.306 116.046 295.625 113.657Z" fill="white"/>
<path fill-rule="evenodd" clip-rule="evenodd" d="M316.07 95.7117H313.011L302.88 122.667H306.008L316.07 95.7117Z" fill="#4B75A4"/>
<path fill-rule="evenodd" clip-rule="evenodd" d="M317.448 118.792L330.408 110.228L317.448 100.577V96.7026L333 108.801V111.996L317.448 122.667V118.792Z" fill="#4B75A4"/>
<g filter="url(#filter0_d_15_186)">
<path d="M177.977 168.091V179H176.017V169.732H171.244V179H169.284V168.091H177.977ZM180.341 179V168.091H184.432C185.27 168.091 185.973 168.247 186.541 168.56C187.113 168.872 187.544 169.302 187.835 169.849C188.13 170.392 188.277 171.01 188.277 171.702C188.277 172.402 188.13 173.023 187.835 173.567C187.541 174.11 187.106 174.538 186.53 174.85C185.955 175.159 185.247 175.314 184.405 175.314H181.694V173.689H184.139C184.629 173.689 185.03 173.604 185.342 173.434C185.655 173.263 185.886 173.029 186.035 172.73C186.188 172.432 186.264 172.089 186.264 171.702C186.264 171.315 186.188 170.974 186.035 170.68C185.886 170.385 185.653 170.156 185.337 169.993C185.025 169.826 184.622 169.742 184.128 169.742H182.317V179H180.341ZM199.742 173.545C199.742 174.721 199.522 175.728 199.081 176.566C198.645 177.4 198.048 178.039 197.292 178.483C196.539 178.927 195.685 179.149 194.729 179.149C193.774 179.149 192.918 178.927 192.162 178.483C191.409 178.036 190.813 177.395 190.372 176.56C189.935 175.722 189.717 174.717 189.717 173.545C189.717 172.37 189.935 171.365 190.372 170.531C190.813 169.692 191.409 169.051 192.162 168.608C192.918 168.164 193.774 167.942 194.729 167.942C195.685 167.942 196.539 168.164 197.292 168.608C198.048 169.051 198.645 169.692 199.081 170.531C199.522 171.365 199.742 172.37 199.742 173.545ZM197.755 173.545C197.755 172.718 197.625 172.02 197.366 171.452C197.11 170.88 196.755 170.449 196.301 170.158C195.846 169.863 195.322 169.716 194.729 169.716C194.136 169.716 193.613 169.863 193.158 170.158C192.703 170.449 192.347 170.88 192.087 171.452C191.832 172.02 191.704 172.718 191.704 173.545C191.704 174.373 191.832 175.072 192.087 175.644C192.347 176.212 192.703 176.644 193.158 176.939C193.613 177.23 194.136 177.375 194.729 177.375C195.322 177.375 195.846 177.23 196.301 176.939C196.755 176.644 197.11 176.212 197.366 175.644C197.625 175.072 197.755 174.373 197.755 173.545ZM208.625 168.091V169.748H203.586V179H201.61V168.091H208.625ZM210.297 179V168.091H214.388C215.226 168.091 215.929 168.247 216.497 168.56C217.069 168.872 217.5 169.302 217.791 169.849C218.086 170.392 218.233 171.01 218.233 171.702C218.233 172.402 218.086 173.023 217.791 173.567C217.497 174.11 217.062 174.538 216.486 174.85C215.911 175.159 215.203 175.314 214.361 175.314H211.65V173.689H214.095C214.585 173.689 214.986 173.604 215.298 173.434C215.611 173.263 215.842 173.029 215.991 172.73C216.144 172.432 216.22 172.089 216.22 171.702C216.22 171.315 216.144 170.974 215.991 170.68C215.842 170.385 215.609 170.156 215.293 169.993C214.981 169.826 214.578 169.742 214.084 169.742H212.273V179H210.297ZM220.135 179H218.026L221.866 168.091H224.306L228.152 179H226.042L223.129 170.328H223.044L220.135 179ZM220.204 174.723H225.957V176.31H220.204V174.723ZM229.589 168.091H232.007L235.246 175.996H235.373L238.612 168.091H241.03V179H239.134V171.505H239.033L236.018 178.968H234.601L231.586 171.489H231.485V179H229.589V168.091ZM244.157 179.149V177.487H244.78C245.061 177.487 245.292 177.446 245.473 177.365C245.654 177.283 245.8 177.166 245.91 177.013C246.023 176.86 246.117 176.683 246.192 176.48L246.336 176.113L242.437 168.091H244.503L247.22 173.929L249.569 168.091H251.604L247.843 176.987C247.669 177.37 247.469 177.727 247.241 178.057C247.014 178.384 246.718 178.648 246.352 178.851C245.99 179.05 245.517 179.149 244.935 179.149H244.157ZM253.012 168.091H254.972V175.527H255.073L260.203 168.091H261.976V179H260V171.569H259.91L254.764 179H253.012V168.091ZM258.551 165.278H259.995C259.995 165.9 259.769 166.404 259.318 166.791C258.871 167.175 258.264 167.366 257.497 167.366C256.737 167.366 256.131 167.175 255.68 166.791C255.233 166.404 255.011 165.9 255.014 165.278H256.447C256.447 165.534 256.525 165.763 256.682 165.966C256.841 166.164 257.113 166.264 257.497 166.264C257.873 166.264 258.141 166.164 258.301 165.966C258.464 165.767 258.548 165.538 258.551 165.278ZM267.85 168.091H270.269L273.507 175.996H273.635L276.874 168.091H279.292V179H277.396V171.505H277.295L274.28 178.968H272.863L269.848 171.489H269.747V179H267.85V168.091ZM282.845 179H280.736L284.576 168.091H287.016L290.862 179H288.752L285.839 170.328H285.753L282.845 179ZM282.914 174.723H288.667V176.31H282.914V174.723ZM292.299 168.091H294.259V175.527H294.36L299.49 168.091H301.263V179H299.287V171.569H299.197L294.051 179H292.299V168.091ZM297.838 165.278H299.282C299.282 165.9 299.056 166.404 298.605 166.791C298.158 167.175 297.551 167.366 296.784 167.366C296.024 167.366 295.418 167.175 294.967 166.791C294.52 166.404 294.298 165.9 294.301 165.278H295.734C295.734 165.534 295.812 165.763 295.969 165.966C296.129 166.164 296.4 166.264 296.784 166.264C297.16 166.264 297.428 166.164 297.588 165.966C297.751 165.767 297.835 165.538 297.838 165.278ZM303.417 179V168.091H310.432V169.748H305.393V172.304H307.497C308.332 172.304 309.047 172.441 309.644 172.714C310.244 172.984 310.704 173.366 311.023 173.86C311.343 174.353 311.503 174.934 311.503 175.602C311.503 176.273 311.343 176.864 311.023 177.375C310.704 177.883 310.244 178.281 309.644 178.569C309.047 178.856 308.332 179 307.497 179H303.417ZM305.393 177.381H307.497C307.937 177.381 308.31 177.297 308.616 177.13C308.921 176.963 309.152 176.743 309.308 176.47C309.468 176.196 309.548 175.9 309.548 175.58C309.548 175.119 309.37 174.726 309.015 174.403C308.664 174.076 308.158 173.913 307.497 173.913H305.393V177.381ZM314.206 179.149V177.487H314.829C315.11 177.487 315.341 177.446 315.522 177.365C315.703 177.283 315.848 177.166 315.959 177.013C316.072 176.86 316.166 176.683 316.241 176.48L316.385 176.113L312.486 168.091H314.552L317.269 173.929L319.618 168.091H321.653L317.892 176.987C317.718 177.37 317.517 177.727 317.29 178.057C317.063 178.384 316.766 178.648 316.401 178.851C316.038 179.05 315.566 179.149 314.984 179.149H314.206ZM323.269 169.748V168.091H331.973V169.748H328.601V179H326.641V169.748H323.269ZM333.651 179V168.091H335.627V172.709H340.682V168.091H342.664V179H340.682V174.366H335.627V179H333.651ZM348.984 179.149C348.093 179.149 347.313 178.938 346.646 178.515C345.978 178.089 345.46 177.496 345.09 176.736C344.721 175.973 344.536 175.083 344.536 174.067V173.29C344.536 172.221 344.723 171.285 345.096 170.483C345.472 169.68 345.998 169.057 346.672 168.613C347.347 168.165 348.135 167.942 349.037 167.942C349.847 167.942 350.561 168.093 351.179 168.395C351.8 168.693 352.294 169.123 352.66 169.684C353.029 170.245 353.24 170.912 353.293 171.686H351.328C351.303 171.257 351.186 170.886 350.976 170.573C350.77 170.261 350.499 170.021 350.161 169.854C349.828 169.687 349.453 169.604 349.037 169.604C348.53 169.604 348.082 169.751 347.695 170.046C347.312 170.337 347.011 170.747 346.795 171.276C346.582 171.802 346.475 172.413 346.475 173.109V174.238C346.475 174.888 346.58 175.46 346.79 175.953C346.999 176.447 347.292 176.832 347.668 177.109C348.045 177.382 348.483 177.519 348.984 177.519C349.403 177.519 349.783 177.437 350.124 177.274C350.468 177.111 350.747 176.876 350.96 176.571C351.173 176.266 351.292 175.902 351.317 175.479H353.293C353.254 176.239 353.05 176.894 352.681 177.445C352.312 177.991 351.811 178.412 351.179 178.707C350.547 179.002 349.815 179.149 348.984 179.149ZM345.655 174.467V172.826H350.183V174.467H345.655ZM357.386 168.091L357.21 175.793H355.495L355.324 168.091H357.386ZM356.352 179.117C356.029 179.117 355.752 179.004 355.521 178.776C355.294 178.549 355.18 178.272 355.18 177.945C355.18 177.626 355.294 177.352 355.521 177.125C355.752 176.898 356.029 176.784 356.352 176.784C356.668 176.784 356.942 176.898 357.173 177.125C357.407 177.352 357.524 177.626 357.524 177.945C357.524 178.162 357.469 178.359 357.359 178.537C357.252 178.714 357.11 178.856 356.933 178.963C356.759 179.066 356.565 179.117 356.352 179.117Z" fill="white"/>
</g>
</g>
<defs>
<filter id="filter0_d_15_186" x="165.284" y="165.278" width="196.24" height="21.8708" filterUnits="userSpaceOnUse" color-interpolation-filters="sRGB">
<feFlood flood-opacity="0" result="BackgroundImageFix"/>
<feColorMatrix in="SourceAlpha" type="matrix" values="0 0 0 0 0 0 0 0 0 0 0 0 0 0 0 0 0 0 127 0" result="hardAlpha"/>
<feOffset dy="4"/>
<feGaussianBlur stdDeviation="2"/>
<feComposite in2="hardAlpha" operator="out"/>
<feColorMatrix type="matrix" values="0 0 0 0 0 0 0 0 0 0 0 0 0 0 0 0 0 0 0.25 0"/>
<feBlend mode="normal" in2="BackgroundImageFix" result="effect1_dropShadow_15_186"/>
<feBlend mode="normal" in="SourceGraphic" in2="effect1_dropShadow_15_186" result="shape"/>
</filter>
<linearGradient id="paint0_linear_15_186" x1="264" y1="0" x2="264" y2="239" gradientUnits="userSpaceOnUse">
<stop stop-color="#0FF6F6"/>
<stop offset="1" stop-color="#569CB9"/>
</linearGradient>
<clipPath id="clip0_15_186">
<rect width="528" height="239" fill="white"/>
</clipPath>
</defs>
</svg>
