<svg width="376" height="211" viewBox="0 0 376 211" fill="none" xmlns="http://www.w3.org/2000/svg">
<g clip-path="url(#clip0_222_2)">
<mask id="mask0_222_2" style="mask-type:luminance" maskUnits="userSpaceOnUse" x="0" y="0" width="376" height="211">
<path d="M375.5 0.5H0.5V210.5H375.5V0.5Z" fill="white"/>
</mask>
<g mask="url(#mask0_222_2)">
<path d="M375.5 0.5H0.5V210.5H375.5V0.5Z" fill="white"/>
<mask id="mask1_222_2" style="mask-type:luminance" maskUnits="userSpaceOnUse" x="-76" y="-14" width="529" height="240">
<path d="M452.5 -13.5H-75.5V225.5H452.5V-13.5Z" fill="white"/>
</mask>
<g mask="url(#mask1_222_2)">
<path d="M452.5 -13.5H-75.5V225.5H452.5V-13.5Z" fill="url(#paint0_linear_222_2)"/>
<g opacity="0.15">
<path d="M182.762 6.44629L193.524 17.2084L192.248 18.4847L181.486 7.72253L182.762 6.44629Z" fill="white"/>
<path d="M193.249 -4.04077L204.011 6.72136L201.709 9.02418L188.184 3.98948C191.509 6.8146 194.555 10.0277 197.63 13.1026L196.215 14.5175L185.453 3.75541L187.7 1.50815L201.28 6.54252C197.983 3.8 194.854 0.394232 191.834 -2.62578L193.249 -4.04077Z" fill="white"/>
<path d="M201.795 -12.5864L202.671 -11.1559L199.841 -8.32596L209.45 1.28311L208.201 2.53155L198.592 -7.07752L195.679 -4.16435L194.748 -5.53939L201.795 -12.5864Z" fill="white"/>
</g>
<g opacity="0.15">
<path fill-rule="evenodd" clip-rule="evenodd" d="M203.354 128.882L213.321 118.916C213.959 118.277 215.037 118.244 215.696 118.903L231.031 134.238C231.69 134.897 231.657 135.975 231.019 136.613L221.052 146.58C220.413 147.219 219.336 147.252 218.676 146.592L203.342 131.258C202.682 130.598 202.715 129.521 203.354 128.882Z" fill="#4B75A4"/>
<path d="M185.762 154.446L196.524 165.209L195.248 166.485L184.486 155.723L185.762 154.446Z" fill="white"/>
<path d="M196.249 143.959L207.011 154.721L204.709 157.024L191.184 151.989C194.509 154.815 197.555 158.028 200.63 161.103L199.215 162.517L188.453 151.755L190.7 149.508L204.28 154.542C200.983 151.8 197.854 148.394 194.834 145.374L196.249 143.959Z" fill="white"/>
<path d="M204.795 135.414L205.671 136.844L202.841 139.674L212.45 149.283L211.201 150.532L201.592 140.923L198.679 143.836L197.748 142.461L204.795 135.414Z" fill="white"/>
<path d="M219.841 141.891L209.079 131.129L207.67 132.538L218.433 143.3L219.841 141.891Z" fill="#FEFEFE"/>
<path d="M217.698 122.51L218.603 123.912L215.757 126.757L225.366 136.366L223.985 137.748L214.376 128.139L211.475 131.039L210.571 129.638L217.698 122.51Z" fill="#FEFEFE"/>
<path d="M228.288 123.672L231.007 120.953C229.603 120.16 227.87 119.203 224.898 117.562C226.429 120.314 227.413 122.076 228.288 123.672ZM232.63 121.855L229.218 125.267L229.163 125.212C229.901 126.561 230.694 127.964 231.788 129.946L230.262 131.472L222.773 117.436L224.854 115.355L238.89 122.843L237.281 124.452C235.162 123.277 233.869 122.538 232.63 121.855Z" fill="white"/>
<path fill-rule="evenodd" clip-rule="evenodd" d="M233.744 106.305L232.497 107.552L239.21 122.522L240.485 121.248L233.744 106.305Z" fill="#4B75A4"/>
<path fill-rule="evenodd" clip-rule="evenodd" d="M243.589 115.028L245.425 106.301L236.262 107.701L234.704 106.143L245.908 104.671L247.192 105.956L245.147 116.586L243.589 115.028Z" fill="#4B75A4"/>
</g>
<g opacity="0.15">
<path fill-rule="evenodd" clip-rule="evenodd" d="M200.354 53.8825L210.321 43.9156C210.959 43.277 212.037 43.244 212.696 43.9035L228.031 59.2378C228.69 59.8974 228.657 60.9748 228.019 61.6133L218.052 71.5802C217.413 72.2188 216.336 72.2518 215.676 71.5923L200.342 56.258C199.682 55.5984 199.715 54.521 200.354 53.8825Z" fill="#4B75A4"/>
<path d="M182.762 79.4465L193.524 90.2086L192.248 91.4849L181.486 80.7228L182.762 79.4465Z" fill="white"/>
<path d="M193.249 68.9592L204.011 79.7213L201.709 82.0241L188.184 76.9894C191.509 79.8146 194.555 83.0277 197.63 86.1026L196.215 87.5175L185.453 76.7554L187.7 74.5081L201.28 79.5425C197.983 76.8 194.854 73.3942 191.834 70.3742L193.249 68.9592Z" fill="white"/>
<path d="M201.795 60.4136L202.671 61.8441L199.841 64.6741L209.45 74.2831L208.201 75.5316L198.592 65.9225L195.679 68.8357L194.748 67.4606L201.795 60.4136Z" fill="white"/>
<path d="M216.841 66.8912L206.079 56.1292L204.67 57.5381L215.433 68.3002L216.841 66.8912Z" fill="#FEFEFE"/>
<path d="M214.698 47.5103L215.603 48.912L212.757 51.7574L222.366 61.3665L220.985 62.7477L211.376 53.1386L208.475 56.0393L207.571 54.6376L214.698 47.5103Z" fill="#FEFEFE"/>
<path d="M225.288 48.6717L228.007 45.9527C226.603 45.1597 224.87 44.2028 221.898 42.5626C223.429 45.3144 224.413 47.0756 225.288 48.6717ZM229.63 46.855L226.218 50.2675L226.163 50.2126C226.901 51.5611 227.694 52.9644 228.788 54.9458L227.262 56.4717L219.773 42.4358L221.854 40.355L235.89 47.8432L234.281 49.4524C232.162 48.2768 230.869 47.5384 229.63 46.855Z" fill="white"/>
<path fill-rule="evenodd" clip-rule="evenodd" d="M230.744 31.3052L229.497 32.5519L236.21 47.522L237.485 46.2475L230.744 31.3052Z" fill="#4B75A4"/>
<path fill-rule="evenodd" clip-rule="evenodd" d="M240.589 40.0275L242.425 31.3015L233.262 32.7009L231.704 31.1426L242.908 29.6711L244.192 30.956L242.147 41.5858L240.589 40.0275Z" fill="#4B75A4"/>
</g>
<g opacity="0.15">
<path fill-rule="evenodd" clip-rule="evenodd" d="M203.354 201.882L213.321 191.916C213.959 191.277 215.037 191.244 215.696 191.903L231.031 207.238C231.69 207.897 231.657 208.975 231.019 209.613L221.052 219.58C220.413 220.219 219.336 220.252 218.676 219.592L203.342 204.258C202.682 203.598 202.715 202.521 203.354 201.882Z" fill="#4B75A4"/>
<path d="M204.795 208.414L205.671 209.844L202.841 212.674L212.45 222.283L211.201 223.532L201.592 213.923L198.679 216.836L197.748 215.461L204.795 208.414Z" fill="white"/>
<path d="M219.841 214.891L209.079 204.129L207.67 205.538L218.433 216.3L219.841 214.891Z" fill="#FEFEFE"/>
<path d="M217.698 195.51L218.603 196.912L215.757 199.757L225.366 209.366L223.985 210.748L214.376 201.139L211.475 204.039L210.571 202.638L217.698 195.51Z" fill="#FEFEFE"/>
<path d="M228.288 196.672L231.007 193.953C229.603 193.16 227.87 192.203 224.898 190.562C226.429 193.314 227.413 195.076 228.288 196.672ZM232.63 194.855L229.218 198.267L229.163 198.212C229.901 199.561 230.694 200.964 231.788 202.946L230.262 204.472L222.773 190.436L224.854 188.355L238.89 195.843L237.281 197.452C235.162 196.277 233.869 195.538 232.63 194.855Z" fill="white"/>
<path fill-rule="evenodd" clip-rule="evenodd" d="M233.744 179.305L232.497 180.552L239.21 195.522L240.485 194.248L233.744 179.305Z" fill="#4B75A4"/>
<path fill-rule="evenodd" clip-rule="evenodd" d="M243.589 188.028L245.425 179.301L236.262 180.701L234.704 179.143L245.908 177.671L247.192 178.956L245.147 189.586L243.589 188.028Z" fill="#4B75A4"/>
</g>
<g opacity="0.15">
<path d="M40.7621 5.44629L51.5242 16.2084L50.248 17.4847L39.4858 6.72253L40.7621 5.44629Z" fill="white"/>
<path d="M51.2493 -5.04077L62.0114 5.72136L59.7086 8.02418L46.1841 2.98948C49.5087 5.8146 52.5553 9.02774 55.6302 12.1026L54.2152 13.5175L43.4531 2.75541L45.7004 0.508149L59.28 5.54252C55.9827 2.8 52.8543 -0.605772 49.8343 -3.62578L51.2493 -5.04077Z" fill="white"/>
<path d="M59.7949 -13.5864L60.6705 -12.1559L57.8405 -9.32596L67.4496 0.283109L66.2012 1.53155L56.5921 -8.07752L53.6789 -5.16435L52.7479 -6.53939L59.7949 -13.5864Z" fill="white"/>
</g>
<g opacity="0.15">
<path fill-rule="evenodd" clip-rule="evenodd" d="M61.354 127.882L71.3208 117.916C71.9594 117.277 73.0368 117.244 73.6963 117.903L89.0306 133.238C89.6902 133.897 89.6571 134.975 89.0185 135.613L79.0517 145.58C78.4131 146.219 77.3357 146.252 76.6762 145.592L61.3418 130.258C60.6823 129.598 60.7154 128.521 61.354 127.882Z" fill="#4B75A4"/>
<path d="M43.7621 153.446L54.5242 164.209L53.248 165.485L42.4858 154.723L43.7621 153.446Z" fill="white"/>
<path d="M54.2493 142.959L65.0114 153.721L62.7086 156.024L49.1841 150.989C52.5087 153.815 55.5553 157.028 58.6302 160.103L57.2152 161.517L46.4531 150.755L48.7004 148.508L62.28 153.542C58.9827 150.8 55.8543 147.394 52.8343 144.374L54.2493 142.959Z" fill="white"/>
<path d="M62.7949 134.414L63.6705 135.844L60.8405 138.674L70.4496 148.283L69.2012 149.532L59.5921 139.923L56.6789 142.836L55.7479 141.461L62.7949 134.414Z" fill="white"/>
<path d="M77.8414 140.891L67.0793 130.129L65.6704 131.538L76.4325 142.3L77.8414 140.891Z" fill="#FEFEFE"/>
<path d="M75.6982 121.51L76.6026 122.912L73.7572 125.757L83.3663 135.366L81.985 136.748L72.376 127.139L69.4753 130.039L68.5709 128.638L75.6982 121.51Z" fill="#FEFEFE"/>
<path d="M86.2879 122.672L89.0069 119.953C87.6034 119.16 85.8698 118.203 82.8978 116.562C84.4288 119.314 85.4131 121.076 86.2879 122.672ZM90.6304 120.855L87.2179 124.267L87.163 124.212C87.901 125.561 88.694 126.964 89.7876 128.946L88.2616 130.472L80.7733 116.436L82.8541 114.355L96.8901 121.843L95.2809 123.452C93.162 122.277 91.8687 121.538 90.6304 120.855Z" fill="white"/>
<path fill-rule="evenodd" clip-rule="evenodd" d="M91.7436 105.305L90.4969 106.552L97.2105 121.522L98.485 120.248L91.7436 105.305Z" fill="#4B75A4"/>
<path fill-rule="evenodd" clip-rule="evenodd" d="M101.589 114.028L103.425 105.301L94.2619 106.701L92.7036 105.143L103.908 103.671L105.192 104.956L103.147 115.586L101.589 114.028Z" fill="#4B75A4"/>
</g>
<g opacity="0.15">
<path fill-rule="evenodd" clip-rule="evenodd" d="M58.354 52.8825L68.3208 42.9156C68.9594 42.277 70.0368 42.244 70.6963 42.9035L86.0306 58.2378C86.6902 58.8974 86.6571 59.9748 86.0185 60.6133L76.0517 70.5802C75.4131 71.2188 74.3357 71.2518 73.6762 70.5923L58.3418 55.258C57.6823 54.5984 57.7154 53.521 58.354 52.8825Z" fill="#4B75A4"/>
<path d="M40.7621 78.4465L51.5242 89.2086L50.248 90.4849L39.4858 79.7228L40.7621 78.4465Z" fill="white"/>
<path d="M51.2493 67.9592L62.0114 78.7213L59.7086 81.0241L46.1841 75.9894C49.5087 78.8146 52.5553 82.0277 55.6302 85.1026L54.2152 86.5175L43.4531 75.7554L45.7004 73.5081L59.28 78.5425C55.9827 75.8 52.8543 72.3942 49.8343 69.3742L51.2493 67.9592Z" fill="white"/>
<path d="M59.7949 59.4136L60.6705 60.8441L57.8405 63.6741L67.4496 73.2831L66.2012 74.5316L56.5921 64.9225L53.6789 67.8357L52.7479 66.4606L59.7949 59.4136Z" fill="white"/>
<path d="M74.8414 65.8912L64.0793 55.1292L62.6703 56.5381L73.4325 67.3002L74.8414 65.8912Z" fill="#FEFEFE"/>
<path d="M72.6982 46.5103L73.6026 47.912L70.7572 50.7574L80.3663 60.3665L78.985 61.7477L69.376 52.1386L66.4753 55.0393L65.5709 53.6376L72.6982 46.5103Z" fill="#FEFEFE"/>
<path d="M83.2879 47.6717L86.0069 44.9527C84.6034 44.1597 82.8698 43.2028 79.8978 41.5626C81.4288 44.3144 82.4131 46.0756 83.2879 47.6717ZM87.6304 45.855L84.2179 49.2675L84.163 49.2126C84.901 50.5611 85.694 51.9644 86.7876 53.9458L85.2616 55.4717L77.7733 41.4358L79.8541 39.355L93.8901 46.8432L92.2809 48.4524C90.162 47.2768 88.8687 46.5384 87.6304 45.855Z" fill="white"/>
<path fill-rule="evenodd" clip-rule="evenodd" d="M88.7436 30.3052L87.4969 31.5519L94.2105 46.522L95.485 45.2475L88.7436 30.3052Z" fill="#4B75A4"/>
<path fill-rule="evenodd" clip-rule="evenodd" d="M98.5886 39.0275L100.425 30.3015L91.2619 31.7009L89.7036 30.1426L100.908 28.6711L102.192 29.956L100.147 40.5858L98.5886 39.0275Z" fill="#4B75A4"/>
</g>
<g opacity="0.15">
<path fill-rule="evenodd" clip-rule="evenodd" d="M61.354 200.882L71.3208 190.916C71.9594 190.277 73.0368 190.244 73.6963 190.903L89.0306 206.238C89.6902 206.897 89.6571 207.975 89.0185 208.613L79.0517 218.58C78.4131 219.219 77.3357 219.252 76.6762 218.592L61.3418 203.258C60.6823 202.598 60.7154 201.521 61.354 200.882Z" fill="#4B75A4"/>
<path d="M62.7949 207.414L63.6705 208.844L60.8405 211.674L70.4496 221.283L69.2012 222.532L59.5921 212.923L56.6789 215.836L55.7479 214.461L62.7949 207.414Z" fill="white"/>
<path d="M77.8414 213.891L67.0793 203.129L65.6704 204.538L76.4325 215.3L77.8414 213.891Z" fill="#FEFEFE"/>
<path d="M75.6982 194.51L76.6026 195.912L73.7572 198.757L83.3663 208.366L81.985 209.748L72.376 200.139L69.4753 203.039L68.5709 201.638L75.6982 194.51Z" fill="#FEFEFE"/>
<path d="M86.2879 195.672L89.0069 192.953C87.6034 192.16 85.8698 191.203 82.8978 189.562C84.4288 192.314 85.4131 194.076 86.2879 195.672ZM90.6304 193.855L87.2179 197.267L87.163 197.212C87.901 198.561 88.694 199.964 89.7876 201.946L88.2616 203.472L80.7733 189.436L82.8541 187.355L96.8901 194.843L95.2809 196.452C93.162 195.277 91.8687 194.538 90.6304 193.855Z" fill="white"/>
<path fill-rule="evenodd" clip-rule="evenodd" d="M91.7436 178.305L90.4969 179.552L97.2105 194.522L98.485 193.248L91.7436 178.305Z" fill="#4B75A4"/>
<path fill-rule="evenodd" clip-rule="evenodd" d="M101.589 187.028L103.425 178.301L94.2619 179.701L92.7036 178.143L103.908 176.671L105.192 177.956L103.147 188.586L101.589 187.028Z" fill="#4B75A4"/>
</g>
<g opacity="0.15">
<path d="M324.762 5.44629L335.524 16.2084L334.248 17.4847L323.486 6.72253L324.762 5.44629Z" fill="white"/>
<path d="M335.249 -5.04077L346.011 5.72136L343.709 8.02418L330.184 2.98948C333.509 5.8146 336.555 9.02774 339.63 12.1026L338.215 13.5175L327.453 2.75541L329.7 0.508149L343.28 5.54252C339.983 2.8 336.854 -0.605772 333.834 -3.62578L335.249 -5.04077Z" fill="white"/>
<path d="M343.794 -13.5864L344.67 -12.1559L341.84 -9.32596L351.449 0.283109L350.201 1.53155L340.592 -8.07752L337.678 -5.16435L336.747 -6.53939L343.794 -13.5864Z" fill="white"/>
</g>
<g opacity="0.15">
<path fill-rule="evenodd" clip-rule="evenodd" d="M345.354 127.882L355.321 117.916C355.959 117.277 357.037 117.244 357.696 117.903L373.031 133.238C373.69 133.897 373.657 134.975 373.019 135.613L363.052 145.58C362.413 146.219 361.336 146.252 360.676 145.592L345.342 130.258C344.682 129.598 344.715 128.521 345.354 127.882Z" fill="#4B75A4"/>
<path d="M327.762 153.446L338.524 164.209L337.248 165.485L326.486 154.723L327.762 153.446Z" fill="white"/>
<path d="M338.249 142.959L349.011 153.721L346.709 156.024L333.184 150.989C336.509 153.815 339.555 157.028 342.63 160.103L341.215 161.517L330.453 150.755L332.7 148.508L346.28 153.542C342.983 150.8 339.854 147.394 336.834 144.374L338.249 142.959Z" fill="white"/>
<path d="M346.794 134.414L347.67 135.844L344.84 138.674L354.449 148.283L353.201 149.532L343.592 139.923L340.678 142.836L339.747 141.461L346.794 134.414Z" fill="white"/>
<path d="M361.842 140.891L351.08 130.129L349.671 131.538L360.433 142.3L361.842 140.891Z" fill="#FEFEFE"/>
<path d="M359.698 121.51L360.603 122.912L357.757 125.757L367.366 135.366L365.985 136.748L356.376 127.139L353.475 130.039L352.571 128.638L359.698 121.51Z" fill="#FEFEFE"/>
<path d="M370.287 122.672L373.006 119.953C371.603 119.16 369.869 118.203 366.897 116.562C368.428 119.314 369.413 121.076 370.287 122.672ZM374.63 120.855L371.217 124.267L371.162 124.212C371.901 125.561 372.693 126.964 373.787 128.946L372.261 130.472L364.773 116.436L366.854 114.355L380.89 121.843L379.28 123.452C377.162 122.277 375.868 121.538 374.63 120.855Z" fill="white"/>
<path fill-rule="evenodd" clip-rule="evenodd" d="M375.744 105.305L374.497 106.552L381.211 121.522L382.486 120.248L375.744 105.305Z" fill="#4B75A4"/>
</g>
<g opacity="0.15">
<path fill-rule="evenodd" clip-rule="evenodd" d="M342.354 52.8825L352.321 42.9156C352.959 42.277 354.037 42.244 354.696 42.9035L370.031 58.2378C370.69 58.8974 370.657 59.9748 370.019 60.6133L360.052 70.5802C359.413 71.2188 358.336 71.2518 357.676 70.5923L342.342 55.258C341.682 54.5984 341.715 53.521 342.354 52.8825Z" fill="#4B75A4"/>
<path d="M324.762 78.4465L335.524 89.2086L334.248 90.4849L323.486 79.7228L324.762 78.4465Z" fill="white"/>
<path d="M335.249 67.9592L346.011 78.7213L343.709 81.0241L330.184 75.9894C333.509 78.8146 336.555 82.0277 339.63 85.1026L338.215 86.5175L327.453 75.7554L329.7 73.5081L343.28 78.5425C339.983 75.8 336.854 72.3942 333.834 69.3742L335.249 67.9592Z" fill="white"/>
<path d="M343.794 59.4136L344.67 60.8441L341.84 63.6741L351.449 73.2831L350.201 74.5316L340.592 64.9225L337.678 67.8357L336.747 66.4606L343.794 59.4136Z" fill="white"/>
<path d="M358.842 65.8912L348.08 55.1292L346.671 56.5381L357.433 67.3002L358.842 65.8912Z" fill="#FEFEFE"/>
<path d="M356.698 46.5103L357.603 47.912L354.757 50.7574L364.366 60.3665L362.985 61.7477L353.376 52.1386L350.475 55.0393L349.571 53.6376L356.698 46.5103Z" fill="#FEFEFE"/>
<path d="M367.287 47.6717L370.006 44.9527C368.603 44.1597 366.869 43.2028 363.897 41.5626C365.428 44.3144 366.413 46.0756 367.287 47.6717ZM371.63 45.855L368.217 49.2675L368.162 49.2126C368.901 50.5611 369.693 51.9644 370.787 53.9458L369.261 55.4717L361.773 41.4358L363.854 39.355L377.89 46.8432L376.28 48.4524C374.162 47.2768 372.868 46.5384 371.63 45.855Z" fill="white"/>
<path fill-rule="evenodd" clip-rule="evenodd" d="M372.744 30.3052L371.497 31.5519L378.211 46.522L379.486 45.2475L372.744 30.3052Z" fill="#4B75A4"/>
<path fill-rule="evenodd" clip-rule="evenodd" d="M382.589 39.0275L384.426 30.3015L375.262 31.7009L373.704 30.1426L384.908 28.6711L386.193 29.956L384.147 40.5858L382.589 39.0275Z" fill="#4B75A4"/>
</g>
<g opacity="0.15">
<path fill-rule="evenodd" clip-rule="evenodd" d="M345.354 200.882L355.321 190.916C355.959 190.277 357.037 190.244 357.696 190.903L373.031 206.238C373.69 206.897 373.657 207.975 373.019 208.613L363.052 218.58C362.413 219.219 361.336 219.252 360.676 218.592L345.342 203.258C344.682 202.598 344.715 201.521 345.354 200.882Z" fill="#4B75A4"/>
<path d="M346.794 207.414L347.67 208.844L344.84 211.674L354.449 221.283L353.201 222.532L343.592 212.923L340.678 215.836L339.747 214.461L346.794 207.414Z" fill="white"/>
<path d="M361.842 213.891L351.08 203.129L349.671 204.538L360.433 215.3L361.842 213.891Z" fill="#FEFEFE"/>
<path d="M359.698 194.51L360.603 195.912L357.757 198.757L367.366 208.366L365.985 209.748L356.376 200.139L353.475 203.039L352.571 201.638L359.698 194.51Z" fill="#FEFEFE"/>
<path d="M370.287 195.672L373.006 192.953C371.603 192.16 369.869 191.203 366.897 189.562C368.428 192.314 369.413 194.076 370.287 195.672ZM374.63 193.855L371.217 197.267L371.162 197.212C371.901 198.561 372.693 199.964 373.787 201.946L372.261 203.472L364.773 189.436L366.854 187.355L380.89 194.843L379.28 196.452C377.162 195.277 375.868 194.538 374.63 193.855Z" fill="white"/>
<path fill-rule="evenodd" clip-rule="evenodd" d="M375.744 178.305L374.497 179.552L381.211 194.522L382.486 193.248L375.744 178.305Z" fill="#4B75A4"/>
</g>
<g opacity="0.15">
<path fill-rule="evenodd" clip-rule="evenodd" d="M-9.646 128.882L0.320802 118.916C0.959384 118.277 2.03675 118.244 2.6963 118.903L18.0306 134.238C18.6902 134.897 18.6571 135.975 18.0185 136.613L8.05168 146.58C7.4131 147.219 6.33571 147.252 5.67619 146.592L-9.6582 131.258C-10.3177 130.598 -10.2846 129.521 -9.646 128.882Z" fill="#4B75A4"/>
<path d="M6.84142 141.891L-3.9207 131.129L-5.32959 132.538L5.43253 143.3L6.84142 141.891Z" fill="#FEFEFE"/>
<path d="M4.69824 122.51L5.60269 123.912L2.75723 126.757L12.3663 136.366L10.985 137.748L1.37602 128.139L-1.52463 131.039L-2.42908 129.638L4.69824 122.51Z" fill="#FEFEFE"/>
<path d="M15.2879 123.672L18.0069 120.953C16.6034 120.16 14.8698 119.203 11.8978 117.562C13.4288 120.314 14.4131 122.076 15.2879 123.672ZM19.6304 121.855L16.2179 125.267L16.163 125.212C16.901 126.561 17.694 127.964 18.7876 129.946L17.2616 131.472L9.77332 117.436L11.8541 115.355L25.8901 122.843L24.2809 124.452C22.162 123.277 20.8687 122.538 19.6304 121.855Z" fill="white"/>
<path fill-rule="evenodd" clip-rule="evenodd" d="M20.7436 106.305L19.4969 107.552L26.2105 122.522L27.485 121.248L20.7436 106.305Z" fill="#4B75A4"/>
<path fill-rule="evenodd" clip-rule="evenodd" d="M30.5886 115.028L32.4253 106.301L23.2619 107.701L21.7036 106.143L32.9075 104.671L34.1924 105.956L32.1469 116.586L30.5886 115.028Z" fill="#4B75A4"/>
</g>
<g opacity="0.15">
<path fill-rule="evenodd" clip-rule="evenodd" d="M-12.646 53.8825L-2.6792 43.9156C-2.04061 43.277 -0.963252 43.244 -0.303706 43.9035L15.0306 59.2378C15.6902 59.8974 15.6571 60.9748 15.0185 61.6133L5.05168 71.5802C4.4131 72.2188 3.33571 72.2518 2.67619 71.5923L-12.6582 56.258C-13.3177 55.5984 -13.2846 54.521 -12.646 53.8825Z" fill="#4B75A4"/>
<path d="M3.84142 66.8912L-6.9207 56.1292L-8.32959 57.5381L2.43253 68.3002L3.84142 66.8912Z" fill="#FEFEFE"/>
<path d="M1.69818 47.5103L2.60263 48.912L-0.242829 51.7574L9.36623 61.3665L7.98502 62.7477L-1.62404 53.1386L-4.52469 56.0393L-5.42914 54.6376L1.69818 47.5103Z" fill="#FEFEFE"/>
<path d="M12.2879 48.6717L15.0069 45.9527C13.6034 45.1597 11.8698 44.2028 8.89775 42.5626C10.4288 45.3144 11.4131 47.0756 12.2879 48.6717ZM16.6304 46.855L13.2179 50.2675L13.163 50.2126C13.901 51.5611 14.694 52.9644 15.7876 54.9458L14.2616 56.4717L6.77325 42.4358L8.85409 40.355L22.8901 47.8432L21.2809 49.4524C19.162 48.2768 17.8687 47.5384 16.6304 46.855Z" fill="white"/>
<path fill-rule="evenodd" clip-rule="evenodd" d="M17.7436 31.3052L16.4969 32.5519L23.2105 47.522L24.485 46.2475L17.7436 31.3052Z" fill="#4B75A4"/>
<path fill-rule="evenodd" clip-rule="evenodd" d="M27.5886 40.0275L29.4253 31.3015L20.2619 32.7009L18.7036 31.1426L29.9075 29.6711L31.1924 30.956L29.1469 41.5858L27.5886 40.0275Z" fill="#4B75A4"/>
</g>
<g opacity="0.15">
<path fill-rule="evenodd" clip-rule="evenodd" d="M-9.646 201.882L0.320802 191.916C0.959384 191.277 2.03675 191.244 2.6963 191.903L18.0306 207.238C18.6902 207.897 18.6571 208.975 18.0185 209.613L8.05168 219.58C7.4131 220.219 6.33571 220.252 5.67619 219.592L-9.6582 204.258C-10.3177 203.598 -10.2846 202.521 -9.646 201.882Z" fill="#4B75A4"/>
<path d="M6.84142 214.891L-3.9207 204.129L-5.32959 205.538L5.43253 216.3L6.84142 214.891Z" fill="#FEFEFE"/>
<path d="M4.69824 195.51L5.60269 196.912L2.75723 199.757L12.3663 209.366L10.985 210.748L1.37602 201.139L-1.52463 204.039L-2.42908 202.638L4.69824 195.51Z" fill="#FEFEFE"/>
<path d="M15.2879 196.672L18.0069 193.953C16.6034 193.16 14.8698 192.203 11.8978 190.562C13.4288 193.314 14.4131 195.076 15.2879 196.672ZM19.6304 194.855L16.2179 198.267L16.163 198.212C16.901 199.561 17.694 200.964 18.7876 202.946L17.2616 204.472L9.77332 190.436L11.8541 188.355L25.8901 195.843L24.2809 197.452C22.162 196.277 20.8687 195.538 19.6304 194.855Z" fill="white"/>
<path fill-rule="evenodd" clip-rule="evenodd" d="M20.7436 179.305L19.4969 180.552L26.2105 195.522L27.485 194.248L20.7436 179.305Z" fill="#4B75A4"/>
<path fill-rule="evenodd" clip-rule="evenodd" d="M30.5886 188.028L32.4253 179.301L23.2619 180.701L21.7036 179.143L32.9075 177.671L34.1924 178.956L32.1469 189.586L30.5886 188.028Z" fill="#4B75A4"/>
</g>
<g opacity="0.15">
<path d="M253.762 6.44629L264.524 17.2084L263.248 18.4847L252.486 7.72253L253.762 6.44629Z" fill="white"/>
<path d="M264.249 -4.04077L275.011 6.72136L272.709 9.02418L259.184 3.98948C262.509 6.8146 265.555 10.0277 268.63 13.1026L267.215 14.5175L256.453 3.75541L258.7 1.50815L272.28 6.54252C268.983 3.8 265.854 0.394232 262.834 -2.62578L264.249 -4.04077Z" fill="white"/>
<path d="M272.795 -12.5864L273.671 -11.1559L270.841 -8.32596L280.45 1.28311L279.201 2.53155L269.592 -7.07752L266.679 -4.16435L265.748 -5.53939L272.795 -12.5864Z" fill="white"/>
</g>
<g opacity="0.15">
<path fill-rule="evenodd" clip-rule="evenodd" d="M274.354 128.882L284.321 118.916C284.959 118.277 286.037 118.244 286.696 118.903L302.031 134.238C302.69 134.897 302.657 135.975 302.019 136.613L292.052 146.58C291.413 147.219 290.336 147.252 289.676 146.592L274.342 131.258C273.682 130.598 273.715 129.521 274.354 128.882Z" fill="#4B75A4"/>
<path d="M256.762 154.446L267.524 165.209L266.248 166.485L255.486 155.723L256.762 154.446Z" fill="white"/>
<path d="M267.249 143.959L278.011 154.721L275.709 157.024L262.184 151.989C265.509 154.815 268.555 158.028 271.63 161.103L270.215 162.517L259.453 151.755L261.7 149.508L275.28 154.542C271.983 151.8 268.854 148.394 265.834 145.374L267.249 143.959Z" fill="white"/>
<path d="M275.795 135.414L276.671 136.844L273.841 139.674L283.45 149.283L282.201 150.532L272.592 140.923L269.679 143.836L268.748 142.461L275.795 135.414Z" fill="white"/>
<path d="M290.841 141.891L280.079 131.129L278.67 132.538L289.433 143.3L290.841 141.891Z" fill="#FEFEFE"/>
<path d="M288.698 122.51L289.603 123.912L286.757 126.757L296.366 136.366L294.985 137.748L285.376 128.139L282.475 131.039L281.571 129.638L288.698 122.51Z" fill="#FEFEFE"/>
<path d="M299.288 123.672L302.007 120.953C300.603 120.16 298.87 119.203 295.898 117.562C297.429 120.314 298.413 122.076 299.288 123.672ZM303.63 121.855L300.218 125.267L300.163 125.212C300.901 126.561 301.694 127.964 302.788 129.946L301.262 131.472L293.773 117.436L295.854 115.355L309.89 122.843L308.281 124.452C306.162 123.277 304.869 122.538 303.63 121.855Z" fill="white"/>
<path fill-rule="evenodd" clip-rule="evenodd" d="M304.744 106.305L303.497 107.552L310.21 122.522L311.485 121.248L304.744 106.305Z" fill="#4B75A4"/>
<path fill-rule="evenodd" clip-rule="evenodd" d="M314.589 115.028L316.425 106.301L307.262 107.701L305.704 106.143L316.908 104.671L318.192 105.956L316.147 116.586L314.589 115.028Z" fill="#4B75A4"/>
</g>
<g opacity="0.15">
<path fill-rule="evenodd" clip-rule="evenodd" d="M271.354 53.8825L281.321 43.9156C281.959 43.277 283.037 43.244 283.696 43.9035L299.031 59.2378C299.69 59.8974 299.657 60.9748 299.019 61.6133L289.052 71.5802C288.413 72.2188 287.336 72.2518 286.676 71.5923L271.342 56.258C270.682 55.5984 270.715 54.521 271.354 53.8825Z" fill="#4B75A4"/>
<path d="M253.762 79.4465L264.524 90.2086L263.248 91.4849L252.486 80.7228L253.762 79.4465Z" fill="white"/>
<path d="M264.249 68.9592L275.011 79.7213L272.709 82.0241L259.184 76.9894C262.509 79.8146 265.555 83.0277 268.63 86.1026L267.215 87.5175L256.453 76.7554L258.7 74.5081L272.28 79.5425C268.983 76.8 265.854 73.3942 262.834 70.3742L264.249 68.9592Z" fill="white"/>
<path d="M272.795 60.4136L273.671 61.8441L270.841 64.6741L280.45 74.2831L279.201 75.5316L269.592 65.9225L266.679 68.8357L265.748 67.4606L272.795 60.4136Z" fill="white"/>
<path d="M287.841 66.8912L277.079 56.1292L275.67 57.5381L286.433 68.3002L287.841 66.8912Z" fill="#FEFEFE"/>
<path d="M285.698 47.5103L286.603 48.912L283.757 51.7574L293.366 61.3665L291.985 62.7477L282.376 53.1386L279.475 56.0393L278.571 54.6376L285.698 47.5103Z" fill="#FEFEFE"/>
<path d="M296.288 48.6717L299.007 45.9527C297.603 45.1597 295.87 44.2028 292.898 42.5626C294.429 45.3144 295.413 47.0756 296.288 48.6717ZM300.63 46.855L297.218 50.2675L297.163 50.2126C297.901 51.5611 298.694 52.9644 299.788 54.9458L298.262 56.4717L290.773 42.4358L292.854 40.355L306.89 47.8432L305.281 49.4524C303.162 48.2768 301.869 47.5384 300.63 46.855Z" fill="white"/>
<path fill-rule="evenodd" clip-rule="evenodd" d="M301.744 31.3052L300.497 32.5519L307.21 47.522L308.485 46.2475L301.744 31.3052Z" fill="#4B75A4"/>
<path fill-rule="evenodd" clip-rule="evenodd" d="M311.589 40.0275L313.425 31.3015L304.262 32.7009L302.704 31.1426L313.908 29.6711L315.192 30.956L313.147 41.5858L311.589 40.0275Z" fill="#4B75A4"/>
</g>
<g opacity="0.15">
<path fill-rule="evenodd" clip-rule="evenodd" d="M274.354 201.882L284.321 191.916C284.959 191.277 286.037 191.244 286.696 191.903L302.031 207.238C302.69 207.897 302.657 208.975 302.019 209.613L292.052 219.58C291.413 220.219 290.336 220.252 289.676 219.592L274.342 204.258C273.682 203.598 273.715 202.521 274.354 201.882Z" fill="#4B75A4"/>
<path d="M275.795 208.414L276.671 209.844L273.841 212.674L283.45 222.283L282.201 223.532L272.592 213.923L269.679 216.836L268.748 215.461L275.795 208.414Z" fill="white"/>
<path d="M290.841 214.891L280.079 204.129L278.67 205.538L289.433 216.3L290.841 214.891Z" fill="#FEFEFE"/>
<path d="M288.698 195.51L289.603 196.912L286.757 199.757L296.366 209.366L294.985 210.748L285.376 201.139L282.475 204.039L281.571 202.638L288.698 195.51Z" fill="#FEFEFE"/>
<path d="M299.288 196.672L302.007 193.953C300.603 193.16 298.87 192.203 295.898 190.562C297.429 193.314 298.413 195.076 299.288 196.672ZM303.63 194.855L300.218 198.267L300.163 198.212C300.901 199.561 301.694 200.964 302.788 202.946L301.262 204.472L293.773 190.436L295.854 188.355L309.89 195.843L308.281 197.452C306.162 196.277 304.869 195.538 303.63 194.855Z" fill="white"/>
<path fill-rule="evenodd" clip-rule="evenodd" d="M304.744 179.305L303.497 180.552L310.21 195.522L311.485 194.248L304.744 179.305Z" fill="#4B75A4"/>
<path fill-rule="evenodd" clip-rule="evenodd" d="M314.589 188.028L316.425 179.301L307.262 180.701L305.704 179.143L316.908 177.671L318.192 178.956L316.147 189.586L314.589 188.028Z" fill="#4B75A4"/>
</g>
<g opacity="0.15">
<path d="M111.762 5.44629L122.524 16.2084L121.248 17.4847L110.486 6.72253L111.762 5.44629Z" fill="white"/>
<path d="M122.249 -5.04077L133.011 5.72136L130.709 8.02418L117.184 2.98948C120.509 5.8146 123.555 9.02774 126.63 12.1026L125.215 13.5175L114.453 2.75541L116.7 0.508149L130.28 5.54252C126.983 2.8 123.854 -0.605772 120.834 -3.62578L122.249 -5.04077Z" fill="white"/>
<path d="M130.795 -13.5864L131.671 -12.1559L128.841 -9.32596L138.45 0.283109L137.201 1.53155L127.592 -8.07752L124.679 -5.16435L123.748 -6.53939L130.795 -13.5864Z" fill="white"/>
</g>
<g opacity="0.15">
<path fill-rule="evenodd" clip-rule="evenodd" d="M132.354 127.882L142.321 117.916C142.959 117.277 144.037 117.244 144.696 117.903L160.031 133.238C160.69 133.897 160.657 134.975 160.019 135.613L150.052 145.58C149.413 146.219 148.336 146.252 147.676 145.592L132.342 130.258C131.682 129.598 131.715 128.521 132.354 127.882Z" fill="#4B75A4"/>
<path d="M114.762 153.446L125.524 164.209L124.248 165.485L113.486 154.723L114.762 153.446Z" fill="white"/>
<path d="M125.249 142.959L136.011 153.721L133.709 156.024L120.184 150.989C123.509 153.815 126.555 157.028 129.63 160.103L128.215 161.517L117.453 150.755L119.7 148.508L133.28 153.542C129.983 150.8 126.854 147.394 123.834 144.374L125.249 142.959Z" fill="white"/>
<path d="M133.795 134.414L134.671 135.844L131.841 138.674L141.45 148.283L140.201 149.532L130.592 139.923L127.679 142.836L126.748 141.461L133.795 134.414Z" fill="white"/>
<path d="M148.841 140.891L138.079 130.129L136.67 131.538L147.433 142.3L148.841 140.891Z" fill="#FEFEFE"/>
<path d="M146.698 121.51L147.603 122.912L144.757 125.757L154.366 135.366L152.985 136.748L143.376 127.139L140.475 130.039L139.571 128.638L146.698 121.51Z" fill="#FEFEFE"/>
<path d="M157.288 122.672L160.007 119.953C158.603 119.16 156.87 118.203 153.898 116.562C155.429 119.314 156.413 121.076 157.288 122.672ZM161.63 120.855L158.218 124.267L158.163 124.212C158.901 125.561 159.694 126.964 160.788 128.946L159.262 130.472L151.773 116.436L153.854 114.355L167.89 121.843L166.281 123.452C164.162 122.277 162.869 121.538 161.63 120.855Z" fill="white"/>
<path fill-rule="evenodd" clip-rule="evenodd" d="M162.744 105.305L161.497 106.552L168.21 121.522L169.485 120.248L162.744 105.305Z" fill="#4B75A4"/>
<path fill-rule="evenodd" clip-rule="evenodd" d="M172.589 114.028L174.425 105.301L165.262 106.701L163.704 105.143L174.908 103.671L176.192 104.956L174.147 115.586L172.589 114.028Z" fill="#4B75A4"/>
</g>
<g opacity="0.15">
<path fill-rule="evenodd" clip-rule="evenodd" d="M129.354 52.8825L139.321 42.9156C139.959 42.277 141.037 42.244 141.696 42.9035L157.031 58.2378C157.69 58.8974 157.657 59.9748 157.019 60.6133L147.052 70.5802C146.413 71.2188 145.336 71.2518 144.676 70.5923L129.342 55.258C128.682 54.5984 128.715 53.521 129.354 52.8825Z" fill="#4B75A4"/>
<path d="M111.762 78.4465L122.524 89.2086L121.248 90.4849L110.486 79.7228L111.762 78.4465Z" fill="white"/>
<path d="M122.249 67.9592L133.011 78.7213L130.709 81.0241L117.184 75.9894C120.509 78.8146 123.555 82.0277 126.63 85.1026L125.215 86.5175L114.453 75.7554L116.7 73.5081L130.28 78.5425C126.983 75.8 123.854 72.3942 120.834 69.3742L122.249 67.9592Z" fill="white"/>
<path d="M130.795 59.4136L131.671 60.8441L128.841 63.6741L138.45 73.2831L137.201 74.5316L127.592 64.9225L124.679 67.8357L123.748 66.4606L130.795 59.4136Z" fill="white"/>
<path d="M145.841 65.8912L135.079 55.1292L133.67 56.5381L144.433 67.3002L145.841 65.8912Z" fill="#FEFEFE"/>
<path d="M143.698 46.5103L144.603 47.912L141.757 50.7574L151.366 60.3665L149.985 61.7477L140.376 52.1386L137.475 55.0393L136.571 53.6376L143.698 46.5103Z" fill="#FEFEFE"/>
<path d="M154.288 47.6717L157.007 44.9527C155.603 44.1597 153.87 43.2028 150.898 41.5626C152.429 44.3144 153.413 46.0756 154.288 47.6717ZM158.63 45.855L155.218 49.2675L155.163 49.2126C155.901 50.5611 156.694 51.9644 157.788 53.9458L156.262 55.4717L148.773 41.4358L150.854 39.355L164.89 46.8432L163.281 48.4524C161.162 47.2768 159.869 46.5384 158.63 45.855Z" fill="white"/>
<path fill-rule="evenodd" clip-rule="evenodd" d="M159.744 30.3052L158.497 31.5519L165.21 46.522L166.485 45.2475L159.744 30.3052Z" fill="#4B75A4"/>
<path fill-rule="evenodd" clip-rule="evenodd" d="M169.589 39.0275L171.425 30.3015L162.262 31.7009L160.704 30.1426L171.908 28.6711L173.192 29.956L171.147 40.5858L169.589 39.0275Z" fill="#4B75A4"/>
</g>
<g opacity="0.15">
<path fill-rule="evenodd" clip-rule="evenodd" d="M132.354 200.882L142.321 190.916C142.959 190.277 144.037 190.244 144.696 190.903L160.031 206.238C160.69 206.897 160.657 207.975 160.019 208.613L150.052 218.58C149.413 219.219 148.336 219.252 147.676 218.592L132.342 203.258C131.682 202.598 131.715 201.521 132.354 200.882Z" fill="#4B75A4"/>
<path d="M133.795 207.414L134.671 208.844L131.841 211.674L141.45 221.283L140.201 222.532L130.592 212.923L127.679 215.836L126.748 214.461L133.795 207.414Z" fill="white"/>
<path d="M148.841 213.891L138.079 203.129L136.67 204.538L147.433 215.3L148.841 213.891Z" fill="#FEFEFE"/>
<path d="M146.698 194.51L147.603 195.912L144.757 198.757L154.366 208.366L152.985 209.748L143.376 200.139L140.475 203.039L139.571 201.638L146.698 194.51Z" fill="#FEFEFE"/>
<path d="M157.288 195.672L160.007 192.953C158.603 192.16 156.87 191.203 153.898 189.562C155.429 192.314 156.413 194.076 157.288 195.672ZM161.63 193.855L158.218 197.267L158.163 197.212C158.901 198.561 159.694 199.964 160.788 201.946L159.262 203.472L151.773 189.436L153.854 187.355L167.89 194.843L166.281 196.452C164.162 195.277 162.869 194.538 161.63 193.855Z" fill="white"/>
<path fill-rule="evenodd" clip-rule="evenodd" d="M162.744 178.305L161.497 179.552L168.21 194.522L169.485 193.248L162.744 178.305Z" fill="#4B75A4"/>
<path fill-rule="evenodd" clip-rule="evenodd" d="M172.589 187.028L174.425 178.301L165.262 179.701L163.704 178.143L174.908 176.671L176.192 177.956L174.147 188.586L172.589 187.028Z" fill="#4B75A4"/>
</g>
<path fill-rule="evenodd" clip-rule="evenodd" d="M181.582 72.5H206.04C207.607 72.5 208.97 73.7981 208.97 75.4379V113.562C208.97 115.202 207.607 116.5 206.04 116.5H181.582C180.015 116.5 178.653 115.202 178.653 113.562V75.4379C178.653 73.7981 180.015 72.5 181.582 72.5Z" fill="#4B75A4"/>
<path d="M128.632 82.4097V109.166H125.5V82.4097H128.632Z" fill="white"/>
<path d="M154.367 82.4097V109.166H148.716L138.299 86.0956C138.912 93.7403 138.708 101.522 138.708 109.166H135.236V82.4097H140.75L151.235 105.549C150.554 98.0406 150.895 89.918 150.895 82.4097H154.367Z" fill="white"/>
<path d="M175.336 82.4097L174.655 85.2764H167.711V109.166H164.647V85.2764H157.499L158.043 82.4097H175.336Z" fill="white"/>
<path d="M185.85 109.166V82.4097H182.393V109.166H185.85Z" fill="#FEFEFE"/>
<path d="M207.001 82.4097L206.391 85.2764H199.408V109.166H196.019V85.2764H188.901L189.511 82.4097H207.001Z" fill="#FEFEFE"/>
<path d="M218.568 97.0167H225.24C224.491 94.2863 223.538 90.9417 221.904 85.2082C220.406 90.5322 219.453 93.9452 218.568 97.0167ZM226.125 100.156H217.751V100.02C217.002 102.614 216.253 105.344 215.164 109.166H211.419L219.453 82.4097H224.559L232.593 109.166H228.644C227.487 105.071 226.806 102.545 226.125 100.156Z" fill="white"/>
<path fill-rule="evenodd" clip-rule="evenodd" d="M246.57 82.2119H243.511L233.38 109.167H236.508L246.57 82.2119Z" fill="#4B75A4"/>
<path fill-rule="evenodd" clip-rule="evenodd" d="M247.948 105.292L260.908 96.7283L247.948 87.0768V83.2026L263.5 95.3011V98.4956L247.948 109.167V105.292Z" fill="#4B75A4"/>
<g filter="url(#filter0_d_222_2)">
<path d="M121.482 154.773V163.5H119.913V156.085H116.095V163.5H114.527V154.773H121.482ZM123.373 163.5V154.773H126.645C127.316 154.773 127.878 154.898 128.333 155.148C128.79 155.398 129.135 155.741 129.368 156.179C129.604 156.614 129.722 157.108 129.722 157.662C129.722 158.222 129.604 158.719 129.368 159.153C129.132 159.588 128.784 159.93 128.324 160.18C127.864 160.428 127.297 160.551 126.624 160.551H124.455V159.251H126.411C126.803 159.251 127.124 159.183 127.374 159.047C127.624 158.911 127.809 158.723 127.928 158.484C128.05 158.246 128.111 157.972 128.111 157.662C128.111 157.352 128.05 157.08 127.928 156.844C127.809 156.608 127.623 156.425 127.37 156.294C127.12 156.161 126.797 156.094 126.402 156.094H124.953V163.5H123.373ZM138.893 159.136C138.893 160.077 138.717 160.882 138.365 161.553C138.016 162.22 137.538 162.732 136.933 163.087C136.331 163.442 135.648 163.619 134.884 163.619C134.119 163.619 133.435 163.442 132.83 163.087C132.227 162.729 131.75 162.216 131.398 161.548C131.048 160.878 130.874 160.074 130.874 159.136C130.874 158.196 131.048 157.392 131.398 156.724C131.75 156.054 132.227 155.541 132.83 155.186C133.435 154.831 134.119 154.653 134.884 154.653C135.648 154.653 136.331 154.831 136.933 155.186C137.538 155.541 138.016 156.054 138.365 156.724C138.717 157.392 138.893 158.196 138.893 159.136ZM137.304 159.136C137.304 158.474 137.2 157.916 136.993 157.462C136.788 157.004 136.504 156.659 136.141 156.426C135.777 156.19 135.358 156.072 134.884 156.072C134.409 156.072 133.99 156.19 133.626 156.426C133.263 156.659 132.977 157.004 132.77 157.462C132.565 157.916 132.463 158.474 132.463 159.136C132.463 159.798 132.565 160.358 132.77 160.815C132.977 161.27 133.263 161.615 133.626 161.851C133.99 162.084 134.409 162.2 134.884 162.2C135.358 162.2 135.777 162.084 136.141 161.851C136.504 161.615 136.788 161.27 136.993 160.815C137.2 160.358 137.304 159.798 137.304 159.136ZM146 154.773V156.098H141.969V163.5H140.388V154.773H146ZM147.337 163.5V154.773H150.61C151.281 154.773 151.843 154.898 152.298 155.148C152.755 155.398 153.1 155.741 153.333 156.179C153.569 156.614 153.687 157.108 153.687 157.662C153.687 158.222 153.569 158.719 153.333 159.153C153.097 159.588 152.749 159.93 152.289 160.18C151.829 160.428 151.262 160.551 150.589 160.551H148.42V159.251H150.376C150.768 159.251 151.089 159.183 151.339 159.047C151.589 158.911 151.773 158.723 151.893 158.484C152.015 158.246 152.076 157.972 152.076 157.662C152.076 157.352 152.015 157.08 151.893 156.844C151.773 156.608 151.587 156.425 151.335 156.294C151.085 156.161 150.762 156.094 150.367 156.094H148.918V163.5H147.337ZM155.208 163.5H153.521L156.593 154.773H158.545L161.621 163.5H159.934L157.603 156.562H157.535L155.208 163.5ZM155.263 160.078H159.866V161.348H155.263V160.078ZM162.771 154.773H164.706L167.297 161.097H167.399L169.99 154.773H171.924V163.5H170.407V157.504H170.326L167.914 163.474H166.781L164.369 157.491H164.288V163.5H162.771V154.773ZM174.426 163.619V162.29H174.924C175.149 162.29 175.333 162.257 175.478 162.192C175.623 162.126 175.74 162.033 175.828 161.911C175.919 161.788 175.994 161.646 176.054 161.484L176.169 161.19L173.049 154.773H174.703L176.876 159.443L178.755 154.773H180.383L177.375 161.889C177.235 162.196 177.075 162.482 176.893 162.746C176.711 163.007 176.474 163.219 176.181 163.381C175.892 163.54 175.514 163.619 175.048 163.619H174.426ZM181.509 154.773H183.077V160.722H183.158L187.262 154.773H188.681V163.5H187.1V157.555H187.028L182.911 163.5H181.509V154.773ZM185.941 152.523H187.096C187.096 153.02 186.915 153.423 186.555 153.733C186.197 154.04 185.711 154.193 185.097 154.193C184.489 154.193 184.005 154.04 183.644 153.733C183.286 153.423 183.109 153.02 183.112 152.523H184.258C184.258 152.727 184.32 152.911 184.445 153.072C184.573 153.232 184.79 153.311 185.097 153.311C185.398 153.311 185.613 153.232 185.741 153.072C185.871 152.913 185.938 152.73 185.941 152.523ZM193.38 154.773H195.315L197.906 161.097H198.008L200.599 154.773H202.534V163.5H201.017V157.504H200.936L198.524 163.474H197.39L194.978 157.491H194.897V163.5H193.38V154.773ZM205.376 163.5H203.689L206.761 154.773H208.713L211.789 163.5H210.102L207.771 156.562H207.703L205.376 163.5ZM205.431 160.078H210.034V161.348H205.431V160.078ZM212.939 154.773H214.507V160.722H214.588L218.692 154.773H220.111V163.5H218.53V157.555H218.457L214.341 163.5H212.939V154.773ZM217.371 152.523H218.526C218.526 153.02 218.345 153.423 217.984 153.733C217.626 154.04 217.141 154.193 216.527 154.193C215.919 154.193 215.435 154.04 215.074 153.733C214.716 153.423 214.538 153.02 214.541 152.523H215.688C215.688 152.727 215.75 152.911 215.875 153.072C216.003 153.232 216.22 153.311 216.527 153.311C216.828 153.311 217.043 153.232 217.17 153.072C217.301 152.913 217.368 152.73 217.371 152.523ZM221.833 163.5V154.773H227.446V156.098H223.414V158.143H225.098C225.765 158.143 226.338 158.253 226.815 158.472C227.295 158.687 227.663 158.993 227.919 159.388C228.174 159.783 228.302 160.247 228.302 160.781C228.302 161.318 228.174 161.791 227.919 162.2C227.663 162.607 227.295 162.925 226.815 163.155C226.338 163.385 225.765 163.5 225.098 163.5H221.833ZM223.414 162.205H225.098C225.45 162.205 225.748 162.138 225.993 162.004C226.237 161.871 226.422 161.695 226.547 161.476C226.674 161.257 226.738 161.02 226.738 160.764C226.738 160.395 226.596 160.081 226.312 159.822C226.031 159.561 225.626 159.43 225.098 159.43H223.414V162.205ZM230.465 163.619V162.29H230.963C231.188 162.29 231.373 162.257 231.517 162.192C231.662 162.126 231.779 162.033 231.867 161.911C231.958 161.788 232.033 161.646 232.093 161.484L232.208 161.19L229.088 154.773H230.742L232.915 159.443L234.794 154.773H236.422L233.414 161.889C233.275 162.196 233.114 162.482 232.932 162.746C232.75 163.007 232.513 163.219 232.221 163.381C231.931 163.54 231.553 163.619 231.087 163.619H230.465ZM237.716 156.098V154.773H244.679V156.098H241.981V163.5H240.413V156.098H237.716ZM246.021 163.5V154.773H247.602V158.467H251.646V154.773H253.231V163.5H251.646V159.793H247.602V163.5H246.021ZM258.287 163.619C257.574 163.619 256.951 163.45 256.417 163.112C255.882 162.771 255.468 162.297 255.172 161.689C254.877 161.078 254.729 160.366 254.729 159.554V158.932C254.729 158.077 254.878 157.328 255.176 156.686C255.478 156.044 255.898 155.545 256.438 155.19C256.978 154.832 257.608 154.653 258.33 154.653C258.978 154.653 259.549 154.774 260.043 155.016C260.54 155.254 260.935 155.598 261.228 156.047C261.523 156.496 261.692 157.03 261.735 157.649H260.162C260.142 157.305 260.049 157.009 259.881 156.759C259.716 156.509 259.499 156.317 259.229 156.183C258.962 156.05 258.662 155.983 258.33 155.983C257.924 155.983 257.566 156.101 257.256 156.337C256.949 156.57 256.709 156.898 256.536 157.321C256.365 157.741 256.28 158.23 256.28 158.787V159.69C256.28 160.21 256.364 160.668 256.532 161.062C256.699 161.457 256.934 161.766 257.235 161.987C257.536 162.206 257.887 162.315 258.287 162.315C258.623 162.315 258.926 162.25 259.199 162.119C259.475 161.989 259.698 161.801 259.868 161.557C260.039 161.312 260.134 161.021 260.154 160.683H261.735C261.703 161.291 261.54 161.815 261.245 162.256C260.949 162.693 260.549 163.03 260.043 163.266C259.537 163.501 258.952 163.619 258.287 163.619ZM255.624 159.874V158.561H259.246V159.874H255.624ZM265.009 154.773L264.868 160.935H263.496L263.359 154.773H265.009ZM264.182 163.594C263.923 163.594 263.702 163.503 263.517 163.321C263.335 163.139 263.244 162.918 263.244 162.656C263.244 162.401 263.335 162.182 263.517 162C263.702 161.818 263.923 161.727 264.182 161.727C264.435 161.727 264.653 161.818 264.838 162C265.026 162.182 265.119 162.401 265.119 162.656C265.119 162.83 265.075 162.987 264.987 163.129C264.902 163.271 264.788 163.385 264.646 163.47C264.507 163.553 264.352 163.594 264.182 163.594Z" fill="white"/>
</g>
</g>
</g>
<g clip-path="url(#clip1_222_2)">
<path d="M188 156C215.614 156 238 133.614 238 106C238 78.3858 215.614 56 188 56C160.386 56 138 78.3858 138 106C138 133.614 160.386 156 188 156Z" fill="#D7D7D7" fill-opacity="0.68"/>
<path d="M208 106L178 123.32V88.6794L208 106Z" fill="#303030"/>
</g>
</g>
<defs>
<filter id="filter0_d_222_2" x="110.527" y="152.523" width="158.592" height="19.0959" filterUnits="userSpaceOnUse" color-interpolation-filters="sRGB">
<feFlood flood-opacity="0" result="BackgroundImageFix"/>
<feColorMatrix in="SourceAlpha" type="matrix" values="0 0 0 0 0 0 0 0 0 0 0 0 0 0 0 0 0 0 127 0" result="hardAlpha"/>
<feOffset dy="4"/>
<feGaussianBlur stdDeviation="2"/>
<feComposite in2="hardAlpha" operator="out"/>
<feColorMatrix type="matrix" values="0 0 0 0 0 0 0 0 0 0 0 0 0 0 0 0 0 0 0.25 0"/>
<feBlend mode="normal" in2="BackgroundImageFix" result="effect1_dropShadow_222_2"/>
<feBlend mode="normal" in="SourceGraphic" in2="effect1_dropShadow_222_2" result="shape"/>
</filter>
<linearGradient id="paint0_linear_222_2" x1="188.5" y1="-13.5" x2="188.5" y2="225.5" gradientUnits="userSpaceOnUse">
<stop stop-color="#0FF6F6"/>
<stop offset="1" stop-color="#569CB9"/>
</linearGradient>
<clipPath id="clip0_222_2">
<rect width="375" height="210" fill="white" transform="translate(0.5 0.5)"/>
</clipPath>
<clipPath id="clip1_222_2">
<rect width="100" height="100" fill="white" transform="translate(138 56)"/>
</clipPath>
</defs>
</svg>
