<svg width="941" height="529" viewBox="0 0 941 529" fill="none" xmlns="http://www.w3.org/2000/svg">
<g clip-path="url(#clip0_228_1962)">
<mask id="mask0_228_1962" style="mask-type:luminance" maskUnits="userSpaceOnUse" x="0" y="0" width="941" height="529">
<path d="M940.5 0.5H0.5V528.5H940.5V0.5Z" fill="white"/>
</mask>
<g mask="url(#mask0_228_1962)">
<path d="M940.5 0.5H0.5V528.5H940.5V0.5Z" fill="white"/>
<mask id="mask1_228_1962" style="mask-type:luminance" maskUnits="userSpaceOnUse" x="0" y="-8" width="956" height="537">
<path d="M955.5 -7.5H0.5V528.5H955.5V-7.5Z" fill="white"/>
</mask>
<g mask="url(#mask1_228_1962)">
<path d="M955.5 -7.5H0.5V528.5H955.5V-7.5Z" fill="url(#paint0_linear_228_1962)"/>
<g opacity="0.15">
<path fill-rule="evenodd" clip-rule="evenodd" d="M41.4352 54.7741L59.2872 36.7221C60.431 35.5655 62.3607 35.5055 63.5421 36.7001L91.0081 64.4738C92.1894 65.6683 92.1302 67.6197 90.9864 68.7763L73.1343 86.8284C71.9905 87.985 70.0608 88.0448 68.8795 86.8503L41.4134 59.0766C40.2321 57.882 40.2914 55.9307 41.4352 54.7741Z" fill="#4B75A4"/>
<path d="M9.92558 101.077L29.2021 120.569L26.9162 122.881L7.63965 103.388L9.92558 101.077Z" fill="white"/>
<path d="M28.7092 82.0811L47.9857 101.574L43.861 105.745L19.6368 96.6255C25.5916 101.742 31.0485 107.562 36.556 113.131L34.0216 115.694L14.7451 96.2016L18.7703 92.1313L43.0934 101.25C37.1874 96.2823 31.584 90.1138 26.1748 84.6439L28.7092 82.0811Z" fill="white"/>
<path d="M44.0149 66.6045L45.5834 69.1953L40.5145 74.321L57.7257 91.725L55.4895 93.9862L38.2783 76.5822L33.0604 81.8586L31.3927 79.3681L44.0149 66.6045Z" fill="white"/>
<path d="M70.9661 78.3362L51.6895 58.8438L49.166 61.3955L68.4425 80.8881L70.9661 78.3362Z" fill="#FEFEFE"/>
<path d="M67.1274 43.2329L68.7474 45.7717L63.6508 50.9254L80.862 68.3294L78.388 70.8311L61.1768 53.427L55.9813 58.6807L54.3613 56.142L67.1274 43.2329Z" fill="#FEFEFE"/>
<path d="M86.0948 45.3366L90.9648 40.412C88.451 38.9758 85.3458 37.2427 80.0226 34.2718C82.7648 39.256 84.5279 42.4459 86.0948 45.3366ZM93.8728 42.0463L87.7606 48.227L87.6622 48.1276C88.9841 50.57 90.4044 53.1117 92.3632 56.7003L89.63 59.4641L76.2173 34.0422L79.9444 30.2734L105.085 43.8362L102.203 46.7508C98.4073 44.6215 96.0909 43.284 93.8728 42.0463Z" fill="white"/>
<path fill-rule="evenodd" clip-rule="evenodd" d="M95.8676 13.8813L93.6345 16.1394L105.66 43.2533L107.942 40.9449L95.8676 13.8813Z" fill="#4B75A4"/>
<path fill-rule="evenodd" clip-rule="evenodd" d="M113.5 29.6805L116.79 13.8758L100.377 16.4104L97.5859 13.588L117.654 10.9229L119.955 13.2501L116.291 32.5029L113.5 29.6805Z" fill="#4B75A4"/>
</g>
<g opacity="0.15">
<path fill-rule="evenodd" clip-rule="evenodd" d="M46.8082 322.834L64.6603 304.782C65.804 303.625 67.7338 303.565 68.9151 304.76L96.3812 332.534C97.5625 333.728 97.5032 335.679 96.3594 336.836L78.5074 354.888C77.3636 356.045 75.4338 356.105 74.2525 354.91L46.7865 327.136C45.6051 325.942 45.6644 323.99 46.8082 322.834Z" fill="#4B75A4"/>
<path d="M15.2996 369.136L34.5761 388.628L32.2902 390.94L13.0137 371.447L15.2996 369.136Z" fill="white"/>
<path d="M34.0832 350.141L53.3597 369.633L49.2351 373.804L25.0108 364.685C30.9656 369.802 36.4225 375.622 41.93 381.191L39.3957 383.754L20.1191 364.261L24.1443 360.191L48.4674 369.309C42.5614 364.342 36.9581 358.173 31.5488 352.704L34.0832 350.141Z" fill="white"/>
<path d="M49.3899 334.663L50.9584 337.254L45.8895 342.38L63.1007 359.784L60.8645 362.045L43.6533 344.641L38.4354 349.917L36.7677 347.427L49.3899 334.663Z" fill="white"/>
<path d="M76.3401 346.395L57.0636 326.903L54.54 329.455L73.8166 348.947L76.3401 346.395Z" fill="#FEFEFE"/>
<path d="M72.5014 311.293L74.1214 313.832L69.0248 318.985L86.236 336.389L83.762 338.891L66.5508 321.487L61.3553 326.741L59.7353 324.202L72.5014 311.293Z" fill="#FEFEFE"/>
<path d="M91.4698 313.395L96.3398 308.471C93.826 307.034 90.7208 305.301 85.3976 302.33C88.1398 307.315 89.9029 310.504 91.4698 313.395ZM99.2478 310.105L93.1356 316.286L93.0372 316.186C94.3591 318.629 95.7794 321.17 97.7382 324.759L95.005 327.523L81.5923 302.101L85.3194 298.332L110.46 311.895L107.578 314.809C103.782 312.68 101.466 311.343 99.2478 310.105Z" fill="white"/>
<path fill-rule="evenodd" clip-rule="evenodd" d="M101.241 281.942L99.0075 284.2L111.033 311.314L113.315 309.005L101.241 281.942Z" fill="#4B75A4"/>
<path fill-rule="evenodd" clip-rule="evenodd" d="M118.875 297.74L122.165 281.935L105.752 284.47L102.961 281.647L123.029 278.982L125.33 281.31L121.666 300.562L118.875 297.74Z" fill="#4B75A4"/>
</g>
<g opacity="0.15">
<path fill-rule="evenodd" clip-rule="evenodd" d="M41.4352 186.993L59.2872 168.941C60.431 167.784 62.3607 167.724 63.5421 168.919L91.0081 196.692C92.1894 197.887 92.1302 199.838 90.9864 200.995L73.1343 219.047C71.9905 220.203 70.0608 220.263 68.8795 219.069L41.4134 191.295C40.2321 190.1 40.2914 188.149 41.4352 186.993Z" fill="#4B75A4"/>
<path d="M9.92656 233.295L29.2031 252.788L26.9171 255.099L7.64062 235.607L9.92656 233.295Z" fill="white"/>
<path d="M28.7102 214.301L47.9867 233.793L43.862 237.964L19.6377 228.845C25.5926 233.962 31.0495 239.782 36.557 245.351L34.0226 247.914L14.7461 228.421L18.7713 224.351L43.0944 233.469C37.1883 228.502 31.585 222.334 26.1757 216.864L28.7102 214.301Z" fill="white"/>
<path d="M44.0169 198.823L45.5853 201.414L40.5164 206.539L57.7276 223.943L55.4915 226.204L38.2803 208.8L33.0624 214.077L31.3947 211.586L44.0169 198.823Z" fill="white"/>
<path d="M70.967 210.555L51.6905 191.062L49.167 193.614L68.4435 213.107L70.967 210.555Z" fill="#FEFEFE"/>
<path d="M67.1274 175.452L68.7474 177.991L63.6508 183.145L80.862 200.549L78.388 203.05L61.1768 185.646L55.9813 190.9L54.3613 188.361L67.1274 175.452Z" fill="#FEFEFE"/>
<path d="M86.0968 177.555L90.9668 172.631C88.453 171.195 85.3478 169.461 80.0246 166.491C82.7668 171.475 84.5299 174.665 86.0968 177.555ZM93.8748 174.265L87.7625 180.446L87.6641 180.346C88.9861 182.789 90.4064 185.33 92.3652 188.919L89.632 191.683L76.2193 166.261L79.9464 162.492L105.087 176.055L102.204 178.97C98.4093 176.84 96.0928 175.503 93.8748 174.265Z" fill="white"/>
<path fill-rule="evenodd" clip-rule="evenodd" d="M95.8676 146.101L93.6345 148.359L105.66 175.473L107.942 173.164L95.8676 146.101Z" fill="#4B75A4"/>
<path fill-rule="evenodd" clip-rule="evenodd" d="M113.501 161.899L116.791 146.094L100.378 148.629L97.5869 145.807L117.655 143.142L119.956 145.469L116.292 164.722L113.501 161.899Z" fill="#4B75A4"/>
</g>
<g opacity="0.15">
<path fill-rule="evenodd" clip-rule="evenodd" d="M46.8082 455.052L64.6603 437C65.804 435.843 67.7338 435.784 68.9151 436.978L96.3812 464.752C97.5625 465.946 97.5032 467.898 96.3594 469.054L78.5074 487.106C77.3636 488.263 75.4338 488.323 74.2525 487.128L46.7865 459.355C45.6051 458.16 45.6644 456.209 46.8082 455.052Z" fill="#4B75A4"/>
<path d="M15.2996 501.354L34.5761 520.846L32.2902 523.158L13.0137 503.666L15.2996 501.354Z" fill="white"/>
<path d="M34.0832 482.359L53.3597 501.852L49.2351 506.023L25.0108 496.904C30.9656 502.021 36.4225 507.84 41.93 513.41L39.3957 515.972L20.1191 496.48L24.1443 492.41L48.4674 501.528C42.5614 496.561 36.9581 490.392 31.5488 484.922L34.0832 482.359Z" fill="white"/>
<path d="M49.3899 466.881L50.9584 469.472L45.8895 474.598L63.1007 492.002L60.8645 494.263L43.6533 476.859L38.4354 482.135L36.7677 479.645L49.3899 466.881Z" fill="white"/>
<path d="M76.3401 478.614L57.0636 459.122L54.54 461.673L73.8166 481.166L76.3401 478.614Z" fill="#FEFEFE"/>
<path d="M72.5014 443.511L74.1214 446.05L69.0248 451.204L86.236 468.608L83.762 471.109L66.5508 453.705L61.3553 458.959L59.7353 456.42L72.5014 443.511Z" fill="#FEFEFE"/>
<path d="M91.4698 445.613L96.3398 440.689C93.826 439.253 90.7208 437.52 85.3976 434.549C88.1398 439.533 89.9029 442.723 91.4698 445.613ZM99.2478 442.323L93.1356 448.504L93.0372 448.404C94.3591 450.847 95.7794 453.389 97.7382 456.977L95.005 459.741L81.5923 434.319L85.3194 430.55L110.46 444.113L107.578 447.028C103.782 444.898 101.466 443.561 99.2478 442.323Z" fill="white"/>
<path fill-rule="evenodd" clip-rule="evenodd" d="M101.241 414.16L99.0075 416.418L111.033 443.532L113.315 441.223L101.241 414.16Z" fill="#4B75A4"/>
<path fill-rule="evenodd" clip-rule="evenodd" d="M118.875 429.958L122.165 414.154L105.752 416.688L102.961 413.866L123.029 411.201L125.33 413.528L121.666 432.781L118.875 429.958Z" fill="#4B75A4"/>
</g>
<g opacity="0.15">
<path fill-rule="evenodd" clip-rule="evenodd" d="M550.121 54.7746L567.973 36.7226C569.117 35.566 571.046 35.506 572.228 36.7006L599.694 64.4743C600.875 65.6688 600.816 67.6202 599.672 68.7768L581.82 86.8288C580.676 87.9854 578.746 88.0453 577.565 86.8508L550.099 59.0771C548.918 57.8825 548.977 55.9312 550.121 54.7746Z" fill="#4B75A4"/>
<path d="M518.611 101.077L537.888 120.569L535.602 122.881L516.325 103.388L518.611 101.077Z" fill="white"/>
<path d="M537.394 82.0815L556.67 101.574L552.546 105.745L528.321 96.626C534.276 101.743 539.733 107.563 545.241 113.132L542.706 115.695L523.43 96.202L527.455 92.1318L551.778 101.25C545.872 96.2828 540.269 90.1143 534.859 84.6444L537.394 82.0815Z" fill="white"/>
<path d="M552.7 66.6045L554.269 69.1953L549.2 74.321L566.411 91.725L564.175 93.9862L546.964 76.5822L541.746 81.8586L540.078 79.3681L552.7 66.6045Z" fill="white"/>
<path d="M579.652 78.3367L560.375 58.8442L557.852 61.396L577.128 80.8884L579.652 78.3367Z" fill="#FEFEFE"/>
<path d="M575.813 43.2334L577.433 45.7721L572.336 50.9259L589.548 68.3299L587.074 70.8315L569.862 53.4275L564.667 58.6812L563.047 56.1425L575.813 43.2334Z" fill="#FEFEFE"/>
<path d="M594.78 45.3366L599.65 40.412C597.137 38.9758 594.031 37.2427 588.708 34.2718C591.45 39.256 593.213 42.4459 594.78 45.3366ZM602.558 42.0463L596.446 48.227L596.348 48.1276C597.67 50.57 599.09 53.1117 601.049 56.7003L598.316 59.4641L584.903 34.0422L588.63 30.2734L613.77 43.8362L610.888 46.7508C607.093 44.6215 604.776 43.284 602.558 42.0463Z" fill="white"/>
<path fill-rule="evenodd" clip-rule="evenodd" d="M604.553 13.8818L602.32 16.1399L614.345 43.2538L616.628 40.9454L604.553 13.8818Z" fill="#4B75A4"/>
<path fill-rule="evenodd" clip-rule="evenodd" d="M622.186 29.6805L625.476 13.8758L609.063 16.4104L606.271 13.588L626.339 10.9229L628.641 13.2501L624.977 32.5029L622.186 29.6805Z" fill="#4B75A4"/>
</g>
<g opacity="0.15">
<path fill-rule="evenodd" clip-rule="evenodd" d="M555.495 322.833L573.347 304.781C574.491 303.625 576.42 303.565 577.602 304.759L605.068 332.533C606.249 333.728 606.19 335.679 605.046 336.836L587.194 354.888C586.05 356.044 584.12 356.104 582.939 354.91L555.473 327.136C554.292 325.941 554.351 323.99 555.495 322.833Z" fill="#4B75A4"/>
<path d="M523.986 369.136L543.263 388.628L540.977 390.94L521.7 371.447L523.986 369.136Z" fill="white"/>
<path d="M542.769 350.141L562.045 369.633L557.921 373.804L533.696 364.685C539.651 369.802 545.108 375.622 550.616 381.191L548.081 383.754L528.805 364.261L532.83 360.191L557.153 369.309C551.247 364.342 545.644 358.173 540.234 352.704L542.769 350.141Z" fill="white"/>
<path d="M558.075 334.663L559.644 337.254L554.575 342.38L571.786 359.784L569.55 362.045L552.339 344.641L547.121 349.917L545.453 347.427L558.075 334.663Z" fill="white"/>
<path d="M585.026 346.395L565.749 326.902L563.226 329.454L582.502 348.947L585.026 346.395Z" fill="#FEFEFE"/>
<path d="M581.186 311.293L582.806 313.832L577.709 318.985L594.921 336.389L592.447 338.891L575.235 321.487L570.04 326.741L568.42 324.202L581.186 311.293Z" fill="#FEFEFE"/>
<path d="M600.155 313.395L605.025 308.471C602.512 307.034 599.406 305.301 594.083 302.33C596.825 307.315 598.588 310.504 600.155 313.395ZM607.933 310.105L601.821 316.286L601.723 316.186C603.045 318.629 604.465 321.17 606.424 324.759L603.691 327.523L590.278 302.101L594.005 298.332L619.145 311.895L616.263 314.809C612.468 312.68 610.151 311.343 607.933 310.105Z" fill="white"/>
<path fill-rule="evenodd" clip-rule="evenodd" d="M609.927 281.941L607.694 284.199L619.719 311.313L622.002 309.005L609.927 281.941Z" fill="#4B75A4"/>
<path fill-rule="evenodd" clip-rule="evenodd" d="M627.56 297.74L630.85 281.935L614.437 284.47L611.646 281.647L631.713 278.982L634.015 281.31L630.351 300.562L627.56 297.74Z" fill="#4B75A4"/>
</g>
<g opacity="0.15">
<path fill-rule="evenodd" clip-rule="evenodd" d="M550.121 186.993L567.973 168.941C569.117 167.784 571.046 167.724 572.228 168.919L599.694 196.693C600.875 197.887 600.816 199.839 599.672 200.995L581.82 219.047C580.676 220.204 578.746 220.264 577.565 219.069L550.099 191.296C548.918 190.101 548.977 188.15 550.121 186.993Z" fill="#4B75A4"/>
<path d="M518.611 233.296L537.888 252.788L535.602 255.1L516.325 235.607L518.611 233.296Z" fill="white"/>
<path d="M537.394 214.301L556.67 233.793L552.546 237.964L528.321 228.845C534.276 233.962 539.733 239.782 545.241 245.351L542.706 247.914L523.43 228.421L527.455 224.351L551.778 233.469C545.872 228.502 540.269 222.334 534.859 216.864L537.394 214.301Z" fill="white"/>
<path d="M552.7 198.823L554.269 201.414L549.2 206.539L566.411 223.943L564.175 226.204L546.964 208.8L541.746 214.077L540.078 211.586L552.7 198.823Z" fill="white"/>
<path d="M579.652 210.555L560.375 191.063L557.852 193.615L577.128 213.107L579.652 210.555Z" fill="#FEFEFE"/>
<path d="M575.813 175.452L577.433 177.991L572.336 183.145L589.548 200.549L587.074 203.05L569.862 185.646L564.667 190.9L563.047 188.361L575.813 175.452Z" fill="#FEFEFE"/>
<path d="M594.78 177.556L599.65 172.631C597.137 171.195 594.031 169.462 588.708 166.491C591.45 171.475 593.213 174.665 594.78 177.556ZM602.558 174.266L596.446 180.446L596.348 180.347C597.67 182.789 599.09 185.331 601.049 188.92L598.316 191.683L584.903 166.261L588.63 162.493L613.77 176.055L610.888 178.97C607.093 176.841 604.776 175.503 602.558 174.266Z" fill="white"/>
<path fill-rule="evenodd" clip-rule="evenodd" d="M604.553 146.101L602.32 148.359L614.345 175.473L616.628 173.164L604.553 146.101Z" fill="#4B75A4"/>
<path fill-rule="evenodd" clip-rule="evenodd" d="M622.186 161.9L625.476 146.095L609.063 148.629L606.271 145.807L626.339 143.142L628.641 145.469L624.977 164.722L622.186 161.9Z" fill="#4B75A4"/>
</g>
<g opacity="0.15">
<path fill-rule="evenodd" clip-rule="evenodd" d="M555.495 455.052L573.347 437C574.491 435.843 576.42 435.783 577.602 436.978L605.068 464.751C606.249 465.946 606.19 467.897 605.046 469.054L587.194 487.106C586.05 488.262 584.12 488.322 582.939 487.128L555.473 459.354C554.292 458.16 554.351 456.208 555.495 455.052Z" fill="#4B75A4"/>
<path d="M523.986 501.354L543.263 520.846L540.977 523.158L521.7 503.666L523.986 501.354Z" fill="white"/>
<path d="M542.769 482.359L562.045 501.852L557.921 506.023L533.696 496.904C539.651 502.021 545.108 507.84 550.616 513.41L548.081 515.972L528.805 496.48L532.83 492.41L557.153 501.528C551.247 496.561 545.644 490.392 540.234 484.922L542.769 482.359Z" fill="white"/>
<path d="M558.075 466.881L559.644 469.472L554.575 474.598L571.786 492.002L569.55 494.263L552.339 476.859L547.121 482.135L545.453 479.645L558.075 466.881Z" fill="white"/>
<path d="M585.026 478.614L565.749 459.121L563.226 461.673L582.502 481.165L585.026 478.614Z" fill="#FEFEFE"/>
<path d="M581.186 443.511L582.806 446.049L577.709 451.203L594.921 468.607L592.447 471.109L575.235 453.705L570.04 458.959L568.42 456.42L581.186 443.511Z" fill="#FEFEFE"/>
<path d="M600.155 445.613L605.025 440.689C602.512 439.253 599.406 437.52 594.083 434.549C596.825 439.533 598.588 442.723 600.155 445.613ZM607.933 442.323L601.821 448.504L601.723 448.404C603.045 450.847 604.465 453.389 606.424 456.977L603.691 459.741L590.278 434.319L594.005 430.55L619.145 444.113L616.263 447.028C612.468 444.898 610.151 443.561 607.933 442.323Z" fill="white"/>
<path fill-rule="evenodd" clip-rule="evenodd" d="M609.927 414.159L607.694 416.417L619.719 443.531L622.002 441.223L609.927 414.159Z" fill="#4B75A4"/>
<path fill-rule="evenodd" clip-rule="evenodd" d="M627.56 429.958L630.85 414.154L614.437 416.688L611.646 413.866L631.713 411.201L634.015 413.528L630.351 432.781L627.56 429.958Z" fill="#4B75A4"/>
</g>
<g opacity="0.15">
<path fill-rule="evenodd" clip-rule="evenodd" d="M295.779 52.9631L313.631 34.911C314.775 33.7544 316.704 33.6945 317.886 34.8891L345.352 62.6628C346.533 63.8573 346.474 65.8087 345.33 66.9653L327.478 85.0173C326.334 86.1739 324.405 86.2338 323.223 85.0393L295.757 57.2656C294.576 56.071 294.635 54.1197 295.779 52.9631Z" fill="#4B75A4"/>
<path d="M264.269 99.2656L283.546 118.758L281.26 121.07L261.983 101.577L264.269 99.2656Z" fill="white"/>
<path d="M283.053 80.27L302.329 99.7625L298.205 103.933L273.981 94.8145C279.935 99.9314 285.392 105.751 290.9 111.32L288.365 113.883L269.089 94.3905L273.114 90.3203L297.437 99.4386C291.531 94.4713 285.928 88.3027 280.519 82.8329L283.053 80.27Z" fill="white"/>
<path d="M298.359 64.7935L299.927 67.3844L294.858 72.5101L312.069 89.9141L309.833 92.1753L292.622 74.7713L287.404 80.0476L285.736 77.5571L298.359 64.7935Z" fill="white"/>
<path d="M325.31 76.5251L306.033 57.0327L303.51 59.5845L322.786 79.0769L325.31 76.5251Z" fill="#FEFEFE"/>
<path d="M321.471 41.4219L323.091 43.9606L317.995 49.1143L335.206 66.5184L332.732 69.02L315.521 51.616L310.325 56.8697L308.705 54.331L321.471 41.4219Z" fill="#FEFEFE"/>
<path d="M340.439 43.5257L345.309 38.6011C342.795 37.1649 339.69 35.4317 334.366 32.4609C337.109 37.445 338.872 40.635 340.439 43.5257ZM348.217 40.2354L342.104 46.4161L342.006 46.3166C343.328 48.7591 344.748 51.3008 346.707 54.8894L343.974 57.6532L330.561 32.2313L334.288 28.4624L359.429 42.0253L356.546 44.9399C352.751 42.8106 350.435 41.4731 348.217 40.2354Z" fill="white"/>
<path fill-rule="evenodd" clip-rule="evenodd" d="M350.211 12.0703L347.978 14.3285L360.003 41.4424L362.286 39.134L350.211 12.0703Z" fill="#4B75A4"/>
<path fill-rule="evenodd" clip-rule="evenodd" d="M367.844 27.8695L371.134 12.0648L354.721 14.5993L351.93 11.777L371.998 9.11182L374.299 11.4391L370.635 30.6919L367.844 27.8695Z" fill="#4B75A4"/>
</g>
<g opacity="0.15">
<path fill-rule="evenodd" clip-rule="evenodd" d="M301.151 321.023L319.003 302.971C320.147 301.814 322.077 301.754 323.258 302.949L350.724 330.723C351.905 331.917 351.846 333.868 350.702 335.025L332.85 353.077C331.706 354.234 329.777 354.294 328.595 353.099L301.129 325.325C299.948 324.131 300.007 322.179 301.151 321.023Z" fill="#4B75A4"/>
<path d="M269.64 367.325L288.917 386.817L286.631 389.129L267.354 369.636L269.64 367.325Z" fill="white"/>
<path d="M288.424 348.331L307.701 367.823L303.576 371.994L279.352 362.875C285.306 367.992 290.763 373.812 296.271 379.381L293.736 381.944L274.46 362.451L278.485 358.381L302.808 367.499C296.902 362.532 291.299 356.363 285.89 350.894L288.424 348.331Z" fill="white"/>
<path d="M303.732 332.852L305.3 335.443L300.231 340.569L317.442 357.973L315.206 360.234L297.995 342.83L292.777 348.107L291.11 345.616L303.732 332.852Z" fill="white"/>
<path d="M330.681 344.585L311.404 325.093L308.881 327.645L328.157 347.137L330.681 344.585Z" fill="#FEFEFE"/>
<path d="M326.842 309.481L328.462 312.02L323.366 317.174L340.577 334.578L338.103 337.08L320.892 319.676L315.696 324.929L314.076 322.391L326.842 309.481Z" fill="#FEFEFE"/>
<path d="M345.811 311.585L350.681 306.661C348.167 305.224 345.062 303.491 339.738 300.52C342.481 305.505 344.244 308.694 345.811 311.585ZM353.589 308.295L347.476 314.476L347.378 314.376C348.7 316.819 350.12 319.36 352.079 322.949L349.346 325.713L335.933 300.291L339.66 296.522L364.801 310.085L361.918 312.999C358.123 310.87 355.807 309.533 353.589 308.295Z" fill="white"/>
<path fill-rule="evenodd" clip-rule="evenodd" d="M355.582 280.131L353.349 282.389L365.374 309.503L367.657 307.195L355.582 280.131Z" fill="#4B75A4"/>
<path fill-rule="evenodd" clip-rule="evenodd" d="M373.216 295.929L376.506 280.124L360.093 282.659L357.302 279.836L377.37 277.171L379.671 279.499L376.007 298.751L373.216 295.929Z" fill="#4B75A4"/>
</g>
<g opacity="0.15">
<path fill-rule="evenodd" clip-rule="evenodd" d="M295.779 185.181L313.631 167.129C314.775 165.972 316.704 165.912 317.886 167.107L345.352 194.881C346.533 196.075 346.474 198.027 345.33 199.183L327.478 217.235C326.334 218.392 324.405 218.452 323.223 217.257L295.757 189.484C294.576 188.289 294.635 186.338 295.779 185.181Z" fill="#4B75A4"/>
<path d="M264.269 231.484L283.546 250.976L281.26 253.288L261.983 233.795L264.269 231.484Z" fill="white"/>
<path d="M283.054 212.488L302.33 231.981L298.206 236.152L273.981 227.033C279.936 232.15 285.393 237.969 290.901 243.539L288.366 246.101L269.09 226.609L273.115 222.539L297.438 231.657C291.532 226.69 285.929 220.521 280.519 215.051L283.054 212.488Z" fill="white"/>
<path d="M298.361 197.011L299.929 199.601L294.86 204.727L312.071 222.131L309.835 224.392L292.624 206.988L287.406 212.265L285.738 209.774L298.361 197.011Z" fill="white"/>
<path d="M325.311 208.743L306.034 189.251L303.511 191.803L322.787 211.295L325.311 208.743Z" fill="#FEFEFE"/>
<path d="M321.472 173.64L323.092 176.179L317.995 181.333L335.207 198.737L332.733 201.238L315.522 183.834L310.326 189.088L308.706 186.549L321.472 173.64Z" fill="#FEFEFE"/>
<path d="M340.44 175.744L345.31 170.819C342.796 169.383 339.691 167.65 334.367 164.679C337.11 169.663 338.873 172.853 340.44 175.744ZM348.218 172.454L342.105 178.634L342.007 178.535C343.329 180.977 344.749 183.519 346.708 187.108L343.975 189.871L330.562 164.449L334.289 160.681L359.43 174.243L356.547 177.158C352.752 175.029 350.436 173.691 348.218 172.454Z" fill="white"/>
<path fill-rule="evenodd" clip-rule="evenodd" d="M350.211 144.289L347.978 146.547L360.003 173.661L362.286 171.352L350.211 144.289Z" fill="#4B75A4"/>
<path fill-rule="evenodd" clip-rule="evenodd" d="M367.845 160.088L371.135 144.283L354.722 146.817L351.931 143.995L371.999 141.33L374.3 143.657L370.636 162.91L367.845 160.088Z" fill="#4B75A4"/>
</g>
<g opacity="0.15">
<path fill-rule="evenodd" clip-rule="evenodd" d="M301.151 453.24L319.003 435.188C320.147 434.031 322.077 433.972 323.258 435.166L350.724 462.94C351.905 464.134 351.846 466.086 350.702 467.242L332.85 485.294C331.706 486.451 329.777 486.511 328.595 485.316L301.129 457.543C299.948 456.348 300.007 454.397 301.151 453.24Z" fill="#4B75A4"/>
<path d="M269.64 499.542L288.917 519.034L286.631 521.346L267.354 501.854L269.64 499.542Z" fill="white"/>
<path d="M288.425 480.548L307.702 500.04L303.577 504.211L279.353 495.092C285.307 500.209 290.764 506.029 296.272 511.598L293.737 514.161L274.461 494.668L278.486 490.598L302.809 499.716C296.903 494.749 291.3 488.581 285.891 483.111L288.425 480.548Z" fill="white"/>
<path d="M303.732 465.07L305.3 467.661L300.231 472.786L317.442 490.19L315.206 492.451L297.995 475.047L292.777 480.324L291.11 477.833L303.732 465.07Z" fill="white"/>
<path d="M330.681 476.802L311.404 457.31L308.881 459.862L328.157 479.354L330.681 476.802Z" fill="#FEFEFE"/>
<path d="M326.842 441.699L328.462 444.237L323.366 449.391L340.577 466.795L338.103 469.297L320.892 451.893L315.696 457.147L314.076 454.608L326.842 441.699Z" fill="#FEFEFE"/>
<path d="M345.811 443.802L350.681 438.878C348.167 437.442 345.062 435.709 339.738 432.738C342.481 437.722 344.244 440.912 345.811 443.802ZM353.589 440.512L347.476 446.693L347.378 446.593C348.7 449.036 350.12 451.578 352.079 455.166L349.346 457.93L335.933 432.508L339.66 428.739L364.801 442.302L361.918 445.217C358.123 443.087 355.807 441.75 353.589 440.512Z" fill="white"/>
<path fill-rule="evenodd" clip-rule="evenodd" d="M355.582 412.348L353.349 414.606L365.374 441.72L367.657 439.412L355.582 412.348Z" fill="#4B75A4"/>
<path fill-rule="evenodd" clip-rule="evenodd" d="M373.216 428.146L376.506 412.342L360.093 414.876L357.302 412.054L377.37 409.389L379.671 411.716L376.007 430.969L373.216 428.146Z" fill="#4B75A4"/>
</g>
<g opacity="0.15">
<path fill-rule="evenodd" clip-rule="evenodd" d="M804.463 52.9621L822.316 34.9101C823.459 33.7535 825.389 33.6935 826.57 34.8881L854.036 62.6618C855.218 63.8563 855.158 65.8077 854.015 66.9643L836.163 85.0163C835.019 86.1729 833.089 86.2328 831.908 85.0383L804.442 57.2646C803.26 56.07 803.32 54.1187 804.463 52.9621Z" fill="#4B75A4"/>
<path d="M772.955 99.2637L792.231 118.756L789.945 121.068L770.669 101.575L772.955 99.2637Z" fill="white"/>
<path d="M791.738 80.2686L811.014 99.761L806.889 103.932L782.665 94.813C788.62 99.9299 794.077 105.75 799.584 111.319L797.05 113.882L777.773 94.3891L781.799 90.3188L806.122 99.4371C800.216 94.4698 794.612 88.3013 789.203 82.8314L791.738 80.2686Z" fill="white"/>
<path d="M807.044 64.791L808.613 67.3819L803.544 72.5075L820.755 89.9116L818.519 92.1727L801.308 74.7687L796.09 80.0451L794.422 77.5546L807.044 64.791Z" fill="white"/>
<path d="M833.994 76.5233L814.718 57.0308L812.194 59.5826L831.471 79.0751L833.994 76.5233Z" fill="#FEFEFE"/>
<path d="M830.155 41.4209L831.775 43.9596L826.678 49.1134L843.889 66.5174L841.415 69.019L824.204 51.615L819.009 56.8687L817.389 54.33L830.155 41.4209Z" fill="#FEFEFE"/>
<path d="M849.124 43.5232L853.994 38.5987C851.48 37.1624 848.375 35.4293 843.052 32.4584C845.794 37.4426 847.557 40.6325 849.124 43.5232ZM856.902 40.2329L850.79 46.4137L850.691 46.3142C852.013 48.7567 853.434 51.2983 855.393 54.887L852.659 57.6508L839.247 32.2288L842.974 28.46L868.114 42.0228L865.232 44.9374C861.437 42.8082 859.12 41.4707 856.902 40.2329Z" fill="white"/>
<path fill-rule="evenodd" clip-rule="evenodd" d="M858.896 12.0693L856.663 14.3274L868.688 41.4413L870.971 39.1329L858.896 12.0693Z" fill="#4B75A4"/>
<path fill-rule="evenodd" clip-rule="evenodd" d="M876.529 27.868L879.818 12.0633L863.405 14.5979L860.614 11.7755L880.682 9.11035L882.984 11.4376L879.32 30.6904L876.529 27.868Z" fill="#4B75A4"/>
</g>
<g opacity="0.15">
<path fill-rule="evenodd" clip-rule="evenodd" d="M809.836 321.023L827.688 302.971C828.831 301.814 830.761 301.754 831.942 302.949L859.409 330.723C860.59 331.917 860.531 333.868 859.387 335.025L841.535 353.077C840.391 354.234 838.461 354.294 837.28 353.099L809.814 325.325C808.632 324.131 808.692 322.179 809.836 321.023Z" fill="#4B75A4"/>
<path d="M778.327 367.325L797.603 386.817L795.318 389.129L776.041 369.636L778.327 367.325Z" fill="white"/>
<path d="M797.111 348.33L816.387 367.822L812.262 371.993L788.038 362.874C793.993 367.991 799.45 373.811 804.957 379.38L802.423 381.943L783.146 362.45L787.172 358.38L811.495 367.498C805.589 362.531 799.985 356.362 794.576 350.893L797.111 348.33Z" fill="white"/>
<path d="M812.417 332.852L813.986 335.443L808.917 340.568L826.128 357.972L823.892 360.234L806.681 342.83L801.463 348.106L799.795 345.616L812.417 332.852Z" fill="white"/>
<path d="M839.367 344.584L820.091 325.092L817.567 327.644L836.844 347.136L839.367 344.584Z" fill="#FEFEFE"/>
<path d="M835.529 309.482L837.149 312.021L832.052 317.174L849.263 334.578L846.789 337.08L829.578 319.676L824.383 324.93L822.763 322.391L835.529 309.482Z" fill="#FEFEFE"/>
<path d="M854.497 311.584L859.367 306.66C856.853 305.223 853.748 303.49 848.425 300.519C851.167 305.504 852.93 308.693 854.497 311.584ZM862.275 308.294L856.163 314.475L856.065 314.375C857.386 316.818 858.807 319.359 860.766 322.948L858.032 325.712L844.62 300.29L848.347 296.521L873.487 310.084L870.605 312.998C866.81 310.869 864.493 309.532 862.275 308.294Z" fill="white"/>
<path fill-rule="evenodd" clip-rule="evenodd" d="M864.269 280.13L862.036 282.389L874.061 309.503L876.344 307.194L864.269 280.13Z" fill="#4B75A4"/>
<path fill-rule="evenodd" clip-rule="evenodd" d="M881.903 295.929L885.192 280.124L868.779 282.659L865.988 279.836L886.056 277.171L888.358 279.499L884.694 298.751L881.903 295.929Z" fill="#4B75A4"/>
</g>
<g opacity="0.15">
<path fill-rule="evenodd" clip-rule="evenodd" d="M804.464 185.181L822.317 167.129C823.46 165.972 825.39 165.912 826.571 167.107L854.037 194.881C855.219 196.075 855.159 198.027 854.016 199.183L836.164 217.235C835.02 218.392 833.09 218.452 831.909 217.257L804.443 189.484C803.261 188.289 803.321 186.338 804.464 185.181Z" fill="#4B75A4"/>
<path d="M772.955 231.484L792.231 250.976L789.945 253.288L770.669 233.795L772.955 231.484Z" fill="white"/>
<path d="M791.738 212.489L811.014 231.981L806.889 236.152L782.665 227.033C788.62 232.15 794.077 237.97 799.584 243.539L797.05 246.102L777.773 226.609L781.799 222.539L806.122 231.657C800.216 226.69 794.612 220.522 789.203 215.052L791.738 212.489Z" fill="white"/>
<path d="M807.045 197.011L808.614 199.601L803.545 204.727L820.756 222.131L818.52 224.392L801.309 206.988L796.091 212.265L794.423 209.774L807.045 197.011Z" fill="white"/>
<path d="M833.994 208.743L814.718 189.251L812.194 191.803L831.471 211.295L833.994 208.743Z" fill="#FEFEFE"/>
<path d="M830.156 173.641L831.776 176.179L826.679 181.333L843.89 198.737L841.416 201.239L824.205 183.835L819.01 189.088L817.39 186.55L830.156 173.641Z" fill="#FEFEFE"/>
<path d="M849.124 175.744L853.994 170.819C851.48 169.383 848.375 167.65 843.052 164.679C845.794 169.663 847.557 172.853 849.124 175.744ZM856.902 172.454L850.79 178.634L850.691 178.535C852.013 180.977 853.434 183.519 855.393 187.108L852.659 189.871L839.247 164.449L842.974 160.681L868.114 174.243L865.232 177.158C861.437 175.029 859.12 173.691 856.902 172.454Z" fill="white"/>
<path fill-rule="evenodd" clip-rule="evenodd" d="M858.896 144.289L856.663 146.547L868.688 173.661L870.971 171.352L858.896 144.289Z" fill="#4B75A4"/>
<path fill-rule="evenodd" clip-rule="evenodd" d="M876.53 160.088L879.819 144.283L863.406 146.817L860.615 143.995L880.683 141.33L882.985 143.657L879.321 162.91L876.53 160.088Z" fill="#4B75A4"/>
</g>
<g opacity="0.15">
<path fill-rule="evenodd" clip-rule="evenodd" d="M809.836 453.24L827.688 435.188C828.831 434.031 830.761 433.972 831.942 435.166L859.409 462.94C860.59 464.134 860.531 466.086 859.387 467.242L841.535 485.294C840.391 486.451 838.461 486.511 837.28 485.316L809.814 457.543C808.632 456.348 808.692 454.397 809.836 453.24Z" fill="#4B75A4"/>
<path d="M778.327 499.542L797.603 519.034L795.318 521.346L776.041 501.854L778.327 499.542Z" fill="white"/>
<path d="M797.111 480.547L816.387 500.04L812.262 504.211L788.038 495.092C793.993 500.209 799.45 506.028 804.957 511.598L802.423 514.16L783.146 494.668L787.172 490.598L811.495 499.716C805.589 494.749 799.985 488.58 794.576 483.11L797.111 480.547Z" fill="white"/>
<path d="M812.417 465.069L813.986 467.66L808.917 472.786L826.128 490.19L823.892 492.451L806.681 475.047L801.463 480.323L799.795 477.833L812.417 465.069Z" fill="white"/>
<path d="M839.367 476.802L820.091 457.31L817.567 459.861L836.844 479.354L839.367 476.802Z" fill="#FEFEFE"/>
<path d="M835.529 441.699L837.149 444.238L832.052 449.392L849.263 466.796L846.789 469.297L829.578 451.893L824.383 457.147L822.763 454.608L835.529 441.699Z" fill="#FEFEFE"/>
<path d="M854.497 443.802L859.367 438.878C856.853 437.442 853.748 435.709 848.425 432.738C851.167 437.722 852.93 440.912 854.497 443.802ZM862.275 440.512L856.163 446.693L856.065 446.593C857.386 449.036 858.807 451.578 860.766 455.166L858.032 457.93L844.62 432.508L848.347 428.739L873.487 442.302L870.605 445.217C866.81 443.087 864.493 441.75 862.275 440.512Z" fill="white"/>
<path fill-rule="evenodd" clip-rule="evenodd" d="M864.269 412.348L862.036 414.606L874.061 441.72L876.344 439.411L864.269 412.348Z" fill="#4B75A4"/>
<path fill-rule="evenodd" clip-rule="evenodd" d="M881.903 428.146L885.192 412.342L868.779 414.876L865.988 412.054L886.056 409.389L888.358 411.716L884.694 430.969L881.903 428.146Z" fill="#4B75A4"/>
</g>
<g opacity="0.15">
<path fill-rule="evenodd" clip-rule="evenodd" d="M168.608 54.7741L186.46 36.7221C187.604 35.5655 189.534 35.5055 190.715 36.7001L218.181 64.4738C219.362 65.6683 219.303 67.6197 218.159 68.7763L200.307 86.8284C199.163 87.985 197.234 88.0448 196.052 86.8503L168.586 59.0766C167.405 57.882 167.464 55.9307 168.608 54.7741Z" fill="#4B75A4"/>
<path d="M137.098 101.077L156.375 120.569L154.089 122.881L134.812 103.388L137.098 101.077Z" fill="white"/>
<path d="M155.882 82.0815L175.159 101.574L171.034 105.745L146.81 96.626C152.764 101.743 158.221 107.563 163.729 113.132L161.194 115.695L141.918 96.202L145.943 92.1318L170.266 101.25C164.36 96.2828 158.757 90.1143 153.348 84.6444L155.882 82.0815Z" fill="white"/>
<path d="M171.188 66.6045L172.756 69.1953L167.687 74.321L184.899 91.725L182.662 93.9862L165.451 76.5822L160.233 81.8586L158.566 79.3681L171.188 66.6045Z" fill="white"/>
<path d="M198.139 78.3362L178.862 58.8438L176.339 61.3955L195.615 80.8881L198.139 78.3362Z" fill="#FEFEFE"/>
<path d="M194.3 43.2329L195.92 45.7717L190.824 50.9254L208.035 68.3294L205.561 70.8311L188.35 53.427L183.154 58.6807L181.534 56.142L194.3 43.2329Z" fill="#FEFEFE"/>
<path d="M213.268 45.3366L218.138 40.412C215.624 38.9758 212.519 37.2427 207.195 34.2718C209.938 39.256 211.701 42.4459 213.268 45.3366ZM221.046 42.0463L214.933 48.227L214.835 48.1276C216.157 50.57 217.577 53.1117 219.536 56.7003L216.803 59.4641L203.39 34.0422L207.117 30.2734L232.258 43.8362L229.375 46.7508C225.58 44.6215 223.264 43.284 221.046 42.0463Z" fill="white"/>
<path fill-rule="evenodd" clip-rule="evenodd" d="M223.04 13.8818L220.807 16.1399L232.832 43.2538L235.115 40.9454L223.04 13.8818Z" fill="#4B75A4"/>
<path fill-rule="evenodd" clip-rule="evenodd" d="M240.673 29.6805L243.963 13.8758L227.55 16.4104L224.759 13.588L244.827 10.9229L247.128 13.2501L243.464 32.5029L240.673 29.6805Z" fill="#4B75A4"/>
</g>
<g opacity="0.15">
<path fill-rule="evenodd" clip-rule="evenodd" d="M173.981 322.834L191.833 304.782C192.977 303.625 194.907 303.565 196.088 304.76L223.554 332.534C224.735 333.728 224.676 335.679 223.532 336.836L205.68 354.888C204.536 356.045 202.607 356.105 201.425 354.91L173.959 327.136C172.778 325.942 172.837 323.99 173.981 322.834Z" fill="#4B75A4"/>
<path d="M142.472 369.136L161.749 388.628L159.463 390.94L140.187 371.447L142.472 369.136Z" fill="white"/>
<path d="M161.255 350.141L180.532 369.633L176.407 373.804L152.183 364.685C158.137 369.802 163.594 375.622 169.102 381.191L166.568 383.754L147.291 364.261L151.316 360.191L175.639 369.309C169.733 364.342 164.13 358.173 158.721 352.704L161.255 350.141Z" fill="white"/>
<path d="M176.562 334.663L178.13 337.254L173.061 342.38L190.273 359.784L188.036 362.045L170.825 344.641L165.607 349.917L163.94 347.427L176.562 334.663Z" fill="white"/>
<path d="M203.512 346.395L184.235 326.903L181.712 329.455L200.988 348.947L203.512 346.395Z" fill="#FEFEFE"/>
<path d="M199.673 311.293L201.293 313.832L196.197 318.985L213.408 336.389L210.934 338.891L193.723 321.487L188.527 326.741L186.907 324.202L199.673 311.293Z" fill="#FEFEFE"/>
<path d="M218.642 313.396L223.512 308.471C220.998 307.035 217.893 305.302 212.569 302.331C215.312 307.315 217.075 310.505 218.642 313.396ZM226.42 310.105L220.307 316.286L220.209 316.187C221.531 318.629 222.951 321.171 224.91 324.759L222.177 327.523L208.764 302.101L212.491 298.332L237.632 311.895L234.749 314.81C230.954 312.681 228.638 311.343 226.42 310.105Z" fill="white"/>
<path fill-rule="evenodd" clip-rule="evenodd" d="M228.414 281.942L226.18 284.2L238.205 311.314L240.488 309.005L228.414 281.942Z" fill="#4B75A4"/>
<path fill-rule="evenodd" clip-rule="evenodd" d="M246.047 297.74L249.337 281.935L232.924 284.469L230.133 281.647L250.201 278.982L252.502 281.309L248.838 300.562L246.047 297.74Z" fill="#4B75A4"/>
</g>
<g opacity="0.15">
<path fill-rule="evenodd" clip-rule="evenodd" d="M168.606 186.993L186.458 168.941C187.602 167.784 189.532 167.724 190.713 168.919L218.179 196.692C219.36 197.887 219.301 199.838 218.157 200.995L200.305 219.047C199.161 220.203 197.232 220.263 196.05 219.069L168.584 191.295C167.403 190.1 167.462 188.149 168.606 186.993Z" fill="#4B75A4"/>
<path d="M137.097 233.295L156.374 252.788L154.088 255.099L134.812 235.607L137.097 233.295Z" fill="white"/>
<path d="M155.88 214.3L175.157 233.793L171.032 237.964L146.808 228.845C152.762 233.962 158.219 239.781 163.727 245.351L161.193 247.913L141.916 228.421L145.941 224.351L170.264 233.469C164.358 228.502 158.755 222.333 153.346 216.863L155.88 214.3Z" fill="white"/>
<path d="M171.187 198.823L172.755 201.414L167.686 206.539L184.898 223.943L182.661 226.204L165.45 208.8L160.232 214.077L158.565 211.586L171.187 198.823Z" fill="white"/>
<path d="M198.137 210.555L178.86 191.062L176.337 193.614L195.613 213.107L198.137 210.555Z" fill="#FEFEFE"/>
<path d="M194.298 175.452L195.918 177.99L190.822 183.144L208.033 200.548L205.559 203.05L188.348 185.646L183.152 190.899L181.532 188.361L194.298 175.452Z" fill="#FEFEFE"/>
<path d="M213.267 177.555L218.137 172.631C215.623 171.195 212.518 169.461 207.194 166.491C209.937 171.475 211.7 174.665 213.267 177.555ZM221.045 174.265L214.932 180.446L214.834 180.346C216.156 182.789 217.576 185.33 219.535 188.919L216.802 191.683L203.389 166.261L207.116 162.492L232.257 176.055L229.374 178.97C225.579 176.84 223.263 175.503 221.045 174.265Z" fill="white"/>
<path fill-rule="evenodd" clip-rule="evenodd" d="M223.039 146.101L220.805 148.359L232.83 175.473L235.113 173.164L223.039 146.101Z" fill="#4B75A4"/>
<path fill-rule="evenodd" clip-rule="evenodd" d="M240.672 161.899L243.962 146.094L227.549 148.629L224.758 145.807L244.826 143.142L247.127 145.469L243.463 164.722L240.672 161.899Z" fill="#4B75A4"/>
</g>
<g opacity="0.15">
<path fill-rule="evenodd" clip-rule="evenodd" d="M173.981 455.052L191.833 437C192.977 435.843 194.907 435.783 196.088 436.978L223.554 464.751C224.735 465.946 224.676 467.897 223.532 469.054L205.68 487.106C204.536 488.262 202.607 488.322 201.425 487.128L173.959 459.354C172.778 458.16 172.837 456.208 173.981 455.052Z" fill="#4B75A4"/>
<path d="M142.472 501.354L161.749 520.846L159.463 523.157L140.187 503.665L142.472 501.354Z" fill="white"/>
<path d="M161.255 482.359L180.532 501.852L176.407 506.023L152.183 496.904C158.137 502.021 163.594 507.84 169.102 513.41L166.568 515.972L147.291 496.48L151.316 492.41L175.639 501.528C169.733 496.561 164.13 490.392 158.721 484.922L161.255 482.359Z" fill="white"/>
<path d="M176.562 466.881L178.13 469.472L173.061 474.598L190.273 492.002L188.036 494.263L170.825 476.859L165.607 482.135L163.94 479.645L176.562 466.881Z" fill="white"/>
<path d="M203.512 478.614L184.235 459.122L181.712 461.673L200.988 481.166L203.512 478.614Z" fill="#FEFEFE"/>
<path d="M199.673 443.511L201.293 446.049L196.197 451.203L213.408 468.607L210.934 471.109L193.723 453.705L188.527 458.959L186.907 456.42L199.673 443.511Z" fill="#FEFEFE"/>
<path d="M218.642 445.613L223.512 440.689C220.998 439.253 217.893 437.52 212.569 434.549C215.312 439.533 217.075 442.723 218.642 445.613ZM226.42 442.323L220.307 448.504L220.209 448.404C221.531 450.847 222.951 453.389 224.91 456.977L222.177 459.741L208.764 434.319L212.491 430.55L237.632 444.113L234.749 447.028C230.954 444.898 228.638 443.561 226.42 442.323Z" fill="white"/>
<path fill-rule="evenodd" clip-rule="evenodd" d="M228.414 414.16L226.18 416.418L238.205 443.532L240.488 441.223L228.414 414.16Z" fill="#4B75A4"/>
<path fill-rule="evenodd" clip-rule="evenodd" d="M246.047 429.958L249.337 414.153L232.924 416.688L230.133 413.865L250.201 411.2L252.502 413.527L248.838 432.78L246.047 429.958Z" fill="#4B75A4"/>
</g>
<g opacity="0.15">
<path fill-rule="evenodd" clip-rule="evenodd" d="M677.293 54.7746L695.145 36.7226C696.288 35.566 698.218 35.506 699.399 36.7006L726.866 64.4743C728.047 65.6688 727.988 67.6202 726.844 68.7768L708.992 86.8288C707.848 87.9854 705.918 88.0453 704.737 86.8508L677.271 59.0771C676.09 57.8825 676.149 55.9312 677.293 54.7746Z" fill="#4B75A4"/>
<path d="M645.783 101.077L665.06 120.569L662.774 122.881L643.497 103.388L645.783 101.077Z" fill="white"/>
<path d="M664.567 82.0815L683.843 101.574L679.718 105.745L655.494 96.626C661.449 101.743 666.906 107.563 672.413 113.132L669.879 115.695L650.603 96.202L654.628 92.1318L678.951 101.25C673.045 96.2828 667.441 90.1143 662.032 84.6444L664.567 82.0815Z" fill="white"/>
<path d="M679.872 66.6045L681.441 69.1953L676.372 74.321L693.583 91.725L691.347 93.9862L674.136 76.5822L668.918 81.8586L667.25 79.3681L679.872 66.6045Z" fill="white"/>
<path d="M706.823 78.3367L687.547 58.8442L685.023 61.396L704.3 80.8884L706.823 78.3367Z" fill="#FEFEFE"/>
<path d="M702.985 43.2334L704.605 45.7721L699.508 50.9259L716.719 68.3299L714.245 70.8315L697.034 53.4275L691.839 58.6812L690.219 56.1425L702.985 43.2334Z" fill="#FEFEFE"/>
<path d="M721.952 45.3366L726.822 40.412C724.308 38.9758 721.203 37.2427 715.88 34.2718C718.622 39.256 720.385 42.4459 721.952 45.3366ZM729.73 42.0463L723.618 48.227L723.52 48.1276C724.842 50.57 726.262 53.1117 728.221 56.7003L725.487 59.4641L712.075 34.0422L715.802 30.2734L740.942 43.8362L738.06 46.7508C734.265 44.6215 731.948 43.284 729.73 42.0463Z" fill="white"/>
<path fill-rule="evenodd" clip-rule="evenodd" d="M731.725 13.8818L729.492 16.1399L741.517 43.2538L743.8 40.9454L731.725 13.8818Z" fill="#4B75A4"/>
<path fill-rule="evenodd" clip-rule="evenodd" d="M749.358 29.6805L752.647 13.8758L736.234 16.4104L733.443 13.588L753.511 10.9229L755.813 13.2501L752.149 32.5029L749.358 29.6805Z" fill="#4B75A4"/>
</g>
<g opacity="0.15">
<path fill-rule="evenodd" clip-rule="evenodd" d="M682.665 322.833L700.517 304.781C701.66 303.625 703.59 303.565 704.772 304.759L732.238 332.533C733.419 333.728 733.36 335.679 732.216 336.836L714.364 354.888C713.22 356.044 711.29 356.104 710.109 354.91L682.643 327.136C681.462 325.941 681.521 323.99 682.665 322.833Z" fill="#4B75A4"/>
<path d="M651.155 369.136L670.432 388.629L668.146 390.94L648.869 371.448L651.155 369.136Z" fill="white"/>
<path d="M669.939 350.141L689.215 369.633L685.091 373.804L660.866 364.685C666.821 369.802 672.278 375.622 677.785 381.191L675.251 383.754L655.975 364.261L660 360.191L684.323 369.309C678.417 364.342 672.814 358.173 667.404 352.704L669.939 350.141Z" fill="white"/>
<path d="M685.245 334.664L686.814 337.255L681.745 342.38L698.956 359.785L696.72 362.046L679.509 344.642L674.291 349.918L672.623 347.428L685.245 334.664Z" fill="white"/>
<path d="M712.196 346.396L692.919 326.903L690.396 329.455L709.672 348.948L712.196 346.396Z" fill="#FEFEFE"/>
<path d="M708.357 311.293L709.977 313.831L704.88 318.985L722.091 336.389L719.618 338.891L702.406 321.487L697.211 326.74L695.591 324.202L708.357 311.293Z" fill="#FEFEFE"/>
<path d="M727.324 313.396L732.194 308.472C729.681 307.035 726.575 305.302 721.252 302.331C723.994 307.316 725.757 310.505 727.324 313.396ZM735.102 310.106L728.99 316.287L728.892 316.187C730.214 318.63 731.634 321.171 733.593 324.76L730.86 327.524L717.447 302.102L721.174 298.333L746.314 311.896L743.432 314.81C739.637 312.681 737.32 311.344 735.102 310.106Z" fill="white"/>
<path fill-rule="evenodd" clip-rule="evenodd" d="M737.097 281.941L734.864 284.199L746.889 311.313L749.172 309.005L737.097 281.941Z" fill="#4B75A4"/>
<path fill-rule="evenodd" clip-rule="evenodd" d="M754.73 297.74L758.019 281.935L741.607 284.47L738.815 281.647L758.883 278.982L761.185 281.31L757.521 300.562L754.73 297.74Z" fill="#4B75A4"/>
</g>
<g opacity="0.15">
<path fill-rule="evenodd" clip-rule="evenodd" d="M677.293 186.993L695.145 168.941C696.288 167.784 698.218 167.724 699.399 168.919L726.866 196.693C728.047 197.887 727.988 199.839 726.844 200.995L708.992 219.047C707.848 220.204 705.918 220.264 704.737 219.069L677.271 191.296C676.09 190.101 676.149 188.15 677.293 186.993Z" fill="#4B75A4"/>
<path d="M645.783 233.296L665.06 252.788L662.774 255.1L643.497 235.607L645.783 233.296Z" fill="white"/>
<path d="M664.568 214.301L683.844 233.793L679.719 237.964L655.495 228.845C661.45 233.962 666.907 239.782 672.414 245.351L669.88 247.914L650.604 228.421L654.629 224.351L678.952 233.469C673.046 228.502 667.442 222.334 662.033 216.864L664.568 214.301Z" fill="white"/>
<path d="M679.874 198.823L681.443 201.414L676.374 206.539L693.585 223.943L691.349 226.204L674.138 208.8L668.92 214.077L667.252 211.586L679.874 198.823Z" fill="white"/>
<path d="M706.824 210.555L687.548 191.063L685.024 193.615L704.301 213.107L706.824 210.555Z" fill="#FEFEFE"/>
<path d="M702.986 175.452L704.606 177.991L699.509 183.145L716.72 200.549L714.246 203.05L697.035 185.646L691.84 190.9L690.22 188.361L702.986 175.452Z" fill="#FEFEFE"/>
<path d="M721.954 177.556L726.824 172.631C724.31 171.195 721.205 169.462 715.882 166.491C718.624 171.475 720.387 174.665 721.954 177.556ZM729.732 174.266L723.62 180.446L723.522 180.347C724.843 182.789 726.264 185.331 728.223 188.92L725.489 191.683L712.077 166.261L715.804 162.493L740.944 176.055L738.062 178.97C734.267 176.841 731.95 175.503 729.732 174.266Z" fill="white"/>
<path fill-rule="evenodd" clip-rule="evenodd" d="M731.725 146.101L729.492 148.359L741.517 175.473L743.8 173.164L731.725 146.101Z" fill="#4B75A4"/>
<path fill-rule="evenodd" clip-rule="evenodd" d="M749.359 161.9L752.648 146.095L736.235 148.629L733.444 145.807L753.512 143.142L755.814 145.469L752.15 164.722L749.359 161.9Z" fill="#4B75A4"/>
</g>
<g opacity="0.15">
<path fill-rule="evenodd" clip-rule="evenodd" d="M682.665 455.052L700.517 437C701.66 435.843 703.59 435.783 704.772 436.978L732.238 464.751C733.419 465.946 733.36 467.897 732.216 469.054L714.364 487.106C713.22 488.262 711.29 488.322 710.109 487.128L682.643 459.354C681.462 458.16 681.521 456.208 682.665 455.052Z" fill="#4B75A4"/>
<path d="M651.155 501.354L670.432 520.847L668.146 523.158L648.869 503.666L651.155 501.354Z" fill="white"/>
<path d="M669.939 482.359L689.215 501.851L685.091 506.022L660.866 496.903C666.821 502.02 672.278 507.84 677.785 513.409L675.251 515.972L655.975 496.479L660 492.409L684.323 501.528C678.417 496.56 672.814 490.392 667.404 484.922L669.939 482.359Z" fill="white"/>
<path d="M685.244 466.882L686.813 469.473L681.744 474.599L698.955 492.003L696.719 494.264L679.508 476.86L674.29 482.136L672.622 479.646L685.244 466.882Z" fill="white"/>
<path d="M712.196 478.614L692.919 459.122L690.396 461.673L709.672 481.166L712.196 478.614Z" fill="#FEFEFE"/>
<path d="M708.357 443.511L709.977 446.049L704.88 451.203L722.091 468.607L719.618 471.109L702.406 453.705L697.211 458.959L695.591 456.42L708.357 443.511Z" fill="#FEFEFE"/>
<path d="M727.324 445.614L732.194 440.69C729.681 439.254 726.575 437.521 721.252 434.55C723.994 439.534 725.757 442.724 727.324 445.614ZM735.102 442.324L728.99 448.505L728.892 448.405C730.214 450.848 731.634 453.39 733.593 456.978L730.86 459.742L717.447 434.32L721.174 430.551L746.314 444.114L743.432 447.029C739.637 444.899 737.32 443.562 735.102 442.324Z" fill="white"/>
<path fill-rule="evenodd" clip-rule="evenodd" d="M737.097 414.159L734.864 416.417L746.889 443.531L749.172 441.223L737.097 414.159Z" fill="#4B75A4"/>
<path fill-rule="evenodd" clip-rule="evenodd" d="M754.73 429.958L758.019 414.154L741.607 416.688L738.815 413.866L758.883 411.201L761.185 413.528L757.521 432.781L754.73 429.958Z" fill="#4B75A4"/>
</g>
<g opacity="0.15">
<path fill-rule="evenodd" clip-rule="evenodd" d="M422.95 52.9621L440.802 34.9101C441.946 33.7535 443.875 33.6935 445.057 34.8881L472.523 62.6618C473.704 63.8563 473.645 65.8077 472.501 66.9643L454.649 85.0163C453.505 86.1729 451.575 86.2328 450.394 85.0383L422.928 57.2646C421.747 56.07 421.806 54.1187 422.95 52.9621Z" fill="#4B75A4"/>
<path d="M391.441 99.2637L410.718 118.756L408.432 121.068L389.155 101.575L391.441 99.2637Z" fill="white"/>
<path d="M410.224 80.2686L429.5 99.761L425.376 103.932L401.151 94.813C407.106 99.9299 412.563 105.75 418.071 111.319L415.536 113.882L396.26 94.3891L400.285 90.3188L424.608 99.4371C418.702 94.4698 413.099 88.3013 407.689 82.8314L410.224 80.2686Z" fill="white"/>
<path d="M425.532 64.791L427.1 67.3819L422.031 72.5075L439.242 89.9116L437.006 92.1727L419.795 74.7687L414.577 80.0451L412.909 77.5546L425.532 64.791Z" fill="white"/>
<path d="M452.481 76.5233L433.204 57.0308L430.681 59.5826L449.957 79.0751L452.481 76.5233Z" fill="#FEFEFE"/>
<path d="M448.642 41.4209L450.262 43.9596L445.165 49.1134L462.377 66.5174L459.903 69.019L442.691 51.615L437.496 56.8687L435.876 54.33L448.642 41.4209Z" fill="#FEFEFE"/>
<path d="M467.61 43.5237L472.48 38.5991C469.967 37.1628 466.861 35.4297 461.538 32.4588C464.28 37.443 466.044 40.633 467.61 43.5237ZM475.388 40.2333L469.276 46.4141L469.178 46.3147C470.5 48.7571 471.92 51.2988 473.879 54.8875L471.146 57.6511L457.733 32.2292L461.46 28.4604L486.6 42.0233L483.718 44.9379C479.923 42.8086 477.607 41.471 475.388 40.2333Z" fill="white"/>
<path fill-rule="evenodd" clip-rule="evenodd" d="M477.382 12.0693L475.149 14.3274L487.174 41.4413L489.457 39.1329L477.382 12.0693Z" fill="#4B75A4"/>
<path fill-rule="evenodd" clip-rule="evenodd" d="M495.016 27.868L498.306 12.0633L481.893 14.5979L479.102 11.7755L499.169 9.11035L501.471 11.4376L497.807 30.6904L495.016 27.868Z" fill="#4B75A4"/>
</g>
<g opacity="0.15">
<path fill-rule="evenodd" clip-rule="evenodd" d="M428.323 321.023L446.175 302.971C447.319 301.814 449.248 301.754 450.43 302.949L477.896 330.723C479.077 331.917 479.018 333.868 477.874 335.025L460.022 353.077C458.878 354.234 456.948 354.294 455.767 353.099L428.301 325.325C427.12 324.131 427.179 322.179 428.323 321.023Z" fill="#4B75A4"/>
<path d="M396.814 367.325L416.091 386.817L413.805 389.129L394.528 369.636L396.814 367.325Z" fill="white"/>
<path d="M415.598 348.33L434.874 367.822L430.75 371.993L406.525 362.874C412.48 367.991 417.937 373.811 423.445 379.38L420.91 381.943L401.634 362.45L405.659 358.38L429.982 367.498C424.076 362.531 418.473 356.362 413.063 350.893L415.598 348.33Z" fill="white"/>
<path d="M430.905 332.852L432.473 335.443L427.404 340.568L444.615 357.972L442.379 360.234L425.168 342.83L419.95 348.106L418.282 345.616L430.905 332.852Z" fill="white"/>
<path d="M457.855 344.584L438.578 325.092L436.055 327.644L455.331 347.136L457.855 344.584Z" fill="#FEFEFE"/>
<path d="M454.016 309.482L455.636 312.021L450.539 317.174L467.751 334.578L465.277 337.08L448.065 319.676L442.87 324.93L441.25 322.391L454.016 309.482Z" fill="#FEFEFE"/>
<path d="M472.984 311.584L477.854 306.66C475.341 305.223 472.235 303.49 466.912 300.519C469.654 305.504 471.418 308.693 472.984 311.584ZM480.762 308.294L474.65 314.475L474.552 314.375C475.874 316.818 477.294 319.359 479.253 322.948L476.52 325.712L463.107 300.29L466.834 296.521L491.975 310.084L489.092 312.998C485.297 310.869 482.981 309.532 480.762 308.294Z" fill="white"/>
<path fill-rule="evenodd" clip-rule="evenodd" d="M482.756 280.13L480.523 282.389L492.548 309.503L494.831 307.194L482.756 280.13Z" fill="#4B75A4"/>
<path fill-rule="evenodd" clip-rule="evenodd" d="M500.39 295.929L503.68 280.124L487.267 282.659L484.476 279.836L504.543 277.171L506.845 279.499L503.181 298.751L500.39 295.929Z" fill="#4B75A4"/>
</g>
<g opacity="0.15">
<path fill-rule="evenodd" clip-rule="evenodd" d="M422.95 185.181L440.802 167.129C441.946 165.972 443.875 165.912 445.057 167.107L472.523 194.881C473.704 196.075 473.645 198.027 472.501 199.183L454.649 217.235C453.505 218.392 451.575 218.452 450.394 217.257L422.928 189.484C421.747 188.289 421.806 186.338 422.95 185.181Z" fill="#4B75A4"/>
<path d="M391.441 231.484L410.718 250.976L408.432 253.288L389.155 233.795L391.441 231.484Z" fill="white"/>
<path d="M410.225 212.489L429.501 231.982L425.377 236.153L401.152 227.034C407.107 232.151 412.564 237.97 418.072 243.54L415.537 246.102L396.261 226.61L400.286 222.54L424.609 231.658C418.703 226.691 413.1 220.522 407.69 215.052L410.225 212.489Z" fill="white"/>
<path d="M425.532 197.011L427.1 199.602L422.031 204.728L439.242 222.132L437.006 224.393L419.795 206.989L414.577 212.265L412.909 209.775L425.532 197.011Z" fill="white"/>
<path d="M452.483 208.743L433.206 189.251L430.683 191.803L449.959 211.295L452.483 208.743Z" fill="#FEFEFE"/>
<path d="M448.643 173.641L450.263 176.179L445.166 181.333L462.378 198.737L459.904 201.239L442.692 183.835L437.497 189.088L435.877 186.55L448.643 173.641Z" fill="#FEFEFE"/>
<path d="M467.611 175.744L472.481 170.819C469.968 169.383 466.862 167.65 461.539 164.679C464.281 169.663 466.045 172.853 467.611 175.744ZM475.389 172.454L469.277 178.634L469.179 178.535C470.501 180.977 471.921 183.519 473.88 187.108L471.147 189.871L457.734 164.449L461.461 160.681L486.601 174.243L483.719 177.158C479.924 175.029 477.607 173.691 475.389 172.454Z" fill="white"/>
<path fill-rule="evenodd" clip-rule="evenodd" d="M477.383 144.289L475.15 146.547L487.175 173.661L489.458 171.353L477.383 144.289Z" fill="#4B75A4"/>
<path fill-rule="evenodd" clip-rule="evenodd" d="M495.016 160.088L498.306 144.283L481.893 146.817L479.102 143.995L499.169 141.33L501.471 143.657L497.807 162.91L495.016 160.088Z" fill="#4B75A4"/>
</g>
<g opacity="0.15">
<path fill-rule="evenodd" clip-rule="evenodd" d="M428.323 453.241L446.175 435.189C447.319 434.032 449.248 433.972 450.43 435.167L477.896 462.94C479.077 464.135 479.018 466.086 477.874 467.243L460.022 485.295C458.878 486.451 456.948 486.511 455.767 485.317L428.301 457.543C427.12 456.349 427.179 454.397 428.323 453.241Z" fill="#4B75A4"/>
<path d="M396.814 499.542L416.091 519.035L413.805 521.346L394.528 501.854L396.814 499.542Z" fill="white"/>
<path d="M415.598 480.548L434.874 500.04L430.75 504.211L406.525 495.092C412.48 500.209 417.937 506.029 423.445 511.598L420.91 514.161L401.634 494.668L405.659 490.598L429.982 499.716C424.076 494.749 418.473 488.581 413.063 483.111L415.598 480.548Z" fill="white"/>
<path d="M430.905 465.07L432.473 467.661L427.404 472.786L444.615 490.19L442.379 492.451L425.168 475.047L419.95 480.324L418.282 477.833L430.905 465.07Z" fill="white"/>
<path d="M457.855 476.802L438.578 457.31L436.055 459.862L455.331 479.354L457.855 476.802Z" fill="#FEFEFE"/>
<path d="M454.016 441.7L455.636 444.238L450.539 449.392L467.751 466.796L465.277 469.298L448.065 451.894L442.87 457.148L441.25 454.609L454.016 441.7Z" fill="#FEFEFE"/>
<path d="M472.984 443.803L477.854 438.878C475.341 437.442 472.235 435.709 466.912 432.738C469.654 437.722 471.418 440.912 472.984 443.803ZM480.762 440.513L474.65 446.693L474.552 446.594C475.874 449.036 477.294 451.578 479.253 455.167L476.52 457.93L463.107 432.509L466.834 428.74L491.975 442.302L489.092 445.217C485.297 443.088 482.981 441.75 480.762 440.513Z" fill="white"/>
<path fill-rule="evenodd" clip-rule="evenodd" d="M482.756 412.348L480.523 414.606L492.548 441.72L494.831 439.412L482.756 412.348Z" fill="#4B75A4"/>
<path fill-rule="evenodd" clip-rule="evenodd" d="M500.39 428.147L503.68 412.342L487.267 414.877L484.476 412.054L504.543 409.389L506.845 411.716L503.181 430.969L500.39 428.147Z" fill="#4B75A4"/>
</g>
<g opacity="0.15">
<path fill-rule="evenodd" clip-rule="evenodd" d="M931.634 52.9626L949.486 34.9105C950.63 33.7539 952.56 33.694 953.741 34.8886L981.207 62.6623C982.389 63.8568 982.329 65.8082 981.186 66.9648L963.334 85.0168C962.19 86.1734 960.26 86.2333 959.079 85.0388L931.613 57.2651C930.431 56.0705 930.491 54.1192 931.634 52.9626Z" fill="#4B75A4"/>
<path d="M900.125 99.2656L919.401 118.758L917.115 121.07L897.839 101.577L900.125 99.2656Z" fill="white"/>
<path d="M918.908 80.27L938.185 99.7625L934.06 103.933L909.836 94.8145C915.791 99.9314 921.248 105.751 926.755 111.32L924.221 113.883L904.944 94.3905L908.97 90.3203L933.293 99.4386C927.387 94.4713 921.783 88.3027 916.374 82.8329L918.908 80.27Z" fill="white"/>
<path d="M934.214 64.793L935.783 67.3839L930.714 72.5096L947.925 89.9136L945.689 92.1748L928.478 74.7708L923.26 80.0471L921.592 77.5566L934.214 64.793Z" fill="white"/>
<path d="M961.165 76.5251L941.889 57.0327L939.365 59.5845L958.642 79.0769L961.165 76.5251Z" fill="#FEFEFE"/>
</g>
<g opacity="0.15">
<path fill-rule="evenodd" clip-rule="evenodd" d="M937.009 321.023L954.861 302.971C956.005 301.814 957.935 301.754 959.116 302.949L986.582 330.723C987.764 331.917 987.704 333.868 986.561 335.025L968.709 353.077C967.565 354.234 965.635 354.294 964.454 353.099L936.988 325.325C935.806 324.131 935.866 322.179 937.009 321.023Z" fill="#4B75A4"/>
<path d="M905.501 367.325L924.777 386.817L922.491 389.129L903.215 369.636L905.501 367.325Z" fill="white"/>
<path d="M924.283 348.33L943.56 367.822L939.435 371.993L915.211 362.874C921.166 367.991 926.623 373.811 932.13 379.38L929.596 381.943L910.319 362.45L914.345 358.38L938.668 367.498C932.762 362.531 927.158 356.362 921.749 350.893L924.283 348.33Z" fill="white"/>
<path d="M939.59 332.852L941.159 335.443L936.09 340.568L953.301 357.972L951.065 360.234L933.854 342.83L928.636 348.106L926.968 345.616L939.59 332.852Z" fill="white"/>
</g>
<g opacity="0.15">
<path fill-rule="evenodd" clip-rule="evenodd" d="M931.634 185.181L949.486 167.129C950.63 165.972 952.56 165.912 953.741 167.107L981.207 194.881C982.389 196.075 982.329 198.027 981.186 199.183L963.334 217.235C962.19 218.392 960.26 218.452 959.079 217.257L931.613 189.484C930.431 188.289 930.491 186.338 931.634 185.181Z" fill="#4B75A4"/>
<path d="M900.125 231.484L919.401 250.976L917.115 253.288L897.839 233.795L900.125 231.484Z" fill="white"/>
<path d="M918.908 212.488L938.185 231.981L934.06 236.152L909.836 227.033C915.791 232.15 921.248 237.969 926.755 243.539L924.221 246.101L904.944 226.609L908.97 222.539L933.293 231.657C927.387 226.69 921.783 220.521 916.374 215.051L918.908 212.488Z" fill="white"/>
<path d="M934.214 197.012L935.783 199.602L930.714 204.728L947.925 222.132L945.689 224.393L928.478 206.989L923.26 212.266L921.592 209.775L934.214 197.012Z" fill="white"/>
<path d="M961.165 208.743L941.889 189.251L939.365 191.803L958.642 211.295L961.165 208.743Z" fill="#FEFEFE"/>
</g>
<g opacity="0.15">
<path fill-rule="evenodd" clip-rule="evenodd" d="M937.009 453.24L954.861 435.188C956.005 434.031 957.935 433.972 959.116 435.166L986.582 462.94C987.764 464.134 987.704 466.086 986.561 467.242L968.709 485.294C967.565 486.451 965.635 486.511 964.454 485.316L936.988 457.543C935.806 456.348 935.866 454.397 937.009 453.24Z" fill="#4B75A4"/>
<path d="M905.501 499.542L924.777 519.034L922.491 521.346L903.215 501.854L905.501 499.542Z" fill="white"/>
<path d="M924.283 480.547L943.56 500.04L939.435 504.211L915.211 495.092C921.166 500.209 926.623 506.028 932.13 511.598L929.596 514.16L910.319 494.668L914.345 490.598L938.668 499.716C932.762 494.749 927.158 488.58 921.749 483.11L924.283 480.547Z" fill="white"/>
<path d="M939.59 465.069L941.159 467.66L936.09 472.786L953.301 490.19L951.065 492.451L933.854 475.047L928.636 480.323L926.968 477.833L939.59 465.069Z" fill="white"/>
</g>
<path fill-rule="evenodd" clip-rule="evenodd" d="M439.697 136.5H528.312C533.99 136.5 538.926 141.203 538.926 147.145V285.276C538.926 291.217 533.99 295.92 528.312 295.92H439.697C434.02 295.92 429.083 291.217 429.083 285.276V147.145C429.083 141.203 434.02 136.5 439.697 136.5Z" fill="#4B75A4"/>
<path d="M247.847 172.404V269.349H236.5V172.404H247.847Z" fill="white"/>
<path d="M341.09 172.404V269.349H320.616L282.875 185.759C285.095 213.457 284.355 241.651 284.355 269.349H271.774V172.404H291.755L329.743 256.241C327.276 229.038 328.509 199.608 328.509 172.404H341.09Z" fill="white"/>
<path d="M417.065 172.404L414.599 182.791H389.437V269.349H378.337V182.791H352.437L354.41 172.404H417.065Z" fill="white"/>
<path d="M455.161 269.349V172.404H442.635V269.349H455.161Z" fill="#FEFEFE"/>
<path d="M531.792 172.404L529.582 182.791H504.283V269.349H492.003V182.791H466.213L468.423 172.404H531.792Z" fill="#FEFEFE"/>
<path d="M573.705 225.328H597.879C595.165 215.436 591.712 203.318 585.792 182.544C580.364 201.834 576.911 214.2 573.705 225.328ZM601.085 236.705H570.745V236.21C568.031 245.608 565.317 255.5 561.371 269.349H547.804L576.911 172.404H595.411L624.519 269.349H610.212C606.018 254.511 603.552 245.36 601.085 236.705Z" fill="white"/>
<path fill-rule="evenodd" clip-rule="evenodd" d="M675.16 171.688H664.075L627.371 269.351H638.703L675.16 171.688Z" fill="#4B75A4"/>
<path fill-rule="evenodd" clip-rule="evenodd" d="M680.152 255.313L727.109 224.283L680.152 189.314V175.277L736.501 219.112V230.687L680.152 269.35V255.313Z" fill="#4B75A4"/>
<g filter="url(#filter0_d_228_1962)">
<path d="M221.431 398.773V431.5H215.55V403.695H201.232V431.5H195.351V398.773H221.431ZM228.522 431.5V398.773H240.795C243.309 398.773 245.418 399.241 247.123 400.179C248.838 401.116 250.132 402.406 251.006 404.046C251.89 405.676 252.332 407.53 252.332 409.607C252.332 411.706 251.89 413.57 251.006 415.2C250.122 416.83 248.817 418.114 247.091 419.051C245.365 419.978 243.24 420.442 240.715 420.442H232.581V415.568H239.916C241.386 415.568 242.59 415.312 243.527 414.801C244.465 414.289 245.157 413.586 245.605 412.691C246.063 411.797 246.292 410.768 246.292 409.607C246.292 408.446 246.063 407.423 245.605 406.539C245.157 405.655 244.459 404.968 243.511 404.478C242.574 403.977 241.365 403.727 239.884 403.727H234.451V431.5H228.522ZM286.725 415.136C286.725 418.663 286.065 421.683 284.744 424.197C283.434 426.701 281.644 428.618 279.375 429.95C277.116 431.282 274.554 431.947 271.688 431.947C268.822 431.947 266.255 431.282 263.986 429.95C261.727 428.608 259.938 426.685 258.616 424.181C257.306 421.667 256.651 418.652 256.651 415.136C256.651 411.61 257.306 408.595 258.616 406.092C259.938 403.577 261.727 401.654 263.986 400.323C266.255 398.991 268.822 398.325 271.688 398.325C274.554 398.325 277.116 398.991 279.375 400.323C281.644 401.654 283.434 403.577 284.744 406.092C286.065 408.595 286.725 411.61 286.725 415.136ZM280.765 415.136C280.765 412.654 280.376 410.561 279.598 408.856C278.831 407.141 277.766 405.847 276.402 404.973C275.039 404.089 273.467 403.647 271.688 403.647C269.909 403.647 268.338 404.089 266.974 404.973C265.61 405.847 264.54 407.141 263.762 408.856C262.995 410.561 262.612 412.654 262.612 415.136C262.612 417.619 262.995 419.717 263.762 421.433C264.54 423.137 265.61 424.431 266.974 425.316C268.338 426.189 269.909 426.626 271.688 426.626C273.467 426.626 275.039 426.189 276.402 425.316C277.766 424.431 278.831 423.137 279.598 421.433C280.376 419.717 280.765 417.619 280.765 415.136ZM313.376 398.773V403.743H298.259V431.5H292.331V398.773H313.376ZM318.39 431.5V398.773H330.663C333.177 398.773 335.286 399.241 336.991 400.179C338.706 401.116 340.001 402.406 340.874 404.046C341.758 405.676 342.2 407.53 342.2 409.607C342.2 411.706 341.758 413.57 340.874 415.2C339.99 416.83 338.685 418.114 336.959 419.051C335.233 419.978 333.108 420.442 330.583 420.442H322.449V415.568H329.784C331.254 415.568 332.458 415.312 333.395 414.801C334.333 414.289 335.025 413.586 335.473 412.691C335.931 411.797 336.16 410.768 336.16 409.607C336.16 408.446 335.931 407.423 335.473 406.539C335.025 405.655 334.328 404.968 333.379 404.478C332.442 403.977 331.233 403.727 329.752 403.727H324.319V431.5H318.39ZM347.905 431.5H341.577L353.099 398.773H360.418L371.955 431.5H365.627L356.886 405.484H356.631L347.905 431.5ZM348.113 418.668H365.372V423.43H348.113V418.668ZM376.266 398.773H383.521L393.237 422.487H393.62L403.336 398.773H410.591V431.5H404.902V409.016H404.599L395.554 431.404H391.303L382.259 408.968H381.955V431.5H376.266V398.773ZM419.972 431.947V426.962H421.841C422.683 426.962 423.375 426.839 423.919 426.594C424.462 426.349 424.899 425.998 425.229 425.539C425.57 425.081 425.852 424.549 426.076 423.941L426.508 422.839L414.81 398.773H421.01L429.16 416.287L436.207 398.773H442.312L431.03 425.46C430.508 426.61 429.906 427.681 429.224 428.672C428.542 429.652 427.653 430.445 426.555 431.053C425.469 431.649 424.052 431.947 422.305 431.947H419.972ZM446.535 398.773H452.415V421.081H452.719L468.108 398.773H473.429V431.5H467.501V409.208H467.229L451.792 431.5H446.535V398.773ZM463.154 390.335H467.485C467.485 392.2 466.808 393.712 465.455 394.874C464.113 396.024 462.291 396.599 459.99 396.599C457.71 396.599 455.894 396.024 454.541 394.874C453.198 393.712 452.532 392.2 452.543 390.335H456.842C456.842 391.102 457.076 391.789 457.545 392.397C458.024 392.993 458.839 393.292 459.99 393.292C461.119 393.292 461.923 392.993 462.403 392.397C462.893 391.8 463.143 391.113 463.154 390.335ZM491.051 398.773H498.306L508.022 422.487H508.406L518.122 398.773H525.377V431.5H519.688V409.016H519.384L510.339 431.404H506.089L497.044 408.968H496.74V431.5H491.051V398.773ZM536.035 431.5H529.707L541.229 398.773H548.548L560.085 431.5H553.757L545.016 405.484H544.76L536.035 431.5ZM536.243 418.668H553.502V423.43H536.243V418.668ZM564.396 398.773H570.277V421.081H570.58L585.969 398.773H591.29V431.5H585.362V409.208H585.09L569.653 431.5H564.396V398.773ZM581.015 390.335H585.346C585.346 392.2 584.669 393.712 583.316 394.874C581.974 396.024 580.152 396.599 577.851 396.599C575.571 396.599 573.755 396.024 572.402 394.874C571.06 393.712 570.394 392.2 570.404 390.335H574.703C574.703 391.102 574.938 391.789 575.406 392.397C575.886 392.993 576.701 393.292 577.851 393.292C578.98 393.292 579.785 392.993 580.264 392.397C580.754 391.8 581.005 391.113 581.015 390.335ZM597.75 431.5V398.773H618.796V403.743H603.679V411.413H609.991C612.495 411.413 614.641 411.823 616.431 412.643C618.232 413.453 619.611 414.598 620.57 416.079C621.529 417.56 622.008 419.302 622.008 421.305C622.008 423.318 621.529 425.092 620.57 426.626C619.611 428.15 618.232 429.343 616.431 430.206C614.641 431.069 612.495 431.5 609.991 431.5H597.75ZM603.679 426.642H609.991C611.312 426.642 612.431 426.392 613.347 425.891C614.263 425.39 614.956 424.73 615.424 423.909C615.904 423.089 616.144 422.2 616.144 421.241C616.144 419.856 615.611 418.679 614.546 417.709C613.491 416.729 611.973 416.239 609.991 416.239H603.679V426.642ZM630.118 431.947V426.962H631.988C632.829 426.962 633.522 426.839 634.065 426.594C634.609 426.349 635.045 425.998 635.376 425.539C635.717 425.081 635.999 424.549 636.223 423.941L636.654 422.839L624.957 398.773H631.157L639.307 416.287L646.354 398.773H652.458L641.176 425.46C640.654 426.61 640.052 427.681 639.371 428.672C638.689 429.652 637.799 430.445 636.702 431.053C635.615 431.649 634.198 431.947 632.451 431.947H630.118ZM657.308 403.743V398.773H683.42V403.743H673.304V431.5H667.424V403.743H657.308ZM688.454 431.5V398.773H694.382V412.627H709.547V398.773H715.492V431.5H709.547V417.597H694.382V431.5H688.454ZM734.452 431.947C731.778 431.947 729.44 431.314 727.437 430.046C725.434 428.767 723.879 426.988 722.771 424.708C721.663 422.418 721.109 419.749 721.109 416.702V414.369C721.109 411.163 721.668 408.355 722.787 405.948C723.916 403.54 725.493 401.67 727.517 400.339C729.541 398.996 731.906 398.325 734.612 398.325C737.041 398.325 739.182 398.778 741.036 399.684C742.9 400.578 744.381 401.868 745.479 403.551C746.587 405.234 747.22 407.237 747.38 409.559H741.484C741.409 408.27 741.057 407.157 740.429 406.219C739.811 405.282 738.996 404.563 737.984 404.062C736.983 403.561 735.859 403.311 734.612 403.311C733.089 403.311 731.746 403.753 730.585 404.637C729.435 405.511 728.534 406.741 727.884 408.329C727.245 409.906 726.926 411.738 726.926 413.826V417.214C726.926 419.163 727.24 420.879 727.869 422.359C728.497 423.84 729.376 424.996 730.505 425.827C731.634 426.647 732.95 427.058 734.452 427.058C735.709 427.058 736.849 426.812 737.872 426.322C738.905 425.832 739.742 425.129 740.381 424.213C741.02 423.297 741.377 422.205 741.452 420.937H747.38C747.263 423.217 746.65 425.183 745.543 426.834C744.435 428.474 742.932 429.737 741.036 430.621C739.14 431.505 736.945 431.947 734.452 431.947ZM724.465 417.901V412.979H738.048V417.901H724.465ZM759.657 398.773L759.13 421.88H753.984L753.473 398.773H759.657ZM756.557 431.852C755.587 431.852 754.756 431.511 754.064 430.829C753.382 430.147 753.041 429.316 753.041 428.336C753.041 427.377 753.382 426.557 754.064 425.875C754.756 425.193 755.587 424.852 756.557 424.852C757.505 424.852 758.325 425.193 759.018 425.875C759.721 426.557 760.072 427.377 760.072 428.336C760.072 428.986 759.907 429.577 759.577 430.11C759.257 430.642 758.831 431.069 758.299 431.388C757.777 431.697 757.196 431.852 756.557 431.852Z" fill="white"/>
</g>
</g>
</g>
<g clip-path="url(#clip1_228_1962)">
<path d="M471 315C498.614 315 521 292.614 521 265C521 237.386 498.614 215 471 215C443.386 215 421 237.386 421 265C421 292.614 443.386 315 471 315Z" fill="#D7D7D7" fill-opacity="0.68"/>
<path d="M491 265L461 282.321V247.68L491 265Z" fill="#303030"/>
</g>
</g>
<defs>
<filter id="filter0_d_228_1962" x="191.351" y="390.335" width="572.721" height="49.6118" filterUnits="userSpaceOnUse" color-interpolation-filters="sRGB">
<feFlood flood-opacity="0" result="BackgroundImageFix"/>
<feColorMatrix in="SourceAlpha" type="matrix" values="0 0 0 0 0 0 0 0 0 0 0 0 0 0 0 0 0 0 127 0" result="hardAlpha"/>
<feOffset dy="4"/>
<feGaussianBlur stdDeviation="2"/>
<feComposite in2="hardAlpha" operator="out"/>
<feColorMatrix type="matrix" values="0 0 0 0 0 0 0 0 0 0 0 0 0 0 0 0 0 0 0.25 0"/>
<feBlend mode="normal" in2="BackgroundImageFix" result="effect1_dropShadow_228_1962"/>
<feBlend mode="normal" in="SourceGraphic" in2="effect1_dropShadow_228_1962" result="shape"/>
</filter>
<linearGradient id="paint0_linear_228_1962" x1="478" y1="-7.5" x2="478" y2="528.5" gradientUnits="userSpaceOnUse">
<stop stop-color="#0FF6F6"/>
<stop offset="1" stop-color="#569CB9"/>
</linearGradient>
<clipPath id="clip0_228_1962">
<rect width="940" height="528" fill="white" transform="translate(0.5 0.5)"/>
</clipPath>
<clipPath id="clip1_228_1962">
<rect width="100" height="100" fill="white" transform="translate(421 215)"/>
</clipPath>
</defs>
</svg>
