<svg width="769" height="432" viewBox="0 0 769 432" fill="none" xmlns="http://www.w3.org/2000/svg">
<g clip-path="url(#clip0_222_530)">
<mask id="mask0_222_530" style="mask-type:luminance" maskUnits="userSpaceOnUse" x="0" y="0" width="769" height="432">
<path d="M768.5 0.5H0.5V431.5H768.5V0.5Z" fill="white"/>
</mask>
<g mask="url(#mask0_222_530)">
<path d="M768.5 0.5H0.5V431.5H768.5V0.5Z" fill="url(#paint0_linear_222_530)"/>
<g opacity="0.15">
<path fill-rule="evenodd" clip-rule="evenodd" d="M-23.775 39.0769L-9.06728 24.1256C-8.12495 23.1676 -6.53512 23.118 -5.56186 24.1074L17.0665 47.1106C18.0397 48.1 17.9909 49.7162 17.0486 50.6741L2.34089 65.6255C1.39856 66.5834 -0.191312 66.633 -1.16454 65.6436L-23.7929 42.6404C-24.7661 41.651 -24.7173 40.0349 -23.775 39.0769Z" fill="#4B75A4"/>
<path d="M0.555487 58.5919L-15.3257 42.4475L-17.4048 44.561L-1.52357 60.7054L0.555487 58.5919Z" fill="#FEFEFE"/>
<path d="M-2.60781 29.5183L-1.27314 31.621L-5.47207 35.8895L8.70766 50.3041L6.66945 52.3761L-7.51028 37.9614L-11.7907 42.3127L-13.1253 40.2101L-2.60781 29.5183Z" fill="#FEFEFE"/>
<path d="M13.0195 31.2603L17.0318 27.1816C14.9607 25.9921 12.4025 24.5566 8.01676 22.0961C10.276 26.2241 11.7286 28.8661 13.0195 31.2603ZM19.4275 28.5352L14.3919 33.6543L14.3108 33.5719C15.3999 35.5948 16.57 37.7 18.1838 40.6722L15.9321 42.9613L4.88171 21.9059L7.95233 18.7844L28.6648 30.0176L26.2901 32.4316C23.1634 30.6681 21.2549 29.5603 19.4275 28.5352Z" fill="white"/>
<path fill-rule="evenodd" clip-rule="evenodd" d="M21.0699 5.2085L19.2301 7.07878L29.1371 29.5355L31.0179 27.6236L21.0699 5.2085Z" fill="#4B75A4"/>
<path fill-rule="evenodd" clip-rule="evenodd" d="M35.5976 18.2934L38.3079 5.2033L24.7858 7.30249L22.4863 4.9649L39.0195 2.75757L40.9156 4.68509L37.897 20.631L35.5976 18.2934Z" fill="#4B75A4"/>
</g>
<g opacity="0.15">
<path fill-rule="evenodd" clip-rule="evenodd" d="M-19.3482 261.094L-4.64054 246.143C-3.69821 245.185 -2.10837 245.135 -1.13511 246.124L21.4933 269.128C22.4665 270.117 22.4177 271.733 21.4754 272.691L6.76764 287.642C5.82531 288.6 4.23544 288.65 3.26221 287.661L-19.3661 264.657C-20.3394 263.668 -20.2905 262.052 -19.3482 261.094Z" fill="#4B75A4"/>
<path d="M4.98178 280.609L-10.8995 264.464L-12.9785 266.578L2.90273 282.722L4.98178 280.609Z" fill="#FEFEFE"/>
<path d="M1.81891 251.535L3.15357 253.638L-1.04536 257.907L13.1344 272.321L11.0962 274.393L-3.08357 259.979L-7.36395 264.33L-8.69861 262.227L1.81891 251.535Z" fill="#FEFEFE"/>
<path d="M17.4458 253.277L21.458 249.198C19.387 248.009 16.8287 246.573 12.4431 244.113C14.7023 248.241 16.1549 250.883 17.4458 253.277ZM23.8538 250.552L18.8181 255.671L18.7371 255.588C19.8262 257.611 20.9963 259.717 22.6101 262.689L20.3583 264.978L9.30798 243.922L12.3787 240.801L33.091 252.034L30.7164 254.448C27.5896 252.685 25.6812 251.577 23.8538 250.552Z" fill="white"/>
<path fill-rule="evenodd" clip-rule="evenodd" d="M25.4966 227.225L23.6568 229.096L33.5639 251.553L35.4446 249.641L25.4966 227.225Z" fill="#4B75A4"/>
<path fill-rule="evenodd" clip-rule="evenodd" d="M40.0243 240.31L42.7347 227.22L29.2126 229.32L26.9131 226.982L43.4463 224.775L45.3424 226.702L42.3238 242.648L40.0243 240.31Z" fill="#4B75A4"/>
</g>
<g opacity="0.15">
<path fill-rule="evenodd" clip-rule="evenodd" d="M-23.775 148.586L-9.06728 133.634C-8.12495 132.676 -6.53512 132.627 -5.56186 133.616L17.0665 156.619C18.0397 157.609 17.9909 159.225 17.0486 160.183L2.34089 175.134C1.39856 176.092 -0.191312 176.142 -1.16454 175.152L-23.7929 152.149C-24.7661 151.16 -24.7173 149.544 -23.775 148.586Z" fill="#4B75A4"/>
<path d="M0.55501 168.101L-15.3262 151.956L-17.4053 154.07L-1.52403 170.214L0.55501 168.101Z" fill="#FEFEFE"/>
<path d="M-2.60781 139.027L-1.27314 141.13L-5.47207 145.398L8.70766 159.813L6.66945 161.885L-7.51028 147.47L-11.7907 151.822L-13.1253 149.719L-2.60781 139.027Z" fill="#FEFEFE"/>
<path d="M13.0195 140.769L17.0318 136.69C14.9607 135.501 12.4025 134.065 8.01676 131.605C10.276 135.733 11.7286 138.375 13.0195 140.769ZM19.4275 138.044L14.3919 143.163L14.3108 143.081C15.3999 145.104 16.57 147.209 18.1838 150.181L15.9321 152.47L4.88171 131.415L7.95233 128.293L28.6648 139.526L26.2901 141.94C23.1634 140.177 21.2549 139.069 19.4275 138.044Z" fill="white"/>
<path fill-rule="evenodd" clip-rule="evenodd" d="M21.0699 114.717L19.2301 116.587L29.1371 139.044L31.0179 137.132L21.0699 114.717Z" fill="#4B75A4"/>
<path fill-rule="evenodd" clip-rule="evenodd" d="M35.5976 127.802L38.3079 114.712L24.7858 116.811L22.4863 114.474L39.0195 112.266L40.9156 114.194L37.897 130.14L35.5976 127.802Z" fill="#4B75A4"/>
</g>
<g opacity="0.15">
<path fill-rule="evenodd" clip-rule="evenodd" d="M-19.3482 370.602L-4.64054 355.65C-3.69821 354.692 -2.10837 354.643 -1.13511 355.632L21.4933 378.635C22.4665 379.625 22.4177 381.241 21.4754 382.199L6.76764 397.15C5.82531 398.108 4.23544 398.158 3.26221 397.168L-19.3661 374.165C-20.3394 373.176 -20.2905 371.56 -19.3482 370.602Z" fill="#4B75A4"/>
<path d="M4.98178 390.117L-10.8995 373.972L-12.9785 376.086L2.90273 392.23L4.98178 390.117Z" fill="#FEFEFE"/>
<path d="M1.81891 361.043L3.15357 363.146L-1.04536 367.414L13.1344 381.829L11.0962 383.901L-3.08357 369.486L-7.36395 373.838L-8.69861 371.735L1.81891 361.043Z" fill="#FEFEFE"/>
<path d="M17.4458 362.785L21.458 358.706C19.387 357.517 16.8287 356.081 12.4431 353.62C14.7023 357.749 16.1549 360.391 17.4458 362.785ZM23.8538 360.06L18.8181 365.179L18.7371 365.096C19.8262 367.119 20.9963 369.224 22.6101 372.197L20.3583 374.486L9.30798 353.43L12.3787 350.309L33.091 361.542L30.7164 363.956C27.5896 362.192 25.6812 361.085 23.8538 360.06Z" fill="white"/>
<path fill-rule="evenodd" clip-rule="evenodd" d="M25.4966 336.733L23.6568 338.604L33.5639 361.06L35.4446 359.148L25.4966 336.733Z" fill="#4B75A4"/>
<path fill-rule="evenodd" clip-rule="evenodd" d="M40.0243 349.818L42.7347 336.728L29.2126 338.827L26.9131 336.49L43.4463 334.282L45.3424 336.21L42.3238 352.156L40.0243 349.818Z" fill="#4B75A4"/>
</g>
<g opacity="0.15">
<path fill-rule="evenodd" clip-rule="evenodd" d="M395.313 39.0769L410.021 24.1256C410.963 23.1676 412.553 23.118 413.527 24.1074L436.155 47.1106C437.128 48.1 437.079 49.7162 436.137 50.6741L421.429 65.6255C420.487 66.5834 418.897 66.633 417.924 65.6436L395.296 42.6404C394.322 41.651 394.371 40.0349 395.313 39.0769Z" fill="#4B75A4"/>
<path d="M369.354 77.4263L385.235 93.5707L383.352 95.4852L367.471 79.3408L369.354 77.4263Z" fill="white"/>
<path d="M384.829 61.6941L400.711 77.8385L397.312 81.293L377.355 73.7404C382.261 77.9784 386.756 82.7984 391.294 87.4111L389.206 89.5336L373.325 73.3893L376.641 70.0181L396.68 77.5702C391.814 73.4561 387.198 68.3471 382.741 63.8168L384.829 61.6941Z" fill="white"/>
<path d="M397.44 48.875L398.732 51.0209L394.556 55.2661L408.736 69.6808L406.893 71.5536L392.714 57.1389L388.415 61.509L387.041 59.4463L397.44 48.875Z" fill="white"/>
<path d="M419.644 58.5919L403.763 42.4475L401.684 44.561L417.565 60.7054L419.644 58.5919Z" fill="#FEFEFE"/>
<path d="M416.481 29.5183L417.815 31.621L413.616 35.8895L427.796 50.3041L425.758 52.3761L411.578 37.9614L407.298 42.3127L405.963 40.2101L416.481 29.5183Z" fill="#FEFEFE"/>
<path d="M432.108 31.2603L436.12 27.1816C434.049 25.9921 431.491 24.5566 427.105 22.0961C429.364 26.2241 430.817 28.8661 432.108 31.2603ZM438.516 28.5352L433.48 33.6543L433.399 33.5719C434.488 35.5948 435.658 37.7 437.272 40.6722L435.02 42.9613L423.97 21.9059L427.041 18.7844L447.753 30.0176L445.378 32.4316C442.252 30.6681 440.343 29.5603 438.516 28.5352Z" fill="white"/>
<path fill-rule="evenodd" clip-rule="evenodd" d="M440.158 5.2085L438.318 7.07878L448.225 29.5355L450.106 27.6236L440.158 5.2085Z" fill="#4B75A4"/>
<path fill-rule="evenodd" clip-rule="evenodd" d="M454.686 18.2934L457.396 5.2033L443.874 7.30249L441.575 4.9649L458.108 2.75757L460.004 4.68509L456.985 20.631L454.686 18.2934Z" fill="#4B75A4"/>
</g>
<g opacity="0.15">
<path fill-rule="evenodd" clip-rule="evenodd" d="M399.741 261.094L414.448 246.143C415.391 245.185 416.981 245.135 417.954 246.124L440.582 269.128C441.555 270.117 441.507 271.733 440.564 272.691L425.857 287.642C424.914 288.6 423.324 288.65 422.351 287.661L399.723 264.657C398.75 263.668 398.798 262.052 399.741 261.094Z" fill="#4B75A4"/>
<path d="M373.781 299.443L389.663 315.587L387.779 317.502L371.898 301.357L373.781 299.443Z" fill="white"/>
<path d="M389.256 283.711L405.138 299.855L401.74 303.309L381.782 295.757C386.688 299.995 391.184 304.815 395.721 309.428L393.633 311.55L377.752 295.406L381.068 292.035L401.107 299.587C396.241 295.473 391.625 290.364 387.168 285.833L389.256 283.711Z" fill="white"/>
<path d="M401.867 270.892L403.159 273.037L398.983 277.283L413.163 291.697L411.321 293.57L397.141 279.156L392.842 283.526L391.468 281.463L401.867 270.892Z" fill="white"/>
<path d="M424.071 280.609L408.19 264.464L406.111 266.578L421.992 282.722L424.071 280.609Z" fill="#FEFEFE"/>
<path d="M420.908 251.535L422.242 253.638L418.044 257.907L432.223 272.321L430.185 274.393L416.005 259.979L411.725 264.33L410.39 262.227L420.908 251.535Z" fill="#FEFEFE"/>
<path d="M436.535 253.277L440.547 249.198C438.476 248.009 435.918 246.573 431.532 244.113C433.792 248.241 435.244 250.883 436.535 253.277ZM442.943 250.552L437.907 255.671L437.826 255.588C438.916 257.611 440.086 259.717 441.699 262.689L439.448 264.978L428.397 243.922L431.468 240.801L452.18 252.034L449.806 254.448C446.679 252.685 444.771 251.577 442.943 250.552Z" fill="white"/>
<path fill-rule="evenodd" clip-rule="evenodd" d="M444.585 227.225L442.746 229.096L452.653 251.553L454.533 249.641L444.585 227.225Z" fill="#4B75A4"/>
<path fill-rule="evenodd" clip-rule="evenodd" d="M459.113 240.31L461.824 227.22L448.301 229.32L446.002 226.982L462.535 224.775L464.431 226.702L461.413 242.648L459.113 240.31Z" fill="#4B75A4"/>
</g>
<g opacity="0.15">
<path fill-rule="evenodd" clip-rule="evenodd" d="M395.313 148.586L410.021 133.634C410.963 132.676 412.553 132.627 413.526 133.616L436.154 156.619C437.128 157.609 437.079 159.225 436.136 160.183L421.429 175.134C420.486 176.092 418.897 176.142 417.923 175.152L395.295 152.149C394.322 151.16 394.371 149.544 395.313 148.586Z" fill="#4B75A4"/>
<path d="M369.354 186.935L385.235 203.079L383.351 204.994L367.47 188.85L369.354 186.935Z" fill="white"/>
<path d="M384.829 171.203L400.71 187.347L397.312 190.802L377.354 183.249C382.26 187.487 386.756 192.307 391.293 196.92L389.205 199.042L373.324 182.898L376.64 179.527L396.679 187.079C391.814 182.965 387.197 177.856 382.741 173.325L384.829 171.203Z" fill="white"/>
<path d="M397.439 158.383L398.732 160.529L394.556 164.774L408.735 179.189L406.893 181.062L392.713 166.647L388.414 171.017L387.04 168.955L397.439 158.383Z" fill="white"/>
<path d="M419.643 168.101L403.762 151.956L401.683 154.07L417.564 170.214L419.643 168.101Z" fill="#FEFEFE"/>
<path d="M416.48 139.027L417.815 141.13L413.616 145.398L427.796 159.813L425.757 161.885L411.578 147.47L407.297 151.822L405.963 149.719L416.48 139.027Z" fill="#FEFEFE"/>
<path d="M432.107 140.769L436.12 136.69C434.049 135.501 431.49 134.065 427.105 131.605C429.364 135.733 430.816 138.375 432.107 140.769ZM438.515 138.044L433.48 143.163L433.399 143.081C434.488 145.104 435.658 147.209 437.272 150.181L435.02 152.47L423.97 131.415L427.04 128.293L447.753 139.526L445.378 141.94C442.251 140.177 440.343 139.069 438.515 138.044Z" fill="white"/>
<path fill-rule="evenodd" clip-rule="evenodd" d="M440.158 114.717L438.318 116.587L448.225 139.044L450.106 137.132L440.158 114.717Z" fill="#4B75A4"/>
<path fill-rule="evenodd" clip-rule="evenodd" d="M454.686 127.802L457.396 114.712L443.874 116.811L441.575 114.474L458.108 112.266L460.004 114.194L456.985 130.14L454.686 127.802Z" fill="#4B75A4"/>
</g>
<g opacity="0.15">
<path fill-rule="evenodd" clip-rule="evenodd" d="M399.741 370.602L414.448 355.65C415.391 354.692 416.981 354.643 417.954 355.632L440.582 378.635C441.555 379.625 441.507 381.241 440.564 382.199L425.857 397.15C424.914 398.108 423.324 398.158 422.351 397.168L399.723 374.165C398.75 373.176 398.798 371.56 399.741 370.602Z" fill="#4B75A4"/>
<path d="M373.781 408.951L389.663 425.095L387.779 427.01L371.898 410.865L373.781 408.951Z" fill="white"/>
<path d="M389.256 393.219L405.138 409.363L401.74 412.818L381.782 405.265C386.688 409.503 391.184 414.323 395.721 418.936L393.633 421.058L377.752 404.914L381.068 401.543L401.107 409.095C396.241 404.981 391.625 399.872 387.168 395.342L389.256 393.219Z" fill="white"/>
<path d="M401.867 380.399L403.159 382.545L398.983 386.791L413.163 401.205L411.321 403.078L397.141 388.663L392.842 393.033L391.468 390.971L401.867 380.399Z" fill="white"/>
<path d="M424.071 390.117L408.19 373.972L406.111 376.086L421.992 392.23L424.071 390.117Z" fill="#FEFEFE"/>
<path d="M420.908 361.043L422.242 363.146L418.044 367.414L432.223 381.829L430.185 383.901L416.005 369.486L411.725 373.838L410.39 371.735L420.908 361.043Z" fill="#FEFEFE"/>
<path d="M436.535 362.785L440.547 358.706C438.476 357.517 435.918 356.081 431.532 353.62C433.792 357.749 435.244 360.391 436.535 362.785ZM442.943 360.06L437.907 365.179L437.826 365.096C438.916 367.119 440.086 369.224 441.699 372.197L439.448 374.486L428.397 353.43L431.468 350.309L452.18 361.542L449.806 363.956C446.679 362.192 444.771 361.085 442.943 360.06Z" fill="white"/>
<path fill-rule="evenodd" clip-rule="evenodd" d="M444.585 336.733L442.746 338.604L452.653 361.06L454.533 359.148L444.585 336.733Z" fill="#4B75A4"/>
<path fill-rule="evenodd" clip-rule="evenodd" d="M459.113 349.818L461.824 336.728L448.301 338.827L446.002 336.49L462.535 334.282L464.431 336.21L461.413 352.156L459.113 349.818Z" fill="#4B75A4"/>
</g>
<g opacity="0.15">
<path fill-rule="evenodd" clip-rule="evenodd" d="M185.769 37.5769L200.477 22.6256C201.419 21.6676 203.009 21.618 203.982 22.6074L226.61 45.6106C227.584 46.6 227.535 48.2162 226.593 49.1741L211.885 64.1255C210.943 65.0834 209.353 65.133 208.379 64.1436L185.751 41.1404C184.778 40.151 184.827 38.5349 185.769 37.5769Z" fill="#4B75A4"/>
<path d="M159.81 75.9263L175.691 92.0707L173.808 93.9852L157.926 77.8408L159.81 75.9263Z" fill="white"/>
<path d="M175.285 60.1941L191.166 76.3385L187.768 79.793L167.81 72.2404C172.716 76.4784 177.212 81.2984 181.75 85.9111L179.662 88.0336L163.78 71.8893L167.096 68.5181L187.135 76.0702C182.27 71.9561 177.653 66.8471 173.197 62.3168L175.285 60.1941Z" fill="white"/>
<path d="M187.896 47.375L189.188 49.5209L185.012 53.7661L199.191 68.1808L197.349 70.0536L183.169 55.6389L178.87 60.009L177.497 57.9463L187.896 47.375Z" fill="white"/>
<path d="M210.099 57.0919L194.218 40.9475L192.139 43.061L208.02 59.2054L210.099 57.0919Z" fill="#FEFEFE"/>
<path d="M206.936 28.0183L208.271 30.121L204.072 34.3895L218.252 48.8041L216.213 50.8761L202.034 36.4614L197.753 40.8127L196.419 38.7101L206.936 28.0183Z" fill="#FEFEFE"/>
<path d="M222.563 29.7603L226.576 25.6816C224.505 24.4921 221.946 23.0566 217.561 20.5961C219.82 24.7241 221.273 27.3661 222.563 29.7603ZM228.971 27.0352L223.936 32.1543L223.855 32.0719C224.944 34.0948 226.114 36.2 227.728 39.1722L225.476 41.4613L214.426 20.4059L217.496 17.2844L238.209 28.5176L235.834 30.9316C232.707 29.1681 230.799 28.0603 228.971 27.0352Z" fill="white"/>
<path fill-rule="evenodd" clip-rule="evenodd" d="M230.614 3.7085L228.774 5.57878L238.681 28.0355L240.562 26.1236L230.614 3.7085Z" fill="#4B75A4"/>
<path fill-rule="evenodd" clip-rule="evenodd" d="M245.141 16.7934L247.852 3.7033L234.33 5.80249L232.03 3.4649L248.563 1.25757L250.46 3.18509L247.441 19.131L245.141 16.7934Z" fill="#4B75A4"/>
</g>
<g opacity="0.15">
<path fill-rule="evenodd" clip-rule="evenodd" d="M190.196 259.594L204.904 244.643C205.846 243.685 207.436 243.635 208.409 244.624L231.038 267.628C232.011 268.617 231.962 270.233 231.02 271.191L216.312 286.142C215.37 287.1 213.78 287.15 212.807 286.161L190.178 263.157C189.205 262.168 189.254 260.552 190.196 259.594Z" fill="#4B75A4"/>
<path d="M164.236 297.943L180.118 314.087L178.234 316.002L162.353 299.857L164.236 297.943Z" fill="white"/>
<path d="M179.712 282.211L195.593 298.355L192.195 301.81L172.238 294.257C177.144 298.495 181.639 303.315 186.177 307.928L184.089 310.051L168.208 293.906L171.524 290.535L191.563 298.087C186.697 293.973 182.081 288.864 177.624 284.334L179.712 282.211Z" fill="white"/>
<path d="M192.323 269.392L193.615 271.537L189.439 275.783L203.619 290.197L201.776 292.07L187.597 277.656L183.298 282.026L181.924 279.963L192.323 269.392Z" fill="white"/>
<path d="M214.526 279.109L198.644 262.965L196.565 265.078L212.447 281.222L214.526 279.109Z" fill="#FEFEFE"/>
<path d="M211.363 250.035L212.698 252.138L208.499 256.406L222.679 270.821L220.641 272.893L206.461 258.478L202.181 262.829L200.846 260.727L211.363 250.035Z" fill="#FEFEFE"/>
<path d="M226.991 251.777L231.003 247.699C228.932 246.509 226.374 245.074 221.988 242.613C224.247 246.741 225.7 249.383 226.991 251.777ZM233.399 249.052L228.363 254.171L228.282 254.089C229.371 256.112 230.541 258.217 232.155 261.189L229.903 263.478L218.853 242.423L221.924 239.301L242.636 250.535L240.261 252.949C237.135 251.185 235.226 250.077 233.399 249.052Z" fill="white"/>
<path fill-rule="evenodd" clip-rule="evenodd" d="M235.041 225.725L233.201 227.596L243.108 250.053L244.989 248.141L235.041 225.725Z" fill="#4B75A4"/>
<path fill-rule="evenodd" clip-rule="evenodd" d="M249.569 238.81L252.279 225.72L238.757 227.82L236.458 225.482L252.991 223.275L254.887 225.202L251.868 241.148L249.569 238.81Z" fill="#4B75A4"/>
</g>
<g opacity="0.15">
<path fill-rule="evenodd" clip-rule="evenodd" d="M185.769 147.085L200.477 132.134C201.419 131.176 203.009 131.126 203.983 132.116L226.611 155.119C227.584 156.108 227.535 157.724 226.593 158.682L211.885 173.634C210.943 174.592 209.353 174.641 208.38 173.652L185.752 150.649C184.778 149.659 184.827 148.043 185.769 147.085Z" fill="#4B75A4"/>
<path d="M159.81 185.435L175.691 201.579L173.808 203.493L157.927 187.349L159.81 185.435Z" fill="white"/>
<path d="M175.285 169.702L191.167 185.847L187.768 189.301L167.811 181.749C172.717 185.987 177.213 190.807 181.75 195.419L179.662 197.542L163.781 181.397L167.097 178.026L187.136 185.578C182.27 181.464 177.654 176.355 173.197 171.825L175.285 169.702Z" fill="white"/>
<path d="M187.896 156.883L189.188 159.029L185.012 163.274L199.191 177.689L197.349 179.561L183.169 165.147L178.87 169.517L177.497 167.454L187.896 156.883Z" fill="white"/>
<path d="M210.099 166.6L194.218 150.456L192.139 152.569L208.02 168.714L210.099 166.6Z" fill="#FEFEFE"/>
<path d="M206.937 137.527L208.271 139.629L204.072 143.898L218.252 158.312L216.214 160.384L202.034 145.97L197.754 150.321L196.419 148.218L206.937 137.527Z" fill="#FEFEFE"/>
<path d="M222.563 139.269L226.576 135.19C224.505 134 221.946 132.565 217.561 130.104C219.82 134.232 221.273 136.874 222.563 139.269ZM228.971 136.543L223.936 141.663L223.855 141.58C224.944 143.603 226.114 145.708 227.728 148.68L225.476 150.97L214.426 129.914L217.496 126.793L238.209 138.026L235.834 140.44C232.707 138.676 230.799 137.569 228.971 136.543Z" fill="white"/>
<path fill-rule="evenodd" clip-rule="evenodd" d="M230.614 113.217L228.774 115.087L238.682 137.544L240.562 135.632L230.614 113.217Z" fill="#4B75A4"/>
<path fill-rule="evenodd" clip-rule="evenodd" d="M245.142 126.302L247.852 113.212L234.33 115.311L232.031 112.973L248.564 110.766L250.46 112.693L247.441 128.639L245.142 126.302Z" fill="#4B75A4"/>
</g>
<g opacity="0.15">
<path fill-rule="evenodd" clip-rule="evenodd" d="M190.196 369.102L204.904 354.15C205.846 353.192 207.436 353.143 208.409 354.132L231.038 377.135C232.011 378.125 231.962 379.741 231.02 380.699L216.312 395.65C215.37 396.608 213.78 396.658 212.807 395.668L190.178 372.665C189.205 371.676 189.254 370.06 190.196 369.102Z" fill="#4B75A4"/>
<path d="M164.236 407.451L180.118 423.595L178.234 425.51L162.353 409.365L164.236 407.451Z" fill="white"/>
<path d="M179.712 391.719L195.593 407.863L192.195 411.318L172.238 403.765C177.144 408.003 181.639 412.823 186.177 417.436L184.089 419.558L168.208 403.414L171.524 400.043L191.563 407.595C186.697 403.481 182.081 398.372 177.624 393.842L179.712 391.719Z" fill="white"/>
<path d="M192.323 378.899L193.615 381.045L189.439 385.291L203.619 399.705L201.776 401.578L187.597 387.163L183.298 391.533L181.924 389.471L192.323 378.899Z" fill="white"/>
<path d="M214.526 388.617L198.644 372.472L196.565 374.586L212.447 390.73L214.526 388.617Z" fill="#FEFEFE"/>
<path d="M211.363 359.543L212.698 361.645L208.499 365.914L222.679 380.329L220.641 382.401L206.461 367.986L202.181 372.337L200.846 370.234L211.363 359.543Z" fill="#FEFEFE"/>
<path d="M226.991 361.285L231.003 357.207C228.932 356.017 226.374 354.582 221.988 352.121C224.247 356.249 225.7 358.891 226.991 361.285ZM233.399 358.56L228.363 363.679L228.282 363.597C229.371 365.62 230.541 367.725 232.155 370.697L229.903 372.986L218.853 351.931L221.924 348.809L242.636 360.043L240.261 362.457C237.135 360.693 235.226 359.585 233.399 358.56Z" fill="white"/>
<path fill-rule="evenodd" clip-rule="evenodd" d="M235.041 335.233L233.201 337.104L243.108 359.56L244.989 357.648L235.041 335.233Z" fill="#4B75A4"/>
<path fill-rule="evenodd" clip-rule="evenodd" d="M249.569 348.318L252.279 335.228L238.757 337.327L236.458 334.99L252.991 332.782L254.887 334.71L251.868 350.656L249.569 348.318Z" fill="#4B75A4"/>
</g>
<g opacity="0.15">
<path fill-rule="evenodd" clip-rule="evenodd" d="M604.858 37.5764L619.566 22.6251C620.508 21.6671 622.098 21.6175 623.071 22.6069L645.699 45.6101C646.673 46.5995 646.624 48.2157 645.681 49.1736L630.974 64.125C630.031 65.0829 628.442 65.1325 627.468 64.1432L604.84 41.1399C603.867 40.1506 603.916 38.5344 604.858 37.5764Z" fill="#4B75A4"/>
<path d="M578.898 75.9253L594.78 92.0697L592.896 93.9842L577.015 77.8398L578.898 75.9253Z" fill="white"/>
<path d="M594.374 60.1931L610.255 76.3374L606.857 79.7919L586.899 72.2393C591.805 76.4773 596.301 81.2974 600.838 85.91L598.75 88.0326L582.869 71.8882L586.185 68.517L606.224 76.0692C601.359 71.9551 596.742 66.846 592.286 62.3157L594.374 60.1931Z" fill="white"/>
<path d="M606.984 47.374L608.277 49.5199L604.1 53.7652L618.28 68.1798L616.438 70.0526L602.258 55.638L597.959 60.008L596.585 57.9453L606.984 47.374Z" fill="white"/>
<path d="M629.188 57.0911L613.307 40.9468L611.228 43.0603L627.109 59.2046L629.188 57.0911Z" fill="#FEFEFE"/>
<path d="M626.025 28.0178L627.36 30.1205L623.161 34.389L637.34 48.8036L635.302 50.8756L621.123 36.4609L616.842 40.8122L615.507 38.7096L626.025 28.0178Z" fill="#FEFEFE"/>
<path d="M641.652 29.7594L645.665 25.6806C643.594 24.4911 641.035 23.0557 636.65 20.5951C638.909 24.7232 640.361 27.3652 641.652 29.7594ZM648.06 27.0342L643.025 32.1533L642.944 32.0709C644.033 34.0939 645.203 36.199 646.817 39.1712L644.565 41.4603L633.515 20.4049L636.585 17.2834L657.298 28.5166L654.923 30.9306C651.796 29.1671 649.888 28.0593 648.06 27.0342Z" fill="white"/>
<path fill-rule="evenodd" clip-rule="evenodd" d="M649.703 3.70801L647.863 5.57829L657.77 28.0351L659.651 26.1231L649.703 3.70801Z" fill="#4B75A4"/>
<path fill-rule="evenodd" clip-rule="evenodd" d="M664.23 16.7929L666.941 3.70281L653.419 5.802L651.119 3.46442L667.652 1.25708L669.548 3.1846L666.53 19.1305L664.23 16.7929Z" fill="#4B75A4"/>
</g>
<g opacity="0.15">
<path fill-rule="evenodd" clip-rule="evenodd" d="M609.285 259.594L623.992 244.643C624.935 243.685 626.524 243.635 627.498 244.624L650.126 267.628C651.099 268.617 651.051 270.233 650.108 271.191L635.4 286.142C634.458 287.1 632.868 287.15 631.895 286.161L609.267 263.157C608.293 262.168 608.342 260.552 609.285 259.594Z" fill="#4B75A4"/>
<path d="M583.325 297.943L599.206 314.087L597.323 316.002L581.442 299.857L583.325 297.943Z" fill="white"/>
<path d="M598.8 282.211L614.682 298.355L611.284 301.809L591.326 294.257C596.232 298.495 600.728 303.315 605.265 307.928L603.177 310.05L587.296 293.906L590.612 290.535L610.651 298.087C605.785 293.973 601.169 288.864 596.712 284.333L598.8 282.211Z" fill="white"/>
<path d="M611.411 269.392L612.703 271.537L608.527 275.783L622.707 290.197L620.865 292.07L606.685 277.656L602.386 282.026L601.012 279.963L611.411 269.392Z" fill="white"/>
<path d="M633.615 279.109L617.733 262.964L615.654 265.078L631.536 281.222L633.615 279.109Z" fill="#FEFEFE"/>
<path d="M630.452 250.035L631.786 252.138L627.587 256.407L641.767 270.821L639.729 272.893L625.549 258.479L621.269 262.83L619.934 260.727L630.452 250.035Z" fill="#FEFEFE"/>
<path d="M646.079 251.777L650.091 247.698C648.02 246.509 645.462 245.073 641.076 242.613C643.335 246.741 644.788 249.383 646.079 251.777ZM652.487 249.052L647.451 254.171L647.37 254.088C648.459 256.111 649.629 258.217 651.243 261.189L648.991 263.478L637.941 242.422L641.011 239.301L661.724 250.534L659.349 252.948C656.222 251.185 654.314 250.077 652.487 249.052Z" fill="white"/>
<path fill-rule="evenodd" clip-rule="evenodd" d="M654.129 225.725L652.29 227.596L662.197 250.053L664.077 248.141L654.129 225.725Z" fill="#4B75A4"/>
<path fill-rule="evenodd" clip-rule="evenodd" d="M668.657 238.81L671.367 225.72L657.845 227.82L655.546 225.482L672.079 223.275L673.975 225.202L670.957 241.148L668.657 238.81Z" fill="#4B75A4"/>
</g>
<g opacity="0.15">
<path fill-rule="evenodd" clip-rule="evenodd" d="M604.858 147.085L619.566 132.134C620.508 131.176 622.098 131.126 623.071 132.116L645.699 155.119C646.673 156.108 646.624 157.724 645.681 158.682L630.974 173.634C630.031 174.592 628.442 174.641 627.468 173.652L604.84 150.649C603.867 149.659 603.916 148.043 604.858 147.085Z" fill="#4B75A4"/>
<path d="M578.898 185.435L594.78 201.579L592.896 203.493L577.015 187.349L578.898 185.435Z" fill="white"/>
<path d="M594.374 169.702L610.255 185.847L606.857 189.301L586.899 181.749C591.805 185.987 596.301 190.807 600.838 195.419L598.75 197.542L582.869 181.397L586.185 178.026L606.224 185.578C601.359 181.464 596.742 176.355 592.286 171.825L594.374 169.702Z" fill="white"/>
<path d="M606.984 156.883L608.277 159.029L604.1 163.274L618.28 177.689L616.438 179.561L602.258 165.147L597.959 169.517L596.585 167.454L606.984 156.883Z" fill="white"/>
<path d="M629.188 166.6L613.307 150.456L611.228 152.569L627.109 168.714L629.188 166.6Z" fill="#FEFEFE"/>
<path d="M626.025 137.527L627.36 139.629L623.161 143.898L637.34 158.312L635.302 160.384L621.123 145.97L616.842 150.321L615.507 148.218L626.025 137.527Z" fill="#FEFEFE"/>
<path d="M641.652 139.269L645.665 135.19C643.594 134 641.035 132.565 636.65 130.104C638.909 134.232 640.361 136.874 641.652 139.269ZM648.06 136.543L643.025 141.663L642.944 141.58C644.033 143.603 645.203 145.708 646.817 148.68L644.565 150.97L633.515 129.914L636.585 126.793L657.298 138.026L654.923 140.44C651.796 138.676 649.888 137.569 648.06 136.543Z" fill="white"/>
<path fill-rule="evenodd" clip-rule="evenodd" d="M649.703 113.217L647.863 115.087L657.77 137.544L659.651 135.632L649.703 113.217Z" fill="#4B75A4"/>
<path fill-rule="evenodd" clip-rule="evenodd" d="M664.23 126.302L666.941 113.212L653.419 115.311L651.119 112.973L667.652 110.766L669.548 112.693L666.53 128.639L664.23 126.302Z" fill="#4B75A4"/>
</g>
<g opacity="0.15">
<path fill-rule="evenodd" clip-rule="evenodd" d="M609.285 369.102L623.992 354.15C624.935 353.192 626.524 353.143 627.498 354.132L650.126 377.135C651.099 378.125 651.051 379.741 650.108 380.699L635.4 395.65C634.458 396.608 632.868 396.658 631.895 395.668L609.267 372.665C608.293 371.676 608.342 370.06 609.285 369.102Z" fill="#4B75A4"/>
<path d="M583.325 407.451L599.206 423.595L597.323 425.51L581.442 409.365L583.325 407.451Z" fill="white"/>
<path d="M598.8 391.719L614.682 407.863L611.284 411.318L591.326 403.765C596.232 408.003 600.728 412.823 605.265 417.436L603.177 419.558L587.296 403.414L590.612 400.043L610.651 407.595C605.785 403.481 601.169 398.372 596.712 393.842L598.8 391.719Z" fill="white"/>
<path d="M611.411 378.899L612.703 381.045L608.527 385.291L622.707 399.705L620.865 401.578L606.685 387.163L602.386 391.533L601.012 389.471L611.411 378.899Z" fill="white"/>
<path d="M633.615 388.617L617.733 372.472L615.654 374.586L631.536 390.73L633.615 388.617Z" fill="#FEFEFE"/>
<path d="M630.452 359.543L631.786 361.646L627.587 365.914L641.767 380.329L639.729 382.401L625.549 367.986L621.269 372.338L619.934 370.235L630.452 359.543Z" fill="#FEFEFE"/>
<path d="M646.079 361.285L650.091 357.207C648.02 356.017 645.462 354.582 641.076 352.121C643.335 356.249 644.788 358.891 646.079 361.285ZM652.487 358.56L647.451 363.679L647.37 363.597C648.459 365.62 649.629 367.725 651.243 370.697L648.991 372.986L637.941 351.931L641.011 348.809L661.724 360.043L659.349 362.457C656.222 360.693 654.314 359.585 652.487 358.56Z" fill="white"/>
<path fill-rule="evenodd" clip-rule="evenodd" d="M654.129 335.233L652.29 337.104L662.197 359.56L664.077 357.648L654.129 335.233Z" fill="#4B75A4"/>
<path fill-rule="evenodd" clip-rule="evenodd" d="M668.657 348.318L671.367 335.228L657.845 337.327L655.546 334.99L672.079 332.782L673.975 334.71L670.957 350.656L668.657 348.318Z" fill="#4B75A4"/>
</g>
<g opacity="0.15">
<path fill-rule="evenodd" clip-rule="evenodd" d="M80.9975 39.0769L95.7052 24.1256C96.6475 23.1676 98.2374 23.118 99.2106 24.1074L121.839 47.1106C122.812 48.1 122.763 49.7162 121.821 50.6741L107.113 65.6255C106.171 66.5834 104.581 66.633 103.608 65.6436L80.9796 42.6404C80.0063 41.651 80.0552 40.0349 80.9975 39.0769Z" fill="#4B75A4"/>
<path d="M55.0381 77.4263L70.9194 93.5707L69.0361 95.4852L53.1548 79.3408L55.0381 77.4263Z" fill="white"/>
<path d="M70.5133 61.6941L86.3946 77.8385L82.9964 81.293L63.0388 73.7404C67.9448 77.9784 72.4406 82.7984 76.978 87.4111L74.8901 89.5336L59.0088 73.3893L62.325 70.0181L82.364 77.5702C77.4982 73.4561 72.8818 68.3471 68.4253 63.8168L70.5133 61.6941Z" fill="white"/>
<path d="M83.124 48.875L84.4162 51.0209L80.2401 55.2661L94.4199 69.6808L92.5776 71.5536L78.3978 57.1389L74.099 61.509L72.725 59.4463L83.124 48.875Z" fill="white"/>
<path d="M105.328 58.5919L89.4467 42.4475L87.3677 44.561L103.249 60.7054L105.328 58.5919Z" fill="#FEFEFE"/>
<path d="M102.165 29.5183L103.499 31.621L99.3004 35.8895L113.48 50.3041L111.442 52.3761L97.2622 37.9614L92.9818 42.3127L91.6471 40.2101L102.165 29.5183Z" fill="#FEFEFE"/>
<path d="M117.792 31.2603L121.804 27.1816C119.733 25.9921 117.175 24.5566 112.789 22.0961C115.049 26.2241 116.501 28.8661 117.792 31.2603ZM124.2 28.5352L119.164 33.6543L119.083 33.5719C120.172 35.5948 121.343 37.7 122.956 40.6722L120.705 42.9613L109.654 21.9059L112.725 18.7844L133.437 30.0176L131.063 32.4316C127.936 30.6681 126.027 29.5603 124.2 28.5352Z" fill="white"/>
<path fill-rule="evenodd" clip-rule="evenodd" d="M125.842 5.2085L124.003 7.07878L133.91 29.5355L135.79 27.6236L125.842 5.2085Z" fill="#4B75A4"/>
<path fill-rule="evenodd" clip-rule="evenodd" d="M140.37 18.2934L143.08 5.2033L129.558 7.30249L127.259 4.9649L143.792 2.75757L145.688 4.68509L142.67 20.631L140.37 18.2934Z" fill="#4B75A4"/>
</g>
<g opacity="0.15">
<path fill-rule="evenodd" clip-rule="evenodd" d="M85.4243 261.094L100.132 246.143C101.074 245.185 102.664 245.135 103.637 246.124L126.266 269.128C127.239 270.117 127.19 271.733 126.248 272.691L111.54 287.642C110.598 288.6 109.008 288.65 108.035 287.661L85.4064 264.657C84.4331 263.668 84.4819 262.052 85.4243 261.094Z" fill="#4B75A4"/>
<path d="M59.4648 299.443L75.3461 315.587L73.4628 317.502L57.5815 301.357L59.4648 299.443Z" fill="white"/>
<path d="M74.9401 283.711L90.8213 299.855L87.4232 303.309L67.4656 295.757C72.3716 299.995 76.8673 304.815 81.4048 309.428L79.3168 311.55L63.4355 295.406L66.7517 292.035L86.7907 299.587C81.925 295.473 77.3086 290.364 72.852 285.833L74.9401 283.711Z" fill="white"/>
<path d="M87.5508 270.892L88.843 273.037L84.6669 277.283L98.8466 291.697L97.0043 293.57L82.8246 279.156L78.5257 283.526L77.1518 281.463L87.5508 270.892Z" fill="white"/>
<path d="M109.755 280.609L93.8735 264.464L91.7944 266.578L107.676 282.722L109.755 280.609Z" fill="#FEFEFE"/>
<path d="M106.591 251.535L107.926 253.638L103.727 257.907L117.907 272.321L115.869 274.393L101.689 259.979L97.4086 264.33L96.0739 262.227L106.591 251.535Z" fill="#FEFEFE"/>
<path d="M122.219 253.277L126.231 249.198C124.16 248.009 121.602 246.573 117.216 244.113C119.475 248.241 120.928 250.883 122.219 253.277ZM128.627 250.552L123.591 255.671L123.51 255.588C124.599 257.611 125.769 259.717 127.383 262.689L125.131 264.978L114.081 243.922L117.152 240.801L137.864 252.034L135.489 254.448C132.363 252.685 130.454 251.577 128.627 250.552Z" fill="white"/>
<path fill-rule="evenodd" clip-rule="evenodd" d="M130.269 227.225L128.429 229.096L138.336 251.553L140.217 249.641L130.269 227.225Z" fill="#4B75A4"/>
<path fill-rule="evenodd" clip-rule="evenodd" d="M144.797 240.31L147.507 227.22L133.985 229.319L131.686 226.981L148.219 224.774L150.115 226.702L147.096 242.647L144.797 240.31Z" fill="#4B75A4"/>
</g>
<g opacity="0.15">
<path fill-rule="evenodd" clip-rule="evenodd" d="M80.997 148.586L95.7047 133.634C96.647 132.676 98.2369 132.627 99.2101 133.616L121.838 156.619C122.812 157.609 122.763 159.225 121.821 160.183L107.113 175.134C106.171 176.092 104.581 176.142 103.607 175.152L80.9791 152.149C80.0059 151.16 80.0547 149.544 80.997 148.586Z" fill="#4B75A4"/>
<path d="M55.0376 186.935L70.9189 203.079L69.0356 204.994L53.1543 188.85L55.0376 186.935Z" fill="white"/>
<path d="M70.5128 171.203L86.3941 187.347L82.9959 190.802L63.0384 183.249C67.9443 187.487 72.4401 192.307 76.9775 196.92L74.8896 199.042L59.0083 182.898L62.3245 179.527L82.3635 187.079C77.4977 182.965 72.8813 177.856 68.4248 173.325L70.5128 171.203Z" fill="white"/>
<path d="M83.1236 158.383L84.4157 160.529L80.2396 164.774L94.4194 179.189L92.5771 181.062L78.3974 166.647L74.0985 171.017L72.7245 168.955L83.1236 158.383Z" fill="white"/>
<path d="M105.328 168.101L89.4462 151.956L87.3672 154.07L103.248 170.214L105.328 168.101Z" fill="#FEFEFE"/>
<path d="M102.164 139.027L103.499 141.13L99.2999 145.398L113.48 159.813L111.441 161.885L97.2617 147.47L92.9813 151.822L91.6467 149.719L102.164 139.027Z" fill="#FEFEFE"/>
<path d="M117.791 140.769L121.804 136.69C119.733 135.501 117.174 134.065 112.789 131.605C115.048 135.733 116.501 138.375 117.791 140.769ZM124.199 138.044L119.164 143.163L119.083 143.081C120.172 145.104 121.342 147.209 122.956 150.181L120.704 152.47L109.654 131.415L112.724 128.293L133.437 139.526L131.062 141.94C127.935 140.177 126.027 139.069 124.199 138.044Z" fill="white"/>
<path fill-rule="evenodd" clip-rule="evenodd" d="M125.842 114.717L124.002 116.587L133.909 139.044L135.79 137.132L125.842 114.717Z" fill="#4B75A4"/>
<path fill-rule="evenodd" clip-rule="evenodd" d="M140.37 127.802L143.08 114.712L129.558 116.811L127.259 114.474L143.792 112.266L145.688 114.194L142.67 130.14L140.37 127.802Z" fill="#4B75A4"/>
</g>
<g opacity="0.15">
<path fill-rule="evenodd" clip-rule="evenodd" d="M85.4243 370.602L100.132 355.65C101.074 354.692 102.664 354.643 103.637 355.632L126.266 378.635C127.239 379.625 127.19 381.241 126.248 382.199L111.54 397.15C110.598 398.108 109.008 398.158 108.035 397.168L85.4064 374.165C84.4331 373.176 84.4819 371.56 85.4243 370.602Z" fill="#4B75A4"/>
<path d="M59.4648 408.951L75.3461 425.095L73.4628 427.01L57.5815 410.865L59.4648 408.951Z" fill="white"/>
<path d="M74.9401 393.219L90.8213 409.363L87.4232 412.818L67.4656 405.265C72.3716 409.503 76.8673 414.323 81.4048 418.936L79.3168 421.058L63.4355 404.914L66.7517 401.543L86.7907 409.095C81.925 404.981 77.3086 399.872 72.852 395.342L74.9401 393.219Z" fill="white"/>
<path d="M87.5508 380.399L88.843 382.545L84.6669 386.791L98.8466 401.205L97.0043 403.078L82.8246 388.663L78.5257 393.033L77.1518 390.971L87.5508 380.399Z" fill="white"/>
<path d="M109.755 390.117L93.8735 373.972L91.7944 376.086L107.676 392.23L109.755 390.117Z" fill="#FEFEFE"/>
<path d="M106.591 361.043L107.926 363.146L103.727 367.414L117.907 381.829L115.869 383.901L101.689 369.486L97.4086 373.838L96.0739 371.735L106.591 361.043Z" fill="#FEFEFE"/>
<path d="M122.219 362.785L126.231 358.706C124.16 357.517 121.602 356.081 117.216 353.62C119.475 357.749 120.928 360.391 122.219 362.785ZM128.627 360.06L123.591 365.179L123.51 365.096C124.599 367.119 125.769 369.224 127.383 372.197L125.131 374.486L114.081 353.43L117.152 350.309L137.864 361.542L135.489 363.956C132.363 362.192 130.454 361.085 128.627 360.06Z" fill="white"/>
<path fill-rule="evenodd" clip-rule="evenodd" d="M130.269 336.733L128.429 338.604L138.336 361.06L140.217 359.148L130.269 336.733Z" fill="#4B75A4"/>
<path fill-rule="evenodd" clip-rule="evenodd" d="M144.797 349.818L147.507 336.728L133.985 338.827L131.686 336.49L148.219 334.282L150.115 336.21L147.096 352.156L144.797 349.818Z" fill="#4B75A4"/>
</g>
<g opacity="0.15">
<path fill-rule="evenodd" clip-rule="evenodd" d="M500.085 39.0769L514.793 24.1256C515.735 23.1676 517.325 23.118 518.299 24.1074L540.927 47.1106C541.9 48.1 541.851 49.7162 540.909 50.6741L526.201 65.6255C525.259 66.5834 523.669 66.633 522.696 65.6436L500.067 42.6404C499.094 41.651 499.143 40.0349 500.085 39.0769Z" fill="#4B75A4"/>
<path d="M474.126 77.4263L490.007 93.5707L488.124 95.4852L472.243 79.3408L474.126 77.4263Z" fill="white"/>
<path d="M489.601 61.6941L505.482 77.8385L502.084 81.293L482.127 73.7404C487.033 77.9784 491.528 82.7984 496.066 87.4111L493.978 89.5336L478.097 73.3893L481.413 70.0181L501.452 77.5702C496.586 73.4561 491.97 68.3471 487.513 63.8168L489.601 61.6941Z" fill="white"/>
<path d="M502.212 48.875L503.504 51.0209L499.328 55.2661L513.508 69.6808L511.665 71.5536L497.486 57.1389L493.187 61.509L491.813 59.4463L502.212 48.875Z" fill="white"/>
<path d="M524.416 58.5919L508.535 42.4475L506.456 44.561L522.337 60.7054L524.416 58.5919Z" fill="#FEFEFE"/>
<path d="M521.253 29.5183L522.587 31.621L518.388 35.8895L532.568 50.3041L530.53 52.3761L516.35 37.9614L512.07 42.3127L510.735 40.2101L521.253 29.5183Z" fill="#FEFEFE"/>
<path d="M536.88 31.2603L540.892 27.1816C538.821 25.9921 536.263 24.5566 531.877 22.0961C534.136 26.2241 535.589 28.8661 536.88 31.2603ZM543.288 28.5352L538.252 33.6543L538.171 33.5719C539.26 35.5948 540.43 37.7 542.044 40.6722L539.792 42.9613L528.742 21.9059L531.813 18.7844L552.525 30.0176L550.15 32.4316C547.024 30.6681 545.115 29.5603 543.288 28.5352Z" fill="white"/>
<path fill-rule="evenodd" clip-rule="evenodd" d="M544.93 5.2085L543.09 7.07878L552.997 29.5355L554.878 27.6236L544.93 5.2085Z" fill="#4B75A4"/>
<path fill-rule="evenodd" clip-rule="evenodd" d="M559.458 18.2934L562.168 5.2033L548.646 7.30249L546.347 4.9649L562.88 2.75757L564.776 4.68509L561.757 20.631L559.458 18.2934Z" fill="#4B75A4"/>
</g>
<g opacity="0.15">
<path fill-rule="evenodd" clip-rule="evenodd" d="M504.512 261.094L519.22 246.143C520.162 245.185 521.752 245.135 522.725 246.124L545.354 269.128C546.327 270.117 546.278 271.733 545.336 272.691L530.628 287.642C529.686 288.6 528.096 288.65 527.123 287.661L504.494 264.657C503.521 263.668 503.57 262.052 504.512 261.094Z" fill="#4B75A4"/>
<path d="M478.553 299.443L494.434 315.588L492.551 317.502L476.669 301.358L478.553 299.443Z" fill="white"/>
<path d="M494.028 283.711L509.909 299.855L506.511 303.31L486.553 295.757C491.459 299.995 495.955 304.815 500.493 309.428L498.405 311.551L482.523 295.406L485.84 292.035L505.879 299.587C501.013 295.473 496.396 290.364 491.94 285.834L494.028 283.711Z" fill="white"/>
<path d="M506.639 270.892L507.931 273.038L503.755 277.283L517.935 291.698L516.092 293.571L501.912 279.156L497.614 283.526L496.24 281.463L506.639 270.892Z" fill="white"/>
<path d="M528.843 280.609L512.961 264.465L510.882 266.578L526.764 282.722L528.843 280.609Z" fill="#FEFEFE"/>
<path d="M525.679 251.535L527.014 253.638L522.815 257.907L536.995 272.321L534.957 274.393L520.777 259.979L516.496 264.33L515.162 262.227L525.679 251.535Z" fill="#FEFEFE"/>
<path d="M541.307 253.277L545.319 249.199C543.248 248.009 540.69 246.574 536.304 244.113C538.563 248.241 540.016 250.883 541.307 253.277ZM547.715 250.552L542.679 255.671L542.598 255.589C543.687 257.612 544.857 259.717 546.471 262.689L544.219 264.978L533.169 243.923L536.239 240.801L556.952 252.035L554.577 254.449C551.45 252.685 549.542 251.577 547.715 250.552Z" fill="white"/>
<path fill-rule="evenodd" clip-rule="evenodd" d="M549.357 227.225L547.517 229.096L557.424 251.553L559.305 249.641L549.357 227.225Z" fill="#4B75A4"/>
<path fill-rule="evenodd" clip-rule="evenodd" d="M563.885 240.31L566.595 227.22L553.073 229.32L550.773 226.982L567.307 224.775L569.203 226.702L566.184 242.648L563.885 240.31Z" fill="#4B75A4"/>
</g>
<g opacity="0.15">
<path fill-rule="evenodd" clip-rule="evenodd" d="M500.086 148.586L514.794 133.634C515.736 132.676 517.326 132.627 518.299 133.616L540.927 156.619C541.901 157.609 541.852 159.225 540.909 160.183L526.202 175.134C525.259 176.092 523.67 176.142 522.696 175.152L500.068 152.149C499.095 151.16 499.144 149.544 500.086 148.586Z" fill="#4B75A4"/>
<path d="M474.126 186.935L490.008 203.079L488.124 204.994L472.243 188.85L474.126 186.935Z" fill="white"/>
<path d="M489.602 171.203L505.483 187.347L502.085 190.802L482.127 183.249C487.033 187.487 491.529 192.307 496.066 196.92L493.978 199.042L478.097 182.898L481.413 179.527L501.452 187.079C496.587 182.965 491.97 177.856 487.514 173.325L489.602 171.203Z" fill="white"/>
<path d="M502.212 158.383L503.505 160.529L499.329 164.774L513.508 179.189L511.666 181.062L497.486 166.647L493.187 171.017L491.813 168.955L502.212 158.383Z" fill="white"/>
<path d="M524.416 168.101L508.535 151.956L506.456 154.07L522.337 170.214L524.416 168.101Z" fill="#FEFEFE"/>
<path d="M521.253 139.027L522.588 141.13L518.389 145.398L532.569 159.813L530.53 161.885L516.351 147.47L512.07 151.822L510.736 149.719L521.253 139.027Z" fill="#FEFEFE"/>
<path d="M536.88 140.769L540.892 136.69C538.821 135.501 536.263 134.065 531.877 131.605C534.136 135.733 535.589 138.375 536.88 140.769ZM543.288 138.044L538.252 143.163L538.171 143.081C539.26 145.104 540.43 147.209 542.044 150.181L539.792 152.47L528.742 131.415L531.813 128.293L552.525 139.526L550.15 141.94C547.024 140.177 545.115 139.069 543.288 138.044Z" fill="white"/>
<path fill-rule="evenodd" clip-rule="evenodd" d="M544.931 114.717L543.091 116.587L552.998 139.044L554.879 137.132L544.931 114.717Z" fill="#4B75A4"/>
<path fill-rule="evenodd" clip-rule="evenodd" d="M559.458 127.802L562.169 114.712L548.647 116.811L546.347 114.474L562.88 112.266L564.776 114.194L561.758 130.14L559.458 127.802Z" fill="#4B75A4"/>
</g>
<g opacity="0.15">
<path fill-rule="evenodd" clip-rule="evenodd" d="M504.512 370.602L519.22 355.65C520.162 354.692 521.752 354.643 522.725 355.632L545.354 378.635C546.327 379.625 546.278 381.241 545.336 382.199L530.628 397.15C529.686 398.108 528.096 398.158 527.123 397.168L504.494 374.165C503.521 373.176 503.57 371.56 504.512 370.602Z" fill="#4B75A4"/>
<path d="M478.553 408.951L494.434 425.096L492.551 427.01L476.669 410.866L478.553 408.951Z" fill="white"/>
<path d="M494.028 393.219L509.909 409.363L506.511 412.818L486.553 405.265C491.459 409.503 495.955 414.323 500.493 418.936L498.405 421.058L482.523 404.914L485.84 401.543L505.879 409.095C501.013 404.981 496.396 399.872 491.94 395.342L494.028 393.219Z" fill="white"/>
<path d="M506.639 380.4L507.931 382.546L503.755 386.791L517.935 401.206L516.092 403.079L501.912 388.664L497.614 393.034L496.24 390.971L506.639 380.4Z" fill="white"/>
<path d="M528.843 390.117L512.961 373.972L510.882 376.086L526.764 392.23L528.843 390.117Z" fill="#FEFEFE"/>
<path d="M525.679 361.043L527.014 363.146L522.815 367.414L536.995 381.829L534.957 383.901L520.777 369.486L516.496 373.838L515.162 371.735L525.679 361.043Z" fill="#FEFEFE"/>
<path d="M541.307 362.785L545.319 358.707C543.248 357.517 540.69 356.082 536.304 353.621C538.563 357.749 540.016 360.391 541.307 362.785ZM547.715 360.06L542.679 365.179L542.598 365.097C543.687 367.12 544.857 369.225 546.471 372.197L544.219 374.486L533.169 353.431L536.239 350.309L556.952 361.543L554.577 363.957C551.45 362.193 549.542 361.085 547.715 360.06Z" fill="white"/>
<path fill-rule="evenodd" clip-rule="evenodd" d="M549.357 336.733L547.517 338.604L557.424 361.06L559.305 359.148L549.357 336.733Z" fill="#4B75A4"/>
<path fill-rule="evenodd" clip-rule="evenodd" d="M563.885 349.818L566.595 336.728L553.073 338.827L550.773 336.49L567.307 334.282L569.203 336.21L566.184 352.156L563.885 349.818Z" fill="#4B75A4"/>
</g>
<g opacity="0.15">
<path fill-rule="evenodd" clip-rule="evenodd" d="M290.541 37.5764L305.249 22.6251C306.191 21.6671 307.781 21.6175 308.755 22.6069L331.383 45.6101C332.356 46.5995 332.307 48.2157 331.365 49.1736L316.657 64.125C315.715 65.0829 314.125 65.1325 313.152 64.1432L290.524 41.1399C289.55 40.1506 289.599 38.5344 290.541 37.5764Z" fill="#4B75A4"/>
<path d="M264.582 75.9253L280.463 92.0697L278.58 93.9842L262.699 77.8398L264.582 75.9253Z" fill="white"/>
<path d="M280.057 60.1931L295.939 76.3374L292.54 79.7919L272.583 72.2393C277.489 76.4773 281.985 81.2974 286.522 85.91L284.434 88.0326L268.553 71.8882L271.869 68.517L291.908 76.0692C287.042 71.9551 282.426 66.846 277.969 62.3157L280.057 60.1931Z" fill="white"/>
<path d="M292.668 47.374L293.96 49.5199L289.784 53.7652L303.964 68.1798L302.122 70.0526L287.942 55.638L283.643 60.008L282.269 57.9453L292.668 47.374Z" fill="white"/>
<path d="M314.871 57.0911L298.99 40.9468L296.911 43.0603L312.792 59.2046L314.871 57.0911Z" fill="#FEFEFE"/>
<path d="M311.709 28.0178L313.043 30.1205L308.844 34.389L323.024 48.8036L320.986 50.8756L306.806 36.4609L302.526 40.8122L301.191 38.7096L311.709 28.0178Z" fill="#FEFEFE"/>
<path d="M327.336 29.7594L331.348 25.6806C329.277 24.4911 326.719 23.0557 322.333 20.5951C324.592 24.7232 326.045 27.3652 327.336 29.7594ZM333.744 27.0342L328.708 32.1533L328.627 32.0709C329.716 34.0939 330.886 36.199 332.5 39.1712L330.248 41.4603L319.198 20.4049L322.269 17.2834L342.981 28.5166L340.607 30.9306C337.48 29.1671 335.571 28.0593 333.744 27.0342Z" fill="white"/>
<path fill-rule="evenodd" clip-rule="evenodd" d="M335.386 3.70801L333.546 5.57829L343.453 28.0351L345.334 26.1231L335.386 3.70801Z" fill="#4B75A4"/>
<path fill-rule="evenodd" clip-rule="evenodd" d="M349.914 16.7929L352.624 3.70281L339.102 5.802L336.803 3.46442L353.336 1.25708L355.232 3.1846L352.213 19.1305L349.914 16.7929Z" fill="#4B75A4"/>
</g>
<g opacity="0.15">
<path fill-rule="evenodd" clip-rule="evenodd" d="M294.969 259.594L309.676 244.643C310.619 243.685 312.209 243.635 313.182 244.624L335.81 267.628C336.783 268.617 336.735 270.233 335.792 271.191L321.085 286.142C320.142 287.1 318.552 287.15 317.579 286.161L294.951 263.157C293.978 262.168 294.026 260.552 294.969 259.594Z" fill="#4B75A4"/>
<path d="M269.009 297.943L284.891 314.087L283.007 316.002L267.126 299.857L269.009 297.943Z" fill="white"/>
<path d="M284.485 282.211L300.366 298.355L296.968 301.809L277.01 294.257C281.916 298.495 286.412 303.315 290.949 307.928L288.861 310.05L272.98 293.906L276.296 290.535L296.335 298.087C291.469 293.973 286.853 288.864 282.396 284.333L284.485 282.211Z" fill="white"/>
<path d="M297.095 269.392L298.387 271.537L294.211 275.783L308.391 290.197L306.549 292.07L292.369 277.656L288.07 282.026L286.696 279.963L297.095 269.392Z" fill="white"/>
<path d="M319.299 279.109L303.417 262.964L301.338 265.078L317.22 281.222L319.299 279.109Z" fill="#FEFEFE"/>
<path d="M316.136 250.035L317.471 252.138L313.272 256.407L327.451 270.821L325.413 272.893L311.233 258.479L306.953 262.83L305.618 260.727L316.136 250.035Z" fill="#FEFEFE"/>
<path d="M331.763 251.777L335.775 247.698C333.704 246.509 331.146 245.073 326.76 242.613C329.019 246.741 330.472 249.383 331.763 251.777ZM338.171 249.052L333.135 254.171L333.054 254.088C334.143 256.111 335.313 258.217 336.927 261.189L334.675 263.478L323.625 242.422L326.696 239.301L347.408 250.534L345.033 252.948C341.907 251.185 339.998 250.077 338.171 249.052Z" fill="white"/>
<path fill-rule="evenodd" clip-rule="evenodd" d="M339.814 225.725L337.974 227.596L347.881 250.053L349.762 248.141L339.814 225.725Z" fill="#4B75A4"/>
<path fill-rule="evenodd" clip-rule="evenodd" d="M354.341 238.81L357.052 225.72L343.529 227.82L341.23 225.482L357.763 223.275L359.659 225.202L356.641 241.148L354.341 238.81Z" fill="#4B75A4"/>
</g>
<g opacity="0.15">
<path fill-rule="evenodd" clip-rule="evenodd" d="M290.541 147.085L305.249 132.134C306.191 131.176 307.781 131.126 308.755 132.116L331.383 155.119C332.356 156.108 332.307 157.724 331.365 158.682L316.657 173.634C315.715 174.592 314.125 174.641 313.152 173.652L290.524 150.649C289.55 149.659 289.599 148.043 290.541 147.085Z" fill="#4B75A4"/>
<path d="M264.582 185.435L280.463 201.579L278.58 203.493L262.699 187.349L264.582 185.435Z" fill="white"/>
<path d="M280.057 169.702L295.939 185.847L292.54 189.301L272.583 181.749C277.489 185.987 281.985 190.807 286.522 195.419L284.434 197.542L268.553 181.397L271.869 178.026L291.908 185.578C287.042 181.464 282.426 176.355 277.969 171.825L280.057 169.702Z" fill="white"/>
<path d="M292.668 156.883L293.96 159.029L289.784 163.274L303.964 177.689L302.122 179.561L287.942 165.147L283.643 169.517L282.269 167.454L292.668 156.883Z" fill="white"/>
<path d="M314.871 166.6L298.99 150.456L296.911 152.569L312.792 168.714L314.871 166.6Z" fill="#FEFEFE"/>
<path d="M311.709 137.527L313.043 139.629L308.844 143.898L323.024 158.312L320.986 160.384L306.806 145.97L302.526 150.321L301.191 148.218L311.709 137.527Z" fill="#FEFEFE"/>
<path d="M327.336 139.269L331.348 135.19C329.277 134 326.719 132.565 322.333 130.104C324.592 134.232 326.045 136.874 327.336 139.269ZM333.744 136.543L328.708 141.663L328.627 141.58C329.716 143.603 330.886 145.708 332.5 148.68L330.248 150.97L319.198 129.914L322.269 126.793L342.981 138.026L340.607 140.44C337.48 138.676 335.571 137.569 333.744 136.543Z" fill="white"/>
<path fill-rule="evenodd" clip-rule="evenodd" d="M335.386 113.217L333.546 115.087L343.453 137.544L345.334 135.632L335.386 113.217Z" fill="#4B75A4"/>
<path fill-rule="evenodd" clip-rule="evenodd" d="M349.914 126.302L352.624 113.212L339.102 115.311L336.803 112.973L353.336 110.766L355.232 112.693L352.213 128.639L349.914 126.302Z" fill="#4B75A4"/>
</g>
<g opacity="0.15">
<path fill-rule="evenodd" clip-rule="evenodd" d="M294.969 369.102L309.676 354.15C310.619 353.192 312.209 353.143 313.182 354.132L335.81 377.135C336.783 378.125 336.735 379.741 335.792 380.699L321.085 395.65C320.142 396.608 318.552 396.658 317.579 395.668L294.951 372.665C293.978 371.676 294.026 370.06 294.969 369.102Z" fill="#4B75A4"/>
<path d="M269.009 407.451L284.891 423.595L283.007 425.51L267.126 409.365L269.009 407.451Z" fill="white"/>
<path d="M284.485 391.719L300.366 407.863L296.968 411.318L277.01 403.765C281.916 408.003 286.412 412.823 290.949 417.436L288.861 419.558L272.98 403.414L276.296 400.043L296.335 407.595C291.469 403.481 286.853 398.372 282.396 393.842L284.485 391.719Z" fill="white"/>
<path d="M297.095 378.899L298.387 381.045L294.211 385.291L308.391 399.705L306.549 401.578L292.369 387.163L288.07 391.533L286.696 389.471L297.095 378.899Z" fill="white"/>
<path d="M319.299 388.617L303.417 372.472L301.338 374.586L317.22 390.73L319.299 388.617Z" fill="#FEFEFE"/>
<path d="M316.136 359.543L317.471 361.646L313.272 365.914L327.451 380.329L325.413 382.401L311.233 367.986L306.953 372.338L305.618 370.235L316.136 359.543Z" fill="#FEFEFE"/>
<path d="M331.763 361.285L335.775 357.207C333.704 356.017 331.146 354.582 326.76 352.121C329.019 356.249 330.472 358.891 331.763 361.285ZM338.171 358.56L333.135 363.679L333.054 363.597C334.143 365.62 335.313 367.725 336.927 370.697L334.675 372.986L323.625 351.931L326.696 348.809L347.408 360.043L345.033 362.457C341.907 360.693 339.998 359.585 338.171 358.56Z" fill="white"/>
<path fill-rule="evenodd" clip-rule="evenodd" d="M339.814 335.233L337.974 337.104L347.881 359.56L349.762 357.648L339.814 335.233Z" fill="#4B75A4"/>
<path fill-rule="evenodd" clip-rule="evenodd" d="M354.341 348.318L357.052 335.228L343.529 337.327L341.23 334.99L357.763 332.782L359.659 334.71L356.641 350.656L354.341 348.318Z" fill="#4B75A4"/>
</g>
<g opacity="0.15">
<path fill-rule="evenodd" clip-rule="evenodd" d="M709.63 37.5769L724.338 22.6256C725.28 21.6676 726.87 21.618 727.843 22.6074L750.471 45.6106C751.445 46.6 751.396 48.2162 750.453 49.1741L735.746 64.1255C734.803 65.0834 733.213 65.133 732.24 64.1436L709.612 41.1404C708.639 40.151 708.687 38.5349 709.63 37.5769Z" fill="#4B75A4"/>
<path d="M683.67 75.9263L699.552 92.0707L697.668 93.9852L681.787 77.8408L683.67 75.9263Z" fill="white"/>
<path d="M699.146 60.1941L715.027 76.3385L711.629 79.793L691.671 72.2404C696.577 76.4784 701.073 81.2984 705.61 85.9111L703.522 88.0336L687.641 71.8893L690.957 68.5181L710.996 76.0702C706.131 71.9561 701.514 66.8471 697.058 62.3168L699.146 60.1941Z" fill="white"/>
<path d="M711.756 47.375L713.049 49.5209L708.872 53.7661L723.052 68.1808L721.21 70.0536L707.03 55.6389L702.731 60.009L701.357 57.9463L711.756 47.375Z" fill="white"/>
<path d="M733.96 57.0919L718.079 40.9475L716 43.061L731.881 59.2054L733.96 57.0919Z" fill="#FEFEFE"/>
<path d="M730.797 28.0183L732.132 30.121L727.933 34.3895L742.112 48.8041L740.074 50.8761L725.895 36.4614L721.614 40.8127L720.279 38.7101L730.797 28.0183Z" fill="#FEFEFE"/>
<path d="M746.424 29.7603L750.437 25.6816C748.365 24.4921 745.807 23.0566 741.422 20.5961C743.681 24.7241 745.133 27.3661 746.424 29.7603ZM752.832 27.0352L747.797 32.1543L747.716 32.0719C748.805 34.0948 749.975 36.2 751.589 39.1722L749.337 41.4613L738.287 20.4059L741.357 17.2844L762.07 28.5176L759.695 30.9316C756.568 29.1681 754.66 28.0603 752.832 27.0352Z" fill="white"/>
<path fill-rule="evenodd" clip-rule="evenodd" d="M754.475 3.7085L752.635 5.57878L762.542 28.0355L764.423 26.1236L754.475 3.7085Z" fill="#4B75A4"/>
<path fill-rule="evenodd" clip-rule="evenodd" d="M769.002 16.7934L771.713 3.7033L758.191 5.80249L755.891 3.4649L772.424 1.25757L774.32 3.18509L771.302 19.131L769.002 16.7934Z" fill="#4B75A4"/>
</g>
<g opacity="0.15">
<path fill-rule="evenodd" clip-rule="evenodd" d="M714.057 259.594L728.764 244.643C729.707 243.685 731.296 243.635 732.27 244.624L754.898 267.628C755.871 268.617 755.822 270.233 754.88 271.191L740.172 286.142C739.23 287.1 737.64 287.15 736.667 286.161L714.039 263.157C713.065 262.168 713.114 260.552 714.057 259.594Z" fill="#4B75A4"/>
<path d="M688.097 297.943L703.978 314.087L702.095 316.002L686.214 299.857L688.097 297.943Z" fill="white"/>
<path d="M703.572 282.211L719.454 298.355L716.055 301.809L696.098 294.257C701.004 298.495 705.5 303.315 710.037 307.928L707.949 310.05L692.068 293.906L695.384 290.535L715.423 298.087C710.557 293.973 705.941 288.864 701.484 284.333L703.572 282.211Z" fill="white"/>
<path d="M716.183 269.392L717.475 271.537L713.299 275.783L727.479 290.197L725.637 292.07L711.457 277.656L707.158 282.026L705.784 279.963L716.183 269.392Z" fill="white"/>
<path d="M738.387 279.109L722.506 262.964L720.427 265.078L736.308 281.222L738.387 279.109Z" fill="#FEFEFE"/>
<path d="M735.224 250.035L736.558 252.138L732.359 256.407L746.539 270.821L744.501 272.893L730.321 258.479L726.041 262.83L724.706 260.727L735.224 250.035Z" fill="#FEFEFE"/>
<path d="M750.851 251.777L754.863 247.698C752.792 246.509 750.234 245.073 745.848 242.613C748.108 246.741 749.56 249.383 750.851 251.777ZM757.259 249.052L752.223 254.171L752.142 254.088C753.231 256.111 754.402 258.217 756.015 261.189L753.764 263.478L742.713 242.422L745.784 239.301L766.496 250.534L764.122 252.948C760.995 251.185 759.086 250.077 757.259 249.052Z" fill="white"/>
<path fill-rule="evenodd" clip-rule="evenodd" d="M758.901 225.725L757.062 227.596L766.969 250.053L768.849 248.141L758.901 225.725Z" fill="#4B75A4"/>
<path fill-rule="evenodd" clip-rule="evenodd" d="M773.429 238.81L776.139 225.72L762.617 227.82L760.318 225.482L776.851 223.275L778.747 225.202L775.729 241.148L773.429 238.81Z" fill="#4B75A4"/>
</g>
<g opacity="0.15">
<path fill-rule="evenodd" clip-rule="evenodd" d="M709.63 147.085L724.338 132.134C725.28 131.176 726.87 131.126 727.843 132.116L750.471 155.119C751.445 156.108 751.396 157.724 750.453 158.682L735.746 173.634C734.803 174.592 733.213 174.641 732.24 173.652L709.612 150.649C708.639 149.659 708.687 148.043 709.63 147.085Z" fill="#4B75A4"/>
<path d="M683.67 185.435L699.552 201.579L697.668 203.493L681.787 187.349L683.67 185.435Z" fill="white"/>
<path d="M699.146 169.702L715.027 185.847L711.629 189.301L691.671 181.749C696.577 185.987 701.073 190.807 705.61 195.419L703.522 197.542L687.641 181.397L690.957 178.026L710.996 185.578C706.131 181.464 701.514 176.355 697.058 171.825L699.146 169.702Z" fill="white"/>
<path d="M711.756 156.883L713.049 159.029L708.872 163.274L723.052 177.689L721.21 179.562L707.03 165.147L702.731 169.517L701.357 167.455L711.756 156.883Z" fill="white"/>
<path d="M733.96 166.6L718.079 150.456L716 152.569L731.881 168.714L733.96 166.6Z" fill="#FEFEFE"/>
<path d="M730.797 137.527L732.132 139.629L727.933 143.898L742.112 158.312L740.074 160.384L725.895 145.97L721.614 150.321L720.279 148.218L730.797 137.527Z" fill="#FEFEFE"/>
<path d="M746.424 139.269L750.437 135.19C748.365 134 745.807 132.565 741.422 130.104C743.681 134.232 745.133 136.874 746.424 139.269ZM752.832 136.543L747.797 141.663L747.716 141.58C748.805 143.603 749.975 145.708 751.589 148.68L749.337 150.97L738.287 129.914L741.357 126.793L762.07 138.026L759.695 140.44C756.568 138.676 754.66 137.569 752.832 136.543Z" fill="white"/>
<path fill-rule="evenodd" clip-rule="evenodd" d="M754.475 113.217L752.635 115.087L762.542 137.544L764.423 135.632L754.475 113.217Z" fill="#4B75A4"/>
<path fill-rule="evenodd" clip-rule="evenodd" d="M769.002 126.302L771.713 113.212L758.191 115.311L755.891 112.973L772.424 110.766L774.32 112.693L771.302 128.639L769.002 126.302Z" fill="#4B75A4"/>
</g>
<g opacity="0.15">
<path fill-rule="evenodd" clip-rule="evenodd" d="M714.057 369.102L728.764 354.15C729.707 353.192 731.296 353.143 732.27 354.132L754.898 377.135C755.871 378.125 755.822 379.741 754.88 380.699L740.172 395.65C739.23 396.608 737.64 396.658 736.667 395.668L714.039 372.665C713.065 371.676 713.114 370.06 714.057 369.102Z" fill="#4B75A4"/>
<path d="M688.097 407.451L703.978 423.595L702.095 425.51L686.214 409.365L688.097 407.451Z" fill="white"/>
<path d="M703.572 391.719L719.454 407.863L716.055 411.318L696.098 403.765C701.004 408.003 705.5 412.823 710.037 417.436L707.949 419.558L692.068 403.414L695.384 400.043L715.423 407.595C710.557 403.481 705.941 398.372 701.484 393.842L703.572 391.719Z" fill="white"/>
<path d="M716.183 378.899L717.475 381.045L713.299 385.291L727.479 399.705L725.637 401.578L711.457 387.163L707.158 391.533L705.784 389.471L716.183 378.899Z" fill="white"/>
<path d="M738.387 388.617L722.506 372.472L720.427 374.586L736.308 390.73L738.387 388.617Z" fill="#FEFEFE"/>
<path d="M735.224 359.543L736.558 361.646L732.359 365.914L746.539 380.329L744.501 382.401L730.321 367.986L726.041 372.338L724.706 370.235L735.224 359.543Z" fill="#FEFEFE"/>
<path d="M750.851 361.285L754.863 357.207C752.792 356.017 750.234 354.582 745.848 352.121C748.108 356.249 749.56 358.891 750.851 361.285ZM757.259 358.56L752.223 363.679L752.142 363.597C753.231 365.62 754.402 367.725 756.015 370.697L753.764 372.986L742.713 351.931L745.784 348.809L766.496 360.043L764.122 362.457C760.995 360.693 759.086 359.585 757.259 358.56Z" fill="white"/>
<path fill-rule="evenodd" clip-rule="evenodd" d="M758.901 335.233L757.062 337.104L766.969 359.56L768.849 357.648L758.901 335.233Z" fill="#4B75A4"/>
<path fill-rule="evenodd" clip-rule="evenodd" d="M773.429 348.318L776.139 335.228L762.617 337.327L760.318 334.99L776.851 332.782L778.747 334.71L775.729 350.656L773.429 348.318Z" fill="#4B75A4"/>
</g>
<path fill-rule="evenodd" clip-rule="evenodd" d="M369.058 115.5H439.95C444.492 115.5 448.441 119.263 448.441 124.016V234.521C448.441 239.273 444.492 243.036 439.95 243.036H369.058C364.516 243.036 360.566 239.273 360.566 234.521V124.016C360.566 119.263 364.516 115.5 369.058 115.5Z" fill="#4B75A4"/>
<path d="M215.578 144.224V221.78H206.5V144.224H215.578Z" fill="white"/>
<path d="M290.172 144.224V221.78H273.793L243.6 154.907C245.376 177.066 244.784 199.621 244.784 221.78H234.72V144.224H250.704L281.094 211.293C279.121 189.531 280.108 165.987 280.108 144.224H290.172Z" fill="white"/>
<path d="M350.952 144.224L348.979 152.533H328.85V221.78H319.97V152.533H299.249L300.828 144.224H350.952Z" fill="white"/>
<path d="M381.429 221.78V144.224H371.408V221.78H381.429Z" fill="#FEFEFE"/>
<path d="M442.734 144.224L440.966 152.533H420.726V221.78H410.902V152.533H390.271L392.039 144.224H442.734Z" fill="#FEFEFE"/>
<path d="M476.263 186.563H495.602C493.431 178.649 490.669 168.954 485.933 152.335C481.591 167.767 478.828 177.66 476.263 186.563ZM498.167 195.664H473.895V195.268C471.724 202.786 469.553 210.7 466.396 221.78H455.542L478.828 144.224H493.629L516.915 221.78H505.469C502.114 209.909 500.141 202.588 498.167 195.664Z" fill="white"/>
<path fill-rule="evenodd" clip-rule="evenodd" d="M557.428 143.651H548.561L519.197 221.781H528.263L557.428 143.651Z" fill="#4B75A4"/>
<path fill-rule="evenodd" clip-rule="evenodd" d="M561.421 210.55L598.987 185.727L561.421 157.751V146.522L606.5 181.59V190.849L561.421 221.78V210.55Z" fill="#4B75A4"/>
<g filter="url(#filter0_d_222_530)">
<path d="M196.779 330.045V355.5H192.206V333.874H181.069V355.5H176.495V330.045H196.779ZM202.295 355.5V330.045H211.84C213.796 330.045 215.436 330.41 216.762 331.139C218.096 331.868 219.103 332.871 219.782 334.147C220.47 335.415 220.814 336.857 220.814 338.472C220.814 340.105 220.47 341.555 219.782 342.822C219.095 344.09 218.08 345.089 216.737 345.818C215.395 346.539 213.742 346.899 211.778 346.899H205.452V343.108H211.157C212.3 343.108 213.236 342.909 213.966 342.512C214.695 342.114 215.233 341.567 215.581 340.871C215.938 340.175 216.116 339.375 216.116 338.472C216.116 337.569 215.938 336.774 215.581 336.086C215.233 335.398 214.691 334.864 213.953 334.483C213.224 334.093 212.284 333.898 211.132 333.898H206.906V355.5H202.295ZM247.564 342.773C247.564 345.515 247.051 347.864 246.023 349.82C245.004 351.767 243.612 353.259 241.847 354.294C240.09 355.33 238.098 355.848 235.869 355.848C233.64 355.848 231.643 355.33 229.878 354.294C228.121 353.25 226.729 351.755 225.702 349.808C224.683 347.852 224.173 345.507 224.173 342.773C224.173 340.03 224.683 337.685 225.702 335.738C226.729 333.782 228.121 332.287 229.878 331.251C231.643 330.215 233.64 329.697 235.869 329.697C238.098 329.697 240.09 330.215 241.847 331.251C243.612 332.287 245.004 333.782 246.023 335.738C247.051 337.685 247.564 340.03 247.564 342.773ZM242.928 342.773C242.928 340.842 242.626 339.214 242.021 337.888C241.424 336.554 240.596 335.547 239.535 334.868C238.475 334.18 237.252 333.836 235.869 333.836C234.485 333.836 233.263 334.18 232.202 334.868C231.141 335.547 230.309 336.554 229.704 337.888C229.107 339.214 228.809 340.842 228.809 342.773C228.809 344.703 229.107 346.336 229.704 347.67C230.309 348.996 231.141 350.002 232.202 350.69C233.263 351.369 234.485 351.709 235.869 351.709C237.252 351.709 238.475 351.369 239.535 350.69C240.596 350.002 241.424 348.996 242.021 347.67C242.626 346.336 242.928 344.703 242.928 342.773ZM268.293 330.045V333.911H256.535V355.5H251.924V330.045H268.293ZM272.192 355.5V330.045H281.738C283.693 330.045 285.334 330.41 286.66 331.139C287.994 331.868 289 332.871 289.68 334.147C290.368 335.415 290.711 336.857 290.711 338.472C290.711 340.105 290.368 341.555 289.68 342.822C288.992 344.09 287.977 345.089 286.635 345.818C285.292 346.539 283.639 346.899 281.676 346.899H275.349V343.108H281.054C282.198 343.108 283.134 342.909 283.863 342.512C284.592 342.114 285.131 341.567 285.479 340.871C285.835 340.175 286.013 339.375 286.013 338.472C286.013 337.569 285.835 336.774 285.479 336.086C285.131 335.398 284.588 334.864 283.851 334.483C283.122 334.093 282.181 333.898 281.029 333.898H276.803V355.5H272.192ZM295.149 355.5H290.227L299.188 330.045H304.881L313.854 355.5H308.932L302.134 335.266H301.935L295.149 355.5ZM295.31 345.52H308.733V349.223H295.31V345.52ZM317.207 330.045H322.85L330.407 348.49H330.705L338.262 330.045H343.904V355.5H339.48V338.012H339.244L332.209 355.425H328.903L321.868 337.975H321.632V355.5H317.207V330.045ZM351.2 355.848V351.97H352.654C353.309 351.97 353.848 351.875 354.27 351.684C354.693 351.494 355.032 351.22 355.289 350.864C355.554 350.508 355.774 350.093 355.948 349.621L356.284 348.763L347.186 330.045H352.008L358.347 343.668L363.828 330.045H368.576L359.801 350.802C359.395 351.697 358.927 352.529 358.397 353.3C357.866 354.062 357.174 354.68 356.321 355.152C355.476 355.616 354.374 355.848 353.015 355.848H351.2ZM371.86 330.045H376.434V347.396H376.67L388.639 330.045H392.778V355.5H388.167V338.162H387.956L375.949 355.5H371.86V330.045ZM384.786 323.483H388.155C388.155 324.933 387.628 326.11 386.576 327.013C385.532 327.908 384.115 328.355 382.325 328.355C380.552 328.355 379.14 327.908 378.087 327.013C377.043 326.11 376.525 324.933 376.534 323.483H379.877C379.877 324.08 380.059 324.614 380.424 325.086C380.797 325.55 381.431 325.782 382.325 325.782C383.204 325.782 383.829 325.55 384.202 325.086C384.583 324.622 384.778 324.088 384.786 323.483ZM406.484 330.045H412.127L419.684 348.49H419.982L427.539 330.045H433.182V355.5H428.757V338.012H428.521L421.486 355.425H418.18L411.145 337.975H410.909V355.5H406.484V330.045ZM441.472 355.5H436.55L445.511 330.045H451.204L460.177 355.5H455.256L448.457 335.266H448.258L441.472 355.5ZM441.633 345.52H455.057V349.223H441.633V345.52ZM463.53 330.045H468.104V347.396H468.34L480.309 330.045H484.448V355.5H479.837V338.162H479.626L467.619 355.5H463.53V330.045ZM476.456 323.483H479.825C479.825 324.933 479.298 326.11 478.246 327.013C477.202 327.908 475.785 328.355 473.995 328.355C472.222 328.355 470.809 327.908 469.757 327.013C468.713 326.11 468.195 324.933 468.203 323.483H471.547C471.547 324.08 471.729 324.614 472.094 325.086C472.467 325.55 473.1 325.782 473.995 325.782C474.874 325.782 475.499 325.55 475.872 325.086C476.253 324.622 476.448 324.088 476.456 323.483ZM489.473 355.5V330.045H505.842V333.911H494.084V339.877H498.993C500.94 339.877 502.61 340.196 504.002 340.834C505.402 341.464 506.475 342.354 507.221 343.506C507.967 344.658 508.34 346.013 508.34 347.57C508.34 349.136 507.967 350.516 507.221 351.709C506.475 352.894 505.402 353.822 504.002 354.493C502.61 355.164 500.94 355.5 498.993 355.5H489.473ZM494.084 351.722H498.993C500.021 351.722 500.891 351.527 501.603 351.137C502.316 350.748 502.854 350.234 503.219 349.596C503.592 348.958 503.778 348.266 503.778 347.521C503.778 346.443 503.364 345.528 502.535 344.774C501.715 344.011 500.534 343.63 498.993 343.63H494.084V351.722ZM514.647 355.848V351.97H516.102C516.756 351.97 517.295 351.875 517.717 351.684C518.14 351.494 518.48 351.22 518.737 350.864C519.002 350.508 519.221 350.093 519.395 349.621L519.731 348.763L510.633 330.045H515.455L521.794 343.668L527.275 330.045H532.023L523.248 350.802C522.842 351.697 522.374 352.529 521.844 353.3C521.314 354.062 520.622 354.68 519.768 355.152C518.923 355.616 517.821 355.848 516.462 355.848H514.647ZM535.795 333.911V330.045H556.104V333.911H548.237V355.5H543.663V333.911H535.795ZM560.019 355.5V330.045H564.631V340.821H576.426V330.045H581.049V355.5H576.426V344.687H564.631V355.5H560.019ZM595.796 355.848C593.716 355.848 591.898 355.355 590.34 354.369C588.782 353.375 587.572 351.991 586.711 350.218C585.849 348.436 585.418 346.361 585.418 343.991V342.176C585.418 339.682 585.853 337.499 586.723 335.626C587.601 333.753 588.828 332.299 590.402 331.263C591.976 330.219 593.816 329.697 595.921 329.697C597.81 329.697 599.475 330.05 600.917 330.754C602.367 331.45 603.519 332.453 604.372 333.762C605.234 335.071 605.727 336.629 605.851 338.435H601.265C601.207 337.432 600.934 336.567 600.445 335.837C599.964 335.108 599.33 334.549 598.543 334.159C597.764 333.77 596.89 333.575 595.921 333.575C594.736 333.575 593.692 333.919 592.788 334.607C591.894 335.286 591.193 336.243 590.688 337.478C590.191 338.704 589.942 340.129 589.942 341.754V344.388C589.942 345.905 590.187 347.239 590.676 348.391C591.164 349.542 591.848 350.441 592.726 351.088C593.605 351.726 594.628 352.045 595.796 352.045C596.774 352.045 597.661 351.854 598.456 351.473C599.26 351.092 599.91 350.545 600.407 349.832C600.905 349.12 601.182 348.27 601.24 347.284H605.851C605.76 349.058 605.284 350.586 604.422 351.871C603.56 353.147 602.392 354.129 600.917 354.816C599.442 355.504 597.735 355.848 595.796 355.848ZM588.028 344.923V341.095H598.593V344.923H588.028ZM615.4 330.045L614.99 348.018H610.988L610.59 330.045H615.4ZM612.989 355.773C612.235 355.773 611.588 355.508 611.05 354.978C610.519 354.448 610.254 353.801 610.254 353.039C610.254 352.293 610.519 351.655 611.05 351.125C611.588 350.595 612.235 350.33 612.989 350.33C613.726 350.33 614.364 350.595 614.903 351.125C615.45 351.655 615.723 352.293 615.723 353.039C615.723 353.545 615.595 354.004 615.338 354.419C615.089 354.833 614.758 355.164 614.343 355.413C613.937 355.653 613.486 355.773 612.989 355.773Z" fill="white"/>
</g>
</g>
<g clip-path="url(#clip1_222_530)">
<path d="M384 266C411.614 266 434 243.614 434 216C434 188.386 411.614 166 384 166C356.386 166 334 188.386 334 216C334 243.614 356.386 266 384 266Z" fill="#D7D7D7" fill-opacity="0.68"/>
<path d="M404 216L374 233.32V198.679L404 216Z" fill="#303030"/>
</g>
</g>
<defs>
<filter id="filter0_d_222_530" x="172.495" y="323.483" width="447.228" height="40.365" filterUnits="userSpaceOnUse" color-interpolation-filters="sRGB">
<feFlood flood-opacity="0" result="BackgroundImageFix"/>
<feColorMatrix in="SourceAlpha" type="matrix" values="0 0 0 0 0 0 0 0 0 0 0 0 0 0 0 0 0 0 127 0" result="hardAlpha"/>
<feOffset dy="4"/>
<feGaussianBlur stdDeviation="2"/>
<feComposite in2="hardAlpha" operator="out"/>
<feColorMatrix type="matrix" values="0 0 0 0 0 0 0 0 0 0 0 0 0 0 0 0 0 0 0.25 0"/>
<feBlend mode="normal" in2="BackgroundImageFix" result="effect1_dropShadow_222_530"/>
<feBlend mode="normal" in="SourceGraphic" in2="effect1_dropShadow_222_530" result="shape"/>
</filter>
<linearGradient id="paint0_linear_222_530" x1="384.5" y1="0.5" x2="384.5" y2="431.5" gradientUnits="userSpaceOnUse">
<stop stop-color="#0FF6F6"/>
<stop offset="1" stop-color="#569CB9"/>
</linearGradient>
<clipPath id="clip0_222_530">
<rect width="768" height="431" fill="white" transform="translate(0.5 0.5)"/>
</clipPath>
<clipPath id="clip1_222_530">
<rect width="100" height="100" fill="white" transform="translate(334 166)"/>
</clipPath>
</defs>
</svg>
