<svg width="25" height="25" viewBox="0 0 25 25" fill="none" xmlns="http://www.w3.org/2000/svg">
<path d="M25 12.5C25 9.18479 23.683 6.00537 21.3388 3.66117C18.9946 1.31696 15.8152 0 12.5 0C10.8585 0 9.23303 0.323322 7.71646 0.951506C6.19989 1.57969 4.8219 2.50043 3.66117 3.66117C2.50043 4.8219 1.57969 6.19989 0.951504 7.71646C0.32332 9.23303 0 10.8585 0 12.5C0 15.8152 1.31696 18.9946 3.66117 21.3388C6.00537 23.683 9.18479 25 12.5 25C14.1415 25 15.767 24.6767 17.2835 24.0485C18.8001 23.4203 20.1781 22.4996 21.3388 21.3388C23.683 18.9946 25 15.8152 25 12.5ZM5 11.25H15L10.625 6.875L12.4 5.1L19.8 12.5L12.4 19.9L10.625 18.125L15 13.75H5V11.25Z" fill="#083CC0"/>
</svg>
