<svg width="120" height="40" viewBox="0 0 120 40" fill="none" xmlns="http://www.w3.org/2000/svg">
<mask id="mask0_402_2558" style="mask-type:luminance" maskUnits="userSpaceOnUse" x="0" y="0" width="120" height="40">
<path d="M0 0.168213H120V39.8328H0V0.168213Z" fill="white"/>
</mask>
<g mask="url(#mask0_402_2558)">
<path d="M62.1203 19.4646C63.7586 19.4646 65.0859 18.1774 65.0859 16.5897C65.0859 15.002 63.7586 13.7148 62.1203 13.7148C60.4831 13.7148 59.1569 15.002 59.1569 16.5897C59.1569 18.1774 60.4831 19.4646 62.1203 19.4646Z" fill="#1D1D1B"/>
<path d="M64.3868 13.8215H59.5096C59.1025 13.8239 58.711 13.6675 58.4211 13.3866C58.1311 13.1057 57.9664 12.7231 57.9631 12.323V11.0256C57.9631 10.1989 58.657 9.5271 59.5096 9.5271H64.3878C65.2414 9.5271 65.9343 10.1989 65.9343 11.0256V12.322C65.933 12.5202 65.892 12.7163 65.8136 12.899C65.7352 13.0816 65.6209 13.2473 65.4773 13.3865C65.3336 13.5257 65.1634 13.6356 64.9765 13.7101C64.7896 13.7846 64.5895 13.8221 64.3878 13.8204L64.3868 13.8215Z" fill="#1D1D1B"/>
<path d="M65.0525 13.88H58.848C58.6004 13.8808 58.3625 13.7853 58.1863 13.6142C58.0102 13.4432 57.91 13.2105 57.9078 12.9672V10.3928C57.9078 9.89024 58.3315 9.47998 58.848 9.47998H65.0525C65.5701 9.47998 65.9937 9.89024 65.9937 10.3928V12.9672C65.9937 13.4697 65.5701 13.88 65.0525 13.88ZM58.848 9.5928C58.7404 9.59199 58.6337 9.61205 58.534 9.65185C58.4343 9.69164 58.3435 9.75037 58.267 9.82468C58.1904 9.899 58.1295 9.98743 58.0877 10.0849C58.046 10.1824 58.0242 10.287 58.0237 10.3928V12.9672C58.0237 13.4102 58.391 13.7672 58.848 13.7672H65.0525C65.5096 13.7672 65.8779 13.4102 65.8779 12.9672V10.3928C65.8774 10.287 65.8556 10.1824 65.8139 10.0849C65.7721 9.98743 65.7112 9.899 65.6346 9.82468C65.5581 9.75037 65.4673 9.69164 65.3676 9.65185C65.2679 9.61205 65.1612 9.59199 65.0536 9.5928H58.848Z" fill="#1D1D1B"/>
<path d="M67.5172 9.97015C66.9614 9.98161 66.4059 10.0014 65.8508 10.0296C65.905 10.1414 65.9332 10.2635 65.9332 10.3917V11.3199C66.7523 11.4963 67.7645 11.6399 68.9249 11.6399C70.5255 11.6348 71.8466 11.3568 72.7701 11.0902C72.7868 10.7763 72.8035 10.4563 72.8139 10.1414C71.0526 9.99239 69.2846 9.93522 67.5172 9.97015ZM57.9683 10.3917C57.9684 10.2678 57.996 10.1455 58.0492 10.0331C58.1023 9.92084 58.1798 9.82128 58.2762 9.74144C55.8875 9.14335 53.3789 9.18941 51.0146 9.87477C50.9989 10.1896 50.9822 10.5096 50.9708 10.8235C53.2981 11.0147 55.636 11.0503 57.9683 10.9302V10.3917Z" fill="#1D1D1B"/>
<path d="M77.3353 12.0184C76.2021 11.9764 74.4031 12.2215 73.8981 12.323C73.1603 12.4666 71.3833 12.8082 69.3162 12.7815C68.2763 12.7682 67.2397 12.6628 66.2191 12.4666C64.7781 12.1035 63.2536 12.4984 62.2581 13.5066C62.1976 13.5651 62.1433 13.6235 62.0932 13.6882C62.0379 13.6235 61.9836 13.5651 61.9283 13.5066C60.9381 12.4933 59.4146 12.1035 57.9683 12.4666C56.9473 12.6602 55.911 12.7655 54.8713 12.7815C52.7969 12.8082 51.0261 12.4666 50.2894 12.323C49.7833 12.2205 47.9833 11.9764 46.8511 12.0184L1.31165 9.31995L46.3064 13.9015C46.6143 13.9702 47.1423 14.1682 47.6922 14.3015C49.1666 14.6635 50.8059 15.1179 53.7099 16.0246C57.0772 17.081 56.857 17.0964 57.9955 17.3784C59.2029 17.6764 60.4283 17.899 61.6643 18.0451C61.681 18.0717 61.6915 18.1046 61.7082 18.1312C61.8292 18.121 61.9617 18.1097 62.0943 18.0933C62.2299 18.1097 62.3572 18.1199 62.4783 18.1312C62.4951 18.1037 62.5097 18.0748 62.5221 18.0451C63.7581 17.899 64.9835 17.6764 66.1909 17.3784C67.3304 17.0964 67.1092 17.081 70.4765 16.0246C73.3805 15.1117 75.0198 14.6635 76.4943 14.3015C77.039 14.1682 77.5722 13.9702 77.88 13.9015L122.876 9.31995L77.3353 12.0184Z" fill="#1D1D1B"/>
<path d="M62.16 10.7969C60.9819 10.7969 56.2247 12.3497 56.2247 14.2635C56.2247 14.483 56.257 14.6964 56.3228 14.8994C57.2139 15.8051 59.4918 16.4564 62.1589 16.4564C64.8271 16.4564 67.105 15.8102 67.9951 14.8984C68.0619 14.6902 68.0942 14.4779 68.0942 14.2646C68.0942 12.3497 63.265 10.7979 62.1589 10.7979L62.16 10.7969Z" fill="#1D1D1B"/>
<path d="M62.16 10.5518C62.6984 10.5518 64.129 10.92 65.449 11.5231C65.4543 11.4482 65.4595 11.3733 65.4595 11.2984V10.2964C65.4595 8.90357 64.2939 7.77332 62.8581 7.77332H61.1197C59.6838 7.77332 58.5183 8.90357 58.5183 10.2964V11.2984C58.5183 11.4215 58.5287 11.5446 58.5454 11.6615C59.9311 10.9846 61.5391 10.5518 62.16 10.5518ZM61.1197 8.01332H62.8581C63.2212 8.01332 63.5624 8.08203 63.8755 8.21537H63.5624C62.951 8.21537 62.3906 8.41844 61.945 8.76511C61.4836 8.40937 60.9141 8.21583 60.3277 8.21537H60.097C60.4153 8.08203 60.7565 8.01332 61.1197 8.01332ZM47.231 12.2533C47.3739 11.9282 47.5117 11.6564 47.6212 11.4482C47.6431 11.4051 47.665 11.362 47.687 11.3251C47.88 10.9733 47.9948 10.8236 48.1774 10.7866C48.215 10.7815 48.3412 10.7487 48.4184 10.8072C48.5071 10.8718 48.6386 11.122 48.0616 12.3764C47.7842 12.3384 47.5074 12.2973 47.231 12.2533Z" fill="#1D1D1B"/>
<path d="M47.7371 10.7753L61.3951 -1.78467L61.5318 -0.809283L48.7158 11.683L48.6501 11.2717L47.8633 11.3846L47.7371 10.7753Z" fill="#1D1D1B"/>
<path d="M53.16 8.5784L52.9784 8.7384C52.9228 8.787 52.8499 8.81201 52.7756 8.80797C52.7014 8.80394 52.6317 8.77119 52.5819 8.71686L51.9224 7.99686C51.8181 7.88404 51.8285 7.70968 51.9443 7.61327L52.1259 7.45327C52.1814 7.40455 52.2542 7.37936 52.3285 7.3832C52.4027 7.38704 52.4725 7.41961 52.5224 7.47379L53.1819 8.19378C53.2862 8.30661 53.2748 8.48199 53.16 8.5784ZM58.5788 3.44199L58.3972 3.60199C58.3417 3.65072 58.2689 3.6759 58.1946 3.67206C58.1204 3.66822 58.0506 3.63566 58.0007 3.58148L57.3402 2.86045C57.2358 2.74866 57.2462 2.57327 57.3631 2.47686L57.5447 2.31686C57.6001 2.26814 57.673 2.24295 57.7472 2.24679C57.8215 2.25063 57.8912 2.2832 57.9412 2.33737L58.6007 3.0584C58.705 3.1702 58.6946 3.34045 58.5788 3.44199ZM49.2167 9.95891C49.0518 9.79994 48.8755 9.58148 48.9141 9.35686C48.9579 9.12199 49.2104 8.99481 49.2605 8.96712C49.7332 8.70045 53.5283 5.15379 59.8602 -0.89442C59.8873 -0.914933 60.0146 -1.00622 60.1346 -0.97442C60.289 -0.931343 60.4101 -0.7016 60.3329 -0.434933C56.6248 3.02693 52.9194 6.49154 49.2167 9.95891ZM76.345 12.2533C76.2248 11.9804 76.0946 11.7118 75.9548 11.4481C75.9339 11.4051 75.9109 11.362 75.889 11.3251C75.696 10.9733 75.5812 10.8235 75.3986 10.7866C75.361 10.7815 75.2348 10.7487 75.1575 10.8071C75.0689 10.8717 74.9374 11.122 75.5144 12.3764C75.7962 12.3384 76.0706 12.2953 76.345 12.2533Z" fill="#1D1D1B"/>
<path d="M75.84 10.7764L62.352 -1.62463L62.1485 -0.707711L74.8591 11.682L74.9249 11.2718L75.7116 11.3846L75.8379 10.7764H75.84Z" fill="#1D1D1B"/>
<path d="M70.416 8.57842L70.5976 8.73842C70.653 8.78714 70.7258 8.81233 70.8001 8.80849C70.8744 8.80464 70.9441 8.77208 70.9941 8.7179L71.6536 7.99688C71.7579 7.88508 71.7475 7.7097 71.6317 7.61329L71.4501 7.45329C71.3946 7.40456 71.3218 7.37937 71.2475 7.38322C71.1732 7.38706 71.1035 7.41962 71.0536 7.4738L70.3941 8.19483C70.2897 8.30662 70.3012 8.48201 70.416 8.57842ZM64.9983 3.44201L65.1788 3.60201C65.2342 3.65073 65.3071 3.67592 65.3813 3.67208C65.4556 3.66823 65.5253 3.63567 65.5753 3.58149L66.2348 2.86047C66.3391 2.74867 66.3287 2.57329 66.2139 2.47688L66.0323 2.31688C65.9769 2.26815 65.9041 2.24296 65.8298 2.24681C65.7555 2.25065 65.6858 2.28321 65.6358 2.33739L64.9753 3.05842C64.871 3.17021 64.8824 3.34047 64.9983 3.44201ZM63.0835 -0.58466C63.1325 -0.749788 63.2379 -1.01645 63.4737 -1.10158C63.6991 -1.18158 63.936 -1.04825 64.0299 -1.00004C64.8 -0.579532 69.409 3.7897 69.8943 4.24816C69.9203 4.27483 70.0748 4.45021 70.0299 4.65329C69.9809 4.88816 69.6783 5.07996 69.3162 5.02149C67.2365 3.15483 65.1569 1.28201 63.0835 -0.58466ZM62.3249 25.1497H61.9889C61.9385 25.1504 61.8886 25.1412 61.8419 25.1228C61.7952 25.1043 61.7527 25.0769 61.7169 25.0422C61.6811 25.0074 61.6526 24.9661 61.6332 24.9204C61.6138 24.8748 61.6038 24.8258 61.6038 24.7764V22.2697C61.6038 22.0615 61.7739 21.8964 61.9889 21.8964H62.3249C62.5388 21.8964 62.7099 22.0615 62.7099 22.2697V24.7764C62.7099 24.8259 62.6999 24.875 62.6804 24.9207C62.6609 24.9664 62.6324 25.0078 62.5965 25.0426C62.5605 25.0773 62.5179 25.1047 62.4711 25.1231C62.4243 25.1415 62.3753 25.1505 62.3249 25.1497Z" fill="#1D1D1B"/>
<path d="M63.0282 23.6512H61.2856C61.261 23.6507 61.2376 23.6409 61.2201 23.624C61.2026 23.607 61.1924 23.5841 61.1917 23.5599V23.4799C61.1917 23.4317 61.2355 23.3897 61.2856 23.3897H63.0282C63.0783 23.3897 63.1221 23.4317 63.1221 23.4799V23.5599C63.1221 23.572 63.1196 23.5839 63.1149 23.5949C63.1102 23.606 63.1032 23.6161 63.0945 23.6245C63.0857 23.6329 63.0753 23.6395 63.064 23.6439C63.0526 23.6483 63.0404 23.6515 63.0282 23.6512ZM61.488 23.3897V22.1897C61.488 21.843 61.7802 21.5538 62.1433 21.5538H62.1757C62.5336 21.5538 62.831 21.8368 62.831 22.1897V23.3897H62.9353V22.1897C62.9337 21.9931 62.8528 21.8052 62.7103 21.6671C62.5679 21.5291 62.3757 21.4522 62.1757 21.4533H62.1433C61.7249 21.4533 61.3837 21.7835 61.3837 22.1897V23.3897H61.488Z" fill="#1D1D1B"/>
<path d="M62.5283 21.0317H61.7906V21.523H62.5283V21.0317Z" fill="#1D1D1B"/>
<path d="M62.4397 19.4532H61.8845V21.2245H62.4397V19.4532Z" fill="#1D1D1B"/>
<path d="M61.4056 18.0185H62.8351L62.4344 19.4544H61.8783L61.4056 18.0185ZM51.0918 24.3662H50.6797C50.618 24.3666 50.5569 24.355 50.4997 24.3322C50.4426 24.3094 50.3906 24.2757 50.3467 24.2332C50.3028 24.1906 50.2679 24.1399 50.2439 24.0841C50.2199 24.0282 50.2074 23.9683 50.207 23.9077V21.3262C50.2074 21.2655 50.2199 21.2056 50.2439 21.1498C50.2679 21.0939 50.3028 21.0433 50.3467 21.0007C50.3906 20.9581 50.4426 20.9245 50.4997 20.9016C50.5569 20.8788 50.618 20.8673 50.6797 20.8677H51.0918C51.1536 20.8672 51.2148 20.8786 51.2721 20.9014C51.3293 20.9241 51.3815 20.9577 51.4255 21.0003C51.4695 21.0429 51.5045 21.0936 51.5285 21.1495C51.5526 21.2054 51.5652 21.2655 51.5656 21.3262V23.9077C51.5708 24.1641 51.3569 24.3662 51.0918 24.3662ZM57.1378 16.8667L56.7694 16.6862L52.0717 20.8615H52.0498C52.0145 20.8613 51.9796 20.8678 51.947 20.8808C51.9143 20.8938 51.8846 20.913 51.8595 20.9373C51.8344 20.9616 51.8144 20.9905 51.8007 21.0224C51.787 21.0542 51.7798 21.0885 51.7795 21.1231V23.1497C51.7795 23.2933 51.9005 23.4113 52.0498 23.4113C52.1207 23.4116 52.1889 23.3842 52.2393 23.3352C52.2898 23.2862 52.3184 23.2195 52.319 23.1497V21.0974L57.1378 16.8667Z" fill="#1D1D1B"/>
<path d="M52.0654 22.1415H51.3287V22.4185H52.0654V22.1415ZM72.864 24.3662H73.2762C73.3378 24.3666 73.399 24.355 73.4561 24.3322C73.5132 24.3094 73.5652 24.2757 73.6091 24.2332C73.653 24.1906 73.6879 24.1399 73.7119 24.0841C73.7359 24.0282 73.7484 23.9683 73.7489 23.9077V21.3262C73.7484 21.2655 73.7359 21.2056 73.7119 21.1498C73.6879 21.0939 73.653 21.0433 73.6091 21.0007C73.5652 20.9581 73.5132 20.9245 73.4561 20.9016C73.399 20.8788 73.3378 20.8673 73.2762 20.8677H72.864C72.8022 20.8672 72.741 20.8786 72.6837 20.9014C72.6265 20.9241 72.5744 20.9577 72.5303 21.0003C72.4863 21.0429 72.4513 21.0936 72.4273 21.1495C72.4032 21.2054 72.3906 21.2655 72.3902 21.3262V23.9077C72.385 24.1641 72.5989 24.3662 72.864 24.3662ZM66.8243 16.8667L67.1927 16.6862L71.8904 20.8615H71.9113C72.0605 20.8615 72.1815 20.9795 72.1815 21.1231V23.1497C72.1815 23.2933 72.0605 23.4113 71.9123 23.4113C71.8771 23.4116 71.8422 23.405 71.8095 23.392C71.7769 23.379 71.7472 23.3598 71.7221 23.3355C71.697 23.3112 71.677 23.2823 71.6633 23.2505C71.6496 23.2186 71.6423 23.1844 71.6421 23.1497V21.0974L66.8243 16.8667Z" fill="#1D1D1B"/>
<path d="M71.8925 22.4184H72.6302V22.1415H71.8925V22.4184ZM81.0376 16.9364C81.1222 16.9369 81.2062 16.9211 81.2847 16.8897C81.3631 16.8583 81.4345 16.8121 81.4948 16.7536C81.555 16.6952 81.603 16.6256 81.6359 16.5489C81.6688 16.4722 81.686 16.3899 81.6866 16.3066C81.686 16.2234 81.6688 16.1411 81.6359 16.0644C81.603 15.9877 81.555 15.9181 81.4948 15.8596C81.4345 15.8012 81.3631 15.7549 81.2847 15.7236C81.2062 15.6922 81.1222 15.6764 81.0376 15.6769C80.9529 15.6764 80.8689 15.6922 80.7905 15.7236C80.712 15.7549 80.6406 15.8012 80.5803 15.8596C80.5201 15.9181 80.4721 15.9877 80.4392 16.0644C80.4063 16.1411 80.3891 16.2234 80.3885 16.3066C80.3885 16.6543 80.6786 16.9364 81.0376 16.9364Z" fill="#1D1D1B"/>
<path d="M81.2077 15.682H80.8779C80.7768 15.6823 80.6796 15.6434 80.6076 15.5737C80.5355 15.504 80.4943 15.4091 80.4929 15.3097V13.1969C80.4929 12.9949 80.664 12.8236 80.879 12.8236H81.2077C81.4164 12.8236 81.5938 12.9887 81.5938 13.1969V15.3097C81.5911 15.409 81.5493 15.5033 81.4773 15.5729C81.4053 15.6426 81.3087 15.682 81.2077 15.6831V15.682ZM79.2668 15.3251L80.5044 16.1354L80.6087 15.9651L79.2668 15.3251ZM79.2668 17.3138L80.6087 16.6749L80.5044 16.5036L79.2668 17.3138ZM82.8146 17.3138L81.5708 16.5036L81.4664 16.6738L82.8146 17.3138ZM82.8146 15.3251L81.4664 15.9651L81.5708 16.1354L82.8146 15.3251ZM81.0376 16.7179C81.2619 16.7179 81.4445 16.5405 81.4445 16.322C81.4441 16.2699 81.4333 16.2184 81.4126 16.1704C81.3919 16.1224 81.3618 16.0788 81.324 16.0423C81.2863 16.0057 81.2415 15.9768 81.1924 15.9572C81.1432 15.9376 81.0906 15.9278 81.0376 15.9282C80.9845 15.9278 80.932 15.9376 80.8828 15.9572C80.8336 15.9768 80.7889 16.0057 80.7511 16.0423C80.7133 16.0788 80.6832 16.1224 80.6626 16.1704C80.6419 16.2184 80.631 16.2699 80.6306 16.322C80.6306 16.5405 80.8132 16.7179 81.0376 16.7179ZM86.7141 15.1866L86.6097 14.8031C86.6343 14.7509 86.6474 14.6943 86.6484 14.6369V12.7118C86.6475 12.6037 86.6031 12.5003 86.5249 12.4244C86.4466 12.3484 86.3409 12.3061 86.231 12.3066C85.9993 12.3066 85.8125 12.4882 85.8125 12.7118V14.6369C85.8125 14.6902 85.823 14.7395 85.8397 14.7866L85.7301 15.1866H86.0212V14.9897C86.0853 15.0241 86.1569 15.0425 86.2299 15.0431C86.2991 15.0436 86.3673 15.0271 86.4282 14.9949V15.1866H86.7141ZM42.9621 16.9364C43.0468 16.9369 43.1307 16.9211 43.2092 16.8897C43.2876 16.8584 43.359 16.8121 43.4193 16.7536C43.4796 16.6952 43.5275 16.6256 43.5605 16.5489C43.5934 16.4722 43.6106 16.3899 43.6111 16.3066C43.6106 16.2234 43.5934 16.1411 43.5605 16.0644C43.5275 15.9877 43.4796 15.9181 43.4193 15.8596C43.359 15.8012 43.2876 15.7549 43.2092 15.7236C43.1307 15.6922 43.0468 15.6764 42.9621 15.6769C42.8774 15.6764 42.7934 15.6922 42.715 15.7236C42.6365 15.7549 42.5651 15.8012 42.5049 15.8596C42.4446 15.9181 42.3966 15.9877 42.3637 16.0644C42.3308 16.1411 42.3136 16.2234 42.313 16.3066C42.313 16.6543 42.6042 16.9364 42.9621 16.9364Z" fill="#1D1D1B"/>
<path d="M42.7972 15.682H43.1269C43.3356 15.682 43.513 15.5179 43.513 15.3097V13.1969C43.5119 13.0972 43.4707 13.0019 43.3983 12.9319C43.326 12.862 43.2284 12.823 43.1269 12.8236H42.7972C42.5885 12.8236 42.4111 12.9887 42.4111 13.1969V15.3097C42.4111 15.5118 42.5822 15.6831 42.7972 15.6831V15.682ZM44.7339 15.3251L43.4953 16.1354L43.3909 15.9651L44.7339 15.3251ZM44.7339 17.3138L43.3909 16.6748L43.4953 16.5036L44.7339 17.3138ZM41.1861 17.3138L42.4278 16.5036L42.5321 16.6738L41.1861 17.3138ZM41.1861 15.3251L42.5321 15.9651L42.4278 16.1354L41.1861 15.3251ZM42.9621 16.7179C43.1874 16.7179 43.369 16.5405 43.369 16.322C43.3679 16.2168 43.3245 16.1164 43.2482 16.0426C43.172 15.9688 43.0691 15.9276 42.9621 15.9282C42.909 15.9278 42.8564 15.9376 42.8073 15.9572C42.7581 15.9768 42.7134 16.0057 42.6756 16.0423C42.6378 16.0788 42.6077 16.1224 42.587 16.1704C42.5664 16.2184 42.5555 16.2699 42.5551 16.322C42.5551 16.5405 42.7377 16.7179 42.9621 16.7179ZM37.2855 15.1866L37.3899 14.8031C37.3654 14.7509 37.3522 14.6943 37.3513 14.6369V12.7118C37.3513 12.4882 37.5391 12.3066 37.7687 12.3066C38.0003 12.3066 38.1871 12.4882 38.1871 12.7118V14.6369C38.1871 14.6902 38.1767 14.7395 38.16 14.7866L38.2695 15.1866H37.9836V14.9897C37.9196 15.0241 37.8479 15.0425 37.7749 15.0431C37.7058 15.0436 37.6376 15.027 37.5767 14.9948V15.1866H37.2855ZM66.9913 29.8113L67.2876 28.8092L67.1395 24.2656L68.449 22.4892L68.4542 21.6728L66.5509 22.0461L66.4414 20.8882L63.8775 21.4113L64.2521 22.5046L62.305 22.8892L62.5189 23.4913L64.6862 24.921L66.3746 29.0174L66.9913 29.8113ZM68.2779 21.8913L68.2727 22.4348L66.9641 24.2113L67.0685 27.3907L66.5676 22.2215L68.2779 21.8913ZM62.6619 23.3795L62.5356 23.0215L64.3012 22.6748L65.9739 27.5825L64.8292 24.8031L62.6619 23.3795ZM66.5342 28.9425L66.5175 28.8995L67.1071 28.8143L66.9193 29.4328L66.5342 28.9425ZM65.952 19.6995L65.5116 20.4779L64.9502 18.4246L64.8678 20.4082L64.2073 19.4113L64.4337 20.5046L63.4706 19.72L64.3513 21.0061L65.6713 20.8348L65.952 19.6995Z" fill="#1D1D1B"/>
<path d="M67.9482 22.1261L66.6991 22.3548V22.4081L66.8483 24.0728L68.0421 22.4297L67.9482 22.1261ZM64.2908 22.9261L64.2741 22.8728L63.0198 23.0912L63.0469 23.4061L64.7635 24.5261L64.2908 22.9261ZM54.1586 31.0492L54.7471 30.601L56.5628 27.9825L58.0414 27.4964L58.3826 27.0379L57.1513 26.4994L57.5739 25.801L55.9127 25.0861L55.6654 25.8481L54.4111 25.2994L54.2796 25.7199L54.9005 27.3743L54.1419 30.3446L54.1586 31.0492ZM58.1906 27.0912L57.9589 27.3948L56.4793 27.881L55.2083 29.7148L57.0897 26.6061L58.1906 27.0912ZM54.4059 25.7261L54.4831 25.4748L55.6205 25.9712L54.5103 29.3948L55.0268 27.3794L54.4059 25.7261ZM54.2629 30.3764L54.2682 30.3456L54.6365 30.5261L54.2734 30.803L54.2629 30.3764ZM57.7941 24.9415L57.2223 25.2081L57.7617 23.8266L56.8925 24.9148L56.9363 24.0943L56.6003 24.7979L56.3916 23.9774L56.3478 25.0471L57.1617 25.4687L57.7941 24.9405V24.9415Z" fill="#1D1D1B"/>
<path d="M57.9099 27.0974L57.1064 26.7343L57.0845 26.7651L56.4741 27.7579L57.8327 27.2995L57.9099 27.0974ZM55.5109 26.1097L55.5276 26.0728L54.7242 25.6995L54.6094 25.8861L55.1102 27.1979L55.5109 26.1097ZM60.8306 37.7538L61.2209 37.1343L61.9742 34.0677L63.1847 33.1077L63.3391 32.5641L61.9909 32.4779L62.1339 31.6841L60.3182 31.5815L60.3631 32.3774L58.9878 32.2913L59.0149 32.7343L60.1982 34.0728L60.5614 37.1128L60.8306 37.7528V37.7538ZM63.1784 32.6759L63.0741 33.0379L61.8636 33.9979L61.3367 36.1477L61.9742 32.601L63.1784 32.6759ZM59.1412 32.681L59.1255 32.4195L60.3736 32.4995L60.5718 36.0841L60.3245 34.0195L59.1412 32.681ZM60.6876 37.0913L60.6824 37.0605L61.0946 37.1077L60.8525 37.4923L60.6876 37.0913ZM62.0348 30.7979L61.5955 31.241L61.6007 29.7692L61.177 31.081L60.9182 30.2974L60.8629 31.0707L60.3683 30.3713L60.7148 31.3907L61.633 31.5077L62.0348 30.7979Z" fill="#1D1D1B"/>
<path d="M62.9155 32.7763L62.0348 32.7076L62.0296 32.7445L61.8146 33.8861L62.9207 32.9958L62.9155 32.7763ZM60.313 32.6656V32.6276L59.4334 32.5527L59.3948 32.7661L60.3297 33.8225L60.313 32.6656Z" fill="#1D1D1B"/>
</g>
</svg>
