<svg width="187" height="65" viewBox="0 0 187 65" fill="none" xmlns="http://www.w3.org/2000/svg">
<path fill-rule="evenodd" clip-rule="evenodd" d="M75.9618 0H109.038C111.157 0 113 1.89365 113 4.28562V59.8989C113 62.2908 111.157 64.1845 109.038 64.1845H75.9618C73.8426 64.1845 72 62.2908 72 59.8989V4.28562C72 1.89365 73.8426 0 75.9618 0Z" fill="#4B75A4"/>
<path d="M4 14.1423V53.3057H0V14.1423H4Z" fill="#5B5B5B"/>
<path d="M39 14.1423V53.3057H31.3202L17.1636 19.5373C17.9965 30.7267 17.7188 42.1163 17.7188 53.3057H13V14.1423H20.4945L34.7436 48.0105C33.8185 37.021 34.2811 25.1321 34.2811 14.1423H39Z" fill="#5B5B5B"/>
<path d="M67 14.1423L66.0841 18.3383H56.7404V53.3057H52.6184V18.3383H43L43.7329 14.1423H67Z" fill="#5B5B5B"/>
<path d="M82.001 53.3057V14.1423H77.001V53.3057H82.001Z" fill="#FEFEFE"/>
<path d="M111 14.1423L110.157 18.3383H100.513V53.3057H95.8315V18.3383H86L86.8427 14.1423H111Z" fill="#FEFEFE"/>
<path d="M125.791 35.5223H134.929C133.903 31.5259 132.598 26.6305 130.36 18.2385C128.309 26.0311 127.003 31.0267 125.791 35.5223ZM136.141 40.1181H124.672V39.9182C123.646 43.7148 122.62 47.7109 121.129 53.3057H116L127.003 14.1423H133.997L145 53.3057H139.591C138.006 47.3114 137.074 43.6147 136.141 40.1181Z" fill="#5B5B5B"/>
<path fill-rule="evenodd" clip-rule="evenodd" d="M164 14.1423H159.825L146 53.3057H150.268L164 14.1423Z" fill="#4B75A4"/>
<path fill-rule="evenodd" clip-rule="evenodd" d="M166 48.7122L183.5 36.1531L166 21.9994V16.318L187 34.0601V38.7448L166 54.3936V48.7122Z" fill="#4B75A4"/>
</svg>
