<svg width="120" height="41" viewBox="0 0 120 41" fill="none" xmlns="http://www.w3.org/2000/svg">
<g clip-path="url(#clip0_402_2572)">
<mask id="mask0_402_2572" style="mask-type:luminance" maskUnits="userSpaceOnUse" x="0" y="0" width="120" height="41">
<path d="M120 0H0V41H120V0Z" fill="white"/>
</mask>
<g mask="url(#mask0_402_2572)">
<path d="M45.3871 14.8554V3.74353H49.3461C50.1351 3.74353 50.7856 3.87736 51.298 4.14504C51.8105 4.40909 52.1919 4.76538 52.4426 5.21391C52.6933 5.65882 52.8186 6.15258 52.8186 6.69514C52.8186 7.1726 52.7319 7.56685 52.5587 7.87795C52.3892 8.18904 52.1643 8.43505 51.8841 8.61588C51.6077 8.79671 51.3072 8.93057 50.9829 9.01739V9.12586C51.3294 9.14758 51.6777 9.26691 52.0279 9.48393C52.3781 9.70101 52.6711 10.0121 52.907 10.4171C53.143 10.8223 53.2609 11.3178 53.2609 11.9039C53.2609 12.4609 53.1319 12.9619 52.8739 13.4068C52.6158 13.8517 52.2085 14.2044 51.6519 14.4648C51.0953 14.7252 50.3709 14.8554 49.4789 14.8554H45.3871ZM46.7584 13.6618H49.4789C50.3746 13.6618 51.0105 13.4918 51.3865 13.1518C51.7661 12.8082 51.956 12.3922 51.956 11.9039C51.956 11.5277 51.8583 11.1805 51.663 10.8621C51.4676 10.5401 51.1893 10.2834 50.828 10.0917C50.4668 9.8963 50.0392 9.79869 49.5453 9.79869H46.7584V13.6618ZM46.7584 8.62667H49.3019C49.7148 8.62667 50.087 8.54711 50.4189 8.38793C50.7543 8.22882 51.0197 8.00454 51.215 7.71517C51.4142 7.4258 51.5137 7.08579 51.5137 6.69514C51.5137 6.2068 51.3404 5.79265 50.9939 5.45263C50.6474 5.10901 50.0982 4.93719 49.3461 4.93719H46.7584V8.62667Z" fill="black"/>
<path d="M55.337 14.8553V6.52135H56.6422V14.8553H55.337ZM56.0006 5.13235C55.7463 5.13235 55.5271 5.04735 55.3425 4.87735C55.1622 4.70734 55.0718 4.50297 55.0718 4.26424C55.0718 4.0255 55.1622 3.82113 55.3425 3.65112C55.5271 3.48113 55.7463 3.39612 56.0006 3.39612C56.2548 3.39612 56.4723 3.48113 56.6532 3.65112C56.8373 3.82113 56.9299 4.0255 56.9299 4.26424C56.9299 4.50297 56.8373 4.70734 56.6532 4.87735C56.4723 5.04735 56.2548 5.13235 56.0006 5.13235Z" fill="black"/>
<path d="M64.7161 10.1022V11.2959H60.0274V10.1022H64.7161ZM60.3369 6.52124V14.8552H59.0323V6.52124H60.3369ZM65.7117 6.52124V14.8552H64.4065V6.52124H65.7117Z" fill="black"/>
<path d="M73.7791 10.1022V11.2959H69.0898V10.1022H73.7791ZM69.3994 6.52124V14.8552H68.0947V6.52124H69.3994ZM74.7743 6.52124V14.8552H73.4687V6.52124H74.7743Z" fill="black"/>
<path d="M78.4627 12.967L82.5542 6.52124H84.0582V14.8552H82.7526V8.40935L78.6833 14.8552H77.1571V6.52124H78.4627V12.967Z" fill="black"/>
<path d="M93.1279 6.52124V13.6615H94.3214V17.5464H93.0172V14.8552H86.4481V6.52124H87.753V13.6615H91.8223V6.52124H93.1279Z" fill="black"/>
<path d="M97.4594 9.53793H99.8924C100.888 9.53793 101.649 9.78573 102.177 10.2813C102.703 10.7769 102.967 11.4044 102.967 12.164C102.967 12.6632 102.849 13.1172 102.613 13.5259C102.377 13.931 102.031 14.2547 101.574 14.4971C101.117 14.7359 100.556 14.8552 99.8924 14.8552H96.3312V6.52124H97.6369V13.6615H99.8924C100.409 13.6615 100.833 13.5277 101.164 13.26C101.496 12.9924 101.662 12.6488 101.662 12.2291C101.662 11.7878 101.496 11.4279 101.164 11.1494C100.833 10.8709 100.409 10.7316 99.8924 10.7316H97.4594V9.53793Z" fill="black"/>
<path d="M104.953 14.8552V6.52124H106.258V10.1457H107.121L110.173 6.52124H111.854L108.426 10.5363L111.898 14.8552H110.218L107.431 11.3393H106.258V14.8552H104.953Z" fill="black"/>
<path d="M115.816 15.0505C115.278 15.0505 114.789 14.951 114.351 14.7521C113.912 14.5495 113.563 14.2584 113.305 13.8785C113.047 13.4951 112.919 13.0321 112.919 12.4896C112.919 12.012 113.014 11.6251 113.206 11.3285C113.398 11.0283 113.654 10.7931 113.974 10.6231C114.295 10.4531 114.65 10.3265 115.036 10.2433C115.427 10.1565 115.819 10.0878 116.214 10.0371C116.73 9.97204 117.149 9.9232 117.469 9.89061C117.793 9.85443 118.03 9.7948 118.177 9.71158C118.328 9.62836 118.403 9.48371 118.403 9.27755V9.23411C118.403 8.69881 118.254 8.28284 117.956 7.9862C117.661 7.68956 117.213 7.54124 116.612 7.54124C115.989 7.54124 115.501 7.6751 115.147 7.94275C114.793 8.2104 114.544 8.49618 114.4 8.80008L113.161 8.36599C113.383 7.8596 113.678 7.46536 114.047 7.1832C114.419 6.8974 114.824 6.69847 115.263 6.58634C115.705 6.47062 116.14 6.41272 116.567 6.41272C116.84 6.41272 117.154 6.44525 117.508 6.51036C117.865 6.57186 118.21 6.70027 118.542 6.89559C118.877 7.09092 119.156 7.38573 119.376 7.77998C119.598 8.1743 119.708 8.7024 119.708 9.36437V14.8551H118.403V13.7266H118.337C118.249 13.9075 118.102 14.101 117.895 14.3072C117.688 14.5133 117.414 14.6888 117.07 14.8335C116.728 14.9781 116.309 15.0505 115.816 15.0505ZM116.015 13.9003C116.531 13.9003 116.966 13.8008 117.32 13.6018C117.677 13.4029 117.946 13.1461 118.127 12.8313C118.311 12.5167 118.403 12.1857 118.403 11.8385V10.6665C118.348 10.7316 118.227 10.7913 118.038 10.8456C117.854 10.8962 117.64 10.9414 117.397 10.9812C117.157 11.0173 116.923 11.0499 116.695 11.0788C116.47 11.1041 116.288 11.1259 116.147 11.144C115.808 11.1874 115.492 11.2579 115.196 11.3556C114.905 11.4496 114.67 11.5925 114.489 11.7842C114.312 11.9723 114.223 12.2291 114.223 12.5547C114.223 12.9996 114.391 13.336 114.726 13.5639C115.066 13.7881 115.495 13.9003 116.015 13.9003Z" fill="black"/>
<path d="M46.544 23.5615V34.9174H45.3871V23.5615H46.544Z" fill="black"/>
<path d="M48.341 24.7815V23.5615H55.5058V24.7815H52.5019V34.9174H51.3451V24.7815H48.341Z" fill="black"/>
<path d="M60.2718 28.6295V29.8494H56.0925V28.6295H60.2718Z" fill="black"/>
<path d="M62.7501 34.9174H61.5369L65.0449 23.5615H66.2388L69.7468 34.9174H68.5342L65.6794 25.358H65.6049L62.7501 34.9174ZM63.1977 30.4815H68.0866V31.7014H63.1977V30.4815Z" fill="black"/>
<path d="M71.0855 34.9174V26.4005H72.1861V30.1045H72.914L75.4894 26.4005H76.9071L74.0149 30.5037L76.9445 34.9174H75.5267L73.1756 31.3243H72.1861V34.9174H71.0855Z" fill="black"/>
<path d="M80.2491 35.1168C79.795 35.1168 79.3832 35.0152 79.0132 34.8118C78.6431 34.6049 78.3492 34.3072 78.1315 33.9191C77.9138 33.5273 77.8046 33.0541 77.8046 32.4996C77.8046 32.0117 77.8858 31.6162 78.0474 31.3131C78.2091 31.0062 78.4254 30.766 78.6956 30.5923C78.9665 30.4186 79.2654 30.2892 79.5916 30.2041C79.9207 30.1154 80.2527 30.0452 80.5854 29.9934C81.0201 29.9268 81.3737 29.8769 81.6439 29.8437C81.9176 29.8067 82.1167 29.7457 82.241 29.6607C82.3689 29.5757 82.4321 29.4279 82.4321 29.2171V29.1728C82.4321 28.6257 82.3064 28.2006 82.0541 27.8975C81.8055 27.5943 81.4276 27.4428 80.921 27.4428C80.3957 27.4428 79.9832 27.5796 79.685 27.8531C79.3861 28.1267 79.1763 28.4187 79.0556 28.7291L78.0101 28.2856C78.1969 27.7681 78.4455 27.3652 78.7567 27.0768C79.0707 26.7848 79.4127 26.5815 79.7828 26.4669C80.1564 26.3486 80.5229 26.2894 80.8836 26.2894C81.1143 26.2894 81.378 26.3227 81.6769 26.3893C81.978 26.4521 82.269 26.5833 82.5492 26.783C82.8316 26.9825 83.0666 27.2839 83.2534 27.6868C83.4403 28.0897 83.533 28.6294 83.533 29.3059V34.9172H82.4321V33.7639H82.3761C82.3021 33.9487 82.1777 34.1465 82.0031 34.3572C81.8292 34.5679 81.5971 34.7472 81.3076 34.895C81.0194 35.0429 80.6659 35.1168 80.2491 35.1168ZM80.4173 33.9413C80.8527 33.9413 81.2199 33.8397 81.5181 33.6363C81.8199 33.433 82.0462 33.1706 82.1986 32.8489C82.3545 32.5274 82.4321 32.1891 82.4321 31.8343V30.6366C82.3854 30.7031 82.2834 30.7641 82.1246 30.8196C81.9686 30.8714 81.7883 30.9175 81.5835 30.9582C81.3816 30.9952 81.1832 31.0285 80.9907 31.058C80.801 31.0839 80.6472 31.1061 80.5294 31.1246C80.2434 31.1689 79.9761 31.241 79.7267 31.3408C79.481 31.4369 79.2819 31.583 79.1296 31.7788C78.9801 31.9711 78.9054 32.2335 78.9054 32.5662C78.9054 33.0209 79.047 33.3647 79.3301 33.5975C79.6161 33.8267 79.9789 33.9413 80.4173 33.9413Z" fill="black"/>
<path d="M84.7775 37.3571V33.6975H85.3746C85.5205 33.5164 85.6462 33.3205 85.7526 33.1098C85.8582 32.899 85.9494 32.6496 86.027 32.3612C86.1082 32.0692 86.1772 31.7143 86.2326 31.2966C86.2886 30.8752 86.3389 30.3669 86.382 29.7718L86.6249 26.4005H91.1777V33.6975H92.2785V37.3571H91.1777V34.9174H85.8783V37.3571H84.7775ZM86.6249 33.6975H90.0769V27.6204H87.651L87.4642 29.7718C87.3866 30.6626 87.2896 31.4407 87.1746 32.1061C87.0596 32.7715 86.8764 33.302 86.6249 33.6975Z" fill="black"/>
<path d="M96.7437 35.0946C96.0531 35.0946 95.4574 34.9135 94.9566 34.5512C94.4594 34.1853 94.0749 33.6751 93.804 33.0209C93.5367 32.3629 93.4031 31.5977 93.4031 30.7253C93.4031 29.853 93.5367 29.084 93.804 28.4187C94.0749 27.7496 94.4515 27.2284 94.9336 26.855C95.4186 26.478 95.9849 26.2894 96.6309 26.2894C97.0045 26.2894 97.3731 26.3634 97.7367 26.5113C98.101 26.6591 98.4316 26.8994 98.7305 27.2321C99.0287 27.5611 99.2666 27.9973 99.444 28.5407C99.6215 29.084 99.7099 29.7531 99.7099 30.5479V31.1023H94.187V29.9712H98.5904C98.5904 29.4907 98.5092 29.0619 98.3482 28.6848C98.1894 28.3078 97.9624 28.0102 97.667 27.7921C97.3746 27.574 97.0297 27.465 96.6309 27.465C96.1925 27.465 95.8139 27.5943 95.4934 27.8531C95.1758 28.1082 94.9322 28.4408 94.7612 28.8512C94.5894 29.2615 94.5039 29.7013 94.5039 30.1708V30.9249C94.5039 31.5681 94.5981 32.1134 94.7842 32.5606C94.9739 33.0043 95.2369 33.3425 95.5724 33.5753C95.9087 33.8045 96.2989 33.9191 96.7437 33.9191C97.0325 33.9191 97.2934 33.871 97.5269 33.775C97.7633 33.6751 97.9674 33.5273 98.1377 33.3314C98.3087 33.1318 98.4409 32.8841 98.5351 32.5884L99.5985 32.9432C99.4857 33.3721 99.2982 33.7491 99.033 34.0744C98.7693 34.396 98.4424 34.6473 98.0543 34.8285C97.6649 35.006 97.2287 35.0946 96.7437 35.0946Z" fill="black"/>
<path d="M105.303 33.143L107.803 26.4005H108.849L105.751 34.9174H104.856L101.814 26.4005H102.84L105.303 33.143ZM102.486 26.4005V34.9174H101.385V26.4005H102.486ZM108.121 34.9174V26.4005H109.222V34.9174H108.121Z" fill="black"/>
<path d="M111.236 34.9173V26.4005H112.337V34.9173H111.236ZM111.796 24.981C111.581 24.981 111.397 24.8941 111.241 24.7204C111.088 24.5467 111.012 24.3378 111.012 24.0938C111.012 23.8499 111.088 23.641 111.241 23.4673C111.397 23.2936 111.581 23.2067 111.796 23.2067C112.01 23.2067 112.194 23.2936 112.347 23.4673C112.502 23.641 112.579 23.8499 112.579 24.0938C112.579 24.3378 112.502 24.5467 112.347 24.7204C112.194 24.8941 112.01 24.981 111.796 24.981Z" fill="black"/>
<path d="M118.663 34.9174V27.5982H116.761C116.331 27.5982 115.994 27.7165 115.748 27.953C115.503 28.1897 115.38 28.515 115.38 28.929C115.38 29.3356 115.49 29.6553 115.711 29.8882C115.935 30.1211 116.241 30.2375 116.63 30.2375H118.944V31.4574H116.63C116.145 31.4574 115.727 31.3558 115.375 31.1524C115.023 30.9491 114.753 30.659 114.563 30.2819C114.374 29.9012 114.279 29.4502 114.279 28.929C114.279 28.404 114.378 27.953 114.578 27.5761C114.777 27.199 115.061 26.9088 115.431 26.7055C115.804 26.5022 116.247 26.4005 116.761 26.4005H119.708V34.9174H118.663ZM113.887 34.9174L115.921 30.6811H117.115L115.081 34.9174H113.887Z" fill="black"/>
<path d="M0 6.30771C0 2.82404 2.83066 0 6.32247 0H34.7734C38.2653 0 41.0959 2.82405 41.0959 6.30771V34.6923C41.0959 38.176 38.2653 41 34.7734 41H6.32247C2.83065 41 0 38.176 0 34.6923V6.30771Z" fill="url(#paint0_linear_402_2572)"/>
<path d="M19.2011 4.91266C17.9205 5.52217 17.6233 7.09614 18.6142 8.06048C19.0258 8.45401 19.3765 8.58521 20.032 8.58521H20.5885L22.9744 11.0001L25.3526 13.4073V15.9765C25.3526 18.052 25.3755 18.5842 25.4593 18.754C25.5202 18.8697 25.7718 19.1629 26.0234 19.4176L26.4807 19.865L26.4426 20.3202C26.3664 21.1072 26.8009 21.8788 27.5174 22.2645C28.1805 22.6194 29.1639 22.4265 29.7203 21.8402C30.0252 21.5238 30.3073 20.8757 30.2997 20.5054C30.292 19.8573 29.8651 19.1552 29.2553 18.7926C28.9428 18.6074 28.8133 18.5766 28.2873 18.5766C27.7003 18.5766 27.6698 18.5689 27.3954 18.2988L27.1058 18.021V15.367V12.7206L24.4455 10.0125L21.7852 7.31213L21.8233 6.8878C21.8996 6.00827 21.5413 5.36015 20.7714 4.96668C20.1845 4.66578 19.7576 4.65806 19.2011 4.91266ZM20.2378 6.51749C20.3445 6.70264 20.3445 6.73347 20.215 6.88009C19.8719 7.26588 19.3231 6.84921 19.6127 6.43259C19.7728 6.20113 20.0929 6.24744 20.2378 6.51749ZM28.615 20.2508C28.7293 20.3511 28.737 20.6365 28.615 20.76C28.5617 20.814 28.4321 20.8526 28.3254 20.8526C27.9595 20.8526 27.8147 20.5054 28.0739 20.2199C28.2034 20.081 28.4092 20.0887 28.615 20.2508Z" fill="white"/>
<path d="M12.7823 4.96727C12.4546 5.09843 11.9363 5.5768 11.7685 5.90852C11.5322 6.35602 11.5322 7.1816 11.7609 7.62907C12.1497 8.3775 12.9576 8.80951 13.7427 8.70147L14.1087 8.65522L17.0662 11.6102L20.0238 14.5651L20.0162 15.0975V15.6222L19.6656 15.9385C18.5679 16.9184 18.7813 18.5 20.1152 19.2098C20.4736 19.4027 21.2662 19.3795 21.6551 19.179C22.3716 18.8009 22.7527 18.1837 22.7603 17.4121C22.7603 16.8335 22.4935 16.2471 22.0666 15.8999L21.7694 15.6608V14.9355C21.7694 14.4957 21.7312 14.1177 21.6627 13.9634C21.6017 13.8245 20.2373 12.3817 18.4612 10.5918L15.3664 7.46709L15.4121 7.03498C15.4503 6.71868 15.4273 6.48722 15.3283 6.20175C15.1605 5.69253 14.6118 5.10614 14.1773 4.97499C13.8038 4.86697 13.0415 4.85926 12.7823 4.96727ZM13.7657 6.53347C13.9028 6.71092 13.8267 6.98868 13.598 7.11211C13.415 7.22015 13.3845 7.22015 13.2397 7.08899C13.0643 6.92696 13.0339 6.6569 13.1711 6.51805C13.3007 6.38691 13.6513 6.40232 13.7657 6.53347ZM21.0224 17.0881C21.2968 17.3196 21.2205 17.767 20.9004 17.767C20.5726 17.767 20.4736 17.6899 20.4736 17.4121C20.4736 17.0573 20.7632 16.8875 21.0224 17.0881Z" fill="white"/>
<path d="M26.8946 5.84675C25.9799 6.24795 25.4768 7.29726 25.7665 8.18451C26.1019 9.20289 27.1538 9.78934 28.1523 9.50385C28.4268 9.43444 28.6326 9.28777 28.9604 8.95603L29.4101 8.50856H30.4163H31.4225L33.0003 10.1056L34.5782 11.695V12.5205V13.3538L34.3114 13.5544C33.9912 13.8013 33.7017 14.295 33.595 14.758C33.4272 15.5141 33.8388 16.3706 34.5782 16.7949C35.5082 17.3195 36.7049 16.9569 37.2233 15.977C37.3147 15.7996 37.3529 15.5526 37.3605 15.1437C37.3605 14.4417 37.1623 13.9864 36.6668 13.5698L36.3391 13.2921L36.3467 12.1656L36.3543 11.0392L35.9808 10.6534C35.775 10.4374 34.8527 9.50385 33.9303 8.57804C32.665 7.29726 32.1924 6.86519 31.9865 6.81118C31.8417 6.77259 31.2014 6.73399 30.5611 6.73399H29.4025L28.9985 6.32508C28.7393 6.0705 28.4725 5.88535 28.2744 5.82363C27.8627 5.70013 27.2071 5.70785 26.8946 5.84675ZM27.9161 7.46694C28.1295 7.79106 27.6645 8.21537 27.3672 7.96851C27.2377 7.85277 27.2301 7.49017 27.352 7.36667C27.4893 7.22777 27.7941 7.28179 27.9161 7.46694ZM35.7216 14.8351C35.996 15.1129 35.836 15.4832 35.4624 15.4369C34.9594 15.3829 35.0051 14.7734 35.5158 14.6885C35.5463 14.6885 35.6378 14.7503 35.7216 14.8351Z" fill="white"/>
<path d="M7.08273 6.52534C6.67112 6.67966 6.2366 7.06544 6.01555 7.46664C5.8326 7.79838 5.80213 7.93728 5.80213 8.44647V9.04823L3.7059 11.1699L1.60969 13.2917L1.58683 15.8995C1.57158 17.3268 1.58683 18.5845 1.60969 18.6925C1.66305 18.9085 3.3324 20.6522 3.64493 20.8219C3.81262 20.9068 4.38432 20.93 6.65583 20.93H9.46095L11.0007 22.4885L12.5481 24.0547L15.8181 24.0932L19.0959 24.1318L19.3704 24.4558C19.5152 24.6333 19.8277 24.8724 20.064 24.9882C21.2988 25.5977 22.7624 24.6179 22.7624 23.1751C22.7624 22.4498 22.1678 21.6398 21.4742 21.4006C20.75 21.1537 19.9344 21.3851 19.4161 21.9869L19.1188 22.3264L16.2146 22.3418L13.3104 22.3573L11.7477 20.7756L10.1851 19.1939L7.26567 19.1708L4.35383 19.1477L3.84311 18.6307L3.32478 18.1215V16.0692V14.0247L5.20756 12.119L7.08273 10.221L7.4867 10.2595C8.1194 10.329 8.55384 10.167 9.01882 9.69639C9.81161 8.89401 9.79638 7.69041 8.9655 6.942C8.4319 6.45591 7.7078 6.29388 7.08273 6.52534ZM7.9593 8.06071C8.08886 8.19183 8.07362 8.43107 7.92122 8.60076C7.76874 8.77051 7.60864 8.77828 7.42577 8.60852C7.27329 8.46963 7.25044 8.33073 7.36476 8.11473C7.45623 7.94497 7.81444 7.91411 7.9593 8.06071ZM21.1693 23.0594C21.2226 23.2137 21.215 23.3062 21.1235 23.4451C20.9253 23.7615 20.4756 23.6304 20.4756 23.26C20.4756 22.9822 20.6052 22.8588 20.872 22.8588C21.0397 22.8588 21.1083 22.9051 21.1693 23.0594Z" fill="white"/>
<path d="M9.15614 11.5329C8.56922 11.7413 8.03569 12.3662 7.89082 13.022C7.76127 13.6238 7.95183 14.2024 8.47013 14.7271C8.9275 15.19 9.35432 15.3443 10.0023 15.2749L10.4291 15.2286L12.1671 16.9645L13.9051 18.7005L13.867 19.1479C13.7145 20.7913 15.4676 21.887 16.794 20.9842C17.8307 20.2821 17.9984 19.0014 17.1752 18.0987C16.733 17.6049 16.3367 17.4428 15.6658 17.466L15.1247 17.4815L13.3944 15.7301L11.664 13.9864L11.6945 13.4464C11.7174 13.0143 11.6945 12.8445 11.5573 12.5667C11.3515 12.1347 10.8255 11.6486 10.4291 11.5329C10.0709 11.4249 9.46872 11.4249 9.15614 11.5329ZM10.0633 13.1068C10.2234 13.2611 10.2157 13.3923 10.0404 13.6083C9.91847 13.7626 9.86508 13.778 9.68213 13.7163C9.29339 13.5775 9.36194 12.9834 9.7736 12.9834C9.86508 12.9834 10.0023 13.0374 10.0633 13.1068ZM16.0394 19.0939C16.1385 19.1943 16.1613 19.4566 16.0699 19.5955C15.9708 19.7575 15.6277 19.796 15.4906 19.6572C15.2314 19.3948 15.3839 19.0014 15.7497 19.0014C15.8565 19.0014 15.986 19.04 16.0394 19.0939Z" fill="white"/>
<path d="M34.6443 19.3484C34.2403 19.5567 33.8439 19.9887 33.6838 20.3745C33.5161 20.7757 33.5467 21.4624 33.7448 21.8867C33.8363 22.0873 34.065 22.3882 34.2555 22.5579L34.6062 22.8665L32.5786 24.9265C31.4657 26.0607 30.5129 27.0637 30.4671 27.1563C30.4214 27.2488 30.3833 27.4495 30.3833 27.5961C30.3833 27.7889 30.3376 27.8892 30.2309 27.951C30.147 27.9973 29.9412 28.2056 29.7811 28.4139C29.3771 28.9308 29.2552 29.4786 29.4228 30.0573C29.5524 30.5048 29.8497 30.9445 30.1699 31.1605C30.3528 31.2917 30.3833 31.3611 30.3833 31.6929C30.3833 32.0633 30.3604 32.1019 30.0478 32.3641C28.7292 33.4906 29.4686 35.6972 31.1913 35.7589C31.7934 35.7743 32.1899 35.62 32.5939 35.2111C32.9749 34.8254 33.2036 34.2776 33.2036 33.7838C33.196 33.2592 32.792 32.5185 32.3651 32.233C32.167 32.1019 32.1365 32.0324 32.1365 31.7238C32.1365 31.4074 32.167 31.3457 32.4414 31.122C32.6091 30.9908 32.8377 30.7131 32.9521 30.5125C33.1351 30.2116 33.1655 30.065 33.1655 29.6098C33.1579 28.9694 32.9673 28.5296 32.4947 28.0821L32.1823 27.789L34.2555 25.6904C35.4447 24.4791 36.3366 23.5224 36.3366 23.4375C36.3442 23.3526 36.3518 23.1906 36.3594 23.0748C36.367 22.936 36.4966 22.7586 36.7482 22.5193L37.1217 22.1644H40.689H41.0959V20.8837V20.0041H40.689H37.1217L36.8549 19.7264C36.4814 19.3252 36.085 19.1554 35.4904 19.1632C35.1169 19.1632 34.9111 19.2095 34.6443 19.3484ZM35.8106 20.8837C35.9097 21.0226 35.8792 21.1537 35.7191 21.3157C35.5362 21.5009 35.3913 21.5086 35.2313 21.3466C34.9415 21.0535 35.2465 20.5288 35.5972 20.714C35.6886 20.7603 35.7801 20.8374 35.8106 20.8837ZM31.5648 29.3397C31.7706 29.5635 31.641 29.9107 31.3513 29.9415C30.955 29.9879 30.772 29.6252 31.0464 29.3243C31.2065 29.1392 31.3895 29.1469 31.5648 29.3397ZM31.5266 33.5831C31.7325 33.7915 31.7173 34.0152 31.4886 34.1696C31.3132 34.2853 31.2827 34.2853 31.1074 34.1696C30.8635 34.0075 30.8559 33.7143 31.0846 33.5523C31.3056 33.398 31.3437 33.398 31.5266 33.5831Z" fill="white"/>
<path d="M8.56678 23.2754C8.04848 23.4142 7.55303 23.8309 7.31669 24.3015C7.03464 24.8724 7.01179 25.2043 7.20999 25.7366C7.41578 26.2844 7.65205 26.5775 8.11703 26.8553C8.41437 27.0328 8.55155 27.0636 9.06984 27.0636H9.67207L10.6325 28.0435C11.1585 28.5758 11.6692 29.0542 11.7606 29.1005C11.8674 29.1545 12.5 29.1854 13.4909 29.1854H15.0612L15.5034 29.6328C15.9836 30.1189 16.319 30.2655 16.944 30.2655C17.4395 30.2655 18.0341 29.9646 18.4 29.5248L18.6744 29.1854H21.1288H23.5833L23.7205 29.3937C23.8653 29.6251 24.2845 30.0341 24.3837 30.0341C24.4142 30.0341 24.437 30.7824 24.437 31.6928V33.3439L24.1702 33.56C23.0116 34.4858 23.1641 36.2064 24.4523 36.8544C25.4279 37.3482 26.5638 36.9162 27.0973 35.8437C27.448 35.1339 27.2116 34.1848 26.5409 33.6139L26.1902 33.3208V31.6928V30.0649L26.518 29.8334C27.1583 29.3705 27.4327 28.3752 27.1125 27.6269C26.518 26.2226 24.6961 25.9526 23.8273 27.1485L23.6367 27.4031L21.1441 27.4108H18.6438L18.2475 26.9942C17.8054 26.539 17.5005 26.4079 16.8525 26.4079C16.3418 26.4079 15.7625 26.6933 15.4423 27.0945L15.1908 27.4108H13.8493H12.5077L11.6845 26.5852L10.8612 25.7675L10.9145 25.4357C11.0289 24.6487 10.5791 23.8 9.86264 23.4451C9.33665 23.1982 9.00891 23.152 8.56678 23.2754ZM9.32141 25.0036C9.38242 25.266 9.26048 25.4357 8.97844 25.4665C8.71164 25.4974 8.53631 25.2737 8.62017 25.0113C8.72687 24.6796 9.23763 24.6718 9.32141 25.0036ZM17.1346 28.082C17.3023 28.2364 17.3099 28.3984 17.1422 28.5836C16.8906 28.869 16.5096 28.6838 16.5096 28.2826C16.5096 27.9663 16.8754 27.8429 17.1346 28.082ZM25.5499 28.082C25.7023 28.2904 25.6795 28.5527 25.4966 28.6453C25.2603 28.7764 24.9783 28.6761 24.9249 28.4446C24.8334 28.0666 25.3213 27.7811 25.5499 28.082ZM25.5118 34.8175C25.6795 34.9101 25.71 35.2727 25.5652 35.4194C25.3518 35.6354 24.8944 35.4348 24.8944 35.1262C24.8944 34.9564 25.0926 34.7404 25.245 34.7404C25.3136 34.7404 25.4279 34.779 25.5118 34.8175Z" fill="white"/>
</g>
</g>
<defs>
<linearGradient id="paint0_linear_402_2572" x1="6.18482e-07" y1="20.8868" x2="41.0959" y2="20.8868" gradientUnits="userSpaceOnUse">
<stop stop-color="#00C99F"/>
<stop offset="1" stop-color="#009ACB"/>
</linearGradient>
<clipPath id="clip0_402_2572">
<rect width="120" height="41" fill="white"/>
</clipPath>
</defs>
</svg>
