<svg width="120" height="36" viewBox="0 0 120 36" fill="none" xmlns="http://www.w3.org/2000/svg">
<g clip-path="url(#clip0_402_2574)">
<path fill-rule="evenodd" clip-rule="evenodd" d="M52.8917 9.30956L41.9735 8.58862L50.4651 11.4738L46.0977 12.9161L53.6191 15.0803L52.8917 9.30956Z" fill="#126B0E"/>
<path fill-rule="evenodd" clip-rule="evenodd" d="M56.2879 3.05859H39.3047L49.4233 5.19568L39.547 6.42483L51.5354 7.86717L56.2879 3.05859Z" fill="#914E27"/>
<path fill-rule="evenodd" clip-rule="evenodd" d="M52.7493 9.38574C60.08 9.76398 67.1679 10.1296 74.0214 10.483C73.4558 12.8441 72.5056 15.517 71.5916 17.7195C70.5121 20.3185 70.0991 22.9783 69.0726 25.4277C67.3949 25.1079 65.4893 26.1342 64.5368 27.3418C63.254 28.9683 63.0809 31.6697 63.0809 31.6697H57.5009C57.5009 31.6697 58.0489 27.0094 56.773 26.1398C55.1558 25.5409 54.0982 25.0088 52.1205 26.0537C51.9912 23.545 52.4368 20.621 52.3116 18.0879C52.3856 17.4535 52.4591 16.8181 52.5326 16.1827C52.4354 14.0854 52.5158 11.621 52.7493 9.38574ZM62.8256 12.4224C62.4875 12.6173 62.1163 12.4869 61.687 12.6225C60.9484 12.8553 59.8289 13.5931 59.3075 14.1578C58.9651 14.5286 57.8912 16.4857 57.6116 16.6166C56.3316 16.5717 53.7475 16.4805 53.7475 16.4805L53.6191 20.1292C53.6191 20.1292 56.0684 20.3648 56.9177 20.3704C57.1479 21.2316 57.3261 22.3275 57.7879 23.0181C59.2312 25.1785 62.5889 25.3683 64.6944 23.0358C65.0293 22.6641 66.0651 20.7547 66.3405 20.6196C67.3614 20.6463 68.3786 20.6734 69.3898 20.7C69.3977 20.6598 69.4051 20.6191 69.413 20.5785C69.4516 20.5799 69.4902 20.5808 69.5293 20.5817C69.7633 19.3278 70.2293 18.18 70.6651 17.0767C69.4619 17.0346 68.2516 16.9916 67.034 16.949C66.4982 14.7273 65.8823 12.5968 62.8256 12.4224Z" fill="#008400"/>
<path fill-rule="evenodd" clip-rule="evenodd" d="M57.9098 0.00231934C61.5902 0.275358 65.2084 0.543722 68.7646 0.80741C71.7312 1.02762 73.4191 0.596553 73.8088 3.05203C68.0163 2.64855 62.0563 2.23385 55.9247 1.80653C55.9326 1.76398 55.9405 1.72097 55.9479 1.67842C56.1191 1.49515 56.1614 1.13655 56.3409 0.926164C56.7409 0.460501 57.4014 0.332865 57.9098 0.00231934ZM54.8056 3.02959C59.8107 3.36294 64.7023 3.68881 69.4809 4.0072C70.7744 4.09323 74.1651 4.01375 74.7977 4.60939C76.087 5.14284 76.2763 7.34632 75.5381 9.21365C75.4619 9.20944 75.3856 9.2057 75.3098 9.20149C74.5135 9.62881 70.5628 9.06497 69.3712 8.99998C65.6116 8.79474 61.7828 8.58575 57.8837 8.37302C55.8777 8.26315 53.3628 8.35526 51.6023 7.90035C51.6181 7.81479 51.634 7.72876 51.6493 7.6432C51.1888 6.65764 52.486 4.47707 52.966 3.95016C53.4028 3.67479 53.8395 3.39941 54.2749 3.1245C54.5749 3.11889 54.6381 3.12357 54.8056 3.02959Z" fill="#643113"/>
<path fill-rule="evenodd" clip-rule="evenodd" d="M66.107 17.8952C66.0787 18.1299 66.0331 18.3665 65.9694 18.6082C65.7615 19.3839 65.3652 20.1885 64.7815 20.9295C64.7717 20.9384 64.7628 20.9496 64.754 20.9609C63.7117 22.269 62.3317 23.0811 61.0735 23.2532C60.3959 23.3457 59.7563 23.2532 59.2224 22.9539C59.4601 22.8053 59.7149 22.6131 59.9987 22.3793C60.468 21.9885 60.968 21.4966 61.3689 20.9884C61.5205 20.7953 61.6596 20.599 61.7745 20.4036C62.1935 19.6901 62.288 19.008 62.4061 18.3969C62.5256 17.7802 62.6549 17.2356 63.0624 16.6652C63.0824 16.6371 63.0977 16.6147 63.1112 16.5978C63.3768 16.2575 63.7377 16.0663 64.2312 15.8086C64.5326 15.6483 64.8801 15.4566 65.228 15.1784C65.7461 15.6244 66.041 16.2654 66.1173 17.0051C66.1466 17.2898 66.1433 17.589 66.107 17.8952ZM62.3354 16.0377C62.3066 16.077 62.2801 16.1135 62.2582 16.1448C61.7242 16.8886 61.5652 17.6152 61.4424 18.2473C61.321 18.8873 61.2312 19.4367 60.9252 19.9575C60.8373 20.1034 60.7256 20.2656 60.5959 20.4302C60.2535 20.865 59.7926 21.3209 59.3708 21.6748C58.9619 22.0273 58.5419 22.2849 58.4549 22.3017C58.4442 22.3031 58.4354 22.312 58.4252 22.3158C57.3531 21.0665 57.6121 18.7485 59.1289 16.8209C60.174 15.4949 61.568 14.6707 62.8373 14.4972C63.3768 14.4233 63.8968 14.4687 64.3554 14.6417C64.1675 14.766 63.9745 14.8736 63.774 14.982C63.308 15.2308 62.7721 15.4865 62.3354 16.0377Z" fill="#914E27"/>
<path fill-rule="evenodd" clip-rule="evenodd" d="M70.5911 31.0685C69.9548 33.7905 67.952 35.9972 66.1185 35.9972C65.9855 35.9972 65.8585 35.9827 65.7353 35.9598L65.7497 35.9972L56.0451 34.5535L63.766 33.0242C63.7316 32.4243 63.7879 31.7637 63.9506 31.0685C64.5869 28.3465 66.5897 26.1398 68.4232 26.1398C70.2572 26.1398 71.2278 28.3465 70.5911 31.0685ZM67.8432 28.5443C66.8311 28.5443 65.726 29.7819 65.3744 31.3088C65.0232 32.8358 65.559 34.0738 66.5711 34.0738C67.5837 34.0738 68.6888 32.8358 69.0399 31.3088C69.3911 29.7819 68.8558 28.5443 67.8432 28.5443ZM52.0469 35.9972C51.6465 35.9972 51.2902 35.8869 50.9799 35.6938L35.6655 34.3132L46.7544 33.1593L37.2497 33.0153L49.7906 31.5103C49.8158 31.3644 49.8437 31.2176 49.8785 31.0685C50.5148 28.3465 52.5176 26.1398 54.3516 26.1398C56.1851 26.1398 57.1562 28.3465 56.5195 31.0685C55.8832 33.7905 53.8804 35.9972 52.0469 35.9972ZM53.7716 28.5443C52.7595 28.5443 51.6539 29.7819 51.3032 31.3088C50.9516 32.8358 51.4874 34.0738 52.4995 34.0738C53.5116 34.0738 54.6167 32.8358 54.9683 31.3088C55.3195 29.7819 54.7837 28.5443 53.7716 28.5443Z" fill="#914E27"/>
<path fill-rule="evenodd" clip-rule="evenodd" d="M40.8321 20.6986L39.3577 29.0352H37.5126L37.52 28.2997H37.3967C37.0302 28.6102 36.6023 28.8514 36.1126 29.023C35.6228 29.1946 35.1326 29.2802 34.6405 29.2802C33.4265 29.2802 32.5581 28.9982 32.0349 28.4344C31.5116 27.8705 31.3814 26.8448 31.6447 25.3571C31.8991 23.919 32.386 22.9259 33.1065 22.378C33.8265 21.8305 34.793 21.5565 36.007 21.5565C36.6623 21.5565 37.4679 21.6388 38.4233 21.802L38.6186 20.6986C38.8033 19.6527 38.7121 18.9416 38.3437 18.5652C37.9753 18.1893 37.3242 18.0014 36.3898 18.0014H33.9298L34.1033 17.0205C34.52 16.8901 35.0153 16.7755 35.5907 16.6773C36.1656 16.5792 36.6823 16.5301 37.1419 16.5301C38.1912 16.5301 39.0112 16.6446 39.6023 16.8732C40.193 17.1028 40.5953 17.5152 40.8102 18.1117C41.0247 18.7088 41.0316 19.5704 40.8321 20.6986ZM36.4847 23.0278C35.7958 23.0278 35.2237 23.2036 34.7674 23.5552C34.3116 23.9068 34.0088 24.5076 33.8586 25.3571C33.6963 26.273 33.7805 26.9102 34.1102 27.2698C34.44 27.6293 34.9498 27.8093 35.6386 27.8093C35.934 27.8093 36.254 27.7602 36.5995 27.662C36.9447 27.5638 37.2274 27.4498 37.4474 27.3189L38.2065 23.0278H36.4847ZM23.8605 29.0352L22.7088 16.7755H24.7995L25.7786 26.9509H25.8772L30.4572 16.7755H32.5479L27.0586 29.0352H23.8605ZM19.187 29.0352H17.3419L17.3493 28.2997H17.2265C16.8595 28.6102 16.4316 28.8514 15.9419 29.023C15.4521 29.1946 14.9619 29.2802 14.4698 29.2802C13.2558 29.2802 12.3879 28.9982 11.8642 28.4344C11.3409 27.8705 11.2107 26.8448 11.474 25.3571C11.7284 23.919 12.2153 22.9259 12.9358 22.378C13.6558 21.8305 14.6223 21.5565 15.8363 21.5565C16.4916 21.5565 17.2977 21.6388 18.2526 21.802L18.4479 20.6986C18.6326 19.6527 18.5414 18.9416 18.173 18.5652C17.8047 18.1893 17.1535 18.0014 16.2191 18.0014H13.7591L13.933 17.0205C14.3493 16.8901 14.8451 16.7755 15.42 16.6773C15.9949 16.5792 16.5116 16.5301 16.9712 16.5301C18.0205 16.5301 18.8405 16.6446 19.4316 16.8732C20.0223 17.1028 20.4251 17.5152 20.6395 18.1117C20.854 18.7088 20.8609 19.5704 20.6619 20.6986L19.187 29.0352ZM16.314 23.0278C15.6251 23.0278 15.053 23.2036 14.5972 23.5552C14.1414 23.9068 13.8381 24.5076 13.6879 25.3571C13.526 26.273 13.6098 26.9102 13.94 27.2698C14.2693 27.6293 14.7791 27.8093 15.4679 27.8093C15.7633 27.8093 16.0833 27.7602 16.4288 27.662C16.774 27.5638 17.0567 27.4498 17.2767 27.3189L18.0358 23.0278H16.314ZM10.0856 29.0352H7.50233L3.73209 20.4531L2.21395 29.0352H0L3.03628 11.8716H5.25023L3.77535 20.2082L10.047 11.8716H12.6298L6.09023 20.3306L10.0856 29.0352Z" fill="#008400"/>
<path fill-rule="evenodd" clip-rule="evenodd" d="M119.726 22.9053L119.596 23.6407H113.2C113.012 24.7034 112.979 25.5375 113.102 26.1416C113.224 26.7466 113.513 27.1758 113.969 27.4292C114.424 27.6826 115.07 27.8093 115.906 27.8093H118.366L118.193 28.7897C117.776 28.9211 117.28 29.0351 116.706 29.1333C116.13 29.231 115.613 29.2801 115.154 29.2801C113.891 29.2801 112.92 29.088 112.243 28.7041C111.565 28.3203 111.135 27.6662 110.954 26.7424C110.773 25.819 110.827 24.5398 111.116 22.9053C111.399 21.3036 111.783 20.0365 112.268 19.1047C112.753 18.173 113.341 17.5109 114.034 17.1187C114.726 16.7264 115.565 16.53 116.548 16.53C117.533 16.53 118.301 16.7264 118.855 17.1187C119.409 17.5109 119.763 18.173 119.918 19.1047C120.073 20.0365 120.009 21.3036 119.726 22.9053ZM117.647 18.8719C117.379 18.2099 116.933 17.8789 116.31 17.8789C115.687 17.8789 115.124 18.2099 114.622 18.8719C114.119 19.5339 113.732 20.6331 113.46 22.1699H117.642C117.913 20.6331 117.916 19.5339 117.647 18.8719ZM102.898 29.0351L101.746 16.7755H103.837L104.817 26.9509H104.915L109.495 16.7755H111.586L106.096 29.0351H102.898ZM98.3604 15.0587L98.8372 12.362H101.051L100.574 15.0587H98.3604ZM98.1018 29.0351H95.8879L98.0567 16.7755H100.271L98.1018 29.0351ZM93.9181 18.6143C93.213 18.6143 92.6097 18.7779 92.1097 19.1047L90.353 29.0351H88.139L90.3079 16.7755H92.1776L92.1269 17.7559H92.2497C93.1525 17.1028 94.2274 16.7755 95.4739 16.7755H96.7037L96.3781 18.6143H93.9181ZM85.8646 25.7619C85.2111 27.0453 84.4111 27.9523 83.4646 28.4834C82.5176 29.0146 81.3558 29.2801 79.9781 29.2801C78.453 29.2801 77.1702 29.1165 76.1293 28.7897L79.0786 12.1165C80.2349 11.7897 81.5758 11.6261 83.1009 11.6261C84.4786 11.6261 85.5465 11.8921 86.3051 12.4232C87.0642 12.9544 87.5432 13.8618 87.7428 15.1447C87.9418 16.4281 87.8423 18.1973 87.4432 20.4531C87.0442 22.709 86.5176 24.4786 85.8646 25.7619ZM85.5586 16.0887C85.4511 15.0265 85.1646 14.2826 84.6986 13.8576C84.233 13.4326 83.6065 13.2199 82.8195 13.2199H81.0972L78.5381 27.6863H80.2604C81.0474 27.6863 81.7488 27.474 82.3656 27.0491C82.9818 26.6241 83.5316 25.8807 84.0149 24.8175C84.4976 23.7553 84.9028 22.3008 85.2297 20.4531C85.5563 18.6064 85.6656 17.1514 85.5586 16.0887Z" fill="#643113"/>
</g>
<defs>
<clipPath id="clip0_402_2574">
<rect width="120" height="36" fill="white"/>
</clipPath>
</defs>
</svg>
