<svg width="130" height="40" viewBox="0 0 130 40" fill="none" xmlns="http://www.w3.org/2000/svg">
<path fill-rule="evenodd" clip-rule="evenodd" d="M52.5043 0H75.4016C76.8686 0 78.1442 1.15189 78.1442 2.60691V36.436C78.1442 37.891 76.8686 39.0429 75.4016 39.0429H52.5043C51.0373 39.0429 49.7617 37.891 49.7617 36.436V2.60691C49.7617 1.15189 51.0373 0 52.5043 0Z" fill="#4B75A4"/>
<path d="M2.93197 8.79297V32.5353H0V8.79297H2.93197Z" fill="white"/>
<path d="M27.0258 8.79297V32.5353H21.7354L11.9834 12.0636C12.5571 18.8471 12.3658 25.7519 12.3658 32.5353H9.11523V8.79297H14.278L24.0937 29.3252C23.4564 22.6629 23.775 15.4554 23.775 8.79297H27.0258Z" fill="white"/>
<path d="M46.6564 8.79297L46.0191 11.3367H39.5177V32.5353H36.6496V11.3367H29.957L30.467 8.79297H46.6564Z" fill="white"/>
<path d="M56.5004 32.5353V8.79297H53.2637V32.5353H56.5004Z" fill="#FEFEFE"/>
<path d="M76.3005 8.79297L75.7294 11.3367H69.1924V32.5353H66.0193V11.3367H59.3555L59.9266 8.79297H76.3005Z" fill="#FEFEFE"/>
<path d="M87.13 21.7543H93.3764C92.6751 19.3316 91.7829 16.3638 90.2532 11.2762C88.8509 16.0004 87.9585 19.0289 87.13 21.7543ZM94.2048 24.5405H86.3652V24.4193C85.6639 26.7209 84.9628 29.1435 83.9431 32.5353H80.4375L87.9585 8.79297H92.7389L100.26 32.5353H96.5632C95.4797 28.9013 94.8423 26.6602 94.2048 24.5405Z" fill="white"/>
<path fill-rule="evenodd" clip-rule="evenodd" d="M113.346 8.61719H110.482L100.998 32.5354H103.926L113.346 8.61719Z" fill="#4B75A4"/>
<path fill-rule="evenodd" clip-rule="evenodd" d="M114.636 29.0972L126.769 21.4979L114.636 12.9338V9.49609L129.196 20.2315V23.0662L114.636 32.535V29.0972Z" fill="#4B75A4"/>
</svg>
