<svg width="50" height="50" viewBox="0 0 50 50" fill="none" xmlns="http://www.w3.org/2000/svg">
<g clip-path="url(#clip0_22_887)">
<path d="M42.3077 0H7.69231C3.44396 0 0 3.44396 0 7.69231V42.3077C0 46.556 3.44396 50 7.69231 50H42.3077C46.556 50 50 46.556 50 42.3077V7.69231C50 3.44396 46.556 0 42.3077 0Z" fill="url(#paint0_linear_22_887)"/>
<path d="M22.4407 6.7952C20.9308 7.51967 20.5803 9.39048 21.7487 10.5368C22.234 11.0045 22.6474 11.1604 23.4203 11.1604H24.0764L26.8893 14.0308L29.6934 16.892V19.9459C29.6934 22.4127 29.7204 23.0455 29.8192 23.2472C29.8911 23.3848 30.1877 23.7333 30.4842 24.036L31.0235 24.5678L30.9786 25.1088C30.8887 26.0442 31.401 26.9613 32.2458 27.4199C33.0277 27.8417 34.187 27.6124 34.8431 26.9155C35.2026 26.5395 35.5351 25.7691 35.5262 25.3289C35.5171 24.5587 35.0139 23.7241 34.2949 23.2931C33.9264 23.073 33.7736 23.0363 33.1535 23.0363C32.4615 23.0363 32.4255 23.0271 32.1019 22.7062L31.7605 22.3761V19.2213V16.0759L28.624 12.8569L25.4873 9.64721L25.5323 9.14287C25.6221 8.09742 25.1997 7.3271 24.292 6.8594C23.6 6.50174 23.0967 6.49257 22.4407 6.7952ZM23.663 8.70268C23.7888 8.92278 23.7888 8.95946 23.636 9.1337C23.2316 9.59223 22.5844 9.09702 22.926 8.60181C23.1147 8.32669 23.4922 8.38171 23.663 8.70268ZM33.5399 25.0263C33.6747 25.1456 33.6838 25.4849 33.5399 25.6316C33.477 25.6958 33.3242 25.7416 33.1985 25.7416C32.767 25.7416 32.5963 25.3289 32.9018 24.9896C33.0546 24.8246 33.2973 24.8337 33.5399 25.0263Z" fill="white"/>
<path d="M14.562 6.67037C14.1759 6.82561 13.5652 7.39175 13.3677 7.7844C13.0894 8.31403 13.0894 9.29109 13.3588 9.82067C13.8167 10.7064 14.7685 11.2178 15.6933 11.09L16.1244 11.0352L19.6083 14.5325L23.0922 18.0299L23.0832 18.6599V19.2809L22.6701 19.6553C21.3772 20.815 21.6286 22.6869 23.2 23.527C23.622 23.7553 24.5558 23.7279 25.0138 23.4905C25.8578 23.0431 26.3068 22.3125 26.3157 21.3993C26.3157 20.7145 26.0015 20.0205 25.4986 19.6096L25.1484 19.3265V18.4682C25.1484 17.9477 25.1035 17.5003 25.0227 17.3176C24.9509 17.1533 23.3436 15.4457 21.2515 13.3272L17.6059 9.62894L17.6598 9.1176C17.7047 8.7432 17.6777 8.46926 17.561 8.13139C17.3635 7.52872 16.717 6.83473 16.2051 6.6795C15.7651 6.55165 14.8673 6.54253 14.562 6.67037ZM15.7203 8.52405C15.8819 8.73407 15.7922 9.0628 15.5227 9.2089C15.3073 9.33675 15.2713 9.33675 15.1007 9.18151C14.8942 8.98975 14.8583 8.67015 15.02 8.50579C15.1726 8.35055 15.5856 8.36882 15.7203 8.52405ZM24.2685 21.0159C24.5917 21.2898 24.502 21.8194 24.1249 21.8194C23.7387 21.8194 23.622 21.7281 23.622 21.3993C23.622 20.9793 23.9632 20.7785 24.2685 21.0159Z" fill="white"/>
<path d="M31.7632 8.02315C30.6293 8.49038 30.0056 9.71231 30.3647 10.7456C30.7804 11.9316 32.0845 12.6145 33.3223 12.282C33.6624 12.2012 33.9175 12.0305 34.3239 11.6441L34.8814 11.123H36.1287H37.376L39.332 12.9829L41.2879 14.8338V15.7952V16.7656L40.9573 16.9992C40.5603 17.2867 40.2013 17.8617 40.069 18.4009C39.8611 19.2814 40.3714 20.2788 41.2879 20.7729C42.4407 21.3839 43.9243 20.9616 44.5668 19.8205C44.6802 19.6138 44.7274 19.3263 44.7369 18.8501C44.7369 18.0325 44.4912 17.5024 43.8771 17.0172L43.4707 16.6938L43.4801 15.3819L43.4896 14.0701L43.0266 13.6209C42.7715 13.3692 41.6281 12.282 40.4848 11.2038C38.9162 9.71231 38.3303 9.20917 38.0752 9.14628C37.8957 9.10136 37.102 9.05643 36.3082 9.05643H34.872L34.3711 8.58022C34.0498 8.28371 33.7192 8.06808 33.4735 7.99619C32.9632 7.85243 32.1506 7.86141 31.7632 8.02315ZM33.0294 9.91C33.294 10.2874 32.7175 10.7815 32.349 10.494C32.1884 10.3592 32.179 9.93692 32.3301 9.79317C32.5002 9.63144 32.8782 9.69433 33.0294 9.91ZM42.7053 18.4908C43.0455 18.8142 42.8471 19.2455 42.3841 19.1915C41.7604 19.1287 41.8171 18.4188 42.4502 18.32C42.488 18.32 42.6014 18.3919 42.7053 18.4908Z" fill="white"/>
<path d="M7.80964 8.01872C7.32382 8.2028 6.81101 8.66299 6.5501 9.14159C6.33418 9.53735 6.2982 9.70298 6.2982 10.3105V11.0284L3.82411 13.5594L1.35003 16.0905L1.32304 19.2013C1.30505 20.904 1.32304 22.4042 1.35003 22.5331C1.41301 22.7909 3.38328 24.8709 3.75214 25.0734C3.95007 25.1746 4.62482 25.2022 7.30583 25.2022H10.6166L12.434 27.0613L14.2602 28.9297L18.1198 28.9758L21.9884 29.0218L22.3122 29.4084C22.4832 29.62 22.852 29.9054 23.131 30.0434C24.5885 30.7705 26.3158 29.6016 26.3158 27.8805C26.3158 27.0154 25.6141 26.0489 24.7954 25.7637C23.9407 25.4691 22.978 25.7452 22.3663 26.4632L22.0154 26.8681L18.5876 26.8865L15.1599 26.9049L13.3156 25.0182L11.4713 23.1313L8.02556 23.1038L4.58883 23.0762L3.98606 22.4595L3.37428 21.852V19.4038V16.9648L5.59646 14.6914L7.80964 12.4273L8.28646 12.4734C9.03319 12.5562 9.546 12.3629 10.0948 11.8014C11.0304 10.8443 11.0124 9.4085 10.0318 8.51573C9.40205 7.9359 8.54736 7.74261 7.80964 8.01872ZM8.84426 9.85029C8.9972 10.0067 8.97921 10.292 8.79928 10.4945C8.61934 10.697 8.43041 10.7063 8.21449 10.5038C8.03456 10.3381 8.00757 10.1724 8.14252 9.91471C8.25048 9.71221 8.67332 9.67539 8.84426 9.85029ZM24.4355 27.7425C24.4985 27.9265 24.4894 28.037 24.3816 28.2027C24.1476 28.58 23.6167 28.4236 23.6167 27.9817C23.6167 27.6504 23.7697 27.5032 24.0846 27.5032C24.2825 27.5032 24.3635 27.5584 24.4355 27.7425Z" fill="white"/>
<path d="M10.7797 14.571C10.0737 14.8213 9.43188 15.572 9.25769 16.3599C9.10182 17.0829 9.33104 17.778 9.95447 18.4083C10.5046 18.9644 11.018 19.1498 11.7973 19.0663L12.3107 19.0108L14.4011 21.0963L16.4915 23.1817L16.4456 23.7193C16.2623 25.6936 18.371 27.0098 19.9662 25.9253C21.2131 25.0818 21.4149 23.5432 20.4247 22.4588C19.8929 21.8656 19.4161 21.671 18.6094 21.6988L17.9584 21.7173L15.8772 19.6133L13.796 17.5185L13.8326 16.8696C13.8601 16.3506 13.8326 16.1467 13.6676 15.813C13.42 15.2939 12.7874 14.71 12.3107 14.571C11.8799 14.4413 11.1555 14.4413 10.7797 14.571ZM11.8706 16.4618C12.0632 16.6472 12.054 16.8048 11.8431 17.0643C11.6965 17.2497 11.6323 17.2683 11.4123 17.194C10.9447 17.0272 11.0272 16.3136 11.5223 16.3136C11.6323 16.3136 11.7973 16.3785 11.8706 16.4618ZM19.0586 23.6544C19.1777 23.7749 19.2052 24.0901 19.0952 24.2569C18.9761 24.4515 18.5635 24.4979 18.3985 24.3311C18.0868 24.016 18.2701 23.5432 18.7101 23.5432C18.8385 23.5432 18.9944 23.5895 19.0586 23.6544Z" fill="white"/>
<path d="M40.8788 23.9047C40.37 24.1524 39.8707 24.6663 39.6692 25.125C39.4579 25.6021 39.4963 26.4187 39.7459 26.9233C39.8611 27.1618 40.1492 27.5196 40.3892 27.7214L40.8308 28.0885L38.2771 30.5382C36.8753 31.8869 35.6753 33.0796 35.6177 33.1897C35.5601 33.2998 35.5121 33.5384 35.5121 33.7127C35.5121 33.9421 35.4545 34.0613 35.3201 34.1348C35.2145 34.1898 34.9553 34.4375 34.7536 34.6853C34.2448 35.3 34.0912 35.9514 34.3024 36.6395C34.4656 37.1716 34.8401 37.6946 35.2432 37.9515C35.4737 38.1075 35.5121 38.1901 35.5121 38.5846C35.5121 39.025 35.4833 39.0709 35.0897 39.3829C33.4287 40.7224 34.36 43.3464 36.5298 43.4198C37.2882 43.4382 37.7875 43.2547 38.2963 42.7684C38.7763 42.3096 39.0643 41.6583 39.0643 41.0711C39.0547 40.4471 38.5459 39.5663 38.0082 39.2268C37.7586 39.0709 37.7203 38.9883 37.7203 38.6213C37.7203 38.2452 37.7586 38.1717 38.1043 37.9057C38.3154 37.7497 38.6035 37.4194 38.7475 37.1809C38.9779 36.8231 39.0163 36.6488 39.0163 36.1074C39.0067 35.3459 38.7667 34.8229 38.1715 34.2908L37.7778 33.9421L40.3892 31.4465C41.8869 30.0061 43.0102 28.8684 43.0102 28.7674C43.0198 28.6665 43.0294 28.4738 43.039 28.3363C43.0485 28.1711 43.2118 27.96 43.5286 27.6756L43.999 27.2536H48.4921H50V25.7434V24.6846H48.4921H43.999L43.663 24.3543C43.1926 23.8772 42.6933 23.6754 41.9445 23.6845C41.4741 23.6845 41.2149 23.7395 40.8788 23.9047ZM42.3478 25.7305C42.4726 25.8957 42.4341 26.0516 42.2326 26.2443C42.0021 26.4645 41.8197 26.4737 41.618 26.2811C41.2532 25.9324 41.6373 25.3085 42.0789 25.5287C42.1941 25.5838 42.3093 25.6755 42.3478 25.7305ZM37.0002 35.7863C37.2594 36.0523 37.0962 36.4652 36.7314 36.5019C36.2322 36.5569 36.0017 36.1258 36.3474 35.7679C36.5489 35.5477 36.7794 35.5569 37.0002 35.7863ZM36.9522 40.8325C37.2114 41.0802 37.1922 41.3463 36.9042 41.5298C36.6833 41.6674 36.645 41.6674 36.4241 41.5298C36.1169 41.3371 36.1074 40.9885 36.3953 40.7958C36.6737 40.6123 36.7218 40.6123 36.9522 40.8325Z" fill="white"/>
<path d="M9.73688 29.0225C9.09468 29.1809 8.48082 29.6559 8.18806 30.1925C7.83865 30.8435 7.81031 31.2217 8.05585 31.8287C8.31084 32.4533 8.60359 32.7876 9.17967 33.1042C9.54798 33.3066 9.71794 33.3418 10.3602 33.3418H11.1062L12.2961 34.459C12.9477 35.066 13.5805 35.6113 13.6938 35.6641C13.826 35.7258 14.6099 35.761 15.8376 35.761H17.783L18.3307 36.2712C18.9257 36.8254 19.3412 36.9925 20.1156 36.9925C20.7295 36.9925 21.4661 36.6494 21.9194 36.148L22.2594 35.761H25.3002H28.3412L28.5112 35.9985C28.6906 36.2624 29.2101 36.7286 29.3327 36.7286C29.3705 36.7286 29.3989 37.5819 29.3989 38.6199V40.5025L29.0683 40.7488C27.6329 41.8044 27.8218 43.7662 29.4177 44.505C30.6266 45.0681 32.0337 44.5754 32.6948 43.3527C33.1292 42.5434 32.8364 41.4613 32.0053 40.8104L31.571 40.4761V38.6199V36.7638L31.9771 36.4999C32.7703 35.972 33.1103 34.8373 32.7137 33.9839C31.9771 32.3829 29.72 32.075 28.6434 33.4386L28.4073 33.7288L25.3192 33.7377H22.2216L21.7305 33.2626C21.1827 32.7436 20.8051 32.594 20.0023 32.594C19.3696 32.594 18.6518 32.9195 18.2552 33.377L17.9435 33.7377H16.2814H14.6193L13.5994 32.7963L12.5795 31.8639L12.6455 31.4857C12.7872 30.5884 12.2301 29.6207 11.3423 29.2161C10.6907 28.9345 10.2846 28.8817 9.73688 29.0225ZM10.6718 30.993C10.7474 31.2921 10.5962 31.4857 10.2468 31.5209C9.9163 31.5561 9.69909 31.3009 9.80294 31.0018C9.93515 30.6236 10.5679 30.6147 10.6718 30.993ZM20.3517 34.503C20.5595 34.6789 20.5689 34.8637 20.3611 35.0748C20.0495 35.4003 19.5774 35.1891 19.5774 34.7317C19.5774 34.3711 20.0306 34.2303 20.3517 34.503ZM30.7777 34.503C30.9666 34.7405 30.9382 35.0396 30.7116 35.1452C30.4188 35.2947 30.0694 35.1804 30.0033 34.9164C29.89 34.4854 30.4944 34.1599 30.7777 34.503ZM30.7304 42.1827C30.9382 42.2883 30.976 42.7016 30.7966 42.8688C30.5322 43.1151 29.9655 42.8864 29.9655 42.5345C29.9655 42.3411 30.211 42.0947 30.4 42.0947C30.485 42.0947 30.6266 42.1387 30.7304 42.1827Z" fill="white"/>
</g>
<defs>
<linearGradient id="paint0_linear_22_887" x1="7.52485e-07" y1="25.4717" x2="50" y2="25.4717" gradientUnits="userSpaceOnUse">
<stop stop-color="#00C99F"/>
<stop offset="1" stop-color="#009ACB"/>
</linearGradient>
<clipPath id="clip0_22_887">
<rect width="50" height="50" fill="white"/>
</clipPath>
</defs>
</svg>
